<?xml version="1.0" encoding="utf-8"?>
<!-- Generator: Adobe Illustrator 17.1.0, SVG Export Plug-In . SVG Version: 6.00 Build 0)  -->
<!DOCTYPE svg PUBLIC "-//W3C//DTD SVG 1.1//EN" "http://www.w3.org/Graphics/SVG/1.1/DTD/svg11.dtd">
<svg version="1.1" id="Layer_1" xmlns="http://www.w3.org/2000/svg" xmlns:xlink="http://www.w3.org/1999/xlink" x="0px" y="0px"
     viewBox="0 0 59.3 59.3" enable-background="new 0 0 59.3 59.3" xml:space="preserve">
<g>
    <path fill="#4787ED" d="M29.5,8C16,8,5,19,5,32.5c0,5.9,2.1,11.3,5.6,15.6l-5.6,8L9,58.9l5.2-7.3C18.4,55,23.7,57,29.5,57
        c5.6,0,10.9-1.9,15.3-5.3l5.1,7.3l4.1-2.9l-5.6-8C52,43.7,54,38.3,54,32.5C54,19,43,8,29.5,8z M29.5,52.2
        c-10.9,0-19.7-8.8-19.7-19.7s8.8-19.7,19.7-19.7c10.9,0,19.7,8.8,19.7,19.7c0,5.3-2,10.2-5.8,13.9C39.7,50.1,34.8,52.2,29.5,52.2z"
        />
    <polygon fill="#4787ED" points="27,31.6 16.7,37.9 19.3,42.1 32,34.4 32,18 27,18     "/>
    <rect x="46" y="-0.6" transform="matrix(0.6247 -0.7809 0.7809 0.6247 11.1763 41.252)" fill="#4787ED" width="5" height="19.2"/>
    <rect x="0.9" y="6.5" transform="matrix(0.7809 -0.6247 0.6247 0.7809 -3.3214 8.5315)" fill="#4787ED" width="19.2" height="5"/>
</g>
</svg>
