<?xml version="1.0" encoding="utf-8"?>
<!-- Generator: Adobe Illustrator 19.0.0, SVG Export Plug-In . SVG Version: 6.00 Build 0)  -->
<svg version="1.1" id="Layer_1" xmlns="http://www.w3.org/2000/svg" xmlns:xlink="http://www.w3.org/1999/xlink" x="0px" y="0px"
	 viewBox="0 0 604 397" style="enable-background:new 0 0 604 397;" xml:space="preserve">
<style type="text/css">
	.st0{fill:#6BE005;}
	.st1{fill:#FF8E00;}
	.st2{fill:#48C606;}
	.st3{fill:#FFFFFF;}
</style>
<g id="XMLID_16_">
	<g>
		<path id="XMLID_15_" class="st0" d="M286.9,313.4c-1.2-12.7-1.9-25.6-1.9-38.8c0-13,0.7-25.7,1.8-38.2c2-30.8,24.5-56,54.1-62v0
			c51.9-10.9,112.8-18,178.4-19.9v0.1l0,0c40.9,0,74.6,30.7,79.4,70.3l0.2,0c2,16.1,3.1,32.7,3.1,49.8c0,17-1.1,33.6-3.1,49.6
			l-0.2,0c-4.8,39.6-38.5,70.3-79.4,70.3l0,0v0.1c-64.2-1.9-123.8-8.7-175-19.2C313.3,370.8,289.2,345.1,286.9,313.4z"/>
		<path id="XMLID_14_" class="st1" d="M353.4,179.7c1.4-14.1,2.1-28.6,2.1-43.3c0-14.5-0.7-28.7-2.1-42.6
			c-2.2-34.4-27.4-62.5-60.3-69.1v0C235.2,12.5,167.4,4.6,94.2,2.4v0.1l0,0C48.6,2.5,11,36.7,5.6,80.9l-0.2,0
			C3.2,98.8,2,117.4,2,136.4c0,18.9,1.2,37.4,3.4,55.3l0.2,0c5.3,44.2,42.9,78.4,88.5,78.4l0,0v0.1c71.6-2.1,138.1-9.7,195.1-21.4
			C323.9,243.7,350.8,215.1,353.4,179.7z"/>
		<path id="XMLID_13_" class="st2" d="M289.3,248.8c34.6-5.1,61.6-33.7,64.1-69.1c0.3-2.6,0.5-5.3,0.7-8c-4.4,0.9-8.8,1.7-13.2,2.6
			v0c-29.6,5.9-52.2,31.2-54.1,62c-0.4,4.3-0.7,8.7-1,13.1C286.9,249.2,288.1,249,289.3,248.8z"/>
		<g>
			<path class="st3" d="M174.9,137.4c0.1,1.2,0.1,2.8,0.1,4.8c0,1.9,0,3.5-0.1,4.8c-0.2,4-1.1,7.7-2.7,11.1
				c-1.7,3.5-3.9,6.5-6.8,9.1c-2.9,2.6-6.4,4.6-10.5,6.1s-8.6,2.2-13.7,2.2c-5,0-9.6-0.7-13.7-2.2c-4.1-1.5-7.6-3.5-10.5-6.1
				c-2.9-2.6-5.2-5.6-6.8-9.1c-1.7-3.5-2.6-7.2-2.7-11.1c-0.1-1.2-0.1-2.8-0.1-4.8c0-1.9,0-3.5,0.1-4.8c0.1-4,0.9-7.7,2.6-11.1
				c1.6-3.5,3.9-6.5,6.9-9.1c2.9-2.6,6.4-4.7,10.5-6.2c4.1-1.5,8.6-2.3,13.7-2.3c5,0,9.6,0.8,13.7,2.3c4.1,1.5,7.6,3.6,10.5,6.2
				c2.9,2.6,5.2,5.6,6.8,9.1S174.7,133.4,174.9,137.4z M129.8,146.3c0.2,3.1,1.4,5.6,3.4,7.4c2,1.8,4.7,2.7,8,2.7c3.3,0,6-0.9,8-2.7
				c2-1.8,3.2-4.2,3.4-7.4c0.2-1.2,0.2-2.6,0.2-4.2c0-1.6-0.1-3-0.2-4.2c-0.2-3.1-1.4-5.6-3.4-7.4c-2-1.8-4.7-2.7-8-2.7
				c-3.3,0-6,0.9-8,2.7c-2,1.8-3.2,4.2-3.4,7.4c-0.2,1.2-0.2,2.6-0.2,4.2C129.6,143.7,129.6,145.1,129.8,146.3z"/>
			<path id="XMLID_10_" class="st3" d="M204.7,109.9h-15.6c-0.9,0-1.7,0.3-2.4,1c-0.7,0.7-1,1.4-1,2.4V171c0,0.9,0.3,1.7,1,2.4
				c0.7,0.7,1.4,1,2.4,1h15.6c0.9,0,1.7-0.3,2.4-1c0.7-0.7,1-1.4,1-2.4v-57.7c0-0.9-0.3-1.7-1-2.4
				C206.4,110.3,205.6,109.9,204.7,109.9z"/>
			<path class="st3" d="M287.6,171c0,0.9-0.3,1.7-1,2.4c-0.7,0.7-1.4,1-2.4,1h-15.6c-0.9,0-1.7-0.3-2.4-1c-0.7-0.7-1-1.4-1-2.4
				v-31.3c0-3.5-0.9-6.4-2.6-8.5c-1.7-2.1-4.5-3.2-8.2-3.2c-3.7,0-6.4,1.1-8.1,3.2c-1.7,2.1-2.5,5-2.5,8.5V171c0,0.9-0.3,1.7-1,2.4
				c-0.7,0.7-1.4,1-2.4,1h-15.6c-0.9,0-1.7-0.3-2.4-1c-0.7-0.7-1-1.4-1-2.4v-57.7c0-0.9,0.3-1.7,1-2.4c0.7-0.7,1.4-1,2.4-1h15
				c0.9,0,1.7,0.3,2.4,1c0.7,0.7,1,1.4,1,2.4v2.8c0.7-0.8,1.5-1.7,2.5-2.6c1-0.9,2.2-1.7,3.6-2.4c1.4-0.7,3-1.3,4.9-1.7
				c1.9-0.5,4-0.7,6.5-0.7c4,0,7.6,0.6,10.9,1.7c3.3,1.1,6.1,2.8,8.5,5.1c2.4,2.3,4.2,5.2,5.5,8.8c1.3,3.5,2,7.8,2,12.6V171z"/>
			<path id="XMLID_8_" class="st3" d="M208.6,89.1c-0.2-3-1.3-5.3-3.4-6.8c-2-1.5-4.8-2.3-8.4-2.3c-3.5,0-6.3,0.8-8.4,2.3
				c-2,1.5-3.2,3.8-3.4,6.8c-0.1,1.3-0.1,2.5,0,3.8c0.4,6,4.3,9.1,11.8,9.1c7.4,0,11.4-3,11.8-9.1C208.7,91.6,208.7,90.3,208.6,89.1
				z"/>
			<g>
				<path id="XMLID_7_" class="st3" d="M97.5,89.1c-0.2-3-1.3-5.3-3.4-6.8c-2-1.5-4.8-2.3-8.4-2.3c-3.5,0-6.3,0.8-8.4,2.3
					c-2,1.5-3.2,3.8-3.4,6.8c-0.1,1.3-0.1,2.5,0,3.8c0.4,6,4.3,9.1,11.8,9.1c7.4,0,11.4-3,11.8-9.1C97.5,91.6,97.5,90.3,97.5,89.1z"
					/>
				<path id="XMLID_6_" class="st3" d="M93.6,109.9h-16c-1.7,0-2.9,1.4-2.9,3.1v52c0,5.7-3.8,5.9-5,5.9c-1.1,0-2.7-0.1-4.7-1.5
					c-1.3-0.9-1.9-1.3-3.3-1.3c-0.3,0-1.7,0.1-2.5,1.4l-7,9.8c-0.6,0.9-1,1.9-1,2.7c0,0.9,0.5,1.9,1.3,2.7c4.5,5,13.6,7,20.1,7
					c12.1,0,24.2-7,24.2-25.6v-53C96.6,111.3,95.2,109.9,93.6,109.9z"/>
			</g>
		</g>
		<g>
			<path class="st3" d="M458.3,303.6c0,0.9-0.3,1.7-1,2.4s-1.5,1-2.4,1h-15.1c-0.9,0-1.7-0.3-2.4-1c-0.7-0.7-1-1.5-1-2.4v-31.8
				c0-4.1-0.8-7.1-2.3-8.8c-1.5-1.7-3.8-2.6-6.8-2.6c-2.9,0-5.1,0.9-6.7,2.6c-1.5,1.7-2.3,4.7-2.3,8.8v31.8c0,0.9-0.3,1.7-1,2.4
				c-0.7,0.7-1.5,1-2.4,1h-15.1c-0.9,0-1.7-0.3-2.4-1s-1-1.5-1-2.4v-31.8c0-4.1-0.8-7.1-2.3-8.8c-1.5-1.7-3.8-2.6-6.8-2.6
				c-2.9,0-5.1,0.9-6.7,2.6c-1.5,1.7-2.3,4.5-2.3,8.5v32.2c0,0.9-0.3,1.7-1,2.4c-0.7,0.7-1.5,1-2.4,1h-15.7c-0.9,0-1.7-0.3-2.4-1
				c-0.7-0.7-1-1.5-1-2.4v-58c0-0.9,0.3-1.7,1-2.4c0.7-0.7,1.5-1,2.4-1h15.1c0.9,0,1.7,0.3,2.4,1c0.7,0.7,1,1.5,1,2.4v2.9
				c1.8-2.3,4-4.1,6.7-5.5c2.6-1.3,5.7-2,9.1-2c4.2,0,8.1,0.8,11.5,2.4c3.4,1.6,6.2,4,8.4,7.3c2.4-3.2,5.3-5.6,8.8-7.2
				c3.4-1.7,7.2-2.5,11.1-2.5c3.6,0,6.9,0.6,9.9,1.7c3,1.1,5.6,2.8,7.8,5.2c2.2,2.3,3.9,5.3,5.1,8.8c1.2,3.6,1.8,7.8,1.8,12.7V303.6
				z"/>
			<path class="st3" d="M491,280.8c0,1.9,0.8,4.4,1.5,5.6c0.7,1.2,1.6,2.2,2.7,3c1.1,0.7,2.3,1.3,3.6,1.6c1.3,0.3,2.6,0.4,3.9,0.4
				c2.5,0,4.5-0.2,5.9-0.7c1.4-0.5,1.2-0.4,2.5-1.2c1-0.6,0.9-0.7,1.3-0.9c0.4-0.2,1.1-0.3,2.1-0.3h17.6c1.8,0,2.7,0.9,2.7,2.7
				c0,1-0.2,1.1-1.4,3.1c-1.2,2-3.2,4.1-5.8,6.2c-2.6,2.1-6,4-10.1,5.5c-4.1,1.6-9.1,2.4-14.8,2.4c-5.4,0-10.2-0.8-14.4-2.3
				c-4.2-1.5-7.7-3.8-10.6-6.7c-2.9-2.9-5-6.4-6.5-10.6c-1.4-4.1-2.2-8.8-2.2-14.1c0-4.8,0.7-9.3,2.2-13.4s3.6-7.6,6.5-10.6
				c2.9-3,6.4-5.3,10.6-7c4.2-1.7,9-2.6,14.4-2.6c6.1,0,11.2,1,15.5,3c4.3,2,7.8,4.7,10.4,7.9c2.7,3.2,4.6,6.9,5.8,10.9
				c1.2,4,1.8,8,1.8,12v2.6c0,0.9-0.3,1.7-1,2.4c-0.7,0.7-1.5,1-2.4,1H491z M502.7,257.8c-3.5,0-6.1,1-8,3.1c-1.8,2.1-3.3,4.4-3.6,8
				H514c-0.3-3.6-1.5-5.9-3.4-8C508.8,258.8,506.2,257.8,502.7,257.8z"/>
		</g>
	</g>
	<g>
		<path class="st3" d="M541.9,242.4c0.1,0,0.1,0,0.2,0.1c0.1,0.1,0.1,0.1,0.1,0.2v0.7c0,0.1,0,0.1-0.1,0.2c-0.1,0.1-0.1,0.1-0.2,0.1
			h-1.9v5.7c0,0.1,0,0.1-0.1,0.2c-0.1,0.1-0.1,0.1-0.2,0.1h-0.8c-0.1,0-0.1,0-0.2-0.1c-0.1-0.1-0.1-0.1-0.1-0.2v-5.7h-1.9
			c-0.1,0-0.1,0-0.2-0.1c-0.1-0.1-0.1-0.1-0.1-0.2v-0.7c0-0.1,0-0.1,0.1-0.2c0.1-0.1,0.1-0.1,0.2-0.1H541.9z"/>
		<path class="st3" d="M547.1,246.1l2-3.4c0,0,0.1-0.1,0.1-0.2c0.1-0.1,0.2-0.1,0.3-0.1h0.7c0.1,0,0.1,0,0.2,0.1
			c0.1,0.1,0.1,0.1,0.1,0.2v6.7c0,0.1,0,0.1-0.1,0.2c-0.1,0.1-0.1,0.1-0.2,0.1h-0.8c-0.1,0-0.1,0-0.2-0.1c-0.1-0.1-0.1-0.1-0.1-0.2
			v-4.1l-1.4,2.3c0,0.1-0.1,0.1-0.1,0.2c-0.1,0.1-0.1,0.1-0.2,0.1h-0.5c-0.1,0-0.2,0-0.2-0.1c-0.1-0.1-0.1-0.1-0.1-0.2l-1.4-2.3v4.1
			c0,0.1,0,0.1-0.1,0.2c-0.1,0.1-0.1,0.1-0.2,0.1H544c-0.1,0-0.1,0-0.2-0.1c-0.1-0.1-0.1-0.1-0.1-0.2v-6.7c0-0.1,0-0.1,0.1-0.2
			c0.1-0.1,0.1-0.1,0.2-0.1h0.7c0.1,0,0.2,0,0.3,0.1c0.1,0.1,0.1,0.1,0.1,0.2L547.1,246.1z"/>
	</g>
</g>
</svg>
