<?xml version="1.0" encoding="UTF-8" standalone="no"?>
<svg width="22px" height="22px" viewBox="0 0 22 22" version="1.1" xmlns="http://www.w3.org/2000/svg" xmlns:xlink="http://www.w3.org/1999/xlink" xmlns:sketch="http://www.bohemiancoding.com/sketch/ns">
    <!-- Generator: Sketch 3.3.2 (12043) - http://www.bohemiancoding.com/sketch -->
    <title>ic_settings_light_20</title>
    <desc>Created with Sketch.</desc>
    <defs></defs>
    <g id="UI" stroke="none" stroke-width="1" fill="none" fill-rule="evenodd" sketch:type="MSPage">
        <g id="assets" sketch:type="MSArtboardGroup" transform="translate(-326.000000, -443.000000)">
            <g id="ic_settings_light_20" sketch:type="MSLayerGroup" transform="translate(327.000000, 444.000000)">
                <path d="M17.4146145,8.83496814 L15.8296588,8.57059351 C15.7144834,8.0995897 15.5464524,7.64941176 15.3277085,7.22947931 L16.3423454,5.97146767 C16.5581429,5.70553054 16.5483664,5.32300876 16.3208951,5.06640197 L15.6905109,4.35691635 C15.4619681,4.10055511 15.0831394,4.04642572 14.794085,4.22899243 L13.4386317,5.08104481 C12.84251,4.66452753 12.167127,4.35691635 11.4386429,4.17843446 L11.173494,2.58497686 C11.1178706,2.2475443 10.8258698,2 10.4831338,2 L9.53318267,2 C9.19113864,2 8.89817806,2.2475443 8.84375994,2.58497686 L8.5772272,4.17894785 C7.97492257,4.326403 7.41018387,4.56443839 6.89488575,4.87798706 L5.60585921,3.95801066 C5.3279875,3.75955112 4.94643565,3.79060018 4.70396473,4.03247484 L4.03284507,4.70412569 C3.79097681,4.94651375 3.75995089,5.328165 3.95891856,5.60595479 L4.88103569,6.89744852 C4.57046399,7.40892103 4.33486789,7.97046042 4.18743897,8.56737923 L2.58496136,8.83496814 C2.24805111,8.89059307 2,9.18260159 2,9.52536897 L2,10.474631 C2,10.8173984 2.24805111,11.1094069 2.58496136,11.1650319 L4.18743897,11.4326208 C4.30855166,11.9237808 4.484328,12.3930435 4.71791524,12.8280653 L3.70798806,14.0790233 C3.49288245,14.3446926 3.5019447,14.7274599 3.72941603,14.9838212 L4.35928685,15.6933068 C4.58782958,15.9501814 4.96692615,16.0033733 5.25595826,15.8212084 L6.63096454,14.9574819 C7.21268938,15.3554278 7.8708853,15.6478827 8.5772272,15.8212084 L8.84375994,17.4150231 C8.89817806,17.7524557 9.19113864,18 9.53318267,18 L10.4831338,18 C10.8258698,18 11.1178706,17.7524557 11.173494,17.4150231 L11.4391786,15.8212084 C12.0338941,15.6757845 12.5914009,15.4418339 13.1021679,15.1337986 L14.4448983,16.0927259 C14.7222566,16.2919667 15.1041433,16.2607614 15.3462794,16.0180162 L16.0176446,15.3466332 C16.2593343,15.1049371 16.2920343,14.7235537 16.0913256,14.4452282 L15.1353478,13.1048952 C15.4468123,12.5917709 15.6836137,12.029294 15.8301721,11.429652 L17.4150386,11.1650319 C17.752998,11.1093176 18,10.8173091 18,10.4745417 L18,9.52536897 C17.9994866,9.18260159 17.7524623,8.89059307 17.4146145,8.83496814 L17.4146145,8.83496814 Z M9.9999814,15 C7.23912469,15 5,12.7604622 5,9.99990699 C5,7.23912857 7.23912469,5 9.9999814,5 C12.7603917,5 15,7.23912857 15,9.99990699 C15,12.7604622 12.7603917,15 9.9999814,15 L9.9999814,15 Z" id="Fill-1" fill="#FFFFFF" sketch:type="MSShapeGroup"></path>
                <rect id="bounds" sketch:type="MSShapeGroup" x="0" y="0" width="20" height="20"></rect>
            </g>
        </g>
    </g>
</svg>