<?xml version="1.0" encoding="UTF-8" standalone="no"?>
<svg width="24px" height="31px" viewBox="0 0 24 31" version="1.1" xmlns="http://www.w3.org/2000/svg" xmlns:xlink="http://www.w3.org/1999/xlink" xmlns:sketch="http://www.bohemiancoding.com/sketch/ns">
    <!-- Generator: Sketch 3.3.1 (12005) - http://www.bohemiancoding.com/sketch -->
    <title>Fill 8</title>
    <desc>Created with Sketch.</desc>
    <defs></defs>
    <g id="Page-1" stroke="none" stroke-width="1" fill="none" fill-rule="evenodd" sketch:type="MSPage">
        <g id="option-9" sketch:type="MSLayerGroup" transform="translate(-405.000000, -687.000000)" fill="#FFFFFF">
            <g id="info" transform="translate(387.000000, 672.000000)" sketch:type="MSShapeGroup">
                <g id="bg">
                    <g id="app-copy" transform="translate(0.000000, 2.000000)">
                        <path d="M37.9250977,20.0055364 C38.2651193,19.4216533 38.5887479,18.8709819 38.8483912,18.424231 C39.7309667,16.9034566 40.4993203,15.664446 40.9276523,15.0125325 C41.2253695,14.5566751 41.4305458,14.2534845 41.6537015,13.8929768 C41.66322,13.8806564 41.6938907,13.8538727 41.703938,13.8442306 C41.6870162,13.8511944 41.6526439,13.8619078 41.641539,13.8619078 C41.0519215,14.0263593 40.3946169,14.1045675 39.7769727,14.1045675 C39.1265426,14.1045675 38.4988511,14.0242166 37.9139928,13.8619078 C37.9076471,13.8619078 37.8722172,13.8458376 37.8611123,13.8442306 C37.8611123,13.8442306 37.8605835,13.8538727 37.8589971,13.8544084 C36.6940397,15.9810285 33.5841377,21.1475903 31.7327916,24.2346713 C30.858677,25.6874153 30.2584833,26.7469756 30.1463767,26.9189265 L30.1141196,26.9189265 C30.0326836,26.7469756 29.3833111,25.6874153 28.5134269,24.2346713 C26.6562639,21.143305 23.5638125,16.0506659 22.4009703,13.8458376 L22.3163615,13.877978 C21.7315033,14.0402868 21.1191471,14.1158166 20.4676594,14.1158166 C19.8457848,14.1158166 19.1784329,14.0177885 18.5877577,13.8544084 C18.5792969,13.8538727 18.5650191,13.8442306 18.5586735,13.8420879 C18.5613175,13.8458376 18.57348,13.8597651 18.5766528,13.8651219 C18.8130287,14.239557 19.0224354,14.5657816 19.3153934,15.0125325 C19.7426678,15.664446 20.512079,16.9034566 21.3957121,18.424231 C21.6585282,18.874196 21.9863873,19.4270101 22.3290529,20.0135715 C22.9271313,21.0367061 23.6119337,22.1996512 24.1386235,23.1210081 C24.8953434,24.4537614 25.7826781,26.0206036 26.6456878,27.5617336 C27.3659202,28.83717 27.9597681,29.8983373 28.499678,30.8711187 L28.5017932,30.8829035 L28.5113117,32.0099585 C28.5113117,33.5489458 28.4769394,35.1843541 28.4224725,36.6188853 C28.396561,37.2740128 28.366948,38.4455287 28.3399789,39.686682 C28.304549,41.1871009 28.2765223,42.7496577 28.239506,43.5456672 C28.8312387,43.3747876 29.4573438,43.2794379 30.11835,43.2794379 C30.7862307,43.2794379 31.4218542,43.3678239 32.0125294,43.5349537 C31.9744554,42.73948 31.9411407,41.1838868 31.9083548,39.6765042 C31.8797993,38.4423147 31.8512439,37.2740128 31.8300917,36.6188853 C31.7729807,35.1907822 31.7444253,33.5532312 31.7444253,32.0078159 L31.7518285,30.898438 L31.7639911,30.8577269 C32.311833,29.8774461 32.9009217,28.7980659 33.5952426,27.5649476 C34.4926247,25.9670364 35.4143317,24.3509123 36.1128831,23.1199367 C36.641688,22.1916162 37.3212024,21.0297424 37.9250977,20.0055364" id="Fill-8"></path>
                    </g>
                </g>
            </g>
        </g>
    </g>
</svg>