<?xml version="1.0" encoding="UTF-8" standalone="no"?>
<svg width="25px" height="24px" viewBox="0 0 25 24" version="1.1" xmlns="http://www.w3.org/2000/svg" xmlns:xlink="http://www.w3.org/1999/xlink" xmlns:sketch="http://www.bohemiancoding.com/sketch/ns">
    <!-- Generator: Sketch 3.3.2 (12043) - http://www.bohemiancoding.com/sketch -->
    <title>Shape</title>
    <desc>Created with Sketch.</desc>
    <defs></defs>
    <g id="Page-1" stroke="none" stroke-width="1" fill="none" fill-rule="evenodd" sketch:type="MSPage">
        <g id="browser-extension-kit" sketch:type="MSArtboardGroup" transform="translate(-503.000000, -168.000000)" fill="#ADADAD">
            <g id="Group-Copy" sketch:type="MSLayerGroup" transform="translate(36.000000, 158.000000)">
                <path d="M481.940656,33.7401011 C481.674632,33.7401011 481.413162,33.6286548 481.228043,33.4199608 L479.469013,31.4396456 C479.215312,31.4503616 478.958932,31.4503616 478.709517,31.4396456 L476.950755,33.4199608 C476.667853,33.7387616 476.207601,33.8309191 475.824236,33.6449966 L473.987515,32.7582484 C473.966351,32.7499435 473.945187,32.7408349 473.924827,32.7309226 L472.057565,31.8294398 C471.674469,31.6443211 471.460149,31.2280048 471.533018,30.8087417 L471.984429,28.20422 C471.81592,28.0102605 471.656787,27.8104073 471.507835,27.6059998 L468.867147,27.4666919 C468.441722,27.4444562 468.083004,27.1419973 467.988436,26.7270206 L467.535685,24.7386684 C467.528987,24.7169685 467.523094,24.6947328 467.518271,24.672765 L467.057752,22.6509254 C466.963451,22.2362165 467.155267,21.8091843 467.527916,21.6045088 L469.848196,20.3293059 C469.894542,20.0785517 469.950801,19.8312802 470.016973,19.588563 L468.479764,17.4362561 C468.23276,17.0901296 468.244816,16.6223766 468.509501,16.2896451 L469.80051,14.6667082 C469.810154,14.6546527 469.819531,14.6434009 469.829443,14.6318812 L469.837748,14.6225047 L471.118309,13.0172492 C471.383797,12.6845177 471.838959,12.5679813 472.230896,12.7324718 L474.668784,13.752902 C474.901857,13.6288644 475.141092,13.5139354 475.385416,13.4091866 L476.081956,10.9525456 C476.198224,10.5426589 476.57248,10.2597568 476.998441,10.2597568 L481.180624,10.2597568 C481.606853,10.2597568 481.981377,10.5429268 482.09711,10.9528135 L482.793381,13.4113298 C483.03583,13.515007 483.274261,13.6291323 483.507066,13.752902 L485.944686,12.7324718 C486.337159,12.5679813 486.791518,12.6842498 487.057274,13.0172492 L488.349355,14.6361676 C488.358195,14.6460799 488.3665,14.6562601 488.374805,14.6667082 L489.665814,16.2896451 C489.930231,16.6221087 489.942555,17.0901296 489.695551,17.4359882 L488.161557,19.5853482 C488.227996,19.8296728 488.284523,20.0790875 488.330602,20.3319849 L490.649006,21.6004903 C491.022995,21.8051658 491.215615,22.2330017 491.12051,22.6487822 L490.190898,26.7272885 C490.096329,27.1425331 489.737344,27.4447241 489.312187,27.4669598 L486.669355,27.6065356 C486.51826,27.8117468 486.359663,28.0102605 486.194637,28.2010052 L486.646048,30.8092775 C486.718649,31.2282727 486.504597,31.6448569 486.1215,31.8297077 L484.254239,32.7311905 C484.233878,32.7411028 484.212714,32.7502114 484.19155,32.7585163 L484.191282,32.7587842 L482.354829,33.6452645 C482.222219,33.7092926 482.080768,33.7401011 481.940656,33.7401011 L481.940656,33.7401011 Z M479.870327,29.5038018 C480.141173,29.5038018 480.400768,29.6192666 480.582672,29.8239421 L482.174533,31.6167274 L483.393477,31.0281516 C483.413837,31.0179714 483.435001,31.0088628 483.456165,31.0005579 L483.456433,31.00029 L484.64564,30.4264487 L484.237361,28.0659837 C484.185656,27.7667396 484.279421,27.4605302 484.490526,27.241924 C484.80772,26.9137467 485.099998,26.5475277 485.360397,26.1545187 C485.526763,25.902425 485.802967,25.7446321 486.104622,25.7285581 L488.492681,25.6026452 L488.794068,24.2765413 C488.795676,24.2671648 488.797819,24.2583241 488.799694,24.2492155 L489.102421,22.9268622 L487.004498,21.7789116 C486.736866,21.6323704 486.55523,21.3666138 486.516652,21.0638871 C486.456911,20.5972057 486.354037,20.1439192 486.210711,19.7171549 C486.113731,19.4272873 486.160881,19.1090224 486.338499,18.8604114 L487.727291,16.9143874 L486.886622,15.8583264 C486.878049,15.848682 486.869744,15.8390376 486.861975,15.8288574 L486.016483,14.7690459 L483.811668,15.6919606 C483.531445,15.8090329 483.211841,15.7859935 482.95171,15.6290042 C482.548253,15.3857512 482.119345,15.18054 481.677579,15.0189964 C481.39039,14.9142476 481.171248,14.67796 481.087931,14.3840739 L480.459706,12.1663995 L477.718824,12.1663995 L477.090866,14.381127 C477.007817,14.6736736 476.789747,14.9096933 476.504166,15.01471 C476.05597,15.1800042 475.625455,15.3868228 475.224141,15.6290042 C474.963742,15.7857256 474.644138,15.8093008 474.363915,15.6919606 L472.158831,14.7690459 L471.313608,15.8288574 C471.304231,15.8403771 471.295123,15.851361 471.285478,15.8626128 L471.277709,15.8714535 L470.447756,16.9141195 L471.839763,18.8633583 C472.01738,19.1119693 472.064531,19.4305021 471.967551,19.7203697 C471.824225,20.1468661 471.721351,20.5980094 471.661342,21.0620118 C471.622496,21.3636669 471.441932,21.6283519 471.175371,21.7748931 L469.074769,22.9290054 L469.367851,24.2165317 C469.374549,24.2382316 469.380443,24.2604673 469.385265,24.2824351 L469.685581,25.6026452 L472.076854,25.7285581 C472.382796,25.7449 472.662751,25.9072472 472.828313,26.1649668 C473.070226,26.5419018 473.359022,26.904906 473.687468,27.244603 C473.898573,27.4632092 473.992873,27.7696865 473.940901,28.0691985 L473.532354,30.4261808 L474.721829,31.00029 C474.742993,31.0085949 474.764157,31.0177035 474.784517,31.0278837 L476.003461,31.6164595 L477.595322,29.8236742 C477.798122,29.5954235 478.09683,29.4778155 478.402504,29.5083561 C478.856058,29.5536312 479.324883,29.5530954 479.774151,29.5083561 C479.807102,29.5054092 479.838982,29.5038018 479.870327,29.5038018 L479.870327,29.5038018 Z M479.088059,26.3929495 C476.693303,26.3929495 474.745136,24.4447823 474.745136,22.0500262 C474.745136,19.65527 476.693303,17.7071028 479.088059,17.7071028 C481.484423,17.7071028 483.434197,19.65527 483.434197,22.0500262 C483.434197,24.4447823 481.484423,26.3929495 479.088059,26.3929495 L479.088059,26.3929495 Z M479.088059,19.6124061 C477.744006,19.6124061 476.650439,20.705973 476.650439,22.0500262 C476.650439,23.3940794 477.744006,24.4876463 479.088059,24.4876463 C480.433988,24.4876463 481.528894,23.3940794 481.528894,22.0500262 C481.528894,20.705973 480.433988,19.6124061 479.088059,19.6124061 L479.088059,19.6124061 Z" id="Shape" sketch:type="MSShapeGroup"></path>
            </g>
        </g>
    </g>
</svg>