<?xml version="1.0" encoding="UTF-8"?>
<svg width="60px" height="60px" viewBox="0 0 60 60" version="1.1" xmlns="http://www.w3.org/2000/svg" xmlns:xlink="http://www.w3.org/1999/xlink">
    <!-- Generator: Sketch 47.1 (45422) - http://www.bohemiancoding.com/sketch -->
    <title>icon-添加图片</title>
    <desc>Created with Sketch.</desc>
    <defs></defs>
    <g id="__wesketch_export" stroke="none" stroke-width="1" fill="none" fill-rule="evenodd">
        <g id="icon-添加图片">
            <g>
                <rect id="Rectangle-5" opacity="0.300000012" x="0" y="0" width="60" height="60"></rect>
                <path d="M42.6235869,16 L13.3764131,16 C11.5116279,16 10,17.5356181 10,19.4299982 L10,44.5700018 C10,46.4643409 11.5116279,48 13.3764131,48 L42.6235869,48 C44.4883721,48 46,46.4643409 46,44.5700018 L46,19.4299982 C46,17.5356591 44.4883721,16 42.6235869,16 Z M13.1096224,17.9591837 L38,17.9591837 L38,16 C40.6666667,16 42.3333333,16 43,16 C45,16 46,18 46,19 C46,19.6666667 46,21.3333333 46,24 L44.0363636,24 L44.0363636,32.8009535 C42.1904616,31.2651265 38.990276,29.1944175 35.1511386,29.1944175 C31.6114366,29.1944175 28.1215583,31.975621 24.7470309,34.6653711 C22.1612964,36.7259928 19.4873427,38.8571429 17.6111847,38.8571429 C14.9796963,38.8571429 12.7270652,36.8955611 11.9636364,36.1471346 L11.9636364,19.12111 C11.9636364,18.4795183 12.4767957,17.9591837 13.1096224,17.9591837 Z M13.1096224,46.0408163 C12.4767957,46.0408163 11.9636364,45.5185818 11.9636364,44.8747408 L11.9636364,39.3411217 C13.337241,40.3314597 15.3234469,41.3706996 17.6111847,41.3706996 C20.2801231,41.3706996 23.1378325,39.0852335 26.1631008,36.6652347 C29.2317798,34.2111425 32.404217,31.6734694 35.1511386,31.6734694 C40.0745991,31.6734694 43.9795104,36.0838493 44.0181936,36.1282752 L44.0363636,44.8744898 C44.0363636,45.51854 43.5233276,46.0407745 42.8905009,46.0407745 L13.1096224,46.0408163 Z M21.1272918,31.3469388 C23.4771221,31.3469388 25.3818182,29.4463716 25.3818182,27.1020598 C25.3818182,24.7575579 23.477084,22.8571429 21.1272918,22.8571429 C18.777652,22.8571429 16.8727273,24.7575579 16.8727273,27.1020598 C16.8727273,29.4463716 18.777652,31.3469388 21.1272918,31.3469388 Z M23.4181818,27.1021231 C23.4181818,28.3645146 22.3925333,29.3877551 21.1273552,29.3877551 C19.8619709,29.3877551 18.8363636,28.3644735 18.8363636,27.1021231 C18.8363636,25.8397727 19.8622183,24.8163265 21.1273552,24.8163265 C22.3926158,24.8163265 23.4181818,25.8396082 23.4181818,27.1021231 Z" id="Shape" fill="#8F8F8F" fill-rule="nonzero"></path>
                <path d="M44,16 L40,16 L40,18 L44,18 L44,22 L46,22 L46,18 L50,18 L50,16 L46,16 L46,12 L44,12 L44,16 Z" id="Combined-Shape" fill="#2989fd"></path>
            </g>
        </g>
    </g>
</svg>