<?xml version="1.0" encoding="UTF-8"?>
<svg width="24px" height="24px" viewBox="0 0 24 24" version="1.1" xmlns="http://www.w3.org/2000/svg" xmlns:xlink="http://www.w3.org/1999/xlink">
    <!-- Generator: Sketch 48.2 (47327) - http://www.bohemiancoding.com/sketch -->
    <title>移动端</title>
    <desc>Created with Sketch.</desc>
    <defs></defs>
    <g id="index" stroke="none" stroke-width="1" fill="none" fill-rule="evenodd" transform="translate(-1569.000000, -143.000000)">
        <g id="移动端" transform="translate(1569.000000, 143.000000)" fill="#FFFFFF">
            <path d="M0.00775012174,1.64195246 L0.00775012174,22.380219 C0.00775012174,23.2741673 0.733582774,24 1.62886534,24 L13.0086939,24 C13.9026422,24 14.6284749,23.2741673 14.6284749,22.380219 L14.6284749,1.64195246 C14.6284749,0.746669896 13.9026422,0.0208372435 13.0086939,0.0208372435 L1.6275311,0.0208372435 C0.733582774,0.0208372435 0.00775012174,0.746669896 0.00775012174,1.64195246 Z M4.6029113,1.23367161 L11.8692434,1.23367161 C12.6737969,1.23367161 13.3262457,1.80118241 13.3262457,2.50243036 L13.3262457,18.7509155 C13.3262457,19.4521635 12.6737969,20.0208372 11.8692434,20.0208372 L2.76698163,20.0208372 C1.96230146,20.0208372 1.3099793,19.4522739 1.3099793,18.7509155 L1.3099793,2.50359328 C1.3099793,1.80234531 1.96376238,1.23483453 2.76698163,1.23483453 L4.6029113,1.23483453 L4.6029113,1.23367161 Z M8.98726077,3.2217059 C8.98721856,3.41288353 9.08918637,3.58955702 9.25474403,3.68515802 C9.42030168,3.78075903 9.62428932,3.78075903 9.78984697,3.68515802 C9.95540463,3.58955702 10.0573724,3.41288353 10.0573302,3.2217059 C10.057265,2.92626051 9.81774089,2.6867893 9.5222955,2.6867893 C9.22685011,2.6867893 8.98732601,2.92626051 8.98726077,3.2217059 Z M8.14935102,3.77141739 C8.44206833,3.756983 8.6719882,3.51544602 8.6719882,3.22237303 C8.6719882,2.92930004 8.44206833,2.68776306 8.14935102,2.67332867 L4.57889476,2.67332867 C4.37628248,2.66333751 4.18463533,2.76574476 4.08033454,2.93973586 C3.97603375,3.11372696 3.97603375,3.3310191 4.08033454,3.5050102 C4.18463533,3.6790013 4.37628248,3.78140855 4.57889476,3.77141739 L8.14935102,3.77141739 Z M6.21335251,21.6796946 C6.23404701,21.084125 6.72285058,20.612011 7.31877964,20.612011 C7.91470869,20.612011 8.40351227,21.084125 8.42420677,21.6796946 C8.43824785,22.0837848 8.23067946,22.4633363 7.8828799,22.6695439 C7.53508034,22.8757514 7.10247893,22.8757514 6.75467938,22.6695439 C6.40687982,22.4633363 6.19931143,22.0837848 6.21335251,21.6796946 Z" id="Shape" fill-rule="nonzero"></path>
            <path d="M20.7473509,18.2773966 C20.4442748,18.2766609 20.1989728,18.0307621 20.1989737,17.7276851 L20.1989737,14.1572288 C20.1889826,13.9546166 20.2913899,13.7629696 20.465381,13.6586688 C20.639372,13.5543681 20.8566641,13.5543681 21.0306551,13.6586688 C21.2046462,13.7629696 21.3070535,13.9546166 21.2970624,14.1572288 L21.2970624,17.7276851 C21.2970624,18.0312823 21.0509482,18.2773966 20.7473509,18.2773966 Z" id="Path"></path>
            <path d="M22.3271044,9.32590518 L16.0214331,9.32590518 L16.0214331,10.6294686 L21.2797172,10.6294686 C22.0842706,10.6294686 22.7367195,11.2819175 22.7367195,12.086471 L22.7367195,21.1887327 C22.7367195,21.9932862 22.0842706,22.645735 21.2797172,22.645735 L16.0214331,22.645735 L16.0214331,23.9479642 L22.3284386,23.9479642 C23.2223869,23.9479642 23.9482196,23.2221315 23.9482196,22.326849 L23.9482196,10.9470204 C23.9482196,10.0530721 23.2237212,9.32723943 22.3284386,9.32723945" id="Shape" fill-rule="nonzero"></path>
        </g>
    </g>
</svg>