<?xml version="1.0" encoding="utf-8"?>
<!-- Generator: Adobe Illustrator 18.0.0, SVG Export Plug-In . SVG Version: 6.00 Build 0)  -->
<!DOCTYPE svg PUBLIC "-//W3C//DTD SVG 1.1//EN" "http://www.w3.org/Graphics/SVG/1.1/DTD/svg11.dtd">
<svg version="1.1" id="cog" xmlns="http://www.w3.org/2000/svg" xmlns:xlink="http://www.w3.org/1999/xlink" x="0px" y="0px"
	 width="15px" height="15px" viewBox="-411 305.3 15 15" enable-background="new -411 305.3 15 15" xml:space="preserve">
<path d="M-396,313.9c0,0.1-0.1,0.3-0.3,0.4l-1.8,0.3c-0.1,0.3-0.2,0.6-0.4,0.9c0.3,0.5,0.7,0.9,1,1.3c0.1,0.1,0.1,0.2,0.1,0.2
	c0,0.1,0,0.2-0.1,0.2c-0.2,0.3-1.6,1.7-1.9,1.7c-0.1,0-0.2,0-0.3-0.1l-1.3-1.1c-0.3,0.1-0.6,0.3-0.9,0.4c-0.1,0.6-0.1,1.2-0.3,1.8
	c0,0.2-0.2,0.3-0.4,0.3h-2.2c-0.2,0-0.3-0.1-0.4-0.3l-0.3-1.8c-0.3-0.1-0.6-0.2-0.9-0.4l-1.4,1c-0.1,0.1-0.2,0.1-0.2,0.1
	c-0.1,0-0.2,0-0.2-0.1c-0.5-0.5-1.2-1.1-1.6-1.6c0-0.1-0.1-0.1-0.1-0.2c0-0.1,0-0.2,0.1-0.2c0.3-0.4,0.7-0.9,1-1.3
	c-0.2-0.3-0.3-0.6-0.4-1l-1.8-0.3c-0.2,0-0.3-0.2-0.3-0.4v-2.2c0-0.1,0.1-0.3,0.3-0.4l1.8-0.3c0.1-0.3,0.2-0.6,0.4-0.9
	c-0.3-0.5-0.7-0.9-1-1.3c-0.1-0.1-0.1-0.1-0.1-0.2c0-0.1,0-0.2,0.1-0.2c0.2-0.3,1.6-1.7,1.9-1.7c0.1,0,0.2,0,0.3,0.1l1.3,1
	c0.3-0.1,0.6-0.3,0.9-0.4c0.1-0.6,0.1-1.2,0.3-1.8c0-0.2,0.2-0.3,0.4-0.3h2.2c0.2,0,0.3,0.1,0.4,0.3l0.3,1.8
	c0.3,0.1,0.6,0.2,0.9,0.4l1.4-1c0.1-0.1,0.1-0.1,0.2-0.1c0.1,0,0.2,0,0.2,0.1c0.5,0.5,1.2,1.1,1.6,1.7c0,0.1,0.1,0.1,0.1,0.2
	c0,0.1,0,0.2-0.1,0.2c-0.3,0.4-0.7,0.9-1,1.3c0.2,0.3,0.3,0.6,0.4,1l1.8,0.3c0.2,0,0.3,0.2,0.3,0.4V313.9z M-403.5,310.3
	c-1.4,0-2.5,1.1-2.5,2.5s1.1,2.5,2.5,2.5s2.5-1.1,2.5-2.5S-402.1,310.3-403.5,310.3z"/>
</svg>
