<svg xmlns="http://www.w3.org/2000/svg" width="18" height="15" viewBox="0 23 18 15" enable-background="new 0 23 18 15"><path fill="#ccc" d="M8.6 37.8l-6.3-5.9c-.1-.1-2.3-2-2.3-4.4 0-2.8 1.8-4.5 4.8-4.5 1.8 0 3.4 1.3 4.2 2.1.8-.8 2.4-2.1 4.2-2.1 3 0 4.8 1.7 4.8 4.6 0 2.3-2.2 4.3-2.3 4.4l-6.3 5.9c-.1 0-.2.1-.4.1s-.3-.1-.4-.2z"/><path fill="#ccc" d="M13.2 25c2.5 0 2.8 1.5 2.8 2.6 0 1-.8 2.2-1.7 2.9l-5.3 5-5.3-5c-.5-.4-1.7-1.8-1.7-2.9 0-1.1.3-2.6 2.8-2.6.7 0 1.8.6 2.8 1.6l1.4 1.3 1.4-1.3c1-1 2-1.6 2.8-1.6m0-2c-1.8 0-3.4 1.3-4.2 2.1-.8-.8-2.4-2.1-4.2-2.1-3 0-4.8 1.7-4.8 4.6 0 2.3 2.2 4.3 2.3 4.4l6.3 5.9c.1 0 .2.1.4.1s.3-.1.4-.2l6.3-5.9c.1-.1 2.3-2.1 2.3-4.4 0-2.8-1.8-4.5-4.8-4.5z"/></svg>