<?xml version="1.0" encoding="utf-8"?>
<!-- Generator: Adobe Illustrator 18.0.0, SVG Export Plug-In . SVG Version: 6.00 Build 0)  -->
<!DOCTYPE svg PUBLIC "-//W3C//DTD SVG 1.1//EN" "http://www.w3.org/Graphics/SVG/1.1/DTD/svg11.dtd">
<svg version="1.1" id="Hellotab" xmlns="http://www.w3.org/2000/svg" xmlns:xlink="http://www.w3.org/1999/xlink" x="0px" y="0px"
	 width="154px" height="16px" viewBox="0 0 154 16" enable-background="new 0 0 154 16" xml:space="preserve">
<path id="Wordmark" fill="#666666" d="M56.4,7h-4.2V3.3H50v10h2.2V9h4.2v4.3h2.2v-10h-2.2V7z M65.6,9.2h4.3v-2h-4.3V5.3h4.5v-2h-6.7
	v10h7v-2h-4.8V9.2z M77.2,3.3H75v10h6.2v-2h-4V3.3z M87.4,3.3h-2.2v10h6.2v-2h-4C87.4,11.3,87.4,3.3,87.4,3.3z M104.1,4.4
	c-0.5-0.5-1-0.8-1.7-1.1C101.7,3.1,101,3,100.2,3c-0.8,0-1.5,0.1-2.1,0.4c-0.7,0.2-1.2,0.6-1.7,1.1c-0.5,0.5-0.8,1-1.1,1.7
	c-0.3,0.7-0.4,1.4-0.4,2.2c0,0.8,0.1,1.5,0.4,2.2s0.6,1.2,1.1,1.7c0.5,0.5,1,0.8,1.7,1.1c0.7,0.2,1.4,0.4,2.1,0.4
	c0.8,0,1.5-0.1,2.1-0.4c0.7-0.2,1.2-0.6,1.7-1.1c0.5-0.5,0.8-1,1.1-1.7c0.3-0.7,0.4-1.4,0.4-2.2c0-0.8-0.1-1.5-0.4-2.2
	C104.9,5.4,104.5,4.9,104.1,4.4z M103.1,9.6c-0.1,0.4-0.4,0.7-0.6,1c-0.3,0.3-0.6,0.5-1,0.7s-0.8,0.2-1.3,0.2
	c-0.5,0-0.9-0.1-1.3-0.2s-0.7-0.4-1-0.7c-0.3-0.3-0.5-0.6-0.6-1c-0.1-0.4-0.2-0.8-0.2-1.3c0-0.5,0.1-0.9,0.2-1.3
	c0.1-0.4,0.3-0.7,0.6-1c0.3-0.3,0.6-0.5,1-0.7c0.4-0.2,0.8-0.2,1.3-0.2c0.5,0,0.9,0.1,1.3,0.2c0.4,0.2,0.7,0.4,1,0.7
	c0.3,0.3,0.5,0.6,0.6,1c0.1,0.4,0.2,0.8,0.2,1.3C103.3,8.8,103.2,9.2,103.1,9.6z M109.1,15h1.8l1.3-4h-2L109.1,15z M122.7,5.2h2.8
	v8.1h2.2V5.2h2.8v-2h-7.8C122.7,3.3,122.7,5.2,122.7,5.2z M136.4,3.3l-4.3,10h2.4l0.8-2.1h3.8l0.9,2.1h2.5l-4.3-10H136.4z M136,9.3
	l1.2-3.1l1.2,3.1H136z M153.8,9.6c-0.1-0.3-0.2-0.5-0.4-0.7s-0.4-0.4-0.7-0.5c-0.3-0.1-0.6-0.2-0.9-0.3v0c0.5-0.2,0.9-0.4,1.2-0.8
	s0.5-0.8,0.5-1.4c0-0.5-0.1-1-0.3-1.3c-0.2-0.3-0.5-0.6-0.8-0.8s-0.7-0.3-1.2-0.4c-0.4-0.1-0.9-0.1-1.3-0.1h-3.7v10h4
	c0.4,0,0.9,0,1.3-0.1c0.4-0.1,0.8-0.2,1.2-0.5c0.4-0.2,0.6-0.5,0.9-0.9c0.2-0.4,0.3-0.8,0.3-1.3C154,10.2,153.9,9.9,153.8,9.6z
	 M148.4,5.1h1.5c0.2,0,0.3,0,0.5,0.1s0.3,0.1,0.5,0.2c0.1,0.1,0.3,0.2,0.3,0.3c0.1,0.1,0.1,0.3,0.1,0.5c0,0.2,0,0.4-0.1,0.5
	c-0.1,0.1-0.2,0.3-0.3,0.3s-0.3,0.1-0.4,0.2c-0.2,0-0.3,0.1-0.5,0.1h-1.6L148.4,5.1L148.4,5.1z M151.7,10.8
	c-0.1,0.2-0.2,0.3-0.3,0.4s-0.3,0.2-0.5,0.2s-0.3,0.1-0.5,0.1h-1.9V9.1h1.6c0.2,0,0.4,0,0.6,0c0.2,0,0.4,0.1,0.6,0.2
	s0.3,0.2,0.4,0.3c0.1,0.1,0.2,0.3,0.2,0.6C151.8,10.5,151.8,10.6,151.7,10.8z"/>
<path id="Logo" fill="#666666" d="M24.3,0L9.7,0C4.9,0,5.7,16,0,16l34,0C29.2,16,30.1,0,24.3,0z M21.3,12.6h-1.9V8.9h-3.6v3.7h-1.9
	V4.1h1.9v3.2h3.6V4.1h1.9V12.6z"/>
</svg>
