<svg id="hellotab" xmlns="http://www.w3.org/2000/svg" width="154" height="16" viewBox="0 0 154 16">
  <path id="hellotab__wordmark" fill="#666" d="M56.4 7h-4.2v-3.7h-2.2v10h2.2v-4.3h4.2v4.3h2.2v-10h-2.2v3.7zm9.2 2.2h4.3v-2h-4.3v-1.9h4.5v-2h-6.7v10h7v-2h-4.8v-2.1zm11.6-5.9h-2.2v10h6.2v-2h-4v-8zm10.2 0h-2.2v10h6.2v-2h-4v-8zm16.7 1.1c-.5-.5-1-.8-1.7-1.1-.7-.2-1.4-.3-2.2-.3-.8 0-1.5.1-2.1.4-.7.2-1.2.6-1.7 1.1-.5.5-.8 1-1.1 1.7-.3.7-.4 1.4-.4 2.2 0 .8.1 1.5.4 2.2s.6 1.2 1.1 1.7c.5.5 1 .8 1.7 1.1.7.2 1.4.4 2.1.4.8 0 1.5-.1 2.1-.4.7-.2 1.2-.6 1.7-1.1.5-.5.8-1 1.1-1.7.3-.7.4-1.4.4-2.2 0-.8-.1-1.5-.4-2.2-.2-.8-.6-1.3-1-1.8zm-1 5.2c-.1.4-.4.7-.6 1-.3.3-.6.5-1 .7s-.8.2-1.3.2-.9-.1-1.3-.2-.7-.4-1-.7c-.3-.3-.5-.6-.6-1-.1-.4-.2-.8-.2-1.3s.1-.9.2-1.3.3-.7.6-1c.3-.3.6-.5 1-.7.4-.2.8-.2 1.3-.2s.9.1 1.3.2c.4.2.7.4 1 .7.3.3.5.6.6 1 .1.4.2.8.2 1.3s-.1.9-.2 1.3zm6 5.4h1.8l1.3-4h-2l-1.1 4zm13.6-9.8h2.8v8.1h2.2v-8.1h2.8v-2h-7.8v2zm13.7-1.9l-4.3 10h2.4l.8-2.1h3.8l.9 2.1h2.5l-4.3-10h-1.8zm-.4 6l1.2-3.1 1.2 3.1h-2.4zm17.8.3c-.1-.3-.2-.5-.4-.7s-.4-.4-.7-.5l-.9-.3c.5-.2.9-.4 1.2-.8s.5-.8.5-1.4c0-.5-.1-1-.3-1.3-.2-.3-.5-.6-.8-.8s-.7-.3-1.2-.4c-.4-.1-.9-.1-1.3-.1h-3.7v10h4c.4 0 .9 0 1.3-.1s.8-.2 1.2-.5c.4-.2.6-.5.9-.9.2-.4.3-.8.3-1.3.1-.3 0-.6-.1-.9zm-5.4-4.5h1.5c.2 0 .3 0 .5.1s.3.1.5.2c.1.1.3.2.3.3.1.1.1.3.1.5s0 .4-.1.5c-.1.1-.2.3-.3.3s-.3.1-.4.2l-.5.1h-1.6v-2.2zm3.3 5.7c-.1.2-.2.3-.3.4s-.3.2-.5.2-.3.1-.5.1h-1.9v-2.4h2.2c.2 0 .4.1.6.2s.3.2.4.3c.1.1.2.3.2.6-.1.3-.1.4-.2.6z"/>
  <path id="hellotab__icon" fill="#666" d="M24.3 0h-14.6c-4.8 0-4 16-9.7 16h34c-4.8 0-3.9-16-9.7-16zm-3 12.6h-1.9v-3.7h-3.6v3.7h-1.9v-8.5h1.9v3.2h3.6v-3.2h1.9v8.5z"/></svg>
