<?xml version="1.0" encoding="utf-8"?>
<!-- Generator: Adobe Illustrator 22.1.0, SVG Export Plug-In . SVG Version: 6.00 Build 0)  -->
<svg version="1.1" id="Ebene_1" xmlns="http://www.w3.org/2000/svg" xmlns:xlink="http://www.w3.org/1999/xlink" x="0px" y="0px"
	 viewBox="0 0 70 43" style="enable-background:new 0 0 70 43;" xml:space="preserve">
<style type="text/css">
	.st0{fill:none;stroke:#ffffff;stroke-width:2;stroke-linecap:round;stroke-linejoin:round;stroke-miterlimit:10;}
	.st1{fill:none;stroke:#ffffff;stroke-width:2.0154;stroke-linecap:round;stroke-linejoin:round;stroke-miterlimit:10;}
	.st2{display:none;}
	.st3{display:inline;fill:#FFFFFF;}
	.st4{display:inline;fill:none;stroke:#FFFFFF;stroke-width:2;stroke-linecap:round;stroke-linejoin:round;stroke-miterlimit:10;}
</style>
<g>
	<path class="st0" d="M46.2,21.5c0,6.1-5,11.1-11.1,11.1c-6.1,0-11.1-5-11.1-11.1c0-6.1,5-11.1,11.1-11.1
		C41.2,10.4,46.2,15.4,46.2,21.5z"/>
	<line class="st1" x1="35" y1="5" x2="35" y2="1.5"/>
	<line class="st1" x1="15.1" y1="21.5" x2="18.6" y2="21.5"/>
	<line class="st1" x1="46.7" y1="33.1" x2="49.4" y2="35.9"/>
	<line class="st1" x1="20.6" y1="7.1" x2="23.4" y2="9.9"/>
	<line class="st1" x1="23.4" y1="33.1" x2="20.6" y2="35.9"/>
	<line class="st1" x1="49.4" y1="7.1" x2="46.7" y2="9.9"/>
	<g>
		<line class="st0" x1="46.7" y1="9.9" x2="49.4" y2="7.1"/>
		<line class="st0" x1="20.6" y1="35.9" x2="23.4" y2="33.1"/>
		<line class="st0" x1="46.6" y1="33.2" x2="49.4" y2="35.9"/>
		<line class="st0" x1="20.6" y1="7.2" x2="23.4" y2="9.9"/>
		<line class="st0" x1="35" y1="38" x2="35" y2="41.5"/>
		<line class="st0" x1="35" y1="1.6" x2="35" y2="5.1"/>
		<line class="st0" x1="18.5" y1="21.5" x2="15" y2="21.5"/>
		<line class="st0" x1="55" y1="21.5" x2="51.5" y2="21.5"/>
	</g>
</g>
<polygon points="-87.4,-140.8 -92.3,-134.7 -87.6,-134.6 -93,-127.5 -76.9,-136.4 -82.6,-136.4 -79.6,-140.8 "/>
<path class="st0" d="M-70.3-156.7c3.4,0.8,6,3.8,6,7.5c0,4.2-3.4,7.6-7.6,7.6h-24.7c-4.2,0-7.6-3-7.6-7.2c0-3.6,2.5-6.6,5.9-7.4
	c-0.2-0.6-0.3-1.3-0.3-2c0-3.4,2.8-6.2,6.2-6.2c1.7,0,3.2,0.7,4.3,1.8v0c1.5-3.3,4.8-5.6,8.7-5.6c5.3,0,9.5,4.3,9.5,9.5
	C-70.1-158-70.3-156.7-70.3-156.7L-70.3-156.7z"/>
<g class="st2">
	<polygon class="st3" points="277.6,-5.8 272.7,0.3 277.4,0.4 272,7.5 288.1,-1.4 282.4,-1.4 285.4,-5.8 	"/>
	<path class="st4" d="M294.7-21.7c3.4,0.8,6,3.8,6,7.5c0,4.2-3.4,7.6-7.6,7.6h-24.7c-4.2,0-7.6-3-7.6-7.2c0-3.6,2.5-6.6,5.9-7.4
		c-0.2-0.6-0.3-1.3-0.3-2c0-3.4,2.8-6.2,6.2-6.2c1.7,0,3.2,0.7,4.3,1.8v0c1.5-3.3,4.8-5.6,8.7-5.6c5.3,0,9.5,4.3,9.5,9.5
		C294.9-23,294.7-21.7,294.7-21.7L294.7-21.7z"/>
</g>
</svg>
