<?xml version="1.0" encoding="utf-8"?>
<!-- Generator: Adobe Illustrator 22.1.0, SVG Export Plug-In . SVG Version: 6.00 Build 0)  -->
<svg version="1.1" id="Ebene_1" xmlns="http://www.w3.org/2000/svg" xmlns:xlink="http://www.w3.org/1999/xlink" x="0px" y="0px"
	 viewBox="0 0 80 80" style="enable-background:new 0 0 80 80;" xml:space="preserve">
<style type="text/css">
	.st0{fill:none;stroke:#ffffff;stroke-width:3;stroke-linecap:round;stroke-linejoin:round;stroke-miterlimit:10;}
</style>
<g>
	<path class="st0" d="M47.7,45.3c3.8,0.9,6.7,4.3,6.7,8.4c0,4.8-3.9,8.6-8.6,8.6H17.9c-4.8,0-8.6-3.4-8.6-8.2c0-4.1,2.8-7.5,6.6-8.4
		c-0.2-0.7-0.4-1.4-0.4-2.2c0-3.8,3.1-6.9,6.9-6.9c1.9,0,3.6,0.8,4.9,2l0,0c1.7-3.7,5.4-6.3,9.8-6.3c5.9,0,10.8,4.8,10.8,10.7
		C47.9,43.8,47.7,45.3,47.7,45.3L47.7,45.3z"/>
	<path class="st0" d="M40.6,32.9c1.6-1.8,3.7-3,6.2-3.5c5.9-1,11.5,2.9,12.6,8.8c0.9,4.9-1.7,9.6-5.9,11.6"/>
	<line class="st0" x1="48.7" y1="21.9" x2="48.7" y2="17.7"/>
	<line class="st0" x1="66.5" y1="41.7" x2="70.7" y2="41.7"/>
	<line class="st0" x1="62.2" y1="27.3" x2="65.1" y2="24.3"/>
	<line class="st0" x1="34.3" y1="27.3" x2="31.3" y2="24.3"/>
	<line class="st0" x1="63.5" y1="57" x2="60.5" y2="54"/>
</g>
</svg>
