<?xml version="1.0" encoding="utf-8"?>
<!-- Generator: Adobe Illustrator 22.1.0, SVG Export Plug-In . SVG Version: 6.00 Build 0)  -->
<svg version="1.1" id="Ebene_1" xmlns="http://www.w3.org/2000/svg" xmlns:xlink="http://www.w3.org/1999/xlink" x="0px" y="0px"
	 viewBox="0 0 70 43" style="enable-background:new 0 0 70 43;" xml:space="preserve">
<style type="text/css">
	.st0{fill:none;stroke:#ffffff;stroke-width:2;stroke-linecap:round;stroke-linejoin:round;stroke-miterlimit:10;}
	.st1{fill:none;stroke:#ffffff;stroke-width:2.0154;stroke-linecap:round;stroke-linejoin:round;stroke-miterlimit:10;}
	.st2{display:none;}
	.st3{display:inline;fill:#FFFFFF;}
	.st4{display:inline;fill:none;stroke:#FFFFFF;stroke-width:2;stroke-linecap:round;stroke-linejoin:round;stroke-miterlimit:10;}
</style>
<path class="st0" d="M52.9,19.2c4.4,1,7.6,4.9,7.6,9.5c0,5.4-4.4,9.8-9.8,9.8H19.2c-5.4,0-9.8-3.8-9.8-9.2c0-4.6,3.2-8.5,7.5-9.5
	c-0.3-0.8-0.4-1.6-0.4-2.5c0-4.3,3.5-7.9,7.9-7.9c2.2,0,4.1,0.9,5.5,2.3l0,0c1.9-4.2,6.2-7.2,11.1-7.2c6.7,0,12.2,5.5,12.2,12.2
	C53.2,17.5,52.9,19.2,52.9,19.2L52.9,19.2z"/>
<g>
	<path class="st0" d="M-39.6-95.7c0,6.1-5,11.1-11.1,11.1c-6.1,0-11.1-5-11.1-11.1c0-6.1,5-11.1,11.1-11.1
		C-44.6-106.9-39.6-101.9-39.6-95.7z"/>
	<line class="st1" x1="-50.7" y1="-112.2" x2="-50.7" y2="-115.8"/>
	<line class="st1" x1="-70.7" y1="-95.7" x2="-67.2" y2="-95.7"/>
	<line class="st1" x1="-39.1" y1="-84.1" x2="-36.3" y2="-81.4"/>
	<line class="st1" x1="-65.1" y1="-110.1" x2="-62.4" y2="-107.4"/>
	<line class="st1" x1="-62.4" y1="-84.1" x2="-65.1" y2="-81.4"/>
	<line class="st1" x1="-36.3" y1="-110.1" x2="-39.1" y2="-107.4"/>
	<g>
		<line class="st0" x1="-39.1" y1="-107.4" x2="-36.3" y2="-110.1"/>
		<line class="st0" x1="-65.1" y1="-81.4" x2="-62.4" y2="-84.1"/>
		<line class="st0" x1="-39.1" y1="-84.1" x2="-36.4" y2="-81.3"/>
		<line class="st0" x1="-65.1" y1="-110.1" x2="-62.4" y2="-107.3"/>
		<line class="st0" x1="-50.7" y1="-79.3" x2="-50.7" y2="-75.8"/>
		<line class="st0" x1="-50.7" y1="-115.7" x2="-50.7" y2="-112.2"/>
		<line class="st0" x1="-67.2" y1="-95.7" x2="-70.7" y2="-95.7"/>
		<line class="st0" x1="-30.8" y1="-95.7" x2="-34.3" y2="-95.7"/>
	</g>
</g>
<polygon points="-87.4,-140.8 -92.3,-134.7 -87.6,-134.6 -93,-127.5 -76.9,-136.4 -82.6,-136.4 -79.6,-140.8 "/>
<path class="st0" d="M-70.3-156.7c3.4,0.8,6,3.8,6,7.5c0,4.2-3.4,7.6-7.6,7.6h-24.7c-4.2,0-7.6-3-7.6-7.2c0-3.6,2.5-6.6,5.9-7.4
	c-0.2-0.6-0.3-1.3-0.3-2c0-3.4,2.8-6.2,6.2-6.2c1.7,0,3.2,0.7,4.3,1.8v0c1.5-3.3,4.8-5.6,8.7-5.6c5.3,0,9.5,4.3,9.5,9.5
	C-70.1-158-70.3-156.7-70.3-156.7L-70.3-156.7z"/>
<g class="st2">
	<polygon class="st3" points="277.6,-5.8 272.7,0.3 277.4,0.4 272,7.5 288.1,-1.4 282.4,-1.4 285.4,-5.8 	"/>
	<path class="st4" d="M294.7-21.7c3.4,0.8,6,3.8,6,7.5c0,4.2-3.4,7.6-7.6,7.6h-24.7c-4.2,0-7.6-3-7.6-7.2c0-3.6,2.5-6.6,5.9-7.4
		c-0.2-0.6-0.3-1.3-0.3-2c0-3.4,2.8-6.2,6.2-6.2c1.7,0,3.2,0.7,4.3,1.8v0c1.5-3.3,4.8-5.6,8.7-5.6c5.3,0,9.5,4.3,9.5,9.5
		C294.9-23,294.7-21.7,294.7-21.7L294.7-21.7z"/>
</g>
</svg>
