<?xml version="1.0" encoding="utf-8"?>
<!-- Generator: Adobe Illustrator 22.1.0, SVG Export Plug-In . SVG Version: 6.00 Build 0)  -->
<svg version="1.1" id="Ebene_1" xmlns="http://www.w3.org/2000/svg" xmlns:xlink="http://www.w3.org/1999/xlink" x="0px" y="0px"
	 viewBox="0 0 70 43" style="enable-background:new 0 0 70 43;" xml:space="preserve">
<style type="text/css">
	.st0{fill:none;stroke:#ffffff;stroke-width:2;stroke-linecap:round;stroke-linejoin:round;stroke-miterlimit:10;}
	.st1{display:none;}
	.st2{display:inline;fill:#FFFFFF;}
	.st3{display:inline;fill:none;stroke:#FFFFFF;stroke-width:2;stroke-linecap:round;stroke-linejoin:round;stroke-miterlimit:10;}
	.st4{fill:none;stroke:#ffffff;stroke-width:2;stroke-linejoin:round;stroke-miterlimit:10;}
</style>
<path class="st0" d="M15.7,23.1c-3.4,0.8-6,3.8-6,7.5c0,4.2,3.4,7.6,7.6,7.6h24.7c4.2,0,7.6-3,7.6-7.2c0-3.6-2.5-6.6-5.9-7.4
	c0.2-0.6,0.3-1.3,0.3-2c0-3.4-2.8-6.2-6.2-6.2c-1.7,0-3.2,0.7-4.3,1.8v0c-1.5-3.3-4.8-5.6-8.7-5.6c-5.3,0-9.5,4.3-9.5,9.5
	C15.5,21.8,15.7,23.1,15.7,23.1L15.7,23.1z"/>
<g class="st1">
	<polygon class="st2" points="277.6,-5.8 272.7,0.3 277.4,0.4 272,7.5 288.1,-1.4 282.4,-1.4 285.4,-5.8 	"/>
	<path class="st3" d="M294.7-21.7c3.4,0.8,6,3.8,6,7.5c0,4.2-3.4,7.6-7.6,7.6h-24.7c-4.2,0-7.6-3-7.6-7.2c0-3.6,2.5-6.6,5.9-7.4
		c-0.2-0.6-0.3-1.3-0.3-2c0-3.4,2.8-6.2,6.2-6.2c1.7,0,3.2,0.7,4.3,1.8v0c1.5-3.3,4.8-5.6,8.7-5.6c5.3,0,9.5,4.3,9.5,9.5
		C294.9-23,294.7-21.7,294.7-21.7L294.7-21.7z"/>
</g>
<path class="st4" d="M48.1,26l3.9,0c3.2,0,5.8-3,5.8-6.1c0-2.7-1.9-5-4.5-5.6v0c0,0,0.2-1,0.2-1.5c0-4-3.2-7.2-7.2-7.2
	c-2.9,0-5.4,1.7-6.5,4.2v0c-0.8-0.8-2-1.3-3.3-1.3c-4.2,0-5.2,4.4-5.5,5.2"/>
</svg>
