<?xml version="1.0" encoding="utf-8"?>
<!-- Generator: Adobe Illustrator 22.1.0, SVG Export Plug-In . SVG Version: 6.00 Build 0)  -->
<svg version="1.1" id="Ebene_1" xmlns="http://www.w3.org/2000/svg" xmlns:xlink="http://www.w3.org/1999/xlink" x="0px" y="0px"
	 viewBox="0 0 70 43" style="enable-background:new 0 0 70 43;" xml:space="preserve">
<style type="text/css">
	.st0{fill:none;stroke:#FFFFFF;stroke-width:2;stroke-linecap:round;stroke-linejoin:round;stroke-miterlimit:10;}
	.st1{fill:#FFFFFF;}
	.st2{display:none;}
	.st3{display:inline;fill:#FFFFFF;}
	.st4{display:inline;fill:none;stroke:#FFFFFF;stroke-width:2;stroke-linecap:round;stroke-linejoin:round;stroke-miterlimit:10;}
</style>
<path class="st0" d="M49.4,12.7c3.5,0.8,6.1,3.8,6.1,7.5c0,4.2-3.5,7.6-7.8,7.6H22.3c-4.3,0-7.8-3-7.8-7.2c0-3.6,2.6-6.6,6-7.4
	c-0.2-0.6-0.3-1.3-0.3-2C20.2,7.8,23,5,26.5,5c1.7,0,3.3,0.7,4.4,1.8l0,0c1.5-3.3,4.9-5.6,8.9-5.6c5.4,0,9.8,4.3,9.8,9.5
	C49.6,11.5,49.4,12.8,49.4,12.7L49.4,12.7z"/>
<path class="st1" d="M25.4,32.7c2.4,2.4,2.5,4.8,2.5,4.8c0,1.4-1.1,2.4-2.5,2.4s-2.5-1.1-2.5-2.4C22.9,37.5,23,35,25.4,32.7z"/>
<path class="st1" d="M44.7,32.7c2.4,2.4,2.5,4.8,2.5,4.8c0,1.4-1.1,2.4-2.5,2.4s-2.5-1.1-2.5-2.4C42.2,37.5,42.3,35,44.7,32.7z"/>
<path class="st1" d="M35,35c2.4,2.4,2.5,4.8,2.5,4.8c0,1.4-1.1,2.4-2.5,2.4s-2.5-1.1-2.5-2.4C32.5,39.8,32.6,37.3,35,35z"/>
<g class="st2">
	<polygon class="st3" points="277.6,-5.8 272.7,0.3 277.4,0.4 272,7.5 288.1,-1.4 282.4,-1.4 285.4,-5.8 	"/>
	<path class="st4" d="M294.7-21.7c3.4,0.8,6,3.8,6,7.5c0,4.2-3.4,7.6-7.6,7.6h-24.7c-4.2,0-7.6-3-7.6-7.2c0-3.6,2.5-6.6,5.9-7.4
		c-0.2-0.6-0.3-1.3-0.3-2c0-3.4,2.8-6.2,6.2-6.2c1.7,0,3.2,0.7,4.3,1.8l0,0c1.5-3.3,4.8-5.6,8.7-5.6c5.3,0,9.5,4.3,9.5,9.5
		C294.9-23,294.7-21.7,294.7-21.7L294.7-21.7z"/>
</g>
</svg>
