<?xml version="1.0" encoding="utf-8"?>
<!-- Generator: Adobe Illustrator 22.1.0, SVG Export Plug-In . SVG Version: 6.00 Build 0)  -->
<svg version="1.1" id="Ebene_1" xmlns="http://www.w3.org/2000/svg" xmlns:xlink="http://www.w3.org/1999/xlink" x="0px" y="0px"
	 viewBox="0 0 70 43" style="enable-background:new 0 0 70 43;" xml:space="preserve">
<style type="text/css">
	.st0{fill:none;stroke:#000000;stroke-width:2;stroke-linecap:round;stroke-linejoin:round;stroke-miterlimit:10;}
	.st1{fill:none;stroke:#000000;stroke-width:2.0154;stroke-linecap:round;stroke-linejoin:round;stroke-miterlimit:10;}
	.st2{fill:#FFFFFF;}
	.st3{fill:none;stroke:#FFFFFF;stroke-width:2;stroke-linecap:round;stroke-linejoin:round;stroke-miterlimit:10;}
	.st4{display:none;}
	.st5{display:inline;fill:#FFFFFF;}
	.st6{display:inline;fill:none;stroke:#FFFFFF;stroke-width:2;stroke-linecap:round;stroke-linejoin:round;stroke-miterlimit:10;}
</style>
<g>
	<path class="st0" d="M46.2-38.5c0,6.1-5,11.1-11.1,11.1S24-32.4,24-38.5s5-11.1,11.1-11.1C41.2-49.6,46.2-44.6,46.2-38.5z"/>
	<line class="st1" x1="35" y1="-55" x2="35" y2="-58.5"/>
	<line class="st1" x1="15.1" y1="-38.5" x2="18.6" y2="-38.5"/>
	<line class="st1" x1="46.7" y1="-26.9" x2="49.4" y2="-24.1"/>
	<line class="st1" x1="20.6" y1="-52.9" x2="23.4" y2="-50.1"/>
	<line class="st1" x1="23.4" y1="-26.9" x2="20.6" y2="-24.1"/>
	<line class="st1" x1="49.4" y1="-52.9" x2="46.7" y2="-50.1"/>
	<g>
		<line class="st0" x1="46.7" y1="-50.1" x2="49.4" y2="-52.9"/>
		<line class="st0" x1="20.6" y1="-24.1" x2="23.4" y2="-26.9"/>
		<line class="st0" x1="46.6" y1="-26.8" x2="49.4" y2="-24.1"/>
		<line class="st0" x1="20.6" y1="-52.8" x2="23.4" y2="-50.1"/>
		<line class="st0" x1="35" y1="-22" x2="35" y2="-18.5"/>
		<line class="st0" x1="35" y1="-58.4" x2="35" y2="-54.9"/>
		<line class="st0" x1="18.5" y1="-38.5" x2="15" y2="-38.5"/>
		<line class="st0" x1="55" y1="-38.5" x2="51.5" y2="-38.5"/>
	</g>
</g>
<polygon class="st2" points="32,29 27.1,35.1 31.8,35.2 26.4,42.3 42.5,33.4 36.8,33.4 39.8,29 "/>
<path class="st3" d="M49.1,13.1c3.4,0.8,6,3.8,6,7.5c0,4.2-3.4,7.6-7.6,7.6H22.8c-4.2,0-7.6-3-7.6-7.2c0-3.6,2.5-6.6,5.9-7.4
	c-0.2-0.6-0.3-1.3-0.3-2c0-3.4,2.8-6.2,6.2-6.2c1.7,0,3.2,0.7,4.3,1.8l0,0C32.8,4,36.1,1.7,40,1.7c5.3,0,9.5,4.3,9.5,9.5
	C49.3,11.8,49.1,13.1,49.1,13.1L49.1,13.1z"/>
<g class="st4">
	<polygon class="st5" points="277.6,-5.8 272.7,0.3 277.4,0.4 272,7.5 288.1,-1.4 282.4,-1.4 285.4,-5.8 	"/>
	<path class="st6" d="M294.7-21.7c3.4,0.8,6,3.8,6,7.5c0,4.2-3.4,7.6-7.6,7.6h-24.7c-4.2,0-7.6-3-7.6-7.2c0-3.6,2.5-6.6,5.9-7.4
		c-0.2-0.6-0.3-1.3-0.3-2c0-3.4,2.8-6.2,6.2-6.2c1.7,0,3.2,0.7,4.3,1.8l0,0c1.5-3.3,4.8-5.6,8.7-5.6c5.3,0,9.5,4.3,9.5,9.5
		C294.9-23,294.7-21.7,294.7-21.7L294.7-21.7z"/>
</g>
</svg>
