<?xml version="1.0" encoding="UTF-8"?>
<svg width="55px" height="23px" viewBox="0 0 55 23" version="1.1" xmlns="http://www.w3.org/2000/svg" xmlns:xlink="http://www.w3.org/1999/xlink">
    <!-- Generator: Sketch 46.2 (44496) - http://www.bohemiancoding.com/sketch -->
    <title>bing-white</title>
    <desc>Created with Sketch.</desc>
    <defs>
        <polygon id="path-1" points="0 22.684264 54.8979381 22.684264 54.8979381 0.0472203046 0 0.0472203046"></polygon>
    </defs>
    <g id="Page-1" stroke="none" stroke-width="1" fill="none" fill-rule="evenodd">
        <g id="bing-white">
            <polygon id="Fill-1" fill="#FFFFFF" points="0 0.115782335 0 20.2360301 4.4332268 22.752826 15.5147629 16.2295955 15.5147629 11.1038778 5.6814433 7.57821076 7.6118866 12.4814839 10.6715876 13.9468179 4.43073196 17.6237519 4.43073196 1.70657421"></polygon>
            <g id="Group-8" transform="translate(0.000000, 0.068516)">
                <path d="M23.7258887,11.8259896 L23.7258887,16.716879 L25.8434454,16.716879 C26.759734,16.716879 27.4701979,16.4958231 27.9748371,16.0533643 C28.4794763,15.6111369 28.7317959,15.0045643 28.7317959,14.2335308 C28.7317959,12.6286191 27.6606,11.8259896 25.5183216,11.8259896 L23.7258887,11.8259896 Z M23.7258887,6.00620284 L23.7258887,10.3947978 L25.3232701,10.3947978 C26.1777546,10.3947978 26.8495485,10.1846211 27.3386515,9.76438355 C27.8277546,9.34414599 28.0723629,8.75180893 28.0723629,7.98714091 C28.0723629,6.66647695 27.2210536,6.00620284 25.5183216,6.00620284 L23.7258887,6.00620284 Z M22.1655897,18.1575612 L22.1655897,4.56540487 L25.9548062,4.56540487 C27.1065175,4.56552061 28.0197443,4.85300893 28.6946,5.42798558 C29.3695691,6.00296223 29.7069402,6.75177442 29.7069402,7.6743064 C29.7069402,8.4453399 29.5025897,9.11510437 29.0940021,9.68383127 C28.685301,10.2525582 28.1219196,10.6569399 27.4037443,10.8970922 L27.4037443,10.9349379 C28.3014351,11.0423409 29.0197237,11.3883917 29.5583835,11.9728587 C30.0970433,12.5572099 30.3663732,13.3171328 30.3663732,14.2523957 C30.3663732,15.41508 29.9576722,16.3565927 29.1403835,17.0769338 C28.3230948,17.7973907 27.2922701,18.1574455 26.0477959,18.1574455 L22.1655897,18.1575612 Z" id="Fill-2" fill="#FFFFFF"></path>
                <mask id="mask-2" fill="white">
                    <use xlink:href="#path-1"></use>
                </mask>
                <g id="Clip-5"></g>
                <path d="M32.3528144,18.1575959 L33.8760309,18.1575959 L33.8760309,8.52569543 L32.3528144,8.52569543 L32.3528144,18.1575959 Z M33.1330206,6.29337868 C32.8606289,6.29337868 32.6283814,6.19847513 32.4365052,6.00901523 C32.2445155,5.81932386 32.1485773,5.57928731 32.1485773,5.28855838 C32.1485773,4.99794518 32.2445155,4.75617259 32.4365052,4.56347208 C32.6283814,4.37077157 32.8605155,4.27436345 33.1330206,4.27436345 C33.4115361,4.27436345 33.648433,4.37077157 33.8434845,4.56347208 C34.0385361,4.75617259 34.1360619,4.99794518 34.1360619,5.28855838 C34.1360619,5.56667208 34.0385361,5.80358376 33.8434845,5.99940914 C33.648433,6.19535025 33.4115361,6.29326294 33.1330206,6.29326294 L33.1330206,6.29337868 Z" id="Fill-4" fill="#FFFFFF" mask="url(#mask-2)"></path>
                <path d="M44.2244113,18.1575728 L42.7013082,18.1575728 L42.7013082,12.6930956 C42.7013082,10.6331098 42.0213495,9.60305909 40.5476897,9.60305909 C39.7861948,9.60305909 39.1562464,9.89529259 38.6577309,10.4798753 C38.1594423,11.0643423 37.9100711,11.8021596 37.9100711,12.6930956 L37.9100711,18.1575728 L36.3870814,18.1575728 L36.3870814,8.52567228 L37.9100711,8.52567228 L37.9100711,10.1040804 L37.947267,10.1040804 C38.6654423,8.87808853 39.6890093,8.29501036 41.0110505,8.29501036 C42.0511742,8.29501036 42.8468031,8.63793624 43.3978237,9.32344081 C43.9488443,10.0090611 44.2244113,10.9996459 44.2244113,12.2949637 L44.2244113,18.1575728 Z" id="Fill-6" fill="#FFFFFF" mask="url(#mask-2)"></path>
                <path d="M53.3748804,13.7690936 L53.3748804,12.4150977 C53.3748804,11.6441799 53.119499,10.9839058 52.6086227,10.4340439 C52.0978598,9.88429766 51.505901,9.60942457 50.7442928,9.60942457 C49.8031691,9.60942457 49.0663959,9.95848447 48.5339732,10.65672 C48.0014371,11.3550713 47.7352825,12.3329251 47.7352825,13.5903972 C47.7352825,14.6709088 47.9906639,15.4577982 48.5014268,16.1054571 C49.0121897,16.7531159 49.688633,17.0769454 50.5307567,17.0769454 C51.3851278,17.0769454 52.0359423,16.7673515 52.5715402,16.1481637 C53.1071381,15.5288601 53.3748804,14.7358368 53.3748804,13.7689779 L53.3748804,13.7690936 Z M54.8979835,17.3370043 C54.8979835,20.9009799 53.2262103,22.6829677 49.8827773,22.6829677 C48.7064577,22.6829677 47.7366433,22.4690875 46.8574371,22.0141291 L47.257066,20.6813129 C47.257066,20.6813129 48.2894784,21.3816317 49.8642928,21.3816317 C52.2046845,21.3816317 53.3748804,20.1342286 53.3748804,17.594054 L53.3748804,16.5432865 L53.3377979,16.5432865 C52.6132722,17.7817779 51.5929938,18.3849941 50.1380454,18.3849941 C48.9553753,18.3849941 48.0034784,18.0213515 47.2821278,17.1588865 C46.5608907,16.2963058 46.2001588,15.1383667 46.2001588,13.6849535 C46.2001588,12.0357149 46.5886742,10.7245413 47.3658186,9.75143269 C48.1428495,8.77820832 49.2062206,8.29176975 50.5560454,8.29176975 C51.8376021,8.29176975 52.7186227,8.81616975 53.3377979,9.86520122 L53.3748804,9.86520122 L53.3748804,8.52555655 L54.8979835,8.52555655 L54.8979835,17.3370043 Z" id="Fill-7" fill="#FFFFFF" mask="url(#mask-2)"></path>
            </g>
        </g>
    </g>
</svg>