<?xml version="1.0" encoding="UTF-8"?>
<svg width="55px" height="23px" viewBox="0 0 55 23" version="1.1" xmlns="http://www.w3.org/2000/svg" xmlns:xlink="http://www.w3.org/1999/xlink">
    <!-- Generator: Sketch 46.2 (44496) - http://www.bohemiancoding.com/sketch -->
    <title>bing-color</title>
    <desc>Created with Sketch.</desc>
    <defs>
        <polygon id="path-1" points="0 22.8832487 54.8979381 22.8832487 54.8979381 0.0476345178 0 0.0476345178"></polygon>
    </defs>
    <g id="Page-1" stroke="none" stroke-width="1" fill="none" fill-rule="evenodd">
        <g id="bing-color">
            <polygon id="Fill-1" fill="#068474" points="0 0.11679797 0 20.4135391 4.4332268 22.9524122 15.5147629 16.3719604 15.5147629 11.2012802 5.6814433 7.64468629 7.6118866 12.5909706 10.6715876 14.0691584 4.43073196 17.7783462 4.43073196 1.72154416"></polygon>
            <g id="Group-8" transform="translate(0.000000, 0.069117)">
                <path d="M23.7258887,11.9297264 L23.7258887,16.8635183 L25.8434454,16.8635183 C26.759734,16.8635183 27.4701979,16.6405234 27.9748371,16.1941832 C28.4794763,15.7480766 28.7317959,15.1361832 28.7317959,14.3583863 C28.7317959,12.7393964 27.6606,11.9297264 25.5183216,11.9297264 L23.7258887,11.9297264 Z M23.7258887,6.05888883 L23.7258887,10.4859802 L25.3232701,10.4859802 C26.1777546,10.4859802 26.8495485,10.2739599 27.3386515,9.85003604 C27.8277546,9.42611218 28.0723629,8.82857919 28.0723629,8.05720355 C28.0723629,6.72495482 27.2210536,6.05888883 25.5183216,6.05888883 L23.7258887,6.05888883 Z M22.1655897,18.3168381 L22.1655897,4.60545228 L25.9548062,4.60545228 C27.1065175,4.60556904 28.0197443,4.89557919 28.6946,5.47559949 C29.3695691,6.0556198 29.7069402,6.81100051 29.7069402,7.74162487 C29.7069402,8.51942183 29.5025897,9.19506142 29.0940021,9.76877716 C28.685301,10.3424929 28.1219196,10.7504218 27.4037443,10.9926807 L27.4037443,11.0308584 C28.3014351,11.1392036 29.0197237,11.4882898 29.5583835,12.0778838 C30.0970433,12.6673609 30.3663732,13.4339497 30.3663732,14.3774168 C30.3663732,15.5503 29.9576722,16.5000716 29.1403835,17.2267315 C28.3230948,17.9535081 27.2922701,18.3167213 26.0477959,18.3167213 L22.1655897,18.3168381 Z" id="Fill-2" fill="#068474"></path>
                <mask id="mask-2" fill="white">
                    <use xlink:href="#path-1"></use>
                </mask>
                <g id="Clip-5"></g>
                <path d="M32.3528144,18.3168731 L33.8760309,18.3168731 L33.8760309,8.60048223 L32.3528144,8.60048223 L32.3528144,18.3168731 Z M33.1330206,6.34858376 C32.8606289,6.34858376 32.6283814,6.25284772 32.4365052,6.06172589 C32.2445155,5.87037056 32.1485773,5.62822843 32.1485773,5.33494924 C32.1485773,5.0417868 32.2445155,4.7978934 32.4365052,4.60350254 C32.6283814,4.40911168 32.8605155,4.31185787 33.1330206,4.31185787 C33.4115361,4.31185787 33.648433,4.40911168 33.8434845,4.60350254 C34.0385361,4.7978934 34.1360619,5.0417868 34.1360619,5.33494924 C34.1360619,5.61550254 34.0385361,5.85449239 33.8434845,6.05203553 C33.648433,6.24969543 33.4115361,6.34846701 33.1330206,6.34846701 L33.1330206,6.34858376 Z" id="Fill-4" fill="#068474" mask="url(#mask-2)"></path>
                <path d="M44.2244113,18.3168497 L42.7013082,18.3168497 L42.7013082,12.8044386 C42.7013082,10.7263827 42.0213495,9.68729645 40.5476897,9.68729645 C39.7861948,9.68729645 39.1562464,9.9820934 38.6577309,10.5718041 C38.1594423,11.161398 37.9100711,11.9056873 37.9100711,12.8044386 L37.9100711,18.3168497 L36.3870814,18.3168497 L36.3870814,8.60045888 L37.9100711,8.60045888 L37.9100711,10.1927127 L37.947267,10.1927127 C38.6654423,8.9559665 39.6890093,8.3677736 41.0110505,8.3677736 C42.0511742,8.3677736 42.8468031,8.71370761 43.3978237,9.40522538 C43.9488443,10.0968599 44.2244113,11.096134 44.2244113,12.4028142 L44.2244113,18.3168497 Z" id="Fill-6" fill="#068474" mask="url(#mask-2)"></path>
                <path d="M53.3748804,13.8898751 L53.3748804,12.524002 C53.3748804,11.7463218 53.119499,11.0802558 52.6086227,10.5255706 C52.0978598,9.97100203 51.505901,9.69371777 50.7442928,9.69371777 C49.8031691,9.69371777 49.0663959,10.0458396 48.5339732,10.7502 C48.0014371,11.4546772 47.7352825,12.4411086 47.7352825,13.7096112 C47.7352825,14.799601 47.9906639,15.5933929 48.5014268,16.246733 C49.0121897,16.9000731 49.688633,17.2267431 50.5307567,17.2267431 C51.3851278,17.2267431 52.0359423,16.9144335 52.5715402,16.2898142 C53.1071381,15.6650782 53.3748804,14.8650985 53.3748804,13.8897584 L53.3748804,13.8898751 Z M54.8979835,17.4890832 C54.8979835,21.0843218 53.2262103,22.8819411 49.8827773,22.8819411 C48.7064577,22.8819411 47.7366433,22.6661848 46.8574371,22.2072355 L47.257066,20.8627279 C47.257066,20.8627279 48.2894784,21.5691898 49.8642928,21.5691898 C52.2046845,21.5691898 53.3748804,20.3108447 53.3748804,17.7483878 L53.3748804,16.688403 L53.3377979,16.688403 C52.6132722,17.9377584 51.5929938,18.546266 50.1380454,18.546266 C48.9553753,18.546266 48.0034784,18.1794335 47.2821278,17.309403 C46.5608907,16.4392558 46.2001588,15.2711594 46.2001588,13.804997 C46.2001588,12.1412914 46.5886742,10.8186162 47.3658186,9.83697157 C48.1428495,8.85521015 49.2062206,8.36450457 50.5560454,8.36450457 C51.8376021,8.36450457 52.7186227,8.89350457 53.3377979,9.95173807 L53.3748804,9.95173807 L53.3748804,8.60034213 L54.8979835,8.60034213 L54.8979835,17.4890832 Z" id="Fill-7" fill="#068474" mask="url(#mask-2)"></path>
            </g>
        </g>
    </g>
</svg>