<?xml version="1.0" encoding="UTF-8"?>
<svg width="20px" height="26px" viewBox="0 0 20 26" version="1.1" xmlns="http://www.w3.org/2000/svg" xmlns:xlink="http://www.w3.org/1999/xlink">
    <!-- Generator: Sketch 46.2 (44496) - http://www.bohemiancoding.com/sketch -->
    <title>bing-circle-white</title>
    <desc>Created with Sketch.</desc>
    <defs></defs>
    <g id="Page-1" stroke="none" stroke-width="1" fill="none" fill-rule="evenodd">
        <g id="bing-circle-white" fill-rule="nonzero" fill="#FFFFFF">
            <path d="M19.9994168,11.1721683 C19.9994168,10.9315585 19.8201989,10.6769496 19.6011548,10.6063416 L7.82559791,6.81896874 C7.60647051,6.7485357 7.50582187,6.86971553 7.60197131,7.08810171 L9.79299542,12.0840355 C9.88889491,12.3024217 10.1382669,12.5623678 10.3469795,12.661499 L13.3510246,14.0904586 C13.5598205,14.1894148 13.5648196,14.3621289 13.362106,14.4742968 L0.543735914,21.5561861 C0.340938915,21.6682665 0.314860254,21.6286315 0.485829622,21.4685167 L5.41061393,16.8621082 C5.58166662,16.7019933 5.72155822,16.374239 5.72155822,16.1336293 L5.72505759,2.16872552 C5.72489096,1.92811575 5.54558975,1.67333187 5.32654566,1.60272384 L0.398428615,0.0181991163 C0.179301209,-0.0520589375 0,0.0874072366 0,0.32801701 L0,21.5138388 C0,21.7544486 0.153555821,22.0642665 0.34118887,22.2023327 L5.34912495,25.887862 C5.536758,26.0259283 5.85128498,26.038265 6.04816637,25.9150728 L19.6420641,17.4106985 C19.8388622,17.2875063 20,16.9899376 20,16.7493278 L19.9994168,11.1721683 Z" id="XMLID_6_"></path>
        </g>
    </g>
</svg>