<?xml version="1.0" encoding="UTF-8"?>
<svg width="63px" height="20px" viewBox="0 0 63 20" version="1.1" xmlns="http://www.w3.org/2000/svg" xmlns:xlink="http://www.w3.org/1999/xlink">
    <!-- Generator: Sketch 46.2 (44496) - http://www.bohemiancoding.com/sketch -->
    <title>google-white</title>
    <desc>Created with Sketch.</desc>
    <defs>
        <polygon id="path-1" points="15.0676805 0.182682927 9.84375e-05 0.182682927 9.84375e-05 15.5076829 15.0676805 15.5076829 15.0676805 0.182682927"></polygon>
        <polygon id="path-3" points="0 19.817439 62.7959883 19.817439 62.7959883 0.24402439 0 0.24402439"></polygon>
    </defs>
    <g id="Page-1" stroke="none" stroke-width="1" fill="none" fill-rule="evenodd">
        <g id="google-white">
            <g id="Group-3" transform="translate(0.000000, 0.061341)">
                <mask id="mask-2" fill="white">
                    <use xlink:href="#path-1"></use>
                </mask>
                <g id="Clip-2"></g>
                <path d="M7.84310625,7.1554878 L7.84310625,9.24987805 L12.8941805,9.24987805 C12.7396336,10.4247561 12.344407,11.2847561 11.7432,11.8891463 C11.0044266,12.6213415 9.8532,13.4215854 7.84310625,13.4215854 C4.73321953,13.4215854 2.30230547,10.9357317 2.30230547,7.85353659 C2.30230547,4.77158537 4.73321953,2.2854878 7.84310625,2.2854878 C9.51826641,2.2854878 10.7465203,2.94109756 11.6487,3.78402439 L13.1346141,2.31109756 C11.8805203,1.10207317 10.1967469,0.182560976 7.84310625,0.182560976 C3.58223906,0.182560976 9.84375e-05,3.62231707 9.84375e-05,7.8452439 C9.84375e-05,12.0681707 3.58223906,15.5076829 7.84310625,15.5076829 C10.1453133,15.5076829 11.8805203,14.7584146 13.2377273,13.3620732 C14.6296336,11.9828049 15.0676805,10.0332927 15.0676805,8.46646341 C15.0676805,7.98134146 15.0332273,7.53012195 14.9559539,7.1554878 L7.84310625,7.1554878 Z" id="Fill-1" fill="#FFFFFF" mask="url(#mask-2)"></path>
            </g>
            <path d="M21.3816094,13.4575366 C19.8696094,13.4575366 18.5638359,12.2229024 18.5638359,10.4607073 C18.5638359,8.68119512 19.8696094,7.46363415 21.3816094,7.46363415 C22.8936094,7.46363415 24.1991367,8.68119512 24.1991367,10.4607073 C24.1991367,12.2229024 22.8936094,13.4575366 21.3816094,13.4575366 M21.3816094,5.51412195 C18.6238828,5.51412195 16.3733555,7.59143902 16.3733555,10.4607073 C16.3733555,13.3043659 18.6238828,15.4072927 21.3816094,15.4072927 C24.1390898,15.4072927 26.3898633,13.3126585 26.3898633,10.4607073 C26.3898633,7.59143902 24.1390898,5.51412195 21.3816094,5.51412195" id="Fill-4" fill="#FFFFFF"></path>
            <path d="M43.4159086,13.4575366 C41.9039086,13.4575366 40.7531742,12.1804634 40.7531742,10.4607073 C40.7531742,8.71534146 41.9039086,7.46363415 43.4159086,7.46363415 C44.910682,7.46363415 46.0788891,8.74095122 46.0788891,10.4775366 C46.0875023,12.2058293 44.910682,13.4575366 43.4159086,13.4575366 L43.4159086,13.4575366 Z M45.9332016,6.62095122 L45.855682,6.62095122 C45.3662016,6.04192683 44.4212016,5.51412195 43.2269086,5.51412195 C40.7357016,5.51412195 38.5624477,7.66802439 38.5624477,10.4607073 C38.5624477,13.2363171 40.7357016,15.4072927 43.2269086,15.4072927 C44.4212016,15.4072927 45.3662016,14.8792439 45.855682,14.2833902 L45.9332016,14.2833902 L45.9332016,14.9731463 C45.9332016,16.8631463 44.910682,17.8763171 43.269975,17.8763171 C41.9299945,17.8763171 41.096475,16.9226585 40.7531742,16.113878 L38.8459477,16.8972927 C39.3957211,18.2085122 40.8474281,19.8172927 43.269975,19.8172927 C45.8387016,19.8172927 48.0119555,18.319 48.0119555,14.666561 L48.0119555,5.7694878 L45.9332016,5.7694878 L45.9332016,6.62095122 Z" id="Fill-6" fill="#FFFFFF"></path>
            <path d="M32.549073,13.4575366 C31.037073,13.4575366 29.7315457,12.2229024 29.7315457,10.4607073 C29.7315457,8.68119512 31.037073,7.46363415 32.549073,7.46363415 C34.061073,7.46363415 35.3668465,8.68119512 35.3668465,10.4607073 C35.3668465,12.2229024 34.061073,13.4575366 32.549073,13.4575366 M32.549073,5.51412195 C29.7915926,5.51412195 27.5408191,7.59143902 27.5408191,10.4607073 C27.5408191,13.3043659 29.7915926,15.4072927 32.549073,15.4072927 C35.3065535,15.4072927 37.557327,13.3126585 37.557327,10.4607073 C37.557327,7.59143902 35.3065535,5.51412195 32.549073,5.51412195" id="Fill-8" fill="#FFFFFF"></path>
            <mask id="mask-4" fill="white">
                <use xlink:href="#path-3"></use>
            </mask>
            <g id="Clip-11"></g>
            <polygon id="Fill-10" fill="#FFFFFF" mask="url(#mask-4)" points="49.7298867 15.4071951 51.8861602 15.4071951 51.8861602 0.448170732 49.7298867 0.448170732"></polygon>
            <path d="M58.3891629,7.37009756 C59.274116,7.37009756 60.0298699,7.82131707 60.2791629,8.45985366 L55.7692488,10.3071707 C55.7692488,8.22985366 57.255409,7.37009756 58.3891629,7.37009756 M58.5437098,13.4574146 C57.4269363,13.4574146 56.6367293,12.9552195 56.1211629,11.959122 L62.7959637,9.22619512 L62.5727566,8.6642439 C62.1603035,7.55741463 60.8889832,5.514 58.3030301,5.514 C55.7347957,5.514 53.5955027,7.51473171 53.5955027,10.4605854 C53.5955027,13.2361951 55.7087098,15.4074146 58.5437098,15.4074146 C60.8286902,15.4074146 62.1516902,14.0193659 62.7014637,13.219122 L61.0004637,12.0954634 C60.4337098,12.9125366 59.6604832,13.4574146 58.5437098,13.4574146" id="Fill-12" fill="#FFFFFF" mask="url(#mask-4)"></path>
        </g>
    </g>
</svg>