<?xml version="1.0" encoding="UTF-8"?>
<svg width="26px" height="26px" viewBox="0 0 26 26" version="1.1" xmlns="http://www.w3.org/2000/svg" xmlns:xlink="http://www.w3.org/1999/xlink">
    <!-- Generator: Sketch 46.2 (44496) - http://www.bohemiancoding.com/sketch -->
    <title>google-circle-color</title>
    <desc>Created with Sketch.</desc>
    <defs></defs>
    <g id="Page-1" stroke="none" stroke-width="1" fill="none" fill-rule="evenodd">
        <g id="google-circle-color" fill-rule="nonzero">
            <path d="M5.76214844,15.712125 L4.857125,19.0907031 L1.54928516,19.1606797 C0.560726562,17.3271211 0,15.2292969 0,13 C0,10.8442852 0.524265625,8.81141016 1.4535625,7.02142188 L1.45427344,7.02142188 L4.39917969,7.56132813 L5.68922656,10.4885625 C5.41922266,11.2757227 5.27205859,12.1207227 5.27205859,13 C5.27216016,13.9542812 5.44501953,14.8685977 5.76214844,15.712125 Z" id="Shape" fill="#FBBB00"></path>
            <path d="M25.7728555,10.5714375 C25.9221523,11.3578359 26,12.1699805 26,13 C26,13.9307188 25.9021445,14.8385859 25.7157266,15.7143086 C25.0828906,18.6943047 23.4293008,21.2964375 21.1386094,23.1378672 L21.1378984,23.1371563 L17.4286328,22.9478945 L16.9036562,19.6707266 C18.4236406,18.7793125 19.6115156,17.3843008 20.2372422,15.7143086 L13.2857969,15.7143086 L13.2857969,10.5714375 L20.3386523,10.5714375 L25.7728555,10.5714375 L25.7728555,10.5714375 Z" id="Shape" fill="#518EF8"></path>
            <path d="M21.1378477,23.1371562 L21.1385586,23.1378672 C18.9107344,24.9285664 16.0806953,26 13,26 C8.04928516,26 3.74501562,23.2328789 1.54928516,19.1607305 L5.76214844,15.7121758 C6.85998828,18.6421523 9.68642187,20.7278906 13,20.7278906 C14.4242617,20.7278906 15.7585898,20.3428672 16.9035547,19.6707266 L21.1378477,23.1371562 Z" id="Shape" fill="#28B446"></path>
            <path d="M21.2978594,2.99284375 L17.086418,6.4406875 C15.9014375,5.69999219 14.5006875,5.27210938 13,5.27210938 C9.61141797,5.27210938 6.73212109,7.45351953 5.68927734,10.4885625 L1.45427344,7.02142187 L1.4535625,7.02142187 C3.61714844,2.84999609 7.97570313,0 13,0 C16.1542773,0 19.0464219,1.12358594 21.2978594,2.99284375 Z" id="Shape" fill="#F14336"></path>
        </g>
    </g>
</svg>