<svg xmlns="http://www.w3.org/2000/svg" xmlns:xlink="http://www.w3.org/1999/xlink" viewBox="9469 -2930 48 48">
  <defs>
    <style>
      .cls-1 {
        clip-path: url(#clip-SAC-48px);
      }

      .cls-2 {
        fill: #f7b40d;
      }

      .cls-3 {
        fill: #e02020;
      }

      .cls-4 {
        fill: #2fa528;
      }

      .cls-5 {
        fill: #e22d10;
      }

      .cls-6 {
        fill: #0876c1;
      }
    </style>
    <clipPath id="clip-SAC-48px">
      <rect x="9469" y="-2930" width="48" height="48"/>
    </clipPath>
  </defs>
  <g id="SAC-48px" class="cls-1">
    <g id="Group_949" data-name="Group 949" transform="translate(9470 -2927.99)">
      <path id="Path_1236" data-name="Path 1236" class="cls-2" d="M29.217,5.99c.6-1.307,1.194-2.586,1.847-3.951C24.044-.916,17.195-.774,10.658,3.119,4.32,6.9.881,12.612,0,19.973c1.506.142,2.927.256,4.348.369C5.116,9.23,17.422.675,29.217,5.99Z"/>
      <path id="Path_1237" data-name="Path 1237" class="cls-3" d="M102.008,63.7c-1.421.227-2.814.483-4.292.739A17.576,17.576,0,0,1,82,84.9c.114,1.449.256,2.842.369,4.235C93,88.8,104.367,78.138,102.008,63.7Z" transform="translate(-58.695 -45.603)"/>
      <path id="Path_1238" data-name="Path 1238" class="cls-4" d="M4.649,82.4c-1.336.114-2.757.227-4.149.369.341,8.9,8.1,18.9,19.781,19.866.114-1.449.256-2.842.369-4.206C11.5,96.866,6.184,91.58,4.649,82.4Z" transform="translate(-0.358 -58.988)"/>
      <path id="Path_1239" data-name="Path 1239" class="cls-5" d="M115.908,21.247a18.331,18.331,0,0,1,2.586,4.689c1.364-.483,2.7-.995,4.093-1.506A22.167,22.167,0,0,0,114.6,14c-.824,1.194-1.648,2.359-2.5,3.553A19.552,19.552,0,0,1,115.908,21.247Z" transform="translate(-80.24 -10.028)"/>
      <path id="Path_1240" data-name="Path 1240" class="cls-6" d="M44.345,54.732V53.027a11.049,11.049,0,0,0,4.149-1.734l1.222,1.222a1.166,1.166,0,0,0,1.648,0l1.251-1.251a1.166,1.166,0,0,0,0-1.648l-1.222-1.222a10.807,10.807,0,0,0,1.677-4.121h1.762A1.17,1.17,0,0,0,56,43.108V41.318a1.17,1.17,0,0,0-1.165-1.165H53.07a11.01,11.01,0,0,0-1.705-4.093l1.251-1.251a1.166,1.166,0,0,0,0-1.648l-1.279-1.279a1.166,1.166,0,0,0-1.648,0l-1.251,1.251a11.139,11.139,0,0,0-4.121-1.705V29.665A1.17,1.17,0,0,0,43.152,28.5H41.361A1.17,1.17,0,0,0,40.2,29.665v1.762a10.682,10.682,0,0,0-4.121,1.705L34.853,31.91a1.166,1.166,0,0,0-1.648,0l-1.222,1.279a1.166,1.166,0,0,0,0,1.648L33.2,36.06a10.862,10.862,0,0,0-1.734,4.149H29.765A1.17,1.17,0,0,0,28.6,41.375v1.791a1.17,1.17,0,0,0,1.165,1.165h1.705a11.073,11.073,0,0,0,1.705,4.149l-1.194,1.194a1.166,1.166,0,0,0,0,1.648l1.25,1.251a1.166,1.166,0,0,0,1.648,0l1.194-1.194a10.5,10.5,0,0,0,4.178,1.705v1.705a1.17,1.17,0,0,0,1.165,1.165h1.791A1.236,1.236,0,0,0,44.345,54.732Zm-6.253-8.3a5.949,5.949,0,1,1,8.413,0A5.935,5.935,0,0,1,38.093,46.434Z" transform="translate(-20.472 -20.407)"/>
      <path id="Path_1241" data-name="Path 1241" class="cls-3" d="M129.152,126.447l-1.933,1.933a1.664,1.664,0,0,1-2.359,0l-6.395-6.423a1.664,1.664,0,0,1,0-2.359l1.933-1.933a1.664,1.664,0,0,1,2.359,0l6.423,6.423A1.69,1.69,0,0,1,129.152,126.447Z" transform="translate(-84.445 -83.88)"/>
    </g>
  </g>
</svg>
