<svg id="Layer_1" data-name="Layer 1" xmlns="http://www.w3.org/2000/svg" viewBox="0 0 1664 1664"><defs><style>.cls-1{fill:#ccc;}</style></defs><title>ico_search</title><path class="cls-1" d="M1216,832q0-185-131.5-316.5T768,384q-185,0-316.5,131.5T320,832q0,185,131.5,316.5T768,1280q185,0,316.5-131.5T1216,832Zm512,832q0,52-38,90t-90,38q-54,0-90-38l-343-342q-179,124-399,124-143,0-273.5-55.5t-225-150q-94.5-94.5-150-225T64,832q0-143,55.5-273.5t150-225q94.5-94.5,225-150T768,128q143,0,273.5,55.5t225,150q94.5,94.5,150,225T1472,832q0,220-124,399l343,343Q1728,1611,1728,1664Z" transform="translate(-64 -128)"/></svg>