<?xml version="1.0" encoding="UTF-8"?>
<svg width="37px" height="37px" viewBox="0 0 37 37" version="1.1" xmlns="http://www.w3.org/2000/svg" xmlns:xlink="http://www.w3.org/1999/xlink">
    <!-- Generator: Sketch 46.2 (44496) - http://www.bohemiancoding.com/sketch -->
    <title>icon-none</title>
    <desc>Created with Sketch.</desc>
    <defs>
        <polygon id="path-1" points="0 18.1369446 0 36.2738892 36.6810332 36.2738892 36.6810332 18.1369446 36.6810332 0 0 0"></polygon>
    </defs>
    <g id="Page-1" stroke="none" stroke-width="1" fill="none" fill-rule="evenodd">
        <g id="icon-none" transform="translate(0.007380, 0.000000)">
            <mask id="mask-2" fill="white">
                <use xlink:href="#path-1"></use>
            </mask>
            <g id="Clip-2"></g>
            <path d="M18.3407014,33.4226553 C9.80378292,33.4226553 2.88326987,26.5788605 2.88326987,18.1373102 C2.88326987,14.3896692 4.24757402,10.9580115 6.51064515,8.29935052 L28.2882782,29.8355649 C25.5998138,32.0734753 22.1298355,33.4226553 18.3407014,33.4226553 M33.7977633,18.1373102 C33.7977633,21.8843663 32.4333852,25.3158046 30.1702402,27.9743925 L8.39268107,6.43825125 C11.0812193,4.20026768 14.5513455,2.85123391 18.3407014,2.85123391 C26.8772503,2.85123391 33.7977633,9.69437075 33.7977633,18.1373102 M30.6303065,31.5990617 C30.6658669,31.5673318 30.7009836,31.5353094 30.7363221,31.503287 C30.8007152,31.4447987 30.8645907,31.3860179 30.9282444,31.3266522 C30.9626958,31.2944105 30.997295,31.262315 31.0315246,31.229854 C31.1141044,31.1515527 31.1960928,31.0724472 31.2771201,30.9926837 C31.2984858,30.971701 31.3197777,30.9506452 31.3409956,30.9295163 C31.4215054,30.8495335 31.5012758,30.7686734 31.5802331,30.6872283 C31.6132058,30.653232 31.645809,30.6188701 31.678486,30.5846544 C31.7380736,30.5222912 31.7971437,30.4595624 31.8557702,30.3963219 C31.8888169,30.3607171 31.9219375,30.3251124 31.9546885,30.2892151 C32.023887,30.2134727 32.0923461,30.1371454 32.1602139,30.0602332 C34.9751724,26.8721796 36.6810332,22.7018872 36.6810332,18.1373833 C36.6810332,8.11957195 28.4696285,0 18.3407753,0 C13.7262867,0 9.51028083,1.68556111 6.28685905,4.46755944 C6.20782788,4.53577147 6.12938816,4.60456839 6.05153987,4.67402331 C6.01553596,4.7061919 5.97982777,4.73872604 5.94404565,4.77111397 C5.88002228,4.82923676 5.81644248,4.88779822 5.75323233,4.94679835 C5.71855917,4.97918627 5.68373814,5.01150108 5.64936069,5.04410834 C5.56744625,5.12182473 5.48612326,5.20019912 5.40568742,5.27937772 C5.38336056,5.30131085 5.36118156,5.32331709 5.33892863,5.34539644 C5.25886245,5.42501371 5.17953556,5.50536208 5.10094797,5.58644155 C5.0679752,5.62043791 5.03529814,5.65479981 5.00262108,5.68908861 C4.94281171,5.75167114 4.88351985,5.81469234 4.82467158,5.87807908 C4.79206845,5.9132452 4.75939139,5.94833821 4.72701005,5.98372366 C4.65588939,6.0617325 4.58536018,6.14025311 4.51557026,6.21950482 C4.49886208,6.23836731 4.48178425,6.25701048 4.46515,6.27594608 C4.46507607,6.2760923 4.46500214,6.27616541 4.46492821,6.27631163 C1.68301637,9.45617695 0,13.6021967 0,18.1373833 C0,28.1535862 8.21140472,36.2738892 18.3407753,36.2738892 C22.9261355,36.2738892 27.1184838,34.6095301 30.334069,31.8586038 C30.3342908,31.8583844 30.3345865,31.8581651 30.3348823,31.8579458 C30.353069,31.8423732 30.3709601,31.8264352 30.388999,31.8107895 C30.4700263,31.740896 30.5505361,31.6702713 30.6303065,31.5990617" id="Fill-1" fill="#949494" mask="url(#mask-2)"></path>
        </g>
    </g>
</svg>