<?xml version="1.0" encoding="UTF-8"?>
<svg width="22px" height="20px" viewBox="0 0 22 20" version="1.1" xmlns="http://www.w3.org/2000/svg" xmlns:xlink="http://www.w3.org/1999/xlink">
    <!-- Generator: Sketch 46.2 (44496) - http://www.bohemiancoding.com/sketch -->
    <title>icon-color</title>
    <desc>Created with Sketch.</desc>
    <defs></defs>
    <g id="Page-1" stroke="none" stroke-width="1" fill="none" fill-rule="evenodd">
        <g id="icon-color" transform="translate(0.444575, 0.373098)" fill-rule="nonzero" fill="#1DA1F2">
            <path d="M16.6730834,6.78332087 C16.6997283,6.55685442 16.7141332,6.32683049 16.7141332,6.09349163 C16.7141332,2.73352518 13.8989267,0 10.4387457,0 C6.97856467,0 4.16327491,2.73360603 4.16327491,6.09349163 C4.16327491,6.33645188 4.17967821,6.57561208 4.20832154,6.81113395 C1.76098202,7.64269674 0,9.90509733 0,12.5616514 C0,15.9216179 2.81520649,18.655143 6.27538753,18.655143 C7.89157085,18.655143 9.36661915,18.0585361 10.4801287,17.0804695 C11.5937214,18.0585361 13.0690195,18.655143 14.6852028,18.655143 C18.1454672,18.655143 20.9605904,15.921537 20.9605904,12.5616514 C20.9605904,9.87631402 19.1616393,7.59273021 16.6730834,6.78332087 Z M10.4386624,2.42555992 C12.5215489,2.42555992 14.216085,4.07105977 14.216085,6.09349163 C14.216085,6.22713998 14.2075087,6.35876703 14.1930205,6.48869619 C12.0615903,6.65015763 10.2265852,7.8492736 9.22390209,9.5657615 C7.73536478,9.07337284 6.66123985,7.70341659 6.66123985,6.09349163 C6.66123985,4.07105977 8.35585927,2.42555992 10.4386624,2.42555992 Z M6.27538753,16.2295831 C4.19258436,16.2295831 2.49796494,14.5841641 2.49796494,12.5616514 C2.49796494,10.9769523 3.53853388,9.62389409 4.99093396,9.1123435 C5.7508149,10.3994264 6.98031324,11.392289 8.4513648,11.8704477 C8.4248031,12.0974801 8.40981531,12.3278274 8.40981531,12.5616514 C8.40981531,13.4717215 8.61781253,14.33514 8.98776114,15.1114 C8.30065425,15.8005016 7.33877121,16.2295831 6.27538753,16.2295831 Z M14.6852028,16.2295831 C12.6023164,16.2295831 10.9077803,14.5840833 10.9077803,12.5616514 C10.9077803,10.5392195 12.6023997,8.8937197 14.6852028,8.8937197 C16.768006,8.8937197 18.4626254,10.5392195 18.4626254,12.5616514 C18.4626254,14.5840833 16.7680893,16.2295831 14.6852028,16.2295831 Z" id="Shape"></path>
        </g>
    </g>
</svg>