<?xml version="1.0" encoding="UTF-8"?>
<svg width="19px" height="24px" viewBox="0 0 19 24" version="1.1" xmlns="http://www.w3.org/2000/svg" xmlns:xlink="http://www.w3.org/1999/xlink">
    <!-- Generator: Sketch 46.2 (44496) - http://www.bohemiancoding.com/sketch -->
    <title>icon-location</title>
    <desc>Created with Sketch.</desc>
    <defs></defs>
    <g id="Page-1" stroke="none" stroke-width="1" fill="none" fill-rule="evenodd">
        <g id="icon-location" transform="translate(0.064649, 0.729763)" fill-rule="nonzero" fill="#1DA1F2">
            <path d="M9.17025829,0 C4.11377787,0 0,3.8985575 0,8.69058977 C0,12.4834075 1.78444056,15.9211909 4.35183778,18.770675 C6.4738814,21.1258653 8.57891419,22.4701512 8.66749888,22.5262535 C8.82013783,22.6228717 8.99519806,22.6711808 9.17025829,22.6711808 C9.34531852,22.6711808 9.52037875,22.6228717 9.6730177,22.5262535 C9.7616024,22.4701512 11.8666352,21.1258653 13.9886788,18.770675 C16.5562136,15.9210581 18.3405166,12.4832746 18.3405166,8.69058977 C18.3405166,3.8985575 14.2267387,0 9.17025829,0 Z M9.1704417,20.6969283 C7.43918863,19.4425301 1.83405166,14.9005893 1.83405166,8.69058977 C1.83405166,4.87523374 5.12507395,1.771186 9.17025829,1.771186 C13.2154426,1.771186 16.5064649,4.87523374 16.5064649,8.69058977 C16.5064649,13.460128 13.0989345,17.854839 9.1704417,20.6969283 Z" id="Shape"></path>
            <path d="M9.17025829,4.53423615 C6.64201808,4.53423615 4.58512915,6.56829449 4.58512915,9.06847231 C4.58512915,11.5686501 6.64201808,13.6027085 9.17025829,13.6027085 C11.6984985,13.6027085 13.7553874,11.5686501 13.7553874,9.06847231 C13.7553874,6.56829449 11.6984985,4.53423615 9.17025829,4.53423615 Z M9.17025829,11.789014 C7.65331417,11.789014 6.4191808,10.568579 6.4191808,9.06847231 C6.4191808,7.56836562 7.65331417,6.34793061 9.17025829,6.34793061 C10.6872024,6.34793061 11.9213358,7.56836562 11.9213358,9.06847231 C11.9213358,10.568579 10.6872024,11.789014 9.17025829,11.789014 Z" id="Shape"></path>
        </g>
    </g>
</svg>