<?xml version="1.0" encoding="UTF-8"?>
<svg width="24px" height="24px" viewBox="0 0 24 24" version="1.1" xmlns="http://www.w3.org/2000/svg" xmlns:xlink="http://www.w3.org/1999/xlink">
    <!-- Generator: Sketch 46.2 (44496) - http://www.bohemiancoding.com/sketch -->
    <title>icon-search-engine</title>
    <desc>Created with Sketch.</desc>
    <defs></defs>
    <g id="Page-1" stroke="none" stroke-width="1" fill="none" fill-rule="evenodd">
        <g id="icon-search-engine" transform="translate(0.444575, 0.234327)" fill-rule="nonzero" fill="#1DA1F2">
            <path d="M5.48350956,4.4060655 C5.24245427,4.1334923 4.85161385,4.1334923 4.61064086,4.4060655 C3.90772066,5.2008923 3.52066601,6.25759038 3.52066601,7.38147789 C3.52066601,8.50536541 3.90780296,9.56215655 4.61064086,10.3568903 C4.73112735,10.4932234 4.88914243,10.5613435 5.04707521,10.5613435 C5.20500799,10.5613435 5.36302307,10.4932234 5.48350956,10.3568903 C5.72456486,10.0843171 5.72456486,9.6423744 5.48350956,9.36989426 C5.0138262,8.83879995 4.75507651,8.13265948 4.75507651,7.38157095 C4.75507651,6.63048243 5.0138262,5.92434196 5.48350956,5.39324764 C5.72464716,5.12058138 5.72464716,4.6786387 5.48350956,4.4060655 Z" id="Shape" transform="translate(4.592514, 7.381490) rotate(7.000000) translate(-4.592514, -7.381490) "></path>
            <path d="M23.3305668,19.9465369 L15.1947093,11.9023676 C16.9016615,8.85403416 16.4508458,4.93190222 13.8377085,2.34810143 C12.3061874,0.833952519 10.2701169,0 8.10438003,0 C5.93864315,0 3.90245886,0.833952519 2.37105156,2.34810143 C-0.79035052,5.47387569 -0.79035052,10.5598717 2.37105156,13.685646 C3.90245886,15.1997949 5.93864315,16.0337474 8.10438003,16.0337474 C9.503161,16.0337474 10.8468423,15.6840254 12.0364948,15.0297176 L20.1700754,23.0716358 C20.3367406,23.2364228 20.5553179,23.3189288 20.7737814,23.3189288 C20.9922449,23.3189288 21.2108222,23.2365353 21.3774874,23.0716358 L23.3306806,21.1404544 C23.664011,20.8107679 23.664011,20.2762234 23.3305668,19.9465369 Z M3.57846353,12.4917285 C1.08292536,10.0242016 1.08292536,6.0093207 3.57846353,3.54190632 C4.78735546,2.34663816 6.39469561,1.68839085 8.10438003,1.68839085 C9.81406446,1.68839085 11.4214046,2.34663816 12.6302965,3.54190632 C15.1258347,6.0093207 15.1258347,10.0243141 12.6302965,12.4917285 C11.4214046,13.6869967 9.81406446,14.345244 8.10438003,14.345244 C6.39469561,14.3453566 4.78735546,13.6871092 3.57846353,12.4917285 Z M13.8377085,13.685646 C13.9630489,13.5617181 14.0816727,13.4336255 14.1971088,13.303732 L19.94,18.9819029 L19.1943326,19.7191669 L13.4515552,14.0411085 C13.5830432,13.9266356 13.7127096,13.8092362 13.8377085,13.685646 Z M20.7736676,21.2808159 L20.4017446,20.9130844 L21.147412,20.1758204 L21.519335,20.5435519 L20.7736676,21.2808159 Z" id="Shape"></path>
        </g>
    </g>
</svg>