<?xml version="1.0" encoding="utf-8"?>
<!-- Generator: Adobe Illustrator 21.0.2, SVG Export Plug-In . SVG Version: 6.00 Build 0)  -->
<svg version="1.1"
	 id="Layer_1" xmlns:cc="http://creativecommons.org/ns#" xmlns:dc="http://purl.org/dc/elements/1.1/" xmlns:inkscape="http://www.inkscape.org/namespaces/inkscape" xmlns:rdf="http://www.w3.org/1999/02/22-rdf-syntax-ns#" xmlns:sodipodi="http://sodipodi.sourceforge.net/DTD/sodipodi-0.dtd" xmlns:svg="http://www.w3.org/2000/svg"
	 xmlns="http://www.w3.org/2000/svg" xmlns:xlink="http://www.w3.org/1999/xlink" x="0px" y="0px" viewBox="0 0 64 90"
	 style="enable-background:new 0 0 64 90;" xml:space="preserve">
<style type="text/css">
	.st0{fill:#6A6A6A;}
</style>
<g transform="translate(0,-952.36218)">
	<path class="st0" d="M0,954.4v86c0,1,1,2,2,2h60c1,0,2-1,2-2v-68c0-0.5-0.2-1.1-0.6-1.4l-18-18c-0.4-0.4-0.9-0.6-1.4-0.6H2
		C0.9,952.4,0,953.5,0,954.4z M4,956.4h38v16c0,1,1,2,2,2h16v64H4V956.4z M46,959.2l11.2,11.2H46V959.2z"/>
</g>
</svg>
