<?xml version="1.0" encoding="UTF-8"?>
<svg width="27px" height="18px" viewBox="0 0 27 18" version="1.1" xmlns="http://www.w3.org/2000/svg" xmlns:xlink="http://www.w3.org/1999/xlink">
    <!-- Generator: Sketch 46.2 (44496) - http://www.bohemiancoding.com/sketch -->
    <title>icon-weather</title>
    <desc>Created with Sketch.</desc>
    <defs></defs>
    <g id="Page-1" stroke="none" stroke-width="1" fill="none" fill-rule="evenodd">
        <g id="icon-weather" transform="translate(0.824502, 0.772976)" fill-rule="nonzero" fill="#1DA1F2">
            <path d="M21.1789299,6.24614164 C20.4147417,2.70666138 17.1396494,0 13.100369,0 C9.93444648,0 7.20520294,1.66563777 5.89516605,4.16409443 C2.51090406,4.58050387 0,7.18306289 0,10.4102361 C0,13.845614 2.94758302,16.6563777 6.55018449,16.6563777 L20.7422509,16.6563777 C23.7990037,16.6563777 26.200738,14.3661258 26.200738,11.4512597 C26.200738,8.7445983 23.9081734,6.45434636 21.1789299,6.24614164 Z M20.7422509,14.5743305 L6.55018449,14.5743305 C4.14845018,14.5743305 2.18339483,12.700488 2.18339483,10.4102361 C2.18339483,8.11998413 4.14845018,6.24614164 6.55018449,6.24614164 L7.31437269,6.24614164 C8.07856088,3.85178734 10.3711255,2.08204721 13.100369,2.08204721 C16.3754612,2.08204721 19.1047048,4.68460623 19.1047048,7.80767705 L19.1047048,8.32818885 L20.7422509,8.32818885 C22.5981365,8.32818885 24.0173431,9.68151954 24.0173431,11.4512597 C24.0173431,13.2209998 22.5981365,14.5743305 20.7422509,14.5743305 Z" id="Shape"></path>
        </g>
    </g>
</svg>