<?xml version="1.0" encoding="UTF-8"?>
<svg width="25px" height="20px" viewBox="0 0 25 20" version="1.1" xmlns="http://www.w3.org/2000/svg" xmlns:xlink="http://www.w3.org/1999/xlink">
    <!-- Generator: Sketch 46.2 (44496) - http://www.bohemiancoding.com/sketch -->
    <title>icon-wallpaper</title>
    <desc>Created with Sketch.</desc>
    <defs></defs>
    <g id="Page-1" stroke="none" stroke-width="1" fill="none" fill-rule="evenodd">
        <g id="icon-wallpaper" transform="translate(0.444575, 0.920876)" fill-rule="nonzero" fill="#1DA1F2">
            <path d="M23.2070558,0 L0.373608343,0 C0.167301816,0 0,0.171538734 0,0.383241139 L0,18.6958824 C0,18.9075848 0.167301816,19.0791236 0.373608343,19.0791236 L23.2070558,19.0791236 C23.4135118,19.0791236 23.5806642,18.9075848 23.5806642,18.6958824 L23.5806642,0.383241139 C23.5806642,0.171538734 23.4135118,0 23.2070558,0 Z M21.3390141,16.0236953 L16.2007039,10.5652684 C16.1439154,10.5050995 16.0510364,10.5011904 15.9897646,10.5565305 L12.4259146,13.7741464 L7.87073224,8.02085379 C7.84114246,7.98329616 7.79787861,7.96183466 7.74893592,7.96290773 C7.70178655,7.96390416 7.65777549,7.98712857 7.62960542,8.02591258 L2.24165006,15.4420119 L2.24165006,2.29944683 L21.3390141,2.29944683 L21.3390141,16.0236953 L21.3390141,16.0236953 Z" id="Shape"></path>
            <path d="M15.0058335,8.47961047 C16.1890027,8.47961047 17.149574,7.53061444 17.149574,6.35979427 C17.149574,5.18931974 16.1890027,4.23980523 15.0058335,4.23980523 C13.8217029,4.23980523 12.8621805,5.18931974 12.8621805,6.35979427 C12.8621805,7.53052803 13.8217903,8.47961047 15.0058335,8.47961047 Z" id="Shape"></path>
        </g>
    </g>
</svg>