<?xml version="1.0" encoding="UTF-8"?>
<svg width="21px" height="20px" viewBox="0 0 21 20" version="1.1" xmlns="http://www.w3.org/2000/svg" xmlns:xlink="http://www.w3.org/1999/xlink">
    <!-- Generator: Sketch 46.2 (44496) - http://www.bohemiancoding.com/sketch -->
    <title>icon-time</title>
    <desc>Created with Sketch.</desc>
    <defs></defs>
    <g id="Page-1" stroke="none" stroke-width="1" fill="none" fill-rule="evenodd">
        <g id="icon-time" transform="translate(0.444575, 0.277541)" fill-rule="nonzero" fill="#1DA1F2">
            <path d="M9.82527674,0 C4.40762157,0 0,4.35869884 0,9.71622033 C0,15.0737418 4.40762157,19.4324407 9.82527674,19.4324407 C15.2429319,19.4324407 19.6505535,15.0737418 19.6505535,9.71622033 C19.6505535,4.35869884 15.2429319,0 9.82527674,0 Z M9.82527674,17.3649938 C5.56044326,17.3649938 2.09044999,13.933916 2.09044999,9.71622033 C2.09044999,5.49852469 5.56044326,2.06744688 9.82527674,2.06744688 C14.0901102,2.06744688 17.5601035,5.49852469 17.5601035,9.71622033 C17.5601035,13.933916 14.0901102,17.3649938 9.82527674,17.3649938 Z" id="Shape"></path>
            <path d="M15.0234499,10.0337439 L11.2192626,10.0337439 L11.2192626,4.69934839 C11.2192626,4.25044631 10.907184,3.88648813 10.5222697,3.88648813 C10.1373553,3.88648813 9.82527674,4.25044631 9.82527674,4.69934839 L9.82527674,10.8466041 C9.82527674,11.2955062 10.1373553,11.6594644 10.5222697,11.6594644 L15.0234499,11.6594644 C15.4083642,11.6594644 15.7204428,11.2955062 15.7204428,10.8466041 C15.7204428,10.3977021 15.4083642,10.0337439 15.0234499,10.0337439 Z" id="Shape"></path>
        </g>
    </g>
</svg>