<?xml version="1.0" encoding="utf-8"?>
<!-- Generator: Adobe Illustrator 21.1.0, SVG Export Plug-In . SVG Version: 6.00 Build 0)  -->
<svg version="1.1" id="Layer_1" xmlns="http://www.w3.org/2000/svg" xmlns:xlink="http://www.w3.org/1999/xlink" x="0px" y="0px"
	 viewBox="0 0 1076 200.3" style="enable-background:new 0 0 1076 200.3;" xml:space="preserve">
<style type="text/css">
	.st0{fill:#212121;}
	.st1{fill:#F7B40D;}
	.st2{fill:#E02020;}
	.st3{fill:#2FA528;}
	.st4{fill:#E22D10;}
	.st5{fill:#0876C1;}
</style>
<g>
	<path class="st0" d="M215.8,121.5c0.6,4.4,1.9,7.6,3.6,9.8c3.3,3.9,8.9,5.9,17,5.9c4.8,0,8.7-0.5,11.7-1.6c5.6-2,8.6-5.6,8.6-11
		c0-3.1-1.4-5.6-4.2-7.3s-7.2-3.1-13.2-4.5l-10.3-2.2c-10.1-2.2-17.1-4.7-20.8-7.3c-6.4-4.4-9.6-11.2-9.6-20.5
		c0-8.6,3.1-15.6,9.3-21.2s15.4-8.4,27.5-8.4c10.1,0,18.8,2.6,26,7.9s10.9,13.1,11.2,23h-19.1c-0.3-5.8-3-9.8-7.6-12.1
		c-3.1-1.6-7.2-2.3-11.8-2.3c-5.3,0-9.5,1.1-12.6,3.1c-3.1,2-4.7,5-4.7,8.6c0,3.4,1.6,5.9,4.7,7.6c2,1.1,6.2,2.5,12.6,3.9l16.6,3.9
		c7.3,1.7,12.8,4,16.5,6.8c5.6,4.5,8.6,10.9,8.6,19.4c0,8.7-3.4,15.9-10.1,21.6c-6.7,5.8-16.2,8.6-28.5,8.6
		c-12.4,0-22.4-2.8-29.6-8.4c-7.2-5.6-10.7-13.4-10.7-23.3C196.6,121.5,215.8,121.5,215.8,121.5z"/>
	<path class="st0" d="M333.8,82.2c4.8,2.2,8.9,5.6,12.1,10.4c2.8,4.2,4.7,9,5.6,14.5c0.5,3.3,0.6,7.9,0.6,14H301
		c0.3,7,2.8,12,7.3,14.8c2.8,1.7,6.2,2.6,10.1,2.6c4.2,0,7.6-1.1,10.3-3.3c1.4-1.1,2.6-2.8,3.7-4.8h18.7c-0.5,4.2-2.8,8.4-6.8,12.8
		c-6.2,6.8-15.1,10.3-26.4,10.3c-9.3,0-17.6-3-24.7-8.7c-7.2-5.8-10.7-15.1-10.7-28.2c0-12.1,3.3-21.5,9.6-28
		c6.4-6.5,14.8-9.8,25-9.8C323.4,78.8,328.8,80,333.8,82.2z M306.3,98c-2.6,2.6-4.2,6.2-4.8,10.9H333c-0.3-4.8-2-8.6-4.8-11
		c-2.8-2.5-6.5-3.7-10.9-3.7C312.5,94,308.9,95.2,306.3,98z"/>
	<path class="st0" d="M389.2,108.1c3.4-0.5,5.9-0.9,7.3-1.6c2.6-1.1,3.9-2.8,3.9-5.3c0-2.8-1.1-4.8-3.1-5.9c-2-1.1-5-1.7-8.9-1.7
		c-4.4,0-7.5,1.1-9.3,3.3c-1.2,1.6-2.2,3.7-2.6,6.4h-17.7c0.3-6.1,2.2-11.2,5.1-15.1c4.8-6.2,13.2-9.3,25-9.3
		c7.8,0,14.6,1.6,20.5,4.5c6.1,3.1,9,8.9,9,17.3v32.2c0,2.2,0,5,0.2,8.1c0.2,2.3,0.5,4,1.1,4.8c0.6,0.9,1.6,1.6,2.6,2.2v2.6h-19.9
		c-0.6-1.4-0.9-2.8-1.1-4c-0.2-1.2-0.3-2.6-0.5-4.2c-2.5,2.8-5.4,5.1-8.9,7c-4,2.3-8.4,3.4-13.5,3.4c-6.4,0-11.7-1.9-15.9-5.4
		c-4.2-3.6-6.2-8.7-6.2-15.4c0-8.6,3.4-14.9,10.1-18.8c3.7-2.2,9-3.6,16.2-4.5L389.2,108.1z M400.4,116.7c-1.2,0.8-2.3,1.2-3.6,1.7
		c-1.2,0.5-2.8,0.9-5,1.2l-4.2,0.8c-3.9,0.6-6.7,1.6-8.4,2.5c-3,1.7-4.4,4.2-4.4,7.8c0,3.1,0.9,5.4,2.6,6.8c1.7,1.4,3.9,2,6.4,2
		c4,0,7.8-1.1,11-3.4c3.4-2.3,5.1-6.5,5.3-12.8v-6.7H400.4z"/>
	<path class="st0" d="M473.6,79.1c0.3,0,0.8,0,1.6,0.2V98c-1.1-0.2-2.2-0.2-3.1-0.3c-0.9,0-1.6,0-2.2,0c-7.3,0-12.3,2.3-14.9,7.2
		c-1.4,2.6-2.2,6.8-2.2,12.4v33.6h-18.5V80.8H452v12.3c2.8-4.7,5.3-7.9,7.5-9.6c3.4-2.8,7.9-4.4,13.4-4.4
		C473.2,79.1,473.5,79.1,473.6,79.1z"/>
	<path class="st0" d="M528.1,105.8c-0.3-2.6-1.2-5-2.6-7.2c-2-2.8-5.3-4.2-9.6-4.2c-6.2,0-10.4,3.1-12.8,9.2
		c-1.2,3.3-1.9,7.6-1.9,12.9c0,5.1,0.6,9.3,1.9,12.4c2.2,5.9,6.4,8.7,12.4,8.7c4.4,0,7.3-1.1,9.2-3.4c1.9-2.3,3-5.3,3.3-9h18.8
		c-0.5,5.6-2.5,10.9-6.1,15.9c-5.8,8.1-14.3,12-25.7,12c-11.4,0-19.6-3.4-24.9-10.1s-7.9-15.4-7.9-26.1c0-12,3-21.5,8.9-28.2
		c5.9-6.7,14-10.1,24.4-10.1c8.9,0,16,2,21.6,5.9c5.6,3.9,8.9,10.9,10,21h-19V105.8z"/>
	<path class="st0" d="M609.9,81.1c3.6,1.6,6.4,3.7,8.7,6.8c1.9,2.6,3.1,5.3,3.6,8.1c0.5,2.8,0.6,7.3,0.6,13.5v41.2H604v-42.6
		c0-3.7-0.6-6.8-1.9-9.2c-1.7-3.3-4.8-5-9.5-5c-4.8,0-8.4,1.6-10.9,4.8c-2.5,3.3-3.7,7.9-3.7,13.8v38.1h-18.4V56.4H578v33.4
		c2.6-4,5.8-7,9.2-8.6c3.4-1.6,7.2-2.5,11-2.5C602.4,78.8,606.3,79.5,609.9,81.1z"/>
	<path class="st0" d="M700.4,55.9h22.4l33.6,94.9h-21.5l-6.2-19.4h-35l-6.4,19.4h-20.7L700.4,55.9z M699.2,115h24.3l-12-37.3
		L699.2,115z"/>
	<path class="st0" d="M804.3,81.9c3.3,1.9,6.1,4.5,8.1,7.8V56H831v94.9h-17.9v-9.8c-2.6,4.2-5.6,7.2-9,9s-7.5,2.8-12.4,2.8
		c-8.2,0-15.1-3.3-20.7-10c-5.6-6.7-8.4-15.1-8.4-25.5c0-12,2.8-21.5,8.2-28.3c5.4-6.8,12.9-10.3,22.1-10.3
		C797.1,79.1,801,80,804.3,81.9z M808.8,131.8c2.6-3.9,4-8.9,4-14.9c0-8.6-2.2-14.8-6.5-18.4c-2.6-2.2-5.8-3.4-9.3-3.4
		c-5.4,0-9.3,2-11.8,6.1c-2.5,4-3.7,9-3.7,15.1c0,6.5,1.2,11.7,3.9,15.6c2.5,3.9,6.4,5.8,11.7,5.8
		C802.3,137.5,806.2,135.7,808.8,131.8z"/>
	<path class="st0" d="M935.3,80.9c3,1.2,5.8,3.3,8.2,6.4c2,2.5,3.3,5.4,4,9c0.5,2.3,0.6,5.8,0.6,10.4l-0.2,44.3h-18.8v-44.9
		c0-2.6-0.5-4.8-1.2-6.5c-1.6-3.3-4.7-4.8-9-4.8c-5.1,0-8.6,2.2-10.6,6.4c-0.9,2.2-1.6,5-1.6,8.1v41.8h-18.5v-42
		c0-4.2-0.5-7.2-1.2-9c-1.6-3.4-4.5-5.1-9-5.1c-5.3,0-8.7,1.7-10.6,5.1c-0.9,1.9-1.6,4.8-1.6,8.6v42.3h-18.7V80.8h17.9V91
		c2.3-3.6,4.4-6.2,6.4-7.8c3.6-2.8,8.2-4.2,13.8-4.2c5.4,0,9.6,1.2,13.1,3.6c2.6,2.2,4.7,5,6.1,8.4c2.3-4.2,5.4-7.2,9-9
		c3.7-1.9,7.9-3,12.6-3C929.2,79.2,932.3,79.7,935.3,80.9z"/>
	<path class="st0" d="M983.8,72.4h-18.7v-17h18.7V72.4z M965.1,80.8h18.7v70.1h-18.7V80.8z"/>
	<path class="st0" d="M1058.1,84.7c4.7,3.7,6.8,10.1,6.8,19v47.3h-18.8v-42.8c0-3.7-0.5-6.5-1.4-8.6c-1.9-3.6-5.1-5.4-10.3-5.4
		c-6.2,0-10.4,2.6-12.8,7.9c-1.2,2.8-1.9,6.4-1.9,10.7v37.9h-18.4v-70h17.7V91c2.3-3.6,4.5-6.2,6.7-7.8c3.7-2.8,8.6-4.2,14.3-4.2
		C1047.7,79.1,1053.6,80.9,1058.1,84.7z"/>
</g>
<g>
	<path class="st1" d="M114.4,52.7c1.8-4,3.7-7.9,5.7-12.1c-21.6-9.1-42.6-8.6-62.7,3.3C38,55.4,27.4,73,24.7,95.6
		c4.6,0.4,9,0.8,13.4,1.1C40.4,62.6,78.2,36.4,114.4,52.7z"/>
	<path class="st2" d="M157.8,89.8c-4.4,0.7-8.6,1.5-13.2,2.3c2.4,15.6-0.9,29.8-10.5,42.1c-9.5,12.3-22.3,19-37.8,20.8
		c0.3,4.5,0.8,8.7,1.1,13C130.1,166.9,165,134.1,157.8,89.8z"/>
	<path class="st3" d="M37.9,106.2c-4.1,0.3-8.5,0.7-12.7,1.1c1,27.3,24.9,58,60.7,61c0.3-4.5,0.8-8.7,1.1-12.9
		C58.9,150.6,42.6,134.3,37.9,106.2z"/>
	<path class="st4" d="M134.2,68.7c3.3,4.4,5.9,9.1,7.9,14.4c4.2-1.5,8.3-3.1,12.6-4.6c-5-13.3-13.1-23.7-24.5-32
		c-2.5,3.7-5.1,7.2-7.7,10.9C126.9,60.6,130.9,64.4,134.2,68.7z"/>
	<path class="st5" d="M98.1,139.7v-5.2c4.5-0.9,8.8-2.6,12.7-5.3l3.8,3.8c1.4,1.4,3.7,1.4,5.1,0l3.8-3.8c1.4-1.4,1.4-3.7,0-5.1
		l-3.8-3.8c2.6-3.9,4.4-8.2,5.1-12.7h5.4c1.9,0,3.6-1.6,3.6-3.6v-5.6c0-1.9-1.6-3.6-3.6-3.6h-5.4c-0.9-4.5-2.6-8.7-5.2-12.6l3.8-3.8
		c1.4-1.4,1.4-3.7,0-5.1l-3.9-3.9c-1.4-1.4-3.7-1.4-5.1,0l-3.8,3.8c-3.8-2.6-8.2-4.4-12.7-5.2v-5.4c0-1.9-1.6-3.6-3.6-3.6H89
		c-1.9,0-3.6,1.6-3.6,3.6v5.4c-4.5,0.8-8.8,2.6-12.7,5.2L69,69.6c-1.4-1.4-3.7-1.4-5.1,0l-3.8,3.9c-1.4,1.4-1.4,3.7,0,5.1l3.8,3.8
		c-2.7,3.9-4.5,8.2-5.3,12.7h-5.2c-1.9,0-3.6,1.6-3.6,3.6v5.5c0,1.9,1.6,3.6,3.6,3.6h5.2c0.9,4.5,2.6,8.9,5.2,12.7l-3.7,3.7
		c-1.4,1.4-1.4,3.7,0,5.1l3.8,3.8c1.4,1.4,3.7,1.4,5.1,0l3.7-3.7c3.9,2.7,8.3,4.5,12.8,5.2v5.2c0,1.9,1.6,3.6,3.6,3.6h5.5
		C96.5,143.2,98.1,141.6,98.1,139.7z M78.8,114.1c-7.2-7.2-7.2-18.8,0-25.8c7.2-7.1,18.8-7.2,25.8,0s7.2,18.8,0,25.8
		C97.6,121.3,86,121.3,78.8,114.1z"/>
	<path class="st2" d="M162,164.9l-5.9,5.9c-2,2-5.2,2-7.2,0l-19.7-19.7c-2-2-2-5.2,0-7.2l5.9-5.9c2-2,5.2-2,7.2,0l19.7,19.7
		C164,159.8,164,163,162,164.9z"/>
</g>
</svg>
