<?xml version="1.0" encoding="UTF-8"?>
<svg width="23px" height="24px" viewBox="0 0 23 24" version="1.1" xmlns="http://www.w3.org/2000/svg" xmlns:xlink="http://www.w3.org/1999/xlink">
    <!-- Generator: Sketch 46.2 (44496) - http://www.bohemiancoding.com/sketch -->
    <title>settings</title>
    <desc>Created with Sketch.</desc>
    <defs>
        <filter x="-9.5%" y="-4.8%" width="119.3%" height="120.6%" filterUnits="objectBoundingBox" id="filter-1">
            <feOffset dx="0" dy="1" in="SourceAlpha" result="shadowOffsetOuter1"></feOffset>
            <feGaussianBlur stdDeviation="0.5" in="shadowOffsetOuter1" result="shadowBlurOuter1"></feGaussianBlur>
            <feColorMatrix values="0 0 0 0 0   0 0 0 0 0   0 0 0 0 0  0 0 0 0.5 0" type="matrix" in="shadowBlurOuter1" result="shadowMatrixOuter1"></feColorMatrix>
            <feMerge>
                <feMergeNode in="shadowMatrixOuter1"></feMergeNode>
                <feMergeNode in="SourceGraphic"></feMergeNode>
            </feMerge>
        </filter>
    </defs>
    <g id="Page-1" stroke="none" stroke-width="1" fill="none" fill-rule="evenodd">
        <g id="settings" filter="url(#filter-1)" transform="translate(1.007380, 0.643335)" fill-rule="nonzero" fill="#FFFFFF">
            <path d="M12.0655212,19.8479133 L12.0655212,18.5549557 C13.1816846,18.345104 14.2636099,17.9050923 15.2359731,17.24169 L16.1672505,18.1623299 C16.5164796,18.5008005 17.0711375,18.5008005 17.4203665,18.1623299 L18.3858821,17.2078429 C18.7282635,16.862603 18.7282635,16.3142807 18.3858821,15.9690407 L17.4409094,15.034862 C18.0982817,14.0736056 18.5296823,13.0040387 18.7351112,11.9073941 L20.0772463,11.9073941 C20.5634279,11.9073941 20.9605904,11.5147682 20.9605904,11.03414 L20.9605904,9.68025783 C20.9605904,9.19962965 20.5634279,8.8070038 20.0772463,8.8070038 L18.7282635,8.8070038 C18.5159871,7.71035921 18.0777388,6.65433108 17.4203665,5.69984412 L18.3790345,4.75212657 C18.7214159,4.40688661 18.7214159,3.85856431 18.3790345,3.51332435 L17.3998236,2.55206797 C17.0505946,2.21359742 16.4959367,2.21359742 16.1467077,2.55206797 L15.1880397,3.49978552 C14.2225241,2.84992206 13.1474464,2.41667975 12.0381306,2.20682801 L12.0381306,0.873254028 C12.0381306,0.392625842 11.6409682,0 11.1547866,0 L9.78526091,0 C9.2990793,0 8.90191686,0.392625842 8.90191686,0.873254028 L8.90191686,2.2000586 C7.79260106,2.40314093 6.71067578,2.83638324 5.73831256,3.4862467 L4.80018747,2.5656068 C4.45095843,2.22713624 3.89630053,2.22713624 3.54707149,2.5656068 L2.58155589,3.52686317 C2.23917447,3.87210313 2.23917447,4.42042543 2.58155589,4.76566539 L3.51283334,5.6863053 C2.84176577,6.64756167 2.40351755,7.71712862 2.19124107,8.82054263 L0.883344057,8.82054263 C0.397162444,8.82054263 0,9.21316847 0,9.69379665 L0,11.0476789 C0,11.5283071 0.397162444,11.9209329 0.883344057,11.9209329 L2.18439344,11.9209329 C2.39666992,13.0311163 2.83491814,14.1074527 3.49913809,15.068709 L2.59525115,15.9825795 C2.25286973,16.3278195 2.25286973,16.8761418 2.59525115,17.2213818 L3.56076674,18.1758687 C3.90999579,18.5143393 4.46465369,18.5143393 4.81388273,18.1758687 L5.73146493,17.2687676 C6.71067578,17.9254005 7.79944869,18.3586428 8.92245974,18.5684946 L8.92245974,19.8546827 C8.92245974,20.3353109 9.31962219,20.7279367 9.8058038,20.7279367 L11.1753295,20.7279367 C11.6683587,20.7211673 12.0655212,20.3285414 12.0655212,19.8479133 Z M7.27862419,13.5368315 C5.50936923,11.7872145 5.5025644,8.94745153 7.27181937,7.19783454 C9.04107433,5.44821756 11.9127112,5.44148827 13.6819662,7.19110525 C15.4512212,8.94072223 15.458026,11.7804852 13.688771,13.5301022 C11.9263209,15.2797191 9.05468398,15.2864484 7.27862419,13.5368315 Z" id="Shape"></path>
        </g>
    </g>
</svg>