<?xml version="1.0" encoding="UTF-8"?>
<svg width="26px" height="26px" viewBox="0 0 26 26" version="1.1" xmlns="http://www.w3.org/2000/svg" xmlns:xlink="http://www.w3.org/1999/xlink">
    <!-- Generator: Sketch 46.2 (44496) - http://www.bohemiancoding.com/sketch -->
    <title>yahoo-circle-color</title>
    <desc>Created with Sketch.</desc>
    <defs></defs>
    <g id="Page-1" stroke="none" stroke-width="1" fill="none" fill-rule="evenodd">
        <g id="yahoo-circle-color" fill-rule="nonzero">
            <path d="M12.9999554,0 C20.1800569,0 26,5.82074633 26,13.0000446 C26,20.1801462 20.1800569,26 12.9999554,26 C5.81985384,26 0,20.1800569 0,13.0000446 C0,5.82074633 5.81994309,0 12.9999554,0 Z" id="Shape" fill="#720E9E"></path>
            <path d="M19.0246354,10.2589418 L19.0377424,10.2565308 L19.4457494,9.77691405 L19.4257084,9.7753067 L19.4688346,9.70377942 L13.7529314,9.70377942 L13.9731284,10.5296918 L15.5327721,10.5296918 L12.9076594,13.094494 C12.3718806,12.2693853 11.1163184,10.3727961 10.2402661,8.9501087 L11.8684042,8.9501087 L11.8684042,8.36476373 L11.8907284,8.19652728 L11.8684042,8.19331257 L11.8684042,8.125 L5.6875,8.125 L5.6875,8.9501087 L7.62048068,8.9501087 C8.37104442,9.60448062 11.6251221,13.7765481 11.7436767,14.1749042 C11.7913691,14.5480783 11.8591871,16.7503327 11.7190695,16.9161581 C11.5504548,17.1722633 9.78989402,17.0340308 9.47963958,17.058409 L9.46805472,17.8672656 C10.0346137,17.8851251 11.734375,17.8664619 12.3079525,17.8664619 C13.4380262,17.8664619 15.4172617,17.835565 15.6958903,17.8591395 L15.7305604,17.0933243 L13.455784,17.057516 C13.4080916,16.7104167 13.3557483,14.5195031 13.4034407,14.2805431 C13.6182257,13.5871481 17.108567,10.7173951 17.4673594,10.6093451 L17.8053499,10.5288881 L18.8599951,10.5288881 C18.8599106,10.5287988 19.0246354,10.2589418 19.0246354,10.2589418 Z M18.1716683,15.9828209 L19.1601022,16.0624742 L20.3125,11.5994756 C20.1200391,11.5921532 18.3718243,11.4271314 18.1446933,11.3823934 L18.1716683,15.9828209 Z M18.0007704,16.6982723 L18.0061824,17.7884159 L18.50653,17.8323503 L19.0469596,17.8721769 L19.2055115,16.8056079 L18.6358238,16.7779256 C18.6359084,16.7779256 18.0007704,16.6982723 18.0007704,16.6982723 Z" id="Shape" fill="#FFFFFF"></path>
        </g>
    </g>
</svg>