<?xml version="1.0" encoding="UTF-8"?>
<svg width="61px" height="14px" viewBox="0 0 61 14" version="1.1" xmlns="http://www.w3.org/2000/svg" xmlns:xlink="http://www.w3.org/1999/xlink">
    <!-- Generator: Sketch 46.2 (44496) - http://www.bohemiancoding.com/sketch -->
    <title>yahoo-color</title>
    <desc>Created with Sketch.</desc>
    <defs>
        <linearGradient x1="14.9747423%" y1="52.804828%" x2="81.4960028%" y2="47.6847241%" id="linearGradient-1">
            <stop stop-color="#210045" offset="0%"></stop>
            <stop stop-color="#430085" offset="59.415621%"></stop>
            <stop stop-color="#5000B2" offset="100%"></stop>
        </linearGradient>
        <linearGradient x1="6.47374515%" y1="37.624963%" x2="96.8697263%" y2="62.874107%" id="linearGradient-2">
            <stop stop-color="#5500BD" offset="0%"></stop>
            <stop stop-color="#5000AC" offset="100%"></stop>
        </linearGradient>
        <linearGradient x1="67.7220118%" y1="55.5251676%" x2="81.9806436%" y2="55.0573755%" id="linearGradient-3">
            <stop stop-color="#2A005A" offset="0%"></stop>
            <stop stop-color="#210046" offset="100%"></stop>
        </linearGradient>
        <linearGradient x1="25.2658172%" y1="60.0174141%" x2="99.4602805%" y2="42.7826152%" id="linearGradient-4">
            <stop stop-color="#21004E" offset="0%"></stop>
            <stop stop-color="#39007F" offset="100%"></stop>
        </linearGradient>
        <linearGradient x1="31.5262065%" y1="56.3692741%" x2="43.2134571%" y2="58.8928134%" id="linearGradient-5">
            <stop stop-color="#1B0041" offset="0%"></stop>
            <stop stop-color="#21004F" offset="100%"></stop>
        </linearGradient>
        <linearGradient x1="86.9728324%" y1="30.6197212%" x2="12.0755496%" y2="68.2994028%" id="linearGradient-6">
            <stop stop-color="#5500BD" offset="0%"></stop>
            <stop stop-color="#47008D" offset="100%"></stop>
        </linearGradient>
        <linearGradient x1="20.051225%" y1="33.8185681%" x2="99.7336236%" y2="65.1759242%" id="linearGradient-7">
            <stop stop-color="#5100B2" offset="0%"></stop>
            <stop stop-color="#5500BD" offset="100%"></stop>
        </linearGradient>
        <linearGradient x1="72.6049441%" y1="64.4444697%" x2="84.6078984%" y2="62.0134418%" id="linearGradient-8">
            <stop stop-color="#27005D" stop-opacity="0.98039216" offset="0%"></stop>
            <stop stop-color="#2B005D" offset="31.76744%"></stop>
            <stop stop-color="#280055" offset="59.756237%"></stop>
            <stop stop-color="#24004D" offset="80.877602%"></stop>
            <stop stop-color="#230049" offset="100%"></stop>
        </linearGradient>
        <linearGradient x1="32.8880034%" y1="47.958214%" x2="96.37919%" y2="52.0306913%" id="linearGradient-9">
            <stop stop-color="#5500BD" offset="0%"></stop>
            <stop stop-color="#5300B5" offset="100%"></stop>
        </linearGradient>
        <linearGradient x1="84.9943307%" y1="0.479772846%" x2="84.9943307%" y2="100.040254%" id="linearGradient-10">
            <stop stop-color="#210045" offset="0%"></stop>
            <stop stop-color="#25004D" offset="25%"></stop>
            <stop stop-color="#2B005C" offset="50%"></stop>
            <stop stop-color="#340071" offset="74.854362%"></stop>
            <stop stop-color="#3E0088" offset="100%"></stop>
        </linearGradient>
        <linearGradient x1="1.85805624%" y1="61.607944%" x2="99.9098093%" y2="39.0110789%" id="linearGradient-11">
            <stop stop-color="#4D00A1" offset="0%"></stop>
            <stop stop-color="#5200B4" offset="100%"></stop>
        </linearGradient>
        <linearGradient x1="0.225906038%" y1="66.1455343%" x2="99.6435665%" y2="66.1455343%" id="linearGradient-12">
            <stop stop-color="#6700E8" offset="0%"></stop>
            <stop stop-color="#6700E8" offset="50.604492%"></stop>
            <stop stop-color="#6700E8" offset="100%"></stop>
        </linearGradient>
        <linearGradient x1="27.5986427%" y1="43.412674%" x2="99.5633058%" y2="43.412674%" id="linearGradient-13">
            <stop stop-color="#5A00C9" offset="0%"></stop>
            <stop stop-color="#4F00A8" offset="100%"></stop>
        </linearGradient>
        <linearGradient x1="0.928796779%" y1="1.75367288%" x2="100.982139%" y2="1.75367288%" id="linearGradient-14">
            <stop stop-color="#390080" offset="0%"></stop>
            <stop stop-color="#31006E" offset="50%"></stop>
            <stop stop-color="#250056" offset="100%"></stop>
        </linearGradient>
        <linearGradient x1="-1.29074335%" y1="97.0614422%" x2="72.6865423%" y2="97.0614422%" id="linearGradient-15">
            <stop stop-color="#3F008B" offset="0%"></stop>
            <stop stop-color="#220050" offset="100%"></stop>
        </linearGradient>
        <linearGradient x1="0.0614877543%" y1="56.3143491%" x2="99.9704294%" y2="56.3143491%" id="linearGradient-16">
            <stop stop-color="#6700E8" offset="0%"></stop>
            <stop stop-color="#6700E8" offset="50%"></stop>
            <stop stop-color="#6700E8" offset="100%"></stop>
        </linearGradient>
        <linearGradient x1="70.1336478%" y1="8.4081453%" x2="15.0841296%" y2="82.4662018%" id="linearGradient-17">
            <stop stop-color="#1C0044" offset="0%"></stop>
            <stop stop-color="#2F0065" offset="10.005283%"></stop>
            <stop stop-color="#34006D" offset="20.479059%"></stop>
            <stop stop-color="#3B007A" offset="30.000001%"></stop>
            <stop stop-color="#3C007A" offset="40.000001%"></stop>
            <stop stop-color="#490096" offset="50%"></stop>
            <stop stop-color="#5000AB" offset="60.000002%"></stop>
            <stop stop-color="#5400BA" offset="70.02604%"></stop>
            <stop stop-color="#5500BC" offset="80.312496%"></stop>
            <stop stop-color="#5700C2" offset="89.999998%"></stop>
            <stop stop-color="#5C00CE" offset="100%"></stop>
        </linearGradient>
        <linearGradient x1="18.8423123%" y1="88.9542935%" x2="75.1737521%" y2="7.07921876%" id="linearGradient-18">
            <stop stop-color="#1B0041" offset="0%"></stop>
            <stop stop-color="#1B0041" offset="10.005283%"></stop>
            <stop stop-color="#1B0041" offset="20.479059%"></stop>
            <stop stop-color="#240052" offset="30.000001%"></stop>
            <stop stop-color="#32006A" offset="40.000001%"></stop>
            <stop stop-color="#3D007D" offset="50%"></stop>
            <stop stop-color="#490098" offset="60.000002%"></stop>
            <stop stop-color="#4F00A8" offset="70.02604%"></stop>
            <stop stop-color="#5500BC" offset="80.312496%"></stop>
            <stop stop-color="#5700C2" offset="89.999998%"></stop>
            <stop stop-color="#6000DA" offset="100%"></stop>
        </linearGradient>
        <linearGradient x1="61.7816321%" y1="2.02790079%" x2="16.9580641%" y2="87.1886636%" id="linearGradient-19">
            <stop stop-color="#1E0046" offset="0%"></stop>
            <stop stop-color="#2D0061" offset="10.005283%"></stop>
            <stop stop-color="#33006B" offset="20.479059%"></stop>
            <stop stop-color="#400082" offset="30.000001%"></stop>
            <stop stop-color="#490096" offset="40.000001%"></stop>
            <stop stop-color="#5000AC" offset="50%"></stop>
            <stop stop-color="#5500BD" offset="60.000002%"></stop>
            <stop stop-color="#4F00A8" offset="70.02604%"></stop>
            <stop stop-color="#5500BC" offset="80.312496%"></stop>
            <stop stop-color="#5700C2" offset="89.999998%"></stop>
            <stop stop-color="#6000DA" offset="100%"></stop>
        </linearGradient>
        <linearGradient x1="24.8637762%" y1="92.3181485%" x2="68.1061611%" y2="3.94792241%" id="linearGradient-20">
            <stop stop-color="#1B0041" offset="0%"></stop>
            <stop stop-color="#1B0041" offset="10.005283%"></stop>
            <stop stop-color="#1B0041" offset="20.479059%"></stop>
            <stop stop-color="#240052" offset="30.000001%"></stop>
            <stop stop-color="#32006A" offset="40.000001%"></stop>
            <stop stop-color="#3D007D" offset="50%"></stop>
            <stop stop-color="#490098" offset="60.000002%"></stop>
            <stop stop-color="#4F00A8" offset="70.02604%"></stop>
            <stop stop-color="#5500BC" offset="80.312496%"></stop>
            <stop stop-color="#5700C2" offset="89.999998%"></stop>
            <stop stop-color="#6000DA" offset="100%"></stop>
        </linearGradient>
        <radialGradient cx="55.0289409%" cy="19.9036504%" fx="55.0289409%" fy="19.9036504%" r="81.986017%" gradientTransform="translate(0.550289,0.199037),scale(0.948114,1.000000),translate(-0.550289,-0.199037)" id="radialGradient-21">
            <stop stop-color="#6000D8" offset="0%"></stop>
            <stop stop-color="#5C00CD" offset="20.885758%"></stop>
            <stop stop-color="#5500BE" offset="37.415123%"></stop>
            <stop stop-color="#2D0062" offset="72.099608%"></stop>
            <stop stop-color="#210045" offset="100%"></stop>
        </radialGradient>
        <linearGradient x1="-0.210019779%" y1="51.8128226%" x2="66.9345913%" y2="48.5766268%" id="linearGradient-22">
            <stop stop-color="#47008D" offset="0%"></stop>
            <stop stop-color="#5100B3" offset="100%"></stop>
        </linearGradient>
        <linearGradient x1="-0.580778823%" y1="69.3447414%" x2="99.5801094%" y2="69.3447414%" id="linearGradient-23">
            <stop stop-color="#5500BD" offset="0%"></stop>
            <stop stop-color="#5200B2" offset="100%"></stop>
        </linearGradient>
        <radialGradient cx="53.2966025%" cy="32.3893815%" fx="53.2966025%" fy="32.3893815%" r="50.0000756%" gradientTransform="translate(0.532966,0.323894),scale(0.862675,1.000000),translate(-0.532966,-0.323894)" id="radialGradient-24">
            <stop stop-color="#6700E8" offset="0%"></stop>
            <stop stop-color="#5C00CE" offset="39.935982%"></stop>
            <stop stop-color="#5600BF" stop-opacity="0.04504504" offset="70.123935%"></stop>
            <stop stop-color="#220047" stop-opacity="0" offset="100%"></stop>
        </radialGradient>
    </defs>
    <g id="Page-1" stroke="none" stroke-width="1" fill="none" fill-rule="evenodd">
        <g id="yahoo-color" fill-rule="nonzero">
            <path d="M60.1899468,0.1908224 C60.6573051,0.267984414 60.9695,0.550477704 60.9695,1.03684277 C60.9695,1.19780894 60.9023402,1.42445688 60.8574229,1.61602319 C60.5442684,2.97914488 59.3213001,7.7954548 58.8064248,11.0101763 L58.332653,10.5423438 L59.8405358,0.653835445 L60.1899468,0.1908224 Z" id="Shape" fill="url(#linearGradient-1)"></path>
            <path d="M29.7141065,1.49952151 C29.0829688,1.64876167 28.4632497,1.64466206 27.8540329,1.49952151 L28.8212714,2.49136911 L29.7141065,1.49952151 Z" id="Shape" fill="#6700E8"></path>
            <path d="M20.0448886,1.49952151 C20.6760262,1.64876167 21.2957454,1.64466206 21.9049622,1.49952151 L20.9377242,2.49136911 L20.0448886,1.49952151 Z" id="Shape" fill="#6700E8"></path>
            <path d="M14.5854294,1.49564596 C16.0117918,5.06023273 18.2565027,10.4556231 19.3749719,12.5177555 L17.7191891,12.0181356 L13.6221235,1.90062472 L14.5854294,1.49564596 Z" id="Shape" fill="url(#linearGradient-2)"></path>
            <path d="M13.2884657,1.49535925 C13.7440015,1.64605772 14.1218355,1.6552966 14.5855575,1.49535925 L13.6636767,2.05456685 L13.2884657,1.49535925 Z" id="Shape" fill="#6700E8"></path>
            <path d="M13.9435569,1.88439131 L18.1183121,11.994868 C17.8713084,12.2590226 17.7611583,12.3976276 17.5210019,12.5211973 C16.3109779,9.44369604 15.0115327,6.36542313 13.9106596,3.32766208 L13.3672289,2.41789892 L13.9435569,1.88439131 Z" id="Shape" fill="url(#linearGradient-3)"></path>
            <path d="M10.3530542,12.5173586 L9.1206102,12.0863238 L13.4602295,2.0321804 L13.9438497,1.88453105 L13.9438497,3.37301142 C13.2690616,5.29567504 11.5565964,9.51410628 10.3530542,12.5173586 L10.3530542,12.5173586 Z" id="Shape" fill="url(#linearGradient-4)"></path>
            <path d="M9.3308711,0.0301176471 L9.7400835,0.948495059 L10.7817256,0.470938805 L11.2053279,0.0301176471 C10.535249,0.180213158 9.9308793,0.185201845 9.3308711,0.0301176471 L9.3308711,0.0301176471 Z" id="Shape" fill="#6700E8"></path>
            <path d="M6.3919521,8.03836928 L5.6851207,8.29551495 L5.2387044,7.52407793 L9.6656818,0.544408998 L9.9821864,0.437359435 C10.4190562,0.339871624 10.8955394,0.235327247 11.2058891,0.0301176471 C10.5028397,0.96794624 7.9428283,5.35151616 6.3919521,8.03836928 L6.3919521,8.03836928 Z" id="Shape" fill="url(#linearGradient-5)"></path>
            <path d="M5.4247117,7.92816399 L5.610719,7.74448851 L9.9901957,0.435786692 L9.3308711,0.0301176471 C8.8021109,1.0026496 6.8519409,4.14972025 5.610719,6.16487936 L5.0154932,7.26693226 L5.4247117,7.92816399 Z" id="Shape" fill="url(#linearGradient-6)"></path>
            <path d="M1.890573,0.0301176471 C2.8614551,1.72916374 4.3518559,4.10605327 5.610719,6.16487936 L5.610719,7.74448851 L5.3131061,8.03836928 L0.9605365,0.397468612 L1.890573,0.0301176471 Z" id="Shape" fill="url(#linearGradient-7)"></path>
            <path d="M5.610719,7.74448851 L5.2759083,8.22204476 L4.8294859,8.03836928 C3.9983487,6.61985822 1.5551584,2.29873785 0.0305,0.0301176471 C0.3395565,0.251263096 0.7570954,0.372613722 1.239337,0.449952226 L5.610719,7.74448851 Z" id="Shape" fill="url(#linearGradient-8)"></path>
            <polygon id="Shape" fill="url(#linearGradient-9)" points="6.5035516 13.9527198 5.2387044 13.3649582 5.35031 8.14857456 5.610719 7.74448851 6.3919521 8.03836928"></polygon>
            <polygon id="Shape" fill="url(#linearGradient-10)" points="5.610719 13.5486338 4.7178864 13.9527198 4.8294859 8.03836928 5.610719 7.74448851"></polygon>
            <path d="M8.5124341,12.5200511 C10.0644876,9.39598065 11.7903911,5.20658884 13.2883742,1.49475689 L13.9438497,1.88472922 L9.7066616,12.1199839 L8.8472509,12.4098458 L8.5124341,12.5200511 Z" id="Shape" fill="url(#linearGradient-11)"></path>
            <path d="M18.0739475,11.9765004 L19.3764298,12.5181669 C18.876791,12.3937888 18.2004669,12.3460958 17.5207903,12.5213232 L17.7750883,11.9028694 L18.0739475,11.9765004 Z" id="Shape" fill="#200045"></path>
            <path d="M11.0425494,8.90593099 L11.9583058,8.51791993 C13.2774125,8.56370658 14.5965192,8.56304941 15.9156247,8.51791993 L16.8445345,8.91729318 L15.9797442,9.10399548 L11.6985373,9.10399548 L11.0425494,8.90593099 Z" id="Shape" fill="url(#linearGradient-12)"></path>
            <path d="M21.9049622,12.5200511 L20.6029111,12.0792299 L20.6029111,2.19748834 L20.9749257,2.01381286 L21.9049622,1.49952151 C21.7119777,5.16652935 21.7077492,8.84005406 21.9049622,12.5200511 L21.9049622,12.5200511 Z" id="Shape" fill="url(#linearGradient-13)"></path>
            <path d="M20.9749257,12.0057596 L20.9749257,12.2629054 L20.0448886,12.5200511 C20.192777,8.85238242 20.2068801,5.17943055 20.0448886,1.49952151 L20.9749257,2.01381286 L20.9749257,12.0057596 Z" id="Shape" fill="url(#linearGradient-14)"></path>
            <path d="M27.8540329,12.5200511 L29.1560846,12.0792299 L29.1560846,2.19748834 L28.78407,2.01381286 L27.8540329,1.49952151 C28.0470174,5.16652935 28.0512459,8.84005406 27.8540329,12.5200511 L27.8540329,12.5200511 Z" id="Shape" fill="url(#linearGradient-15)"></path>
            <path d="M20.9785935,6.98698149 L21.7603574,6.64280245 C23.8378521,6.69450722 25.9177934,6.69064313 27.999671,6.64280245 L28.7839011,6.98698149 L27.8138888,7.21588887 L21.7537809,7.21588887 L20.9785935,6.98698149 Z" id="Shape" fill="url(#linearGradient-16)"></path>
            <path d="M36.2798397,1.4953996 C32.6262191,1.4953996 30.8030871,3.75105958 30.8030871,7.03092013 C30.8030871,11.138804 33.5625531,12.5618484 36.2321755,12.5618484 C39.4031611,12.5618484 41.6763785,10.8000443 41.6763785,7.04125349 C41.6763785,3.42373195 39.5246309,1.4953996 36.2798397,1.4953996 L36.2798397,1.4953996 Z M36.1705606,2.01887504 C36.2048999,2.01817631 36.2395639,2.01887504 36.274027,2.01887504 C38.6870479,2.01887504 40.4591912,3.64184275 40.4591912,7.03321569 C40.4591912,10.4203059 38.6893726,12.0429652 36.278677,12.0429652 C33.6483778,12.0429652 32.1028128,10.1817519 32.1028128,7.04239978 C32.1028128,3.49189 34.0071761,2.06264139 36.1705606,2.01887504 L36.1705606,2.01887504 Z" id="Shape" fill="url(#linearGradient-17)"></path>
            <path d="M36.2670516,1.35075539 C32.3210611,1.35075539 30.2508778,3.82136681 30.2508778,7.02403222 C30.2508778,10.5294938 32.5109534,12.6674619 36.2612389,12.6674619 C40.3157949,12.6674619 42.2960134,10.2580031 42.2960134,7.06076732 C42.2960134,3.49602996 39.9311429,1.35075539 36.2670516,1.35075539 L36.2670516,1.35075539 Z M36.278677,1.71581019 C39.3942697,1.71581019 41.4601451,3.56662393 41.4601451,7.0401036 C41.4601451,10.6492284 39.276899,12.3414378 36.2321755,12.3414378 C33.6688512,12.3414378 31.0193204,10.9752374 31.0193204,7.03092013 C31.0193204,3.88165692 32.7705347,1.71581019 36.278677,1.71581019 L36.278677,1.71581019 Z" id="Shape" fill="url(#linearGradient-18)"></path>
            <path d="M49.9141779,0.931743624 C46.2060659,0.931743624 43.6654928,3.00182528 43.6654928,7.03666176 C43.6654928,10.994744 46.0290316,13.2058588 49.9292887,13.2058588 C52.8832857,13.2058588 56.1198469,11.7076799 56.1198469,7.09291068 C56.1198469,2.11239153 52.5846101,0.931743624 49.9141779,0.931743624 L49.9141779,0.931743624 Z M49.8944126,1.37256478 C52.8453443,1.37256478 55.018914,3.14277045 55.018914,7.04699151 C55.018914,11.2910896 52.3896451,12.6674619 49.8990626,12.6674619 C47.2381163,12.6674619 44.814088,11.125451 44.814088,6.96319156 C44.814088,2.64906933 47.5008928,1.37256478 49.8944126,1.37256478 L49.8944126,1.37256478 Z" id="Shape" fill="url(#linearGradient-19)"></path>
            <path d="M49.8897626,0.687227482 C45.9601274,0.687227482 42.9563396,2.89060261 42.9563396,6.98729713 C42.9563396,10.3625879 44.9543709,13.3332853 49.9223134,13.3332853 C54.1282182,13.3332853 56.874337,11.0499238 56.874337,7.04699151 C56.874337,3.27223959 54.3125956,0.687227482 49.8897626,0.687227482 L49.8897626,0.687227482 Z M49.9141779,1.09820145 C52.5119964,1.09820145 55.9512758,2.24782275 55.9512758,7.09291068 C55.9512758,11.5821966 52.8017959,13.0394046 49.9281279,13.0394046 C46.1339248,13.0394046 43.8352241,10.8882637 43.8352241,7.03780804 C43.8352241,3.11268834 46.3068971,1.09820145 49.9141779,1.09820145 L49.9141779,1.09820145 Z" id="Shape" fill="url(#linearGradient-20)"></path>
            <path d="M57.1777369,13.1505248 C57.1777369,12.6765501 57.4696274,12.2357953 58.0547693,12.2357953 C58.6148519,12.2357953 59.0339487,12.5665581 59.0339487,13.0948782 C59.0339487,13.7531127 58.5928137,13.9956965 58.1886162,13.9956965 C57.6297537,13.9956965 57.1777369,13.7093427 57.1777369,13.1505248 L57.1777369,13.1505248 Z" id="Shape" fill="url(#radialGradient-21)"></path>
            <path d="M58.1121746,10.9050404 C58.5657426,7.73924261 58.8416358,4.41212988 59.1065399,1.09463853 C59.1065399,0.433439322 59.5491187,0.174835351 59.9956808,0.174835351 C60.0739455,0.174835351 60.1893741,0.190936245 60.1893741,0.190936245 L60.0679078,0.983966419 L58.4770467,10.8171186 L58.1121746,10.9050404 Z" id="Shape" fill="url(#linearGradient-22)"></path>
            <path d="M4.7178864,13.9527198 L5.6123843,13.3055946 L6.5035516,13.9527198 C6.5035516,13.9527198 6.0095309,13.8639499 5.612366,13.8639499 C5.2540032,13.8639499 4.7178864,13.9527198 4.7178864,13.9527198 L4.7178864,13.9527198 Z" id="Shape" fill="#200045"></path>
            <path d="M8.5122938,12.5214141 L9.7600793,11.9887149 C9.9504664,12.2141142 10.119839,12.4051215 10.3536764,12.5181669 C9.9044785,12.3981385 9.2244383,12.3442851 8.5124341,12.5200402 L8.5122938,12.5214141 Z" id="Shape" fill="#200045"></path>
            <path d="M20.0448886,12.5200511 C20.6489745,12.3763032 21.267553,12.3699441 21.9026368,12.5200511 L20.9749257,12.0057596 L20.0448886,12.5200511 Z" id="Shape" fill="#200045"></path>
            <path d="M28.78407,12.0057596 L28.78407,12.2629054 L29.7141065,12.5200511 C29.5662181,8.85238242 29.5521149,5.17943055 29.7141065,1.49952151 L28.78407,2.01381286 L28.78407,12.0057596 Z" id="Shape" fill="url(#linearGradient-23)"></path>
            <path d="M29.7141065,12.5200511 C29.1100204,12.3763032 28.491442,12.3699441 27.8563582,12.5200511 L28.78407,12.0057596 L29.7141065,12.5200511 Z" id="Shape" fill="#200045"></path>
            <path d="M60.9470786,0.976590619 C60.9470786,1.40852192 60.5411933,1.75866987 60.0405065,1.75866987 C59.5398198,1.75866987 59.1339345,1.40852192 59.1339345,0.976590619 C59.1339345,0.544662993 59.5398198,0.194515045 60.0405065,0.194515045 C60.5411933,0.194515045 60.9470786,0.544662993 60.9470786,0.976590619 L60.9470786,0.976590619 Z" id="Shape" fill="url(#radialGradient-24)"></path>
        </g>
    </g>
</svg>