<?xml version="1.0" standalone="no"?>
<!DOCTYPE svg PUBLIC "-//W3C//DTD SVG 1.1//EN" "http://www.w3.org/Graphics/SVG/1.1/DTD/svg11.dtd" >
<svg xmlns="http://www.w3.org/2000/svg" xmlns:xlink="http://www.w3.org/1999/xlink" version="1.1">
<metadata>
TweetDeck Icon Font
</metadata>
<defs>
<font id="edge-icons-Regular-Regular" horiz-adv-x="2048" >
  <font-face 
    font-family="edge-icons-Regular"
    font-weight="400"
    font-stretch="normal"
    units-per-em="2048"
    panose-1="0 0 5 0 0 0 0 0 0 0"
    ascent="1920"
    descent="-128"
    bbox="-202 -111.015 2368 1929"
    underline-thickness="100"
    underline-position="-200"
    unicode-range="U+000D-F724"
  />
<missing-glyph horiz-adv-x="0" 
 />
    <glyph glyph-name=".notdef" horiz-adv-x="0" 
 />
    <glyph glyph-name="space" unicode=" " horiz-adv-x="1024" 
 />
    <glyph glyph-name="uni0000" horiz-adv-x="0" 
 />
    <glyph glyph-name="uni0000" horiz-adv-x="0" 
 />
    <glyph glyph-name="uni000D" unicode="&#xd;" horiz-adv-x="682" 
 />
    <glyph glyph-name="uniE609" unicode="&#xe609;" 
d="M1024 1814q164 0 315.5 -55.5t274.5 -158.5t205 -244q123 -211 123 -460q0 -164 -55.5 -315.5t-158.5 -274.5t-244 -205q-211 -123 -460 -123q-164 0 -315.5 55.5t-274.5 158.5t-205 244q-123 212 -123 460q0 164 55.5 315.5t158.5 274.5t244 205q212 123 460 123z
M627.5 1580q-181.5 -106 -287.5 -287.5t-106 -396.5q0 -286 188 -510l1112 1112q-224 188 -510 188q-215 0 -396.5 -106zM1420.5 212q181.5 106 287.5 287.5t106 396.5q0 286 -188 510l-1112 -1112q224 -188 510 -188q215 0 396.5 106z" />
    <glyph glyph-name="uniF000" unicode="&#xf000;" 
d="M94 948q-34 0 -59 24t-27 60q-2 189 64.5 350t194 277.5t303.5 176.5q16 4 25 4q35 0 61.5 -24.5t26.5 -60.5q0 -28 -16.5 -51t-42.5 -30q-142 -49 -244 -142.5t-153.5 -220.5t-46.5 -275q0 -36 -24 -61t-60 -27h-2zM1952 948q-37 2 -61.5 27.5t-22.5 60.5
q5 148 -46.5 275t-153.5 220.5t-244 142.5q-26 7 -42.5 30t-16.5 51q0 37 26.5 60.5t61.5 23.5q13 0 25 -3q176 -60 304.5 -177.5t194.5 -279t61 -347.5q0 -35 -25 -59.5t-59 -24.5h-2zM412.5 982q-25.5 -25 -61.5 -25q-34 0 -58.5 24.5t-26.5 58.5q-4 193 100 346
q106 148 290 212q16 4 25 4q35 0 61.5 -24t26.5 -60q0 -27 -16 -49.5t-43 -32.5q-85 -28 -147.5 -85t-94.5 -135.5t-30 -171.5q0 -37 -25.5 -62zM1694 958q-36 0 -60 25t-24 61q4 140 -68 243t-204 149q-27 10 -43 32t-16 49q0 36 27 60.5t62 24.5q8 0 24 -4
q184 -64 290 -212q104 -153 100 -346q-2 -34 -27 -58t-59 -24h-2zM1368 322q-6 -88 -54 -161.5t-124.5 -116t-165.5 -42.5t-165.5 42.5t-124.5 116t-54 161.5h-274q-28 0 -46.5 19.5t-18.5 45.5q0 32 27 51q136 136 133 398t163 428q144 148 360 148t360 -148
q166 -166 162 -434q0 -101 21 -183t52.5 -135.5t62.5 -73.5q25 -22 25 -48q0 -11 -5 -24q-14 -44 -60 -44h-274zM1024 172q66 0 115 43t59 107h-348q10 -64 59 -107t115 -43z" />
    <glyph glyph-name="uniF002" unicode="&#xf002;" 
d="M1043 882q-235 0 -327 108q-78 86 -78 255q0 62 8 119q17 121 70.5 207.5t137 132.5t190.5 46t191 -46t136.5 -132.5t68.5 -207.5q8 -57 8 -119q0 -169 -78 -255q-91 -108 -327 -108zM544 42q-49 0 -90.5 25t-66 68t-24.5 94q0 27 5 47q36 149 133.5 265.5t239 181.5
t302.5 65t302.5 -65t239 -181.5t133.5 -265.5q5 -20 5 -47q0 -51 -24.5 -94t-66 -68t-90.5 -25h-998z" />
    <glyph glyph-name="uniF003" unicode="&#xf003;" 
d="M1312 598l-248 -572q-12 -26 -40 -26q-27 0 -38 26l-248 572h-348q-30 0 -50 18.5t-20 42.5q0 10 2 15q14 68 67 139t126.5 128t148.5 85l40 420l-128 192q-10 17 -10 36q0 26 19 46t47 20h780q40 0 56 -34q10 -20 10 -34q0 -17 -12 -34l-128 -190l46 -422
q75 -28 148.5 -85t126.5 -128t67 -139q2 -5 2 -16q0 -18 -12 -36q-24 -24 -58 -24h-346z" />
    <glyph glyph-name="uniF004" unicode="&#xf004;" 
d="M1770 1750q53 0 97 -25.5t69.5 -69.5t25.5 -97v-1324q0 -53 -25.5 -97t-69.5 -69.5t-97 -25.5h-1492q-53 0 -97 25.5t-69.5 69.5t-25.5 97v1324q0 53 25.5 97t69.5 69.5t97 25.5h1492zM1494 1250q0 32 -22 53t-54 21h-482q-31 0 -52.5 -21t-21.5 -53t21.5 -53t52.5 -21
h302l-644 -644q-22 -22 -22 -53t22 -53t53 -22t53 22l644 644v-302q0 -32 22 -54t53 -22t53 22t22 54v482z" />
    <glyph glyph-name="uniF005" unicode="&#xf005;" 
d="M1864 1062q0 -152 -69.5 -293.5t-205.5 -256.5q-139 -118 -675 -458q-16 -10 -43 -10q-25 0 -40 21.5t-15 42.5v326q-181 6 -326.5 90.5t-228.5 227.5t-83 321t88.5 329t241.5 239.5t336 88.5l354 -2q184 0 336.5 -88t241 -240t88.5 -336v-2z" />
    <glyph glyph-name="uniF006" unicode="&#xf006;" 
d="M1072 342q42 0 72 -30t30 -73t-30 -73t-72 -30h-444q-92 0 -169.5 45.5t-123 123t-45.5 169.5v802l-112 -114q-30 -30 -72 -30t-73 30.5t-31 72.5q0 43 32 73l288 288q28 30 71 30t73 -30l288 -288q30 -30 30 -73t-30 -73t-72 -30t-72 30l-114 114v-802q0 -37 18 -67
t48 -47.5t66 -17.5h444zM2046 527q0 -43 -30 -73l-288 -288q-30 -30 -73 -30t-73 30l-288 288q-30 30 -30 73t30 73t73 30t73 -30l112 -114v802q0 37 -18 67t-48 47.5t-66 17.5h-444q-42 0 -72 30t-30 73t30 73t72 30h444q92 0 169.5 -45.5t123 -123t45.5 -169.5v-802
l112 114q30 30 72 30t73 -30t31 -73z" />
    <glyph glyph-name="uniF007" unicode="&#xf007;" 
d="M1792 1750q36 0 61 -25t25 -61v-1536q0 -36 -25 -61t-61 -25t-61 25t-25 61v1536q0 36 25 61t61 25zM336 1178l1200 398v-1360l-200 66q-28 -70 -81.5 -124.5t-124.5 -85t-148 -30.5q-104 0 -192 52t-140 140t-52 192q0 50 12 96l-274 92q-22 -60 -80 -60q-36 0 -61 25
t-25 61v512q0 36 25 61t61 25q58 0 80 -60zM969 214q73 0 125.5 33t79.5 89l-402 132q-4 -21 -4 -42q0 -88 63 -150q64 -62 138 -62z" />
    <glyph glyph-name="uniF009" unicode="&#xf009;" 
d="M1558 960h276q27 0 45.5 -18.5t18.5 -45.5v-618q0 -65 -31 -119t-85 -85.5t-118 -31.5h-1322q-53 0 -97 25.5t-69.5 69.5t-25.5 97v1324q0 53 25.5 97t69.5 69.5t97 25.5h1024q53 0 97 -25.5t69.5 -69.5t25.5 -97v-598zM1194 1174q26 0 45 19t19 45t-19 45t-45 19h-682
q-26 0 -45 -19t-19 -45q0 -27 18.5 -45.5t45.5 -18.5h682zM1194 832q27 0 45.5 18.5t18.5 45.5t-18.5 45.5t-45.5 18.5h-682q-28 0 -46 -18t-18 -46t18 -46t46 -18h682zM1770 832h-212v-554q0 -44 31 -76t75 -32t75 32t31 76v554zM918 490q26 0 45 19t19 45t-19 45t-45 19
h-406q-27 0 -45.5 -18.5t-18.5 -45.5q0 -26 19 -45t45 -19h406z" />
    <glyph glyph-name="uniF010" unicode="&#xf010;" 
d="M1024 1746q201 0 371.5 -99.5t270.5 -269.5t100 -371q0 -161 -50 -280t-145 -222t-277 -259q-65 -56 -111 -93l-83 -68l-36 -30q-17 -14 -40 -14t-40 14l-36 30l-83 68q-125 102 -252.5 219.5t-180.5 186.5q-150 198 -150 448q0 305 218 523q217 217 524 217zM1024 722
q81 0 149.5 40.5t108.5 109t40 149.5t-40 149.5t-108.5 109t-149.5 40.5t-149.5 -40.5t-108.5 -109t-40 -149.5q0 -122 87 -211q87 -88 211 -88z" />
    <glyph glyph-name="uniF011" unicode="&#xf011;" 
d="M994 40l-12 2q-532 265 -616 584q-14 56 -14 106q0 148 110 296q89 119 153 218q62 97 75 130l14 36q6 22 32 22q24 -4 28 -28q11 -181 62 -306q66 83 122.5 200t90 231.5t33.5 190.5q5 25 24 26q8 2 12 2q12 0 16 -9q175 -283 378 -555q197 -268 197 -480
q0 -170 -125.5 -301.5t-375.5 -222.5q-6 -2 -10 -2q-13 0 -24 13q-5 7 -5 15q0 17 17 46q32 54 48 90t38 114q22 76 22 148q0 81 -33 202q-31 112 -99 226q-16 -155 -144 -304q-90 -102 -90 -258q0 -73 22 -164q31 -128 80 -220l6 -18q0 -12 -9 -21t-21 -9h-2z" />
    <glyph glyph-name="uniF012" unicode="&#xf012;" 
d="M1686 1750q51 0 95.5 -26t70.5 -70.5t26 -95.5v-1324q0 -51 -26 -95.5t-70.5 -70.5t-95.5 -26h-1324q-51 0 -95.5 26t-70.5 70.5t-26 95.5v1324q0 51 26 95.5t70.5 70.5t95.5 26h1324zM1450 1174q26 0 45 19t19 45t-19 45t-45 19h-852q-26 0 -45 -19t-19 -45t19 -45
t45 -19h852zM1450 832q27 0 45.5 18.5t18.5 45.5t-18.5 45.5t-45.5 18.5h-852q-27 0 -45.5 -18.5t-18.5 -45.5t18.5 -45.5t45.5 -18.5h852zM938 490q26 0 45 19t19 45t-19 45t-45 19h-340q-26 0 -45 -19t-19 -45t19 -45t45 -19h340z" />
    <glyph glyph-name="uniF014" unicode="&#xf014;" 
d="M1820 1282q0 -226 -90.5 -440.5t-257 -379.5t-385.5 -245q-183 -67 -397 -67q-333 0 -610 180q48 -6 94 -6q276 0 494 170q-84 1 -159.5 36.5t-130.5 98t-80 141.5q51 -8 85 -8q35 0 93 14q-91 18 -163.5 75t-113.5 139.5t-41 175.5v6q85 -49 180 -50q-82 55 -129 142.5
t-47 192.5q0 107 52 195q151 -185 364.5 -293.5t455.5 -120.5q-10 44 -10 90q0 108 53.5 199.5t145 145t201.5 53.5q168 0 288 -126q140 29 252 96q-46 -142 -174 -220q112 13 228 62q-80 -121 -198 -206v-50z" />
    <glyph glyph-name="uniF015" unicode="&#xf015;" 
d="M166 1198q0 127 64.5 240t171 181.5t226.5 68.5q228 0 396 -234q168 234 396 234q120 0 226.5 -68.5t171 -181.5t64.5 -240q0 -125 -46.5 -263.5t-125 -268.5t-174.5 -235q-93 -101 -190.5 -182t-182 -127.5t-139.5 -47.5h-2q-55 1 -139 47.5t-181 127.5t-190 182
q-139 153 -243 363q-103 209 -103 404z" />
    <glyph glyph-name="uniF016" unicode="&#xf016;" 
d="M1024 42q-26 0 -45 19t-19 45v1580q0 26 19 45t45 19t45 -19t19 -45v-1580q0 -26 -19 -45t-45 -19zM1462 42q-26 0 -45 19t-19 45v1140q0 26 19 45t45 19t45 -19t19 -45v-1140q0 -26 -19 -45t-45 -19zM586 42q-26 0 -45 19t-19 45v878q0 26 19 45t45 19t45 -19t19 -45
v-878q0 -26 -19 -45t-45 -19z" />
    <glyph glyph-name="uniF017" unicode="&#xf017;" 
d="M816 6q-18 -22 -43 -22q-26 0 -33 4q-39 17 -39 57l1 11l106 728h-250q-26 0 -44.5 19t-18.5 43q0 8 1 12l144 848q2 24 20 39t42 15h582q28 0 45.5 -19t17.5 -45q0 -9 -1 -14l-124 -520h400q39 0 58 -36q6 -13 6 -27q0 -22 -16 -41z" />
    <glyph glyph-name="uniF018" unicode="&#xf018;" 
d="M298 1110h1428q24 0 24 -24v-196q0 -24 -24 -24h-1428v-128h902q9 0 16.5 -7.5t7.5 -16.5v-198q0 -8 -8 -16t-16 -8h-902v-250q0 -26 -19 -45t-45 -19t-45 19t-19 45v1492q0 26 19 45t45 19t45 -19t19 -45v-252h1164q24 0 24 -22v-198q0 -24 -24 -24h-1164v-128z" />
    <glyph glyph-name="uniF019" unicode="&#xf019;" 
d="M1430 400q-4 -108 -59.5 -198t-147 -142t-199.5 -52t-199.5 52t-147 142t-59.5 198h-384q-29 0 -46.5 20.5t-17.5 46.5q0 28 21 44q47 35 89.5 106.5t69 177.5t26.5 235q-2 216 84.5 380t235.5 253.5t328 92.5q179 -3 328 -92.5t235.5 -253.5t84.5 -380q-4 -265 111 -435
q38 -56 69 -81q25 -19 25 -49q0 -26 -17.5 -45.5t-45.5 -19.5h-384zM1024 178q61 0 113 29.5t85 80t38 112.5h-472q7 -93 75 -158q67 -64 161 -64z" />
    <glyph glyph-name="uniF020" unicode="&#xf020;" 
d="M1526 1398h160q53 0 97 -25.5t69.5 -69.5t25.5 -97v-972q0 -53 -25.5 -97t-69.5 -69.5t-97 -25.5h-972q-53 0 -97 25.5t-69.5 69.5t-25.5 97v160h-160q-53 0 -97 25.5t-69.5 69.5t-25.5 97v972q0 53 25.5 97t69.5 69.5t97 25.5h972q53 0 97 -25.5t69.5 -69.5t25.5 -97
v-160zM1750 1206q0 26 -19 45t-45 19h-160v-684q0 -53 -25.5 -97t-69.5 -69.5t-97 -25.5h-684v-160q0 -26 19 -45t45 -19h972q26 0 45 19t19 45v972z" />
    <glyph glyph-name="uniF021" unicode="&#xf021;" 
d="M1686 1296q53 0 97 -25.5t69.5 -69.5t25.5 -97v-872q0 -53 -25.5 -97t-69.5 -69.5t-97 -25.5h-1324q-53 0 -97 25.5t-69.5 69.5t-25.5 97v872q0 53 25.5 97t69.5 69.5t97 25.5h162q8 130 77 238t181.5 171t242.5 63t241.5 -63t180.5 -171t77 -238h162zM1024 1640
q-96 0 -178.5 -46t-134 -124.5t-59.5 -173.5h744q-12 143 -119 244q-106 100 -253 100zM1088 582q52 21 82 65.5t30 106.5q0 42 -24 80.5t-65 62t-88 23.5t-87.5 -23.5t-64 -62t-23.5 -81.5q0 -64 30 -108.5t82 -62.5v-120q0 -27 18.5 -45.5t45.5 -18.5t45.5 18.5t18.5 45.5
v120z" />
    <glyph glyph-name="uniF022" unicode="&#xf022;" 
d="M1744 950q30 -19 30 -54q0 -34 -30 -54l-1240 -790q-16 -10 -31 -10q-14 0 -35 8q-32 20 -32 56v1580q0 36 32 56q18 8 32 8q16 0 34 -10z" />
    <glyph glyph-name="uniF023" unicode="&#xf023;" 
d="M1864 1062q0 -152 -69.5 -293.5t-205.5 -256.5q-139 -118 -675 -458q-16 -10 -43 -10q-25 0 -40 21.5t-15 42.5v326q-181 6 -326.5 90.5t-228.5 227.5t-83 321t88.5 329t241.5 239.5t336 88.5l354 -2q184 0 336.5 -88t241 -240t88.5 -336v-2z" />
    <glyph glyph-name="uniF026" unicode="&#xf026;" 
d="M94 970q-26 0 -44 17.5t-20 44.5q-5 181 59.5 338.5t190 272.5t298.5 173q9 3 19 3q25 0 45.5 -18.5t20.5 -46.5q0 -20 -12 -36.5t-33 -23.5q-145 -49 -249.5 -144.5t-158.5 -227t-52 -286.5q2 -27 -16.5 -46.5t-45.5 -19.5h-2zM1952 970q-27 0 -45.5 19.5t-16.5 46.5
q2 155 -52 286.5t-158.5 227t-249.5 144.5q-20 7 -31.5 23.5t-11.5 35.5q0 29 19 47.5t46 18.5q9 0 20 -3q262 -90 406 -300q148 -209 140 -484q-2 -27 -20 -44.5t-44 -17.5h-2zM352 978q-26 0 -44 17.5t-20 44.5q-2 125 42.5 233t129.5 186.5t202 118.5q10 3 20 3
q20 0 37 -12t24 -32q4 -9 4 -22q0 -19 -11.5 -35.5t-31.5 -23.5q-138 -46 -215 -156t-73 -256q2 -26 -16 -45t-46 -21h-2zM1694 978q-27 2 -44.5 20.5t-17.5 45.5q4 146 -73 256t-215 156q-20 7 -31.5 23.5t-11.5 35.5q0 29 19 47.5t46 18.5q10 0 20 -3q117 -40 202 -118.5
t129.5 -186.5t42.5 -233q0 -26 -19 -44t-45 -18h-2zM1326 322q-6 -76 -48.5 -140t-109.5 -101t-144 -37t-144 37t-109.5 101t-48.5 140h-316q-28 0 -46.5 19.5t-18.5 45.5q0 32 27 51q136 136 133 398t163 428q144 148 360 148t360 -148q166 -166 162 -434q0 -101 21 -183
t52.5 -135.5t62.5 -73.5q25 -22 25 -48q0 -11 -5 -24q-14 -44 -60 -44h-316zM1508 450q-91 159 -91 383q0 215 -123 341q-107 107 -270 112q-110 -3 -200.5 -58t-143.5 -158t-51 -244q3 -219 -91 -376h970zM1024 172q66 0 115 43t59 107h-348q10 -64 59 -107t115 -43z" />
    <glyph glyph-name="uniF027" unicode="&#xf027;" 
d="M1686 1870q53 0 97 -25.5t69.5 -69.5t25.5 -97v-1324q0 -53 -25.5 -97t-69.5 -69.5t-97 -25.5h-1324q-53 0 -97 25.5t-69.5 69.5t-25.5 97v1324q0 53 25.5 97t69.5 69.5t97 25.5h1324zM362 1742q-26 0 -45 -19t-19 -45v-1144l418 426q23 23 45 23t45 -23l154 -154
l370 374q20 20 45 20t45 -20l330 -328v826q0 26 -19 45t-45 19h-1324zM757 1462q36 0 66 -17.5t47.5 -47.5t17.5 -66t-17.5 -66t-47.5 -47.5t-66 -17.5t-66 17.5t-47.5 47.5t-17.5 66q0 55 38 93t93 38zM1686 290q26 0 45 19t19 45v316l-374 374l-324 -328l426 -426h208z
M1298 290l-536 534l-462 -472q0 -26 18 -44t44 -18h936z" />
    <glyph glyph-name="uniF028" unicode="&#xf028;" 
d="M1750 1858q53 0 97 -25.5t69.5 -69.5t25.5 -97v-1324q0 -53 -25.5 -96.5t-69.5 -68.5t-97 -25h-1452q-53 0 -97 25t-69.5 68.5t-25.5 96.5v1324q0 53 25.5 97t69.5 69.5t97 25.5h1452zM1814 1666q0 26 -19 45t-45 19h-1452q-26 0 -45 -19t-19 -45v-1324q0 -26 19 -44
t45 -18h1452q26 0 45 18t19 44v1324zM790 1096q-41 44 -98 44q-38 0 -69.5 -18.5t-50 -50t-18.5 -68.5t18.5 -68.5t47.5 -50t58 -18.5q44 0 80 18v50h-102v102h238v-214q-83 -92 -199 -92q-77 0 -141 36.5t-101 99.5t-37 137t37 137t101 99.5t141 36.5q117 0 199 -94v-2z
M1140 1276v-546h-144v546h144zM1620 1132h-232v-86h174v-144h-174v-172h-144v546h376v-144z" />
    <glyph glyph-name="uniF029" unicode="&#xf029;" 
d="M2030 1862v-8q8 -14 8 -57q0 -44 -7 -103t-17 -101q-15 -64 -51.5 -126t-86.5 -99q-104 -68 -256 -104q-172 -30 -298 -144q86 -26 146 -26l178 18q-14 -26 -65.5 -75t-106.5 -84q-64 -41 -169.5 -83t-220.5 -66q-140 -111 -335 -408q-53 -82 -90 -145
q-61 -104 -100.5 -168.5t-47.5 -63.5q-13 2 -13 40q0 70 54 245q39 129 116 301t167 333.5t166 261.5q111 145 221 246.5t239 185.5q190 124 358 177q170 53 203 53h8zM478 1436h272q86 0 86 -60q0 -29 -20.5 -48.5t-47.5 -19.5h-282v-290q0 -68 -68 -68q-29 0 -48.5 20.5
t-19.5 47.5v282h-282q-68 0 -68 68q0 29 20.5 48.5t47.5 19.5h282v282q0 68 60 68q29 0 48.5 -20.5t19.5 -47.5v-282z" />
    <glyph glyph-name="uniF030" unicode="&#xf030;" 
d="M1992 382q0 -40 -38 -58q-12 -6 -32 -6q-19 0 -36 14l-232 188v-288q0 -53 -25.5 -97t-69.5 -69.5t-97 -25.5h-1192q-53 0 -97 25.5t-69.5 69.5t-25.5 97v1238q0 51 25.5 95.5t70 70.5t96.5 26h1192q52 0 96.5 -26t70 -70.5t25.5 -95.5v-288l232 188q17 13 39 13
q26 0 46.5 -18t20.5 -45v-938zM1526 1470q0 26 -19 45t-45 19h-1192q-26 0 -45 -19t-19 -45v-1238q0 -27 18.5 -45.5t45.5 -18.5h1192q26 0 45 19t19 45v1238zM866 436q-112 0 -207 56t-151 151.5t-56 207.5t55.5 207.5t150.5 151.5t208 56t208 -56t150.5 -151.5
t55.5 -207.5q0 -171 -122 -293t-292 -122zM1864 1186l-210 -170v-332l210 -168v670zM866 1138q-77 0 -143 -39t-104.5 -105.5t-38.5 -143.5t38.5 -143t104.5 -104.5t143 -38.5t143 38.5t104.5 104.5t38.5 143q0 118 -84 203t-202 85z" />
    <glyph glyph-name="uniF031" unicode="&#xf031;" 
d="M1618 562h-2v-2q-77 -101 -322 -313q-65 -56 -111 -93l-83 -68l-36 -30q-20 -14 -40 -14t-40 14l-36 30l-83 68q-130 106 -257 224.5t-176 183.5q-150 198 -150 446q0 201 100 371.5t271 270.5t372 100t371 -100t270 -270.5t100 -371.5q0 -247 -148 -446zM1555.5 1316
q-82.5 141 -223.5 223.5t-308 82.5t-308 -82.5t-223.5 -223.5t-82.5 -308q0 -205 122 -368q101 -128 492 -452q391 324 492 452q122 163 122 368q0 167 -82.5 308zM1024 698q-88 0 -162.5 43.5t-118 118t-43.5 162.5t43.5 162t118 117t162.5 43t162.5 -43t118 -117
t43.5 -162q0 -134 -95 -229t-229 -95zM1024 1216q-54 0 -99 -26t-71 -71t-26 -98t26.5 -98t71.5 -71t98 -26t98 26t71.5 71t26.5 98q0 81 -57 138t-139 57z" />
    <glyph glyph-name="uniF032" unicode="&#xf032;" 
d="M1024 -22q-164 0 -315.5 55.5t-274.5 158.5t-205 244q-123 212 -123 460q0 164 55.5 315.5t158.5 274.5t244 205q212 123 460 123q164 0 315.5 -55.5t274.5 -158.5t205 -244q123 -211 123 -460q0 -164 -55.5 -315.5t-158.5 -274.5t-244 -205q-211 -123 -460 -123z" />
    <glyph glyph-name="uniF033" unicode="&#xf033;" 
d="M1024 -22q-164 0 -315.5 55.5t-274.5 158.5t-205 244q-123 212 -123 460q0 164 55.5 315.5t158.5 274.5t244 205q212 123 460 123q164 0 315.5 -55.5t274.5 -158.5t205 -244q123 -211 123 -460q0 -164 -55.5 -315.5t-158.5 -274.5t-244 -205q-211 -123 -460 -123z
M1024 1686q-215 0 -396.5 -106t-287.5 -287.5t-106 -396.5t106 -396.5t287.5 -287.5t396.5 -106t396.5 106t287.5 287.5t106 396.5q0 328 -231 559t-559 231zM790 1240q34 0 63 -17.5t46 -47t17 -63.5t-17 -63t-46 -46t-63 -17t-63 17t-46 46t-17 63q0 53 37 90q38 38 89 38
zM1258 1240q34 0 63 -17.5t46 -47t17 -63.5t-17 -63t-46 -46t-63 -17t-63 17t-46 46t-17 63q0 53 37 90q38 38 89 38zM1024 460q-122 0 -227 57t-171 159q-10 14 -10 33q0 16 8 31t22 25t34 10q16 0 30.5 -7.5t23.5 -21.5q102 -158 290 -158t290 158q10 13 24 20.5t30 7.5
q18 0 34 -10q14 -9 22 -24t8 -31q0 -19 -10 -33q-66 -102 -171 -159t-227 -57z" />
    <glyph glyph-name="uniF034" unicode="&#xf034;" 
d="M298 1110h1428q24 0 24 -24v-196q0 -24 -24 -24h-1428v-128h902q9 0 16.5 -7.5t7.5 -16.5v-198q0 -8 -8 -16t-16 -8h-902v-250q0 -26 -19 -45t-45 -19t-45 19t-19 45v1492q0 26 19 45t45 19t45 -19t19 -45v-252h1164q24 0 24 -22v-198q0 -24 -24 -24h-1164v-128z" />
    <glyph glyph-name="uniF035" unicode="&#xf035;" 
d="M1778 1648h206q28 0 46 -18t18 -45t-19 -46t-45 -19h-206v-206q0 -26 -19 -45t-45 -19t-45 19t-19 45v206h-208q-27 0 -45.5 18.5t-18.5 45.5t18.5 45.5t45.5 18.5h208v208q0 26 19 45t45 19t45 -19t19 -45v-208zM1714 1062q26 0 45 -19t19 -45v-690q0 -52 -26 -96.5
t-70.5 -70t-95.5 -25.5h-1236q-53 0 -97 25.5t-69.5 69.5t-25.5 97v1148q0 53 25.5 97t69.5 69.5t97 25.5h776q26 0 45 -19t19 -45t-19 -45t-45 -19h-776q-27 0 -45.5 -18.5t-18.5 -45.5v-88l646 -432q19 -11 35 -11t35 11l386 256q17 11 36 11q32 0 50 -27q11 -17 11 -36
q0 -32 -27 -50l-388 -258q-49 -32 -101 -32t-105 32l-578 386v-910q0 -27 18.5 -45.5t45.5 -18.5h1236q26 0 45 19t19 45v690q0 26 19 45t45 19z" />
    <glyph glyph-name="uniF036" unicode="&#xf036;" 
d="M222 556q-18 18 -18 45t19 46t45 19t46 -20l438 -440l1010 1430q20 27 51 27q21 0 37 -12q13 -9 20.5 -23.5t7.5 -30.5q0 -20 -12 -35l-1052 -1492q-10 -12 -24.5 -18.5t-29.5 -6.5q-27 0 -44 17zM234 1360q-26 0 -45 19t-19 45t19 45t45 19h966q26 0 45 -19t19 -45
t-19 -45t-45 -19h-966zM234 1008q-26 0 -45 19t-19 45t19 45t45 19h614q28 0 46 -18t18 -45t-19 -46t-45 -19h-614z" />
    <glyph glyph-name="uniF037" unicode="&#xf037;" 
d="M249 400q-24 0 -41 20.5t-17 45.5q0 30 18 43q13 9 29 25q11 11 45 58q118 167 113 438q-2 216 84.5 380t235.5 253.5t328 92.5q220 -5 382 -128q13 -9 20 -23t7 -29q0 -21 -15 -41q-18 -23 -46 -23t-42 14q-132 97 -306 102q-145 -3 -264.5 -75t-188.5 -206.5
t-67 -316.5q2 -114 -20 -223.5t-55 -180.5q-26 -56 -66 -112t-62 -76q-20 -18 -30 -26q-15 -12 -42 -12zM1916 1682q0 -26 -18 -46l-1592 -1592q-18 -18 -45 -18t-46 19t-19 45t20 46l1592 1592q18 18 44 18q27 0 46 -18q18 -19 18 -46zM1692 998q0 -87 25.5 -201t74.5 -185
q53 -78 85 -101q21 -16 21 -44q0 -26 -17.5 -46.5t-46.5 -20.5h-420q-5 -99 -55.5 -180.5t-133.5 -128.5t-181 -47q-97 0 -181 48t-135 130q-10 16 -10 34q0 17 8 31t22 23q14 10 33 10q16 0 31 -8t24 -22q70 -118 208 -118q63 0 116.5 30t87 82.5t38.5 115.5h-300
q-27 0 -45.5 18t-18.5 45t19 46t45 19h708q-130 202 -130 495l-1 67q0 23 20 42.5t46 19.5q24 0 41.5 -17.5t19.5 -40.5q2 -32 2 -96z" />
    <glyph glyph-name="uniF038" unicode="&#xf038;" 
d="M1642 1750q26 0 45 -19t19 -45v-1580q0 -26 -19 -45t-45 -19t-45 19t-19 45v600q-88 42 -187 42q-100 0 -334 -67t-374 -67t-267 76q-32 20 -32 56v832q0 27 19.5 46t44.5 19q17 0 32 -9q97 -58 216 -58t344 67t336 67q109 0 202 -32v8q0 26 19 45t45 19zM512 784
q89 -42 188 -42q102 0 333 67t346 67q114 0 199 -30v694q-88 42 -187 42q-101 0 -327 -64q-228 -70 -346 -70q-116 0 -206 30v-694z" />
    <glyph glyph-name="uniF040" unicode="&#xf040;" 
d="M1024 -22q-164 0 -315.5 55.5t-274.5 158.5t-205 244q-123 212 -123 460q0 164 55.5 315.5t158.5 274.5t244 205q212 123 460 123q164 0 315.5 -55.5t274.5 -158.5t205 -244q123 -211 123 -460q0 -164 -55.5 -315.5t-158.5 -274.5t-244 -205q-211 -123 -460 -123z
M1024 1686q-215 0 -396.5 -106t-287.5 -287.5t-106 -396.5t106 -396.5t287.5 -287.5t396.5 -106t396.5 106t287.5 287.5t106 396.5q0 328 -231 559t-559 231zM1368 932q20 -14 20 -36t-20 -36l-512 -326q-7 -6 -22 -6l-22 4q-22 13 -22 38v652q0 25 22 38q12 5 21 5
q11 0 23 -7z" />
    <glyph glyph-name="uniF042" unicode="&#xf042;" 
d="M1024 -22q-164 0 -315.5 55.5t-274.5 158.5t-205 244q-123 212 -123 460q0 164 55.5 315.5t158.5 274.5t244 205q212 123 460 123q164 0 315.5 -55.5t274.5 -158.5t205 -244q123 -211 123 -460q0 -164 -55.5 -315.5t-158.5 -274.5t-244 -205q-211 -123 -460 -123z
M1024 1686q-215 0 -396.5 -106t-287.5 -287.5t-106 -396.5t106 -396.5t287.5 -287.5t396.5 -106t396.5 106t287.5 287.5t106 396.5q0 328 -231 559t-559 231zM1014 718q-31 0 -42 30l-154 520q-2 8 -2 13q0 17 12.5 30t29.5 13h336q17 0 29.5 -13t12.5 -30q0 -5 -2 -13
l-154 -520q-10 -30 -42 -30h-24zM1026 626q46 0 78 -32t32 -77t-32 -77t-78 -32t-78 32t-32 77t32 77t78 32z" />
    <glyph glyph-name="uniF043" unicode="&#xf043;" 
d="M1024 -22q-164 0 -315.5 55.5t-274.5 158.5t-205 244q-123 212 -123 460q0 164 55.5 315.5t158.5 274.5t244 205q212 123 460 123q164 0 315.5 -55.5t274.5 -158.5t205 -244q123 -211 123 -460q0 -164 -55.5 -315.5t-158.5 -274.5t-244 -205q-211 -123 -460 -123z
M1024 1686q-215 0 -396.5 -106t-287.5 -287.5t-106 -396.5t106 -396.5t287.5 -287.5t396.5 -106t396.5 106t287.5 287.5t106 396.5q0 328 -231 559t-559 231zM966 538q-18 -20 -45 -20t-45 20l-230 230q-20 18 -20 45t19 46t46 19t45 -20l176 -174l354 542q9 14 23.5 21.5
t30.5 7.5q20 0 34 -10q13 -10 21 -24.5t8 -29.5q0 -20 -11 -35l-370 -568z" />
    <glyph glyph-name="uniF044" unicode="&#xf044;" 
d="M1024 -22q-164 0 -315.5 55.5t-274.5 158.5t-205 244q-123 212 -123 460q0 164 55.5 315.5t158.5 274.5t244 205q212 123 460 123q164 0 315.5 -55.5t274.5 -158.5t205 -244q123 -211 123 -460q0 -164 -55.5 -315.5t-158.5 -274.5t-244 -205q-211 -123 -460 -123z
M1024 1686q-215 0 -396.5 -106t-287.5 -287.5t-106 -396.5t106 -396.5t287.5 -287.5t396.5 -106t396.5 106t287.5 287.5t106 396.5q0 328 -231 559t-559 231zM1354 658q18 -20 18 -46t-18 -46q-22 -18 -48 -18t-44 18l-238 240l-238 -240q-22 -18 -46 -18q-23 0 -46 18
q-18 20 -18 46q0 27 18 46l240 238l-238 238q-20 20 -20 46t19 45t45 19t46 -18l238 -240l238 238q20 20 46 20t45 -19t19 -45t-18 -46l-240 -238z" />
    <glyph glyph-name="uniF045" unicode="&#xf045;" 
d="M1638 402q26 -26 26 -61t-25 -60t-60 -25t-61 26l-494 494l-494 -494q-24 -26 -60 -26t-61 25t-25 60t26 61l494 494l-494 494q-26 26 -26 61t25 60t60 25t61 -26l494 -494l494 494q26 26 61 26t60 -25t25 -60t-26 -61l-494 -494z" />
    <glyph glyph-name="uniF046" unicode="&#xf046;" 
d="M298 982q-34 0 -63.5 17t-47 46.5t-17.5 64.5v512q0 34 17.5 63.5t47 47t63.5 17.5h512q35 0 64.5 -17.5t46.5 -47t17 -63.5v-512q0 -54 -37 -91t-91 -37h-512zM1238 982q-54 0 -91 37t-37 91v512q0 34 17 63.5t46.5 47t64.5 17.5h512q34 0 63.5 -17.5t47 -47t17.5 -63.5
v-512q0 -35 -17.5 -64.5t-47 -46.5t-63.5 -17h-512zM298 42q-34 0 -63.5 17.5t-47 47t-17.5 63.5v512q0 35 17.5 64.5t47 46.5t63.5 17h512q54 0 91 -37t37 -91v-512q0 -34 -17 -63.5t-46.5 -47t-64.5 -17.5h-512zM1238 42q-35 0 -64.5 17.5t-46.5 47t-17 63.5v512
q0 54 37 91t91 37h512q34 0 63.5 -17t47 -46.5t17.5 -64.5v-512q0 -34 -17.5 -63.5t-47 -47t-63.5 -17.5h-512z" />
    <glyph glyph-name="uniF047" unicode="&#xf047;" 
d="M1024 1814q164 0 315.5 -55.5t274.5 -158.5t205 -244q123 -211 123 -460q0 -164 -55.5 -315.5t-158.5 -274.5t-244 -205q-211 -123 -460 -123q-164 0 -315.5 55.5t-274.5 158.5t-205 244q-123 212 -123 460q0 164 55.5 315.5t158.5 274.5t244 205q212 123 460 123z
M790 1240q-34 0 -63 -17t-46 -46t-17 -63t17 -63.5t46 -47t63 -17.5t63 17.5t46 47t17 63.5q0 52 -37 89t-89 37zM1258 1240q-34 0 -63 -17t-46 -46t-17 -63t17 -63.5t46 -47t63 -17.5t63 17.5t46 47t17 63.5q0 52 -37 89t-89 37zM1024 588q-188 0 -290 158
q-9 14 -23.5 21.5t-30.5 7.5q-20 0 -34 -10t-22 -25t-8 -31q0 -19 10 -33q66 -102 171 -159t227 -57t227 57t171 159q10 14 10 33q0 16 -8 31t-22 24q-16 10 -34 10q-16 0 -30 -7.5t-24 -20.5q-102 -158 -290 -158z" />
    <glyph glyph-name="uniF048" unicode="&#xf048;" 
d="M298 1110h1428q24 0 24 -24v-196q0 -24 -24 -24h-1428v-128h902q9 0 16.5 -7.5t7.5 -16.5v-198q0 -8 -8 -16t-16 -8h-902v-250q0 -26 -19 -45t-45 -19t-45 19t-19 45v1492q0 26 19 45t45 19t45 -19t19 -45v-252h1164q24 0 24 -22v-198q0 -24 -24 -24h-1164v-128z" />
    <glyph glyph-name="uniF052" unicode="&#xf052;" 
d="M1792 1294q27 0 45.5 -18.5t18.5 -45.5t-18.5 -45.5t-45.5 -18.5h-346l-48 -540h328q26 0 45 -19t19 -45t-19 -45t-45 -19h-338l-34 -376q-2 -24 -20 -41t-42 -17h-6q-28 4 -44 24t-14 46l32 364h-540l-32 -376q-4 -24 -22 -41t-42 -17h-6q-28 4 -44 24t-14 46l32 364
h-336q-27 0 -45.5 18.5t-18.5 45.5t18.5 45.5t45.5 18.5h346l48 540h-328q-26 0 -45 19t-19 45t19 45t45 19h338l34 376q2 25 19.5 41t42.5 16q30 0 48 -20.5t16 -48.5l-32 -364h540l32 376q4 25 21.5 41t42.5 16q30 0 48 -20.5t16 -48.5l-32 -364h336zM1318 1166h-540
l-48 -540h540z" />
    <glyph glyph-name="uniF053" unicode="&#xf053;" 
d="M628 40q-86 0 -149 49t-77 127l-140 982l-70 -36q-14 -8 -41 -8q-22 0 -37 20.5t-15 45.5q0 38 33 54l862 466q13 8 30 8t30 -8l862 -466q16 -8 25.5 -23.5t9.5 -32.5q0 -16 -9 -30q-8 -16 -23.5 -25.5t-32.5 -9.5t-30 9l-70 38l-138 -982q-16 -80 -79 -129t-149 -49
h-792zM1420 168q36 0 65 19t35 51l146 1026l-642 346l-642 -346l146 -1028q6 -32 35 -50t65 -18h792zM702 880q0 88 43 162t117 117t162 43t162 -43t117 -117t43 -162t-43 -162t-117 -117t-162 -43q-134 0 -228 94t-94 228zM1218 880q0 53 -26 97.5t-70.5 70.5t-97.5 26
t-97.5 -26t-70.5 -70.5t-26 -97.5t26 -97.5t70.5 -70.5t97.5 -26q80 0 137 57t57 137z" />
    <glyph glyph-name="uniF054" unicode="&#xf054;" 
d="M1642 1662q65 0 119 -31t85.5 -85t31.5 -118v-1066q0 -64 -31.5 -118.5t-86 -86t-118.5 -31.5h-1236q-64 0 -118.5 31.5t-86 86t-31.5 118.5v1066q0 64 31.5 118t85.5 85t119 31h1236zM406 1534q-44 0 -76 -31t-32 -75v-62l688 -456q19 -13 39 -13q19 0 37 11l688 458v62
q0 44 -32 75t-76 31h-1236zM1642 254q46 0 77 31t31 77v854l-618 -412q-50 -32 -108 -32t-108 32l-618 412v-854q0 -46 31 -77t77 -31h1236z" />
    <glyph glyph-name="uniF055" unicode="&#xf055;" 
d="M1394 400q-5 -97 -56 -179t-134 -129.5t-181 -47.5t-180.5 47t-133 128.5t-55.5 180.5h-420q-29 0 -46.5 19.5t-17.5 45.5q0 30 21 46q47 35 89.5 106.5t69 177.5t26.5 235q-2 216 84.5 380t235.5 253.5t328 92.5q179 -3 328 -92.5t235.5 -253.5t84.5 -380
q-4 -265 111 -435q38 -56 69 -81q26 -19 26 -51q0 -25 -17.5 -44t-46.5 -19h-420zM1674 528q-132 206 -129 495q2 186 -67.5 322t-189 208t-264.5 75q-145 -3 -264.5 -75t-189 -208t-67.5 -322q3 -290 -129 -495h1300zM1024 172q63 0 116.5 30t87 82.5t38.5 115.5h-484
q7 -95 77 -162q69 -66 165 -66z" />
    <glyph glyph-name="uniF056" unicode="&#xf056;" 
d="M1024 982q-207 0 -306 84.5t-99 271.5q0 59 9 126q16 119 68.5 205.5t136.5 132.5t191 46t190.5 -46t136.5 -132.5t69 -205.5q10 -77 10 -128q0 -159 -72 -242q-97 -112 -334 -112zM1024 1110q102 0 162 20.5t88 69t28 135.5q0 44 -8 111q-15 114 -77.5 194t-192.5 80
t-192.5 -80t-77.5 -194q-8 -64 -8 -108q0 -111 42 -159q60 -69 236 -69zM500 114q-54 0 -97 25t-67 67.5t-24 92.5q0 24 6 49q37 149 139.5 265.5t250.5 181.5t316 65t314 -65.5t248.5 -181.5t143.5 -265q8 -29 8 -54q0 -59 -42 -110q-52 -70 -148 -70h-1048zM1024 732
q-140 0 -262.5 -52.5t-206.5 -147t-113 -214.5q-3 -10 -3 -21q0 -25 17 -41t44 -16h1048q27 0 44 16t17 41q0 11 -3 21q-44 183 -207 298q-164 116 -375 116z" />
    <glyph glyph-name="uniF058" unicode="&#xf058;" 
d="M1838 174q18 -19 18 -46q0 -26 -18 -46q-22 -18 -46 -18q-23 0 -46 18l-312 314q-215 -182 -496 -182q-209 0 -385 103.5t-279.5 279.5t-103.5 385t103.5 385t279.5 279.5t385 103.5t385 -103.5t279.5 -279.5t103.5 -385q0 -281 -182 -496zM298 981q0 -174 86.5 -320.5
t233.5 -232.5t321 -86t320.5 86t232.5 232.5t86 320.5t-86 321t-232.5 233.5t-320.5 86.5q-265 0 -453 -188t-188 -453z" />
    <glyph glyph-name="uniF059" unicode="&#xf059;" 
d="M138 996q0 75 50 129t126 65l14 2q42 5 54 40q5 12 5 22q0 27 -30 63q-38 46 -38 112q0 39 14.5 76t42.5 65l44 44q27 27 61 41t72 14q74 0 137 -51q19 -16 41 -16q14 0 27 6q35 12 40 54l2 14q11 76 65 126t129 50h60q50 0 92.5 -23t69.5 -63t32 -90v-14q8 -42 42 -54
q12 -5 22 -5q28 0 63 29q22 18 52 27.5t62 9.5q39 0 75.5 -14t63.5 -41l44 -44q28 -28 42.5 -65t14.5 -76q0 -66 -38 -112q-29 -35 -29 -66q0 -24 16.5 -40.5t41.5 -18.5l12 -2q50 -5 90.5 -32t64 -69.5t23.5 -92.5v-60q0 -75 -50 -129t-126 -65l-14 -2q-42 -5 -54 -40
q-6 -13 -6 -26q0 -23 16 -40l8 -12q22 -26 33.5 -57.5t11.5 -65.5q0 -38 -14.5 -73.5t-42.5 -63.5l-44 -44q-27 -27 -61 -41t-72 -14q-74 0 -137 51q-19 16 -41 16q-13 0 -27 -6q-35 -12 -40 -54l-2 -14q-10 -76 -64 -124t-130 -50l-60 -2q-49 -1 -91 21.5t-69 63.5t-34 91
l-2 14q-2 26 -22 43t-45 17q-24 0 -41 -16q-63 -51 -137 -51q-38 0 -72 14t-61 41l-44 44q-28 28 -42.5 64.5t-14.5 75.5q0 32 9.5 61.5t28.5 51.5q30 38 30 64q0 9 -5 21q-12 35 -54 40l-14 2q-76 11 -126 65t-50 129v60zM1056 208q55 0 66 74q4 51 33 91t72.5 62t90.5 22
q70 0 122 -45q28 -22 54 -22t44 18l44 44q22 22 22 45q0 21 -18 43l-8 12q-48 53 -48 118q0 39 16 80q46 107 162 118q74 11 74 68v62q0 55 -74 66q-116 11 -162 118q-16 41 -16 79q0 66 48 121l8 10q18 23 18 43q0 23 -22 45l-44 44q-18 18 -44 18t-60 -28
q-23 -18 -55 -28.5t-66 -10.5q-39 0 -71 13q-109 47 -120 162q-11 74 -66 74h-62q-58 0 -67 -81q-5 -48 -37.5 -90t-81.5 -63q-42 -18 -80 -18q-63 0 -118 48q-28 22 -55 22t-45 -18l-44 -44q-22 -22 -22 -45q0 -25 28 -53q44 -54 44 -124q0 -48 -22 -91t-62 -71t-92 -32
q-74 -11 -74 -68v-62q0 -55 74 -66q116 -11 162 -118q16 -42 16 -82q0 -72 -56 -128q-18 -22 -18 -43q0 -23 22 -45l44 -44q18 -18 45 -18q26 0 43 14q64 54 133 54q39 0 75 -16q110 -47 120 -160q11 -74 68 -74h62zM1024 1290q88 0 162.5 -43.5t118 -118t43.5 -162.5
t-43.5 -162.5t-118 -118t-162.5 -43.5t-162.5 43.5t-118 118t-43.5 162.5q0 134 95 229t229 95zM1024 770q53 0 98 26.5t71.5 71.5t26.5 98t-26.5 98t-71.5 71.5t-98 26.5t-98 -26.5t-71.5 -71.5t-26.5 -98q0 -80 58 -138t138 -58z" />
    <glyph glyph-name="uniF063" unicode="&#xf063;" 
d="M234 832q-26 0 -45 19t-19 45t19 45t45 19h278l326 750q7 19 22.5 29.5t33.5 10.5q22 0 40.5 -13.5t23.5 -36.5l330 -1394l210 478q17 38 60 38h256q26 0 45 -19t19 -45t-19 -45t-45 -19h-216l-270 -614q-18 -38 -58 -38h-6q-44 6 -58 50l-328 1390l-264 -612
q-18 -38 -60 -38h-320z" />
    <glyph glyph-name="uniF064" unicode="&#xf064;" 
d="M1429 1275q25 -25 25 -61l-80 -472q-4 -19 -4 -41q0 -81 71 -115q44 -22 97 -22q75 0 137.5 37t100.5 111.5t38 183.5q0 215 -106 396.5t-287.5 287.5t-396.5 106t-396.5 -106t-287.5 -287.5t-106 -396.5t106 -396.5t287.5 -287.5t396.5 -106q237 0 424 128q17 11 37 11
q16 0 29.5 -7t22.5 -20q11 -17 11 -35q0 -15 -7.5 -29t-20.5 -24q-220 -150 -482 -150q-172 0 -326 55.5t-276.5 158t-204.5 243.5q-123 212 -123 459q0 164 55.5 315t158.5 273.5t243 204.5q211 123 459 123q164 0 315 -55.5t273.5 -158.5t204.5 -243q123 -211 123 -459
q0 -110 -38 -199t-94 -137q-53 -45 -132 -75.5t-148 -30.5q-140 0 -208 48q-67 48 -84 86l-8 16q-14 -16 -36 -35q-19 -16 -62.5 -38t-99.5 -38.5t-110 -16.5q-92 0 -168.5 52t-121 140.5t-44.5 193.5q0 140 54 251t149.5 174t216.5 63q78 0 149.5 -28t102.5 -62l28 -30
l2 10q23 60 80 60q36 0 61 -25zM1026 1206q-74 -2 -137.5 -50t-99 -123.5t-32.5 -154.5q5 -119 64.5 -185.5t156.5 -66.5l8 2q114 5 192 112q34 50 51 107t17 112q0 56 -16.5 104.5t-45.5 80.5q-59 62 -150 62h-8z" />
    <glyph glyph-name="uniF065" unicode="&#xf065;" 
d="M1026 70q0 -12 -9 -21t-21 -9h-2q-6 0 -12 2q-532 265 -616 584q-14 56 -14 106q0 148 110 296q89 119 153 218q62 97 75 130l14 36q6 22 32 22q24 -4 28 -28q11 -181 62 -306q66 83 122.5 200t90 231.5t33.5 190.5q5 25 24 26q8 2 12 2q12 0 16 -9q175 -283 378 -555
q197 -268 197 -480q0 -170 -125.5 -301.5t-375.5 -222.5q-3 -1 -9 -1q-13 0 -23 10t-10 22q0 8 4 13q59 89 91.5 195.5t32.5 188.5q0 86 -33 200t-99 224q-16 -155 -144 -304q-90 -102 -90 -258q0 -73 22 -164q31 -128 59 -178q27 -48 27 -60z" />
    <glyph glyph-name="uniF085" unicode="&#xf085;" 
d="M1408 1746q53 0 97 -26t69.5 -70.5t25.5 -97.5v-1312q0 -53 -25.5 -97.5t-69.5 -70.5t-97 -26h-768q-53 0 -97 26t-69.5 70.5t-25.5 97.5v1312q0 53 25.5 97.5t69.5 70.5t97 26h768zM1472 1552q0 28 -19 47t-45 19h-768q-26 0 -45 -19t-19 -47v-1038q0 -28 19 -47t45 -19
h768q26 0 45 19t19 47v1038zM1130 182q26 0 45 19t19 45t-19 45t-45 19h-212q-26 0 -45 -19t-19 -45t19 -45t45 -19h212z" />
    <glyph glyph-name="uniF088" unicode="&#xf088;" 
d="M774 1520q18 24 46 24q30 0 48.5 -17.5t18.5 -48.5q0 -22 -13 -38l-512 -646q-40 -51 -60.5 -110t-20.5 -121q0 -84 37 -162t106 -132q51 -40 110.5 -60.5t121.5 -20.5q85 0 162 36.5t132 105.5l764 962q49 61 49 141q0 51 -22.5 98.5t-64.5 81.5q-62 49 -141 49
q-51 0 -98.5 -22t-80.5 -64l-656 -826q-17 -21 -17 -51q0 -19 8 -36t23 -29q23 -17 51 -17q19 0 36 8t29 23l420 530q20 26 45 26q28 0 48 -18t20 -48q0 -22 -13 -38l-420 -530q-31 -39 -75 -60t-91 -21q-74 0 -130 46q-39 31 -59.5 74.5t-20.5 90.5q0 72 46 130l654 826
q53 67 123.5 100.5t156.5 33.5q126 0 222 -76q66 -52 101 -125.5t35 -154.5q0 -59 -19.5 -116t-58.5 -106l-764 -962q-131 -166 -336 -188q-30 -3 -59 -3q-171 0 -311 109q-93 72 -142 176t-49 217q0 84 27.5 164.5t81.5 148.5z" />
    <glyph glyph-name="uniF089" unicode="&#xf089;" 
d="M1024 1792q242 0 448 -121t327 -327t121 -448t-121 -448t-327 -327t-448 -121t-448 121t-327 327t-121 448q0 370 263 633t633 263zM824 230q10 0 50 81q35 71 82 169q43 91 49 99q12 19 86 88l38 35q4 4 7 25t3 48t-3.5 51t-9.5 36q-7 16 -49.5 58t-87.5 79.5t-55 39.5
q-15 3 -112 -8l-35 -4q-35 -5 -54 -5q-30 0 -58 10.5t-67.5 36t-111.5 79.5l-48 36l35 1q70 2 84 9t24 32.5t16 40.5q27 65 38 76t24 19t45 24l60 31q34 18 141 65q114 50 121 60q5 15 5 42q0 32 -6.5 58t-18.5 26h-4q-167 -1 -315.5 -70.5t-256 -192.5t-156.5 -281
q105 -33 206 -75q95 -40 102 -52q7 -11 -13 -55q-5 -13 -9 -20q-5 -11 -8 -20t-3 -16q0 -10 11 -43l6 -20q2 -7 11.5 -35.5t21.5 -39t49 -36.5q49 -36 56 -46q7 -12 27 -183q20 -173 25 -186q6 -16 27 -41q21 -26 31 -26zM1750 696q18 0 24 14q24 66 24 186q0 348 -270 586
q-18 15 -95.5 29t-140.5 14q-54 0 -68 -11q-16 -16 -22.5 -25t-6.5 -19q0 -16 19 -39.5t66 -65.5t63.5 -60.5t16.5 -32.5q0 -11 -8 -22t-21.5 -25.5t-20.5 -22.5q-48 -54 -48 -65t41 -49.5t60 -48.5q14 -7 115 -48q99 -40 110 -49q38 -37 134 -228q11 -18 28 -18z" />
    <glyph glyph-name="uniF090" unicode="&#xf090;" 
d="M1702 512q78 -22 127 -86t49 -152q0 -59 -33 -113t-88 -86.5t-119 -32.5h-1228q-64 0 -119 32.5t-88 86.5t-33 113q0 88 49 152t127 86v296q0 172 81 320.5t221.5 243.5t311.5 112v52h-112q-26 0 -45 19t-19 45t19 45t45 19h352q26 0 45 -19t19 -45t-19 -45t-45 -19h-112
v-54q171 -16 311.5 -110t221.5 -243t81 -321v-296zM1024 1358q-150 0 -276 -74t-200 -200t-74 -276v-286h1100v286q0 228 -161 389t-389 161zM1638 170q46 0 79 33t33 79t-33 79t-79 33h-1228q-46 0 -79 -33t-33 -79t33 -79t79 -33h1228z" />
    <glyph glyph-name="uniF092" unicode="&#xf092;" 
d="M1770 1053q0 -201 -85 -370.5t-232.5 -278.5t-330.5 -134l144 -156q12 -12 12 -29t-12 -30t-30 -13h-424q-18 0 -30 13t-12 30t12 29l144 156q-183 25 -330.5 134t-232.5 278.5t-85 370.5q0 202 101 377t272.5 279.5t372.5 104.5q308 0 527 -227q219 -226 219 -534z
M1024 392q168 0 310 87t225 235t83 324t-83 324.5t-225 236t-310 87.5t-310 -87.5t-225 -236t-83 -324.5q0 -269 181 -457q181 -189 437 -189zM662 974q-26 0 -45 19t-19 45q0 124 57.5 229t155 166t213.5 61q26 0 45 -19t19 -45q0 -27 -18.5 -45.5t-45.5 -18.5
q-80 0 -148.5 -44t-109 -119.5t-40.5 -164.5q0 -26 -19 -45t-45 -19z" />
    <glyph glyph-name="uniF093" unicode="&#xf093;" 
d="M1878 408q0 -36 -20 -64t-54 -38l-760 -254l-20 -2l-20 2l-760 254q-32 10 -53 39t-21 63v1226q0 47 32.5 78t78.5 31q15 0 33 -5l710 -238l712 238q18 5 33 5q45 0 77 -31t32 -78v-1226zM302 426l656 -220v1178l-656 218v-1176zM1748 1602l-658 -220v-1176l658 220v1176
z" />
    <glyph glyph-name="uniF094" unicode="&#xf094;" 
d="M362 42q-53 0 -97 25.5t-69.5 69.5t-25.5 97v1324q0 53 25.5 97t69.5 69.5t97 25.5h1324q53 0 97 -25.5t69.5 -69.5t25.5 -97v-1324q0 -53 -25.5 -97t-69.5 -69.5t-97 -25.5h-1324zM362 1622q-26 0 -45 -19t-19 -45v-1324q0 -26 19 -45t45 -19h1324q26 0 45 19t19 45
v1324q0 26 -19 45t-45 19h-1324zM598 1182q-26 0 -45 19t-19 45t19 45t45 19h852q26 0 45 -19t19 -45t-19 -45t-45 -19h-852zM598 832q-27 0 -45.5 18.5t-18.5 45.5t18.5 45.5t45.5 18.5h852q27 0 45.5 -18.5t18.5 -45.5t-18.5 -45.5t-45.5 -18.5h-852zM598 482
q-26 0 -45 19t-19 45t19 45t45 19h426q26 0 45 -19t19 -45q0 -27 -18.5 -45.5t-45.5 -18.5h-426z" />
    <glyph glyph-name="uniF095" unicode="&#xf095;" 
d="M1656 515.5q59 -34.5 93.5 -93.5t34.5 -128t-34.5 -128t-93 -93.5t-127.5 -34.5t-128 34.5t-94 93.5t-35 128l2 14h-252l2 -14q0 -69 -34.5 -128t-93.5 -93.5t-128 -34.5t-128 34.5t-93.5 93.5t-34.5 128t36 130l-190 1194h-186q-26 0 -45 19t-19 45t19 45t45 19h240
q24 0 42 -16t22 -38l44 -278h1292q28 0 48 -22t16 -52l-104 -642q-4 -22 -21.5 -38t-40.5 -16h-1068l20 -118q48 24 106 24q139 0 212 -114h336q73 114 212 114q69 0 128 -34.5zM622 772h1034l82 514h-1198zM768 166q34 0 63.5 17.5t47 47t17.5 63.5t-17.5 63.5t-47 47
t-63.5 17.5t-63.5 -17.5t-47 -47t-17.5 -63.5q0 -52 38 -90t90 -38zM1529 166q35 0 64 17.5t46 47t17 63.5t-17 63.5t-46 47t-64 17.5t-64.5 -17.5t-47 -47t-17.5 -63.5q0 -52 38 -90t91 -38z" />
    <glyph glyph-name="uniF096" unicode="&#xf096;" 
d="M1686 1296q53 0 97 -25.5t69.5 -69.5t25.5 -97v-872q0 -53 -25.5 -97t-69.5 -69.5t-97 -25.5h-1324q-53 0 -97 25.5t-69.5 69.5t-25.5 97v872q0 53 25.5 97t69.5 69.5t97 25.5h162q8 130 77 238t181.5 171t242.5 63t241.5 -63t180.5 -171t77 -238h162zM1024 1640
q-96 0 -178.5 -46t-134 -124.5t-59.5 -173.5h744q-12 143 -119 244q-106 100 -253 100zM1088 582q52 21 82 65.5t30 106.5q0 42 -24 80.5t-65 62t-88 23.5t-87.5 -23.5t-64 -62t-23.5 -81.5q0 -64 30 -108.5t82 -62.5v-120q0 -27 18.5 -45.5t45.5 -18.5t45.5 18.5t18.5 45.5
v120z" />
    <glyph glyph-name="uniF097" unicode="&#xf097;" 
d="M805 962q-206 0 -306.5 84.5t-100.5 268.5q0 62 10 129q17 119 70.5 205.5t137 132.5t190.5 46t191.5 -46t137.5 -132.5t67 -205.5q8 -69 8 -119q0 -168 -73 -251q-97 -112 -332 -112zM805 1090q179 0 231 64q49 53 49 165q0 74 -21 152t-52 129q-61 100 -205 100
q-130 0 -192 -79.5t-79 -194.5q-8 -53 -8 -108q0 -114 46 -164q52 -64 231 -64zM1930 876q18 -19 18 -46t-18 -45.5t-45 -18.5t-45 18l-170 168l-168 -168q-18 -18 -45 -18t-45 18.5t-18 45.5t18 46l168 168l-168 168q-18 18 -18 44q0 27 18 46q20 18 46 18q27 0 46 -18
l168 -168l168 168q18 18 44 18q27 0 46 -18q18 -19 18 -46q0 -26 -18 -44l-168 -168zM806 840q169 0 317.5 -65t251 -181.5t137.5 -265.5q6 -24 6 -48q0 -51 -24.5 -94t-67.5 -68.5t-96 -25.5h-1050q-52 0 -95 25.5t-68 68.5t-25 93q0 24 6 49q60 228 255 369
q197 143 453 143zM806 712q-140 0 -262.5 -52.5t-207 -146.5t-114.5 -215q-2 -12 -2 -17q0 -21 12 -39q18 -22 48 -22h1050q30 0 48 22q12 18 12 39q0 5 -2 17q-46 184 -208 299q-161 115 -374 115z" />
    <glyph glyph-name="uniF098" unicode="&#xf098;" 
d="M1629 1696q95 -48 159 -134q43 -59 65 -127t22 -138q0 -105 -47 -200.5t-134 -158.5l-222 -164q-6 70 -34 134l180 132q104 79 126 210q3 21 3 42q0 82 -39.5 156.5t-112.5 121t-167 46.5q-105 0 -190 -64l-300 -222q-61 -44 -94.5 -112.5t-33.5 -143.5q0 -105 62 -188
q96 -130 256 -130h2q7 -31 7 -54q0 -30 -15 -74q-105 2 -198.5 50t-155.5 132q-43 59 -65 126.5t-22 137.5q0 104 47 199t134 161l300 222q118 88 266 88q106 0 201 -48zM423 84q-95 48 -159 134q-43 59 -65 127t-22 138q0 105 47 200.5t134 158.5l222 164q6 -70 34 -134
l-180 -132q-104 -79 -126 -210q-3 -21 -3 -43q0 -82 39.5 -156.5t112.5 -120.5t167 -46q106 0 188 64l302 222q104 77 126 208q3 21 3 43q0 82 -39.5 156.5t-112.5 120.5t-167 46h-2q-8 34 -8 56q0 17 5 34q11 36 11 38q221 -5 354 -182q43 -59 65 -126.5t22 -137.5
q0 -104 -47 -199t-134 -161l-300 -222q-118 -88 -266 -88q-106 0 -201 48z" />
    <glyph glyph-name="uniF099" unicode="&#xf099;" 
d="M1920 857q0 -96 -45 -176t-121 -125q2 -18 2 -44q0 -93 -43.5 -171.5t-118 -124.5t-162.5 -46q-61 0 -114 22q-43 -87 -122 -139.5t-173 -52.5t-172.5 51.5t-120.5 140.5q-53 -22 -114 -22q-88 0 -163 46t-119 124.5t-44 171.5q0 19 4 44q-76 45 -121 125t-45 176
q0 97 50 180t134 123q-22 59 -22 120q0 93 44 171.5t119 124.5t163 46q61 0 114 -22q42 87 121.5 139.5t172.5 52.5t172.5 -52.5t121.5 -139.5q53 22 114 22q88 0 162.5 -46t118 -124.5t43.5 -171.5q0 -65 -20 -120q85 -41 134 -123q50 -83 50 -180zM662 825q0 -27 18 -45
l206 -206q26 -20 54 -20t46 30l370 554q10 16 10 35q0 16 -7.5 30t-20.5 23q-17 11 -37 11q-15 0 -29 -7t-24 -20l-326 -490l-150 150q-19 19 -45 19q-25 0 -46 -19q-19 -18 -19 -45z" />
    <glyph glyph-name="uniF101" unicode="&#xf101;" 
d="M288 1110q0 53 25.5 97t69.5 69.5t97 25.5h274l494 432q19 16 43 16q26 0 44.5 -18t18.5 -46v-236q0 -26 -19 -45t-45 -19t-45 19t-19 45v94l-384 -336v-262q0 -26 -19 -45t-45 -19t-45 19t-19 45v228h-234q-26 0 -45 -19t-19 -45v-438q0 -25 21 -42q12 -9 18.5 -22.5
t6.5 -28.5q0 -24 -15 -42q-20 -23 -45 -23t-42 14q-72 54 -72 144v438zM1898 1676q0 -26 -18 -44l-1578 -1580q-22 -18 -46 -18q-23 0 -46 18q-18 20 -18 46t18 44l1580 1580q18 18 44 18t46 -18q18 -19 18 -46zM1290 860q27 0 45.5 -18.5t18.5 -45.5v-688q0 -40 -36 -60
q-13 -6 -28 -6q-23 0 -42 16l-370 326q-22 19 -22 48q0 25 16 42q19 22 48 22q25 0 42 -16l264 -232v548q0 26 19 45t45 19z" />
    <glyph glyph-name="uniF102" unicode="&#xf102;" 
d="M1024 1750q231 0 427 -115.5t311.5 -311.5t115.5 -427t-115.5 -427t-311.5 -311.5t-427 -115.5t-427 115.5t-311.5 311.5t-115.5 427q0 352 251 603t603 251zM868 360q-27 0 -42 7q-42 18 -80 95q-8 28 -23 158q-15 128 -17 138q-40 34 -70 52l-18 18q-26 51 -37 88.5
t-11 69.5q0 25 6 50t18 60q-168 61 -236 88q-60 -138 -60 -288q0 -196 98 -363t261.5 -265t350.5 -98q186 0 342.5 79t258 217.5t129.5 311.5q-36 -18 -75 -18q-38 0 -61 42l-14 24q-56 111 -86 148q-7 5 -28 12q-166 60 -208 130q-17 31 -17 66q0 52 35 120v4l-26 32
q-68 71 -68 125q0 67 104 105q-122 51 -252 52q16 -61 16 -88q0 -26 -11.5 -43.5t-34 -32.5t-69.5 -39q-82 -43 -99 -53l-56 -30q-34 -18 -37 -23q-9 -15 -59 -115q40 -14 53 -17q15 -3 131 -9h40q29 0 47.5 -4.5t42.5 -20t67 -51.5q61 -51 86.5 -95t25.5 -96q0 -28 -4 -52
q-10 -72 -45 -101q-48 -36 -76 -70q-5 -15 -64.5 -136t-79.5 -151q-23 -33 -48 -33zM912 1612q-151 -24 -279 -106.5t-213 -207.5l152 -56q67 138 86 159q16 18 66 44l29 15q22 11 42 23q23 14 45 24q13 6 88 47zM1746 944q-10 160 -87.5 300.5t-204.5 233.5
q-81 -18 -120 -32l18 -22q64 -72 64 -121q0 -5 -2 -15q-1 -16 -22 -57q-20 -40 -14 -53q18 -35 142 -72q57 -23 66 -32q31 -29 108 -172zM714 1054q-6 -24 -10.5 -44t-4.5 -34q0 -30 21 -68l35 -23q43 -28 57 -46.5t20.5 -55t21.5 -167.5l6 -58q9 16 46 97q35 77 50 97
q25 38 94 92q11 33 11 52q0 24 -14.5 44.5t-50.5 50.5q-49 41 -70 51h-54q-120 5 -156 12h-2z" />
    <glyph glyph-name="uniF103" unicode="&#xf103;" 
d="M805 962q-206 0 -306.5 84.5t-100.5 268.5q0 62 10 129q17 119 70.5 205.5t137 132.5t190.5 46t191.5 -46t137.5 -132.5t67 -205.5q8 -69 8 -119q0 -168 -73 -251q-97 -112 -332 -112zM805 1090q179 0 231 64q49 53 49 165q0 74 -21 152t-52 129q-61 100 -205 100
q-130 0 -192 -79.5t-79 -194.5q-8 -53 -8 -108q0 -114 46 -164q52 -64 231 -64zM1976 1006q28 0 46 -18t18 -45t-19 -46t-45 -19h-486l104 -104q18 -18 18 -44t-18 -46q-22 -18 -46 -18q-23 0 -46 18l-212 214q-20 18 -20 45t20 45l212 214q20 18 46 18t46 -18
q18 -20 18 -46t-18 -44l-104 -106h486zM280 94q-53 0 -96 25t-67.5 67t-24.5 93q0 24 6 49q38 149 141 265.5t251 181.5t316 65q169 0 317.5 -65t251 -181.5t137.5 -265.5q6 -25 6 -49q0 -51 -24 -93t-67 -67t-97 -25h-1050zM806 712q-140 0 -262.5 -52.5t-207 -146.5
t-114.5 -215q-2 -12 -2 -17q0 -21 12 -39q18 -22 48 -22h1050q30 0 48 22q12 18 12 39q0 5 -2 17q-46 184 -208 299q-161 115 -374 115z" />
    <glyph glyph-name="uniF104" unicode="&#xf104;" 
d="M805 962q-207 0 -306.5 85t-99.5 273q0 57 9 124q16 119 68.5 205.5t136.5 132.5t191 46t190.5 -46t136.5 -132.5t69 -205.5q10 -77 10 -128q0 -159 -72 -242q-97 -112 -333 -112zM804 1090q102 0 162 20.5t88 69t28 135.5q0 44 -8 111q-15 114 -77.5 194t-192.5 80
t-192.5 -80t-77.5 -194q-8 -64 -8 -108q0 -111 42 -159q60 -69 236 -69zM1338 1348q-26 0 -45 19t-19 45t19 45t45 19h486l-104 104q-18 19 -18 46t18 45.5t45 18.5t45 -20l214 -212q18 -19 18 -46q0 -26 -18 -44l-214 -214q-20 -20 -45 -20t-44 19t-19 46t18 45l104 104
h-486zM1976 1006q26 0 45 -19t19 -45t-19 -45t-45 -19h-488l104 -104q20 -18 20 -44t-19 -45t-46 -19t-45 18l-214 214q-18 18 -18 45t18 45l214 214q18 18 45 18t46 -19t19 -45t-20 -44l-104 -106h488zM280 94q-54 0 -97 25t-67 67.5t-24 92.5q0 24 6 49
q37 149 139.5 265.5t250.5 181.5t316 65t313.5 -65.5t248 -182t144.5 -264.5q8 -29 8 -53q0 -49 -24.5 -90.5t-68 -66t-95.5 -24.5h-1050zM804 712q-140 0 -262.5 -52.5t-206.5 -147t-113 -214.5q-3 -10 -3 -21q0 -25 17 -41t44 -16h1050q25 0 42 16.5t17 41.5q0 10 -3 20
q-44 183 -207 298q-164 116 -375 116z" />
    <glyph glyph-name="uniF105" unicode="&#xf105;" 
d="M805 972q-206 0 -306.5 84.5t-100.5 268.5q0 62 10 129q17 119 70.5 205.5t137 132.5t190.5 46t191.5 -46t137.5 -132.5t67 -205.5q8 -69 8 -119q0 -168 -73 -251q-97 -112 -332 -112zM805 1100q179 0 231 64q49 53 49 165q0 74 -21 152t-52 129q-61 100 -205 100
q-130 0 -192 -79.5t-79 -194.5q-8 -53 -8 -108q0 -114 46 -164q52 -64 231 -64zM1834 1405q20 0 36.5 -12.5t23.5 -31.5q4 -16 4 -23q0 -12 -6 -26l-272 -546q-8 -17 -22.5 -26t-31.5 -9q-28 0 -50 19l-198 212q-17 19 -17 43q0 29 21 47q18 17 44 17q27 0 46 -19l134 -144
l230 464q12 22 37 31q14 4 21 4zM280 104q-53 0 -96 25t-67.5 67t-24.5 93q0 24 6 49q38 149 141 265.5t251 181.5t316 65q169 0 317.5 -65t251 -181.5t137.5 -265.5q6 -25 6 -49q0 -51 -24 -93t-67 -67t-97 -25h-1050zM806 722q-140 0 -262.5 -52.5t-207 -146.5
t-114.5 -215q-2 -12 -2 -17q0 -21 12 -39q18 -22 48 -22h1050q30 0 48 22q12 18 12 39q0 5 -2 17q-46 184 -208 299q-161 115 -374 115z" />
    <glyph glyph-name="uniF106" unicode="&#xf106;" 
d="M1686 1296q53 0 97 -25.5t69.5 -69.5t25.5 -97v-872q0 -53 -25.5 -97t-69.5 -69.5t-97 -25.5h-1324q-53 0 -97 25.5t-69.5 69.5t-25.5 97v872q0 53 25.5 97t69.5 69.5t97 25.5h162q8 130 77 238t181.5 171t242.5 63t241.5 -63t180.5 -171t77 -238h162zM1024 1640
q-96 0 -178.5 -46t-134 -124.5t-59.5 -173.5h744q-12 143 -119 244q-106 100 -253 100zM1750 1104q0 26 -19 45t-45 19h-1324q-26 0 -45 -19t-19 -45v-872q0 -26 19 -45t45 -19h1324q26 0 45 19t19 45v872zM1024 920q47 0 87.5 -23.5t64.5 -62t24 -81.5q0 -64 -30 -108.5
t-82 -62.5v-120q0 -27 -18.5 -45.5t-45.5 -18.5t-45.5 18.5t-18.5 45.5v120q-52 21 -82 65.5t-30 106.5q0 64 52 115t124 51z" />
    <glyph glyph-name="uniF107" unicode="&#xf107;" 
d="M806 967q-207 0 -305.5 85t-98.5 272q0 58 9 125q16 119 68.5 205.5t136.5 132.5t191 46t190.5 -46t136 -132.5t69.5 -205.5q10 -73 10 -124q0 -163 -78 -252q-94 -106 -329 -106zM807 1705q-130 0 -191.5 -79.5t-78.5 -194.5q-8 -53 -8 -108q0 -114 46 -164
q52 -64 231 -64t231 64q24 27 36 70.5t12 97.5q0 74 -20 152t-51 126q-63 100 -207 100zM2083 1057q0 -26 -18 -44l-298 -300q-22 -18 -46 -18q-23 0 -46 18l-298 300q-19 18 -19 43t19 46q18 19 45 19t45 -18l254 -254l254 254q18 18 44 18q27 0 46 -18q18 -19 18 -46z
M281 97q-52 0 -95 25.5t-68 68.5t-25 93q0 25 6 49q38 149 141 265.5t251 181.5t316 65q169 0 317.5 -65t251 -181.5t137.5 -265.5q6 -24 6 -48q0 -51 -24.5 -94t-67.5 -68.5t-96 -25.5h-1050zM807 717q-140 0 -262.5 -52.5t-206.5 -147t-113 -214.5q-3 -10 -3 -20
q0 -25 17 -41.5t42 -16.5h1050q26 0 43 16t17 42q0 13 -2 20q-42 181 -207 298q-164 116 -375 116z" />
    <glyph glyph-name="uniF109" unicode="&#xf109;" 
d="M1686 1870q53 0 97 -25.5t69.5 -69.5t25.5 -97v-1324q0 -53 -25.5 -97t-69.5 -69.5t-97 -25.5h-1324q-53 0 -97 25.5t-69.5 69.5t-25.5 97v1324q0 53 25.5 97t69.5 69.5t97 25.5h1324zM362 1742q-26 0 -45 -19t-19 -45v-1144l418 426q23 23 45 23t45 -23l154 -154
l370 374q20 20 45 20t45 -20l330 -328v826q0 26 -19 45t-45 19h-1324zM757 1462q36 0 66 -17.5t47.5 -47.5t17.5 -66t-17.5 -66t-47.5 -47.5t-66 -17.5t-66 17.5t-47.5 47.5t-17.5 66q0 55 38 93t93 38zM1686 290q26 0 45 19t19 45v316l-374 374l-324 -328l426 -426h208z
M1298 290l-536 534l-462 -472q0 -26 18 -44t44 -18h936z" />
    <glyph glyph-name="uniF110" unicode="&#xf110;" 
d="M362 152q-53 0 -97 25.5t-69.5 69.5t-25.5 97v1060q0 53 25.5 97t69.5 69.5t97 25.5h188q76 124 202 194t272 70t272 -70t202 -194h188q53 0 97 -25.5t69.5 -69.5t25.5 -97v-1060q0 -53 -25.5 -97t-69.5 -69.5t-97 -25.5h-1324zM362 1468q-26 0 -45 -19t-19 -45v-1060
q0 -26 19 -45t45 -19h1324q26 0 45 19t19 45v1060q0 26 -19 45t-45 19h-214q-5 -1 -15 -1q-35 0 -51 33q-58 107 -160.5 169.5t-221.5 62.5q-120 0 -222.5 -62.5t-159.5 -169.5q-18 -34 -54 -34q-6 0 -18 2h-208zM1024 504q-113 0 -208 55.5t-150.5 150.5t-55.5 208
t55.5 208t150.5 150.5t208 55.5t208 -55.5t150.5 -150.5t55.5 -208q0 -172 -121 -293t-293 -121zM1024 1206q-77 0 -143 -39t-104.5 -105.5t-38.5 -143.5t38.5 -143t104.5 -104.5t143 -38.5t143 38.5t104.5 104.5t38.5 143q0 117 -84 203q-84 85 -202 85z" />
    <glyph glyph-name="uniF111" unicode="&#xf111;" 
d="M366 112q-54 0 -99 26t-71 71t-26 99v1052q0 54 26 99t71 71t99 26h184q76 124 202 194t272 70t272 -70t202 -194h184q54 0 99 -26t71 -71t26 -99v-1052q0 -54 -26 -99t-71 -71t-99 -26h-1316zM366 1428q-28 0 -48 -20t-20 -48v-1052q0 -28 20 -48t48 -20h1316
q26 0 47 21t21 47v1052q0 28 -20 48t-48 20h-210q-5 -1 -15 -1q-35 0 -51 33q-58 107 -160.5 169.5t-221.5 62.5t-222.5 -63t-159.5 -169q-18 -34 -54 -34q-6 0 -18 2h-204zM1024 1294q113 0 208 -56t150.5 -151.5t55.5 -208.5t-55.5 -208t-150.5 -150.5t-208 -55.5
t-208 55.5t-150.5 150.5t-55.5 208q0 173 121 294q122 122 293 122zM1088 816h106q26 0 45 19t19 45t-19 45t-45 19h-106v108q0 26 -19 45t-45 19t-45 -19t-19 -45v-108h-106q-26 0 -45 -19t-19 -45t19 -45t45 -19h106v-106q0 -28 18 -46t46 -18t46 18t18 46v106z" />
    <glyph glyph-name="uniF112" unicode="&#xf112;" 
d="M1832 1432q56 -56 56 -135t-56 -135l-968 -968q-37 -40 -100 -54l-502 -46h-6q-28 0 -47 21t-17 49l46 496q12 69 54 106l968 968q54 54 135 54t135 -54zM1742 1252q18 18 18 45t-18 45l-302 302q-18 18 -45 18t-45 -18l-98 -98l392 -392zM444 738q-18 -18 -18 -44
t18 -46l302 -302q18 -18 45 -18t45 18l718 718l-392 392zM654 258l-298 298l-30 -328z" />
    <glyph glyph-name="uniF114" unicode="&#xf114;" 
d="M1682 956q24 -25 24 -61q0 -35 -24 -59l-512 -512q-31 -26 -62 -26q-33 0 -58.5 25.5t-25.5 60.5q0 36 26 60l366 366h-1074q-36 0 -61 25t-25 61t25 61t61 25h1074l-366 366q-26 26 -26 61t25 60t60 25t61 -26z" />
    <glyph glyph-name="uniF138" unicode="&#xf138;" 
d="M170 1258q-26 0 -45 19t-19 45t19 45t45 19h796q14 84 65.5 153t127.5 108t163 39t163 -39t127.5 -108t65.5 -153h200q26 0 45 -19t19 -45t-19 -45t-45 -19h-200q-14 -84 -65.5 -152t-127.5 -107t-163 -39t-163 39t-127.5 107t-65.5 152h-796zM1323 1558q-63 0 -117 -32
t-86 -86t-32 -117t32 -117t86 -86t117 -32t117 32t86 86t32 117q0 97 -69 166t-166 69zM1878 534q26 0 45 -19t19 -45t-19 -45t-45 -19h-796q-14 -84 -65.5 -153t-127.5 -108t-163 -39t-163 39t-127.5 108t-65.5 153h-200q-26 0 -45 19t-19 45t19 45t45 19h200
q14 84 65.5 152t127.5 107t163 39t163 -39t127.5 -107t65.5 -152h796zM725 234q63 0 117 32t86 86t32 117t-32 117t-86 86t-117 32t-117 -32t-86 -86t-32 -117q0 -97 69 -166t166 -69z" />
    <glyph glyph-name="uniF148" unicode="&#xf148;" 
d="M166 1248q0 127 64.5 240t171 181.5t226.5 68.5q228 0 396 -234q168 234 396 234q120 0 226.5 -68.5t171 -181.5t64.5 -240q0 -125 -46.5 -263.5t-125 -268.5t-174.5 -235q-93 -102 -190.5 -183t-182 -127.5t-139.5 -46.5h-2q-55 0 -139 46.5t-181 127.5t-190 183
q-139 153 -243 363q-103 209 -103 404zM294 1250q0 -137 61 -289t159 -277q93 -119 196.5 -219.5t188.5 -155.5t125 -55t125 55t188.5 155.5t196.5 219.5q98 125 159 277t61 289q0 93 -46 176t-123 133.5t-165 50.5q-67 0 -138 -36t-132 -116q-66 -87 -66 -102
q-16 -36 -60 -36t-58 36q-28 56 -83 121q-112 133 -251 133q-138 0 -238 -109t-100 -251z" />
    <glyph glyph-name="uniF149" unicode="&#xf149;" 
d="M1268 1525q0 -66 -33 -122.5t-89.5 -89.5t-121.5 -33t-121.5 33t-89.5 89.5t-33 122.5t33 122t89 88.5t122 32.5q99 0 172 -71q72 -71 72 -172zM908 1524q0 -48 34 -82t82 -34t82 34t34 82t-34 82t-82 34t-82 -34t-34 -82zM1268 895q0 -66 -33 -122.5t-89.5 -89.5
t-121.5 -33t-121.5 33t-89.5 89.5t-33 121.5t33 121.5t89.5 89.5t121.5 33q99 0 172 -71q72 -71 72 -172zM908 894q0 -48 34 -82t82 -34t82 34t34 82t-34 82t-82 34t-82 -34t-34 -82zM1268 264q0 -65 -33 -121.5t-89.5 -89.5t-121.5 -33t-121.5 33t-89.5 89.5t-33 121.5
t33 121.5t89.5 89.5t121.5 33q100 0 172 -72t72 -172zM908 264q0 -48 34 -82t82 -34t82 34t34 82t-34 82t-82 34t-82 -34t-34 -82z" />
    <glyph glyph-name="uniF150" unicode="&#xf150;" 
d="M393 700q-66 0 -122 33t-88.5 89t-32.5 122t32.5 122t88.5 89t122 33t122.5 -33t89.5 -89.5t33 -121.5q0 -100 -72 -172t-173 -72zM1024 700q-65 0 -121.5 33t-89.5 89.5t-33 121.5t33 121.5t89.5 89.5t121.5 33q66 0 122 -32.5t89 -88.5t33 -122q0 -101 -72 -173
t-172 -72zM1655 700q-66 0 -122.5 33t-89.5 89.5t-33 121.5t33 121.5t89.5 89.5t121.5 33t121.5 -33t89.5 -89.5t33 -121.5q0 -99 -71 -172q-70 -72 -172 -72zM394 1060q-48 0 -82 -34t-34 -82t34 -82t82 -34t82 34t34 82t-34 82t-82 34zM1024 1060q-48 0 -82 -34t-34 -82
t34 -82t82 -34t82 34t34 82t-34 82t-82 34zM1654 1060q-48 0 -82 -34t-34 -82t34 -82t82 -34t82 34t34 82t-34 82t-82 34z" />
    <glyph glyph-name="uniF151" unicode="&#xf151;" 
d="M1864 1112q0 -152 -69.5 -293.5t-205.5 -256.5q-139 -118 -675 -458q-16 -10 -43 -10q-25 0 -40 21.5t-15 42.5v326q-181 6 -326.5 90.5t-228.5 227.5t-83 321t88.5 329.5t241.5 240t336 87.5l354 -2q184 -1 336.5 -89t241 -240t88.5 -335v-2zM1664.5 1384.5
q-71.5 122.5 -195 193.5t-271.5 72l-354 2q-148 1 -271.5 -70.5t-195 -194.5t-71.5 -269t69.5 -261t193 -180t277.5 -65h34q26 0 45 -19t19 -45v-272q477 312 579 398q99 84 156 201t57 239q0 148 -71.5 270.5z" />
    <glyph glyph-name="uniF152" unicode="&#xf152;" 
d="M1118 352q26 0 45 -19t19 -45t-19 -45t-45 -19h-498q-87 0 -160.5 43t-116.5 116.5t-43 160.5v874l-190 -188q-18 -20 -45 -20t-46 19t-19 45t20 46l298 298q20 20 46 20t44 -20l300 -298q18 -19 18 -46t-18 -45.5t-45 -18.5t-47 20l-188 188v-874q0 -51 25.5 -95.5
t70 -70.5t96.5 -26h498zM2048 588q0 -26 -20 -46l-298 -298q-20 -20 -45 -20t-45 20l-300 298q-18 20 -18 46t19 45t45 19t44 -20l190 -188v874q0 51 -25.5 95.5t-70 70.5t-96.5 26h-498q-27 0 -45.5 18t-18.5 45t19 46t45 19h498q87 0 160.5 -43t116.5 -116.5t43 -160.5
v-874l190 188q18 20 45 20t46 -19t19 -45z" />
    <glyph glyph-name="uniF154" unicode="&#xf154;" 
d="M1450 1584h320q26 0 45 -19t19 -45t-19 -45t-45 -19h-32l-134 -1128q-14 -80 -77 -129t-151 -49h-706q-57 0 -105 22.5t-80 62t-41 89.5l-136 1132h-32q-26 0 -45 19t-19 45t19 45t45 19h320v84q0 52 26 96.5t70.5 70t95.5 25.5h470q53 0 97 -25.5t69.5 -69.5t25.5 -97
v-84zM724 1584h598v84q0 26 -19 45t-45 19h-470q-26 0 -45 -19t-19 -45v-84zM1378 278q37 0 65.5 18.5t34.5 49.5l132 1110h-1172l132 -1114q6 -29 34.5 -46.5t65.5 -17.5h708zM854 516q-26 0 -45 19t-19 45v596q0 26 19 45t45 19t45 -19t19 -45v-596q0 -26 -19 -45t-45 -19
zM1194 516q-26 0 -45 19t-19 45v596q0 26 19 45t45 19t45 -19t19 -45v-596q0 -26 -19 -45t-45 -19z" />
    <glyph glyph-name="uniF157" unicode="&#xf157;" 
d="M1864 1062q0 -152 -69.5 -293.5t-205.5 -256.5q-139 -118 -675 -458q-16 -10 -43 -10q-25 0 -40 21.5t-15 42.5v326q-181 6 -326.5 90.5t-228.5 227.5t-83 321t88.5 329t241.5 239.5t336 88.5l354 -2q184 0 336.5 -88t241 -240t88.5 -336v-2zM1664.5 1335
q-71.5 123 -195 194t-271.5 71l-354 2q-148 0 -271.5 -71.5t-195 -194t-71.5 -268.5t69.5 -261t193 -180t277.5 -65h34q26 0 45 -19t19 -45v-272q477 312 579 398q99 84 156 201t57 239q0 148 -71.5 271z" />
    <glyph glyph-name="uniF158" unicode="&#xf158;" 
d="M362 218q-53 0 -97 25.5t-69.5 69.5t-25.5 97v972q0 53 25.5 97t69.5 69.5t97 25.5h1324q53 0 97 -25.5t69.5 -69.5t25.5 -97v-972q0 -53 -25.5 -97t-69.5 -69.5t-97 -25.5h-1324zM362 1446q-26 0 -45 -19t-19 -45v-972q0 -26 19 -45t45 -19h1324q26 0 45 19t19 45v972
q0 26 -19 45t-45 19h-1324z" />
    <glyph glyph-name="uniF160" unicode="&#xf160;" 
d="M816 6q-18 -22 -43 -22q-26 0 -33 4q-39 17 -39 57l1 11l106 728h-250q-26 0 -44.5 19t-18.5 43q0 8 1 12l144 848q2 24 20 39t42 15h582q28 0 45.5 -19t17.5 -45q0 -9 -1 -14l-124 -520h400q39 0 58 -36q6 -13 6 -27q0 -22 -16 -41zM882 912q30 0 48 -22t16 -52
l-84 -570l624 766h-344q-27 0 -46 19.5t-19 47.5q0 9 1 13l124 518h-446l-122 -720h248z" />
    <glyph glyph-name="uniF161" unicode="&#xf161;" 
d="M1024 1814q164 0 315.5 -55.5t274.5 -158.5t205 -244q123 -211 123 -460q0 -164 -55.5 -315.5t-158.5 -274.5t-244 -205q-211 -123 -460 -123q-164 0 -315.5 55.5t-274.5 158.5t-205 244q-123 212 -123 460q0 164 55.5 315.5t158.5 274.5t244 205q212 123 460 123z
M1120 1008l76 314l-4 18l-18 10h-334q-17 0 -22 -20l-82 -484l4 -18l18 -8h166l-62 -430q-1 -3 -1 -7q0 -13 13 -17l10 -2l18 8l486 600q6 6 6 14q0 9 -6.5 15.5t-17.5 6.5h-250z" />
    <glyph glyph-name="uniF162" unicode="&#xf162;" 
d="M1778 1642h206q27 0 45.5 -18.5t18.5 -45.5q0 -26 -19 -45t-45 -19h-206v-206q0 -26 -19 -45t-45 -19q-27 0 -45.5 18.5t-18.5 45.5v206h-208q-26 0 -45 19t-19 45t19 45t45 19h208v208q0 26 19 45t45 19t45 -19t19 -45v-208zM654 70q-24 -24 -44 -24t-32 6
q-39 17 -39 57l1 11l98 682h-230q-28 0 -46.5 19t-18.5 45q0 8 1 12l136 798q11 54 62 54h550q28 0 45.5 -19t17.5 -45q0 -9 -1 -14l-116 -486l372 2q28 0 45.5 -19.5t17.5 -46.5q0 -23 -13 -40zM958 1038q-27 0 -46 19.5t-19 47.5q0 9 1 13l116 484h-412l-116 -672h230
q30 0 49 -22t15 -50l-76 -526l576 706h-318z" />
    <glyph glyph-name="uniF163" unicode="&#xf163;" 
d="M1344 1750q53 0 97 -25.5t69.5 -69.5t25.5 -97v-1324q0 -53 -25.5 -97t-69.5 -69.5t-97 -25.5h-640q-53 0 -97 25.5t-69.5 69.5t-25.5 97v1324q0 53 25.5 97t69.5 69.5t97 25.5h640zM704 1622q-26 0 -45 -19t-19 -45v-950l250 252q20 20 45 20t45 -20l154 -154l274 278
v574q0 26 -19 45t-45 19h-640zM934 1332q50 0 86 -36t36 -86t-36 -85t-86 -35t-85 35t-35 85q0 49 35 86q35 36 85 36zM1408 802l-182 -186l182 -182v368zM1344 170q26 0 45 19t19 45v20l-472 470l-296 -298v-192q0 -26 19 -45t45 -19h640z" />
    <glyph glyph-name="uniF170" unicode="&#xf170;" horiz-adv-x="2052" 
d="M300 646q-26 26 -26 61t25 60t60 25t61 -24l336 -338l786 1114q13 17 31.5 26t39.5 9q25 0 48 -15q18 -13 27.5 -31t9.5 -39q0 -26 -16 -48l-844 -1196q-19 -31 -62 -36q-44 0 -68 24z" />
    <glyph glyph-name="uniF172" unicode="&#xf172;" 
d="M1340 316q26 -24 26 -60q0 -35 -26 -60.5t-60 -25.5t-60 26l-640 640q-26 26 -26 61t26 59l640 640q26 26 61 26t60 -26t25 -61t-26 -59l-580 -580z" />
    <glyph glyph-name="uniF173" unicode="&#xf173;" 
d="M1468 956q26 -26 26 -61t-26 -59l-640 -640q-26 -26 -60 -26t-60 25.5t-26 60.5q0 36 26 60l580 580l-580 580q-26 26 -26 61t26 60t61 25t59 -26z" />
    <glyph glyph-name="uniF174" unicode="&#xf174;" 
d="M1622 725q0 -35 -26 -59l-512 -512q-24 -26 -60 -26t-60 26l-512 512q-26 24 -26 59t26 60t61 25t59 -24l366 -366v1074q0 34 25 59t61 25t61 -25t25 -59v-1074l366 366q26 24 61 24t60 -25t25 -60z" />
    <glyph glyph-name="uniF175" unicode="&#xf175;" 
d="M807 964q-206 0 -306.5 84.5t-100.5 268.5q0 62 10 129q17 119 70.5 205.5t137 132.5t190.5 46t191.5 -46t137.5 -132.5t67 -205.5q8 -69 8 -119q0 -168 -73 -251q-97 -112 -332 -112zM807 1092q179 0 231 64q49 53 49 165q0 74 -21 152t-52 129q-61 100 -205 100
q-130 0 -192 -79.5t-79 -194.5q-8 -53 -8 -108q0 -114 46 -164q52 -64 231 -64zM1728 1014h206q27 0 45.5 -18.5t18.5 -45.5q0 -26 -19 -45t-45 -19h-206v-206q0 -27 -18.5 -45.5t-45.5 -18.5t-45.5 18.5t-18.5 45.5v206h-208q-26 0 -45 19t-19 45t19 45t45 19h208v208
q0 26 19 45t45 19t45 -19t19 -45v-208zM808 842q169 0 317.5 -65t251 -181.5t137.5 -265.5q6 -24 6 -48q0 -51 -24.5 -94t-67.5 -68.5t-96 -25.5h-1050q-52 0 -95 25.5t-68 68.5t-25 93q0 24 6 49q60 228 255 369q197 143 453 143zM808 714q-140 0 -262.5 -52.5t-207 -146.5
t-114.5 -215q-2 -12 -2 -17q0 -21 12 -39q18 -22 48 -22h1050q30 0 48 22q12 18 12 39q0 5 -2 17q-46 184 -208 299q-161 115 -374 115z" />
    <glyph glyph-name="uniF176" unicode="&#xf176;" 
d="M805 976q-204 0 -302 84.5t-98 268.5q0 55 9 121q16 118 68.5 203.5t135 131t188.5 45.5t188.5 -45.5t134.5 -131t67 -203.5q8 -67 8 -117q0 -162 -72 -246q-96 -111 -327 -111zM1834 1395q20 0 36.5 -12.5t23.5 -31.5q4 -16 4 -23q0 -12 -6 -26l-272 -546
q-8 -17 -22.5 -26t-31.5 -9q-28 0 -50 19l-198 212q-17 19 -17 43q0 29 21 47q18 17 44 17q27 0 46 -19l134 -144l230 464q12 22 37 31q14 4 21 4zM290 92q-50 0 -93.5 25.5t-69 70t-25.5 98.5q0 25 6 50q33 149 132.5 260.5t245.5 171.5t318 60t318.5 -60t246 -171.5
t133.5 -260.5q7 -25 7 -54q0 -52 -25.5 -95.5t-68.5 -69t-95 -25.5h-1030z" />
    <glyph glyph-name="uniF177" unicode="&#xf177;" 
d="M1024 58q-164 0 -315.5 55.5t-274.5 158.5t-205 244q-123 212 -123 460q0 164 55.5 315.5t158.5 274.5t244 205q212 123 460 123q164 0 315.5 -55.5t274.5 -158.5t205 -244q123 -211 123 -460q0 -164 -55.5 -315.5t-158.5 -274.5t-244 -205q-211 -123 -460 -123z
M1024 1766q-215 0 -396.5 -106t-287.5 -287.5t-106 -396.5t106 -396.5t287.5 -287.5t396.5 -106t396.5 106t287.5 287.5t106 396.5q0 328 -231 559t-559 231zM1334 848l-338 50q-22 3 -36 21.5t-14 42.5v490q0 27 18.5 45.5t45.5 18.5q26 0 45 -19t19 -45v-436l280 -42
q24 -2 39.5 -20.5t15.5 -42.5l-1 -9q-10 -54 -64 -54h-10z" />
    <glyph glyph-name="uniF178" unicode="&#xf178;" 
d="M628 998q-182 0 -268.5 75.5t-86.5 241.5q0 52 7 105q13 105 59.5 181t120.5 116.5t168 40.5t167.5 -40.5t120 -116.5t60.5 -181q8 -61 8 -107q0 -141 -64 -216q-85 -99 -292 -99zM1425 998q-204 0 -287 94q-36 41 -53.5 100.5t-17.5 128.5q0 101 33.5 197.5t88.5 149.5
q93 90 235 90q94 0 168 -40t121 -116t61 -182q7 -49 7 -99q0 -148 -69 -229q-79 -94 -287 -94zM628 1126q84 0 134 15.5t73.5 53t23.5 106.5q0 43 -9 103q-36 226 -222 226q-94 0 -150.5 -56.5t-71.5 -169.5q-7 -49 -7 -94q0 -91 33 -129q48 -55 196 -55zM1425 1126
q86 0 134.5 16t70.5 55.5t22 112.5q0 40 -6 94q-10 91 -62 158.5t-159 67.5q-106 0 -157 -66.5t-64 -159.5q-8 -59 -8 -99q0 -87 33 -124q49 -55 196 -55zM178 232q-46 0 -85 22.5t-62 61.5t-23 85q0 23 6 45q33 129 122 230t217.5 157.5t276.5 56.5q223 0 396 -128
q176 128 399 128q146 0 273.5 -56.5t216.5 -157.5t123 -230q6 -22 6 -44q0 -45 -23 -84.5t-62 -62.5t-85 -23h-1696zM1078 360q18 0 29.5 12t11.5 32q0 6 -1 10q-25 101 -96 180.5t-174 123.5t-220 44t-219 -43.5t-173 -122.5t-98 -180q-2 -8 -2 -13q0 -14 10 -29
q14 -14 32 -14h900zM1429 762q-173 0 -307 -90q90 -103 120 -226q4 -19 4 -43t-4 -43h632q19 0 30.5 12t11.5 30q0 4 -2 12q-37 152 -175 251q-136 97 -310 97z" />
    <glyph glyph-name="uniF179" unicode="&#xf179;" 
d="M1820 1242q0 -226 -90.5 -441t-257 -379.5t-385.5 -244.5q-183 -67 -397 -67q-333 0 -610 180q48 -6 94 -6q276 0 494 170q-84 1 -159.5 36.5t-130.5 98t-80 141.5q51 -8 85 -8q35 0 93 14q-91 18 -163.5 75t-113.5 139.5t-41 175.5v6q85 -49 180 -50q-82 55 -129 142.5
t-47 192.5q0 107 52 195q151 -185 364.5 -293.5t455.5 -120.5q-10 44 -10 90q0 108 53.5 199.5t145 145t201.5 53.5q168 0 288 -126q140 29 252 96q-46 -142 -174 -220q112 13 228 62q-80 -121 -198 -206v-50z" />
    <glyph glyph-name="uniF180" unicode="&#xf180;" 
d="M1724 678q26 -24 26 -59t-25 -60t-61 -25t-60 24l-580 580l-580 -580q-24 -24 -60 -24t-61 25t-25 60t26 59l640 640q26 26 61 26t59 -26z" />
    <glyph glyph-name="uniF181" unicode="&#xf181;" 
d="M1750 1259q0 -35 -26 -61l-640 -640q-24 -24 -60 -24t-60 24l-640 640q-26 26 -26 61t26 60t61 25t59 -26l580 -578l580 578q26 26 61 26t60 -25t25 -60z" />
    <glyph glyph-name="uniF182" unicode="&#xf182;" 
d="M1024 1814q164 0 315.5 -55.5t274.5 -158.5t205 -244q123 -211 123 -460q0 -164 -55.5 -315.5t-158.5 -274.5t-244 -205q-211 -123 -460 -123q-164 0 -315.5 55.5t-274.5 158.5t-205 244q-123 212 -123 460q0 164 55.5 315.5t158.5 274.5t244 205q212 123 460 123z
M858 1324q-17 0 -29.5 -13t-12.5 -30q0 -5 2 -13l154 -520q11 -30 42 -30h24q32 0 42 30l154 520q2 8 2 13q0 17 -12.5 30t-29.5 13h-336zM1026 408q46 0 78 32t32 77t-32 77t-78 32t-78 -32t-32 -77t32 -77t78 -32z" />
    <glyph glyph-name="uniF183" unicode="&#xf183;" 
d="M1110 1082h576q34 0 59 -25t25 -61t-25 -61t-59 -25h-576v-576q0 -34 -25 -59t-61 -25t-61 25t-25 59v576h-576q-34 0 -59 25t-25 61t25 61t59 25h576v576q0 34 25 59t61 25t61 -25t25 -59v-576z" />
    <glyph glyph-name="uniF184" unicode="&#xf184;" 
d="M426 910q-34 0 -59 25t-25 61t25 61t59 25h1196q34 0 59 -25t25 -61t-25 -61t-59 -25h-1196z" />
    <glyph glyph-name="uniF185" unicode="&#xf185;" 
d="M176 1554q0 53 26.5 98t71.5 71.5t98 26.5h482q26 0 45 -19t19 -45t-19 -45t-45 -19h-482q-28 0 -48 -20t-20 -48v-1316q0 -28 20 -48t48 -20h482q26 0 45 -19t19 -45t-19 -45t-45 -19h-482q-53 0 -98 26.5t-71.5 71.5t-26.5 98v1316zM1410 424q-18 -18 -44 -18
q-27 0 -45.5 18t-18.5 45t18 45l318 318h-870q-28 0 -46 18t-18 46t18 46t46 18h870l-318 318q-18 18 -18 44q0 27 18 45.5t45 18.5t45 -18l428 -426q18 -19 18 -46q0 -26 -18 -46z" />
    <glyph glyph-name="uniF186" unicode="&#xf186;" 
d="M598 1216q26 0 44 -18l318 -318v870q0 26 19 45t45 19t45 -19t19 -45v-870l318 318q18 18 44 18q27 0 46 -18q18 -19 18 -46q0 -26 -18 -46l-426 -426q-22 -18 -46 -18q-23 0 -46 18l-426 426q-19 19 -19 45q0 25 19 47q20 18 46 18zM1814 790q26 0 45 -19t19 -45v-482
q0 -53 -26.5 -98t-71.5 -71.5t-98 -26.5h-1316q-53 0 -98 26.5t-71.5 71.5t-26.5 98v482q0 26 19 45t45 19t45 -19t19 -45v-482q0 -28 20 -48t48 -20h1316q28 0 48 20t20 48v482q0 26 19 45t45 19z" />
    <glyph glyph-name="uniF187" unicode="&#xf187;" 
d="M1642 1732q65 0 119 -31t85.5 -85t31.5 -118v-1066q0 -64 -31.5 -118.5t-86 -86t-118.5 -31.5h-1236q-64 0 -118.5 31.5t-86 86t-31.5 118.5v1066q0 64 31.5 118t85.5 85t119 31h1236zM406 1604q-44 0 -76 -31t-32 -75v-62l688 -456q21 -13 40 -13q18 0 36 11l688 458v62
q0 44 -32 75t-76 31h-1236zM1642 324q46 0 77 31t31 77v854l-618 -412q-48 -32 -108 -32t-108 32l-618 412v-854q0 -46 31 -77t77 -31h1236z" />
    <glyph glyph-name="uniF188" unicode="&#xf188;" 
d="M1596 1042q26 -26 26 -61t-25 -60t-61 -25t-60 26l-366 366v-1074q0 -36 -25 -61t-61 -25t-61 25t-25 61v1074l-366 -366q-24 -26 -60 -26t-61 25t-25 60t26 61l512 512q26 24 61 24t59 -24z" />
    <glyph glyph-name="uniF190" unicode="&#xf190;" 
d="M1878 448q26 0 45 -19t19 -45t-19 -45t-45 -19h-1238q-53 0 -97 25.5t-69.5 69.5t-25.5 97v1238q0 26 19 45t45 19t45 -19t19 -45v-1238q0 -28 18 -46t46 -18h1238zM298 1472q27 0 45.5 -18.5t18.5 -45.5t-18.5 -45.5t-45.5 -18.5h-128q-26 0 -45 19t-19 45t19 45t45 19
h128zM726 1344q-27 0 -45.5 18.5t-18.5 45.5t18.5 45.5t45.5 18.5h682q53 0 97 -25.5t69.5 -69.5t25.5 -97v-682q0 -27 -18.5 -45.5t-45.5 -18.5t-45.5 18.5t-18.5 45.5v682q0 28 -18 46t-46 18h-682zM1536 234q27 0 45.5 -18.5t18.5 -45.5v-128q0 -26 -19 -45t-45 -19
t-45 19t-19 45v128q0 26 18 45t46 19z" />
    <glyph glyph-name="uniF191" unicode="&#xf191;" 
d="M1072 292q18 -19 18 -46q0 -26 -19 -45t-43 -19q-23 0 -48 20l-788 788q-20 20 -20 46t20 46l788 788q20 20 46 20t45 -19t19 -45t-18 -46l-744 -744zM1738 292q18 -20 18 -46t-18 -45t-44 -19t-46 20l-790 788q-20 20 -20 46t20 46l790 788q18 20 44 20t45 -19t19 -45
t-18 -46l-744 -744z" />
    <glyph glyph-name="uniF192" unicode="&#xf192;" 
d="M1212 1082q18 -19 18 -46q0 -26 -18 -46l-790 -788q-18 -20 -45 -20t-46 19t-19 45t20 46l744 744l-744 744q-20 20 -20 46t19 45t46 19t45 -20zM1878 1082q18 -19 18 -46q0 -26 -18 -46l-790 -788q-18 -20 -45 -20t-46 19t-19 45t20 46l744 744l-744 744q-19 19 -19 45
q0 25 19 46q18 19 45 19t45 -20z" />
    <glyph glyph-name="uniF193" unicode="&#xf193;" 
d="M1340 496q26 -26 26 -60q0 -35 -26 -60.5t-60 -25.5t-60 26l-640 640q-26 26 -26 61q0 33 26 59l640 640q26 26 61 26t60 -26t25 -61q0 -33 -26 -59l-580 -580z" />
    <glyph glyph-name="uniF194" unicode="&#xf194;" 
d="M1468 1136q26 -26 26 -61q0 -33 -26 -59l-640 -640q-26 -26 -60 -26t-60 25.5t-26 60.5q0 34 26 60l580 580l-580 580q-26 26 -26 61t26 60t61 25q33 0 59 -26z" />
    <glyph glyph-name="uniF195" unicode="&#xf195;" 
d="M1724 678q26 -24 26 -59t-25 -60t-61 -25t-60 24l-580 580l-580 -580q-24 -24 -60 -24t-61 25t-25 60t26 59l640 640q26 26 61 26t59 -26z" />
    <glyph glyph-name="uniF196" unicode="&#xf196;" 
d="M1750 1259q0 -35 -26 -61l-640 -640q-24 -24 -60 -24t-60 24l-640 640q-26 26 -26 61t26 60t61 25t59 -26l580 -578l580 578q26 26 61 26t60 -25t25 -60z" />
    <glyph glyph-name="uniF197" unicode="&#xf197;" horiz-adv-x="2052" 
d="M300 646q-26 26 -26 61t25 60t60 25t61 -24l336 -338l786 1114q13 17 31.5 26t39.5 9q25 0 48 -15q18 -13 27.5 -31t9.5 -39q0 -26 -16 -48l-844 -1196q-19 -31 -62 -36q-44 0 -68 24z" />
    <glyph glyph-name="uniF198" unicode="&#xf198;" 
d="M1110 1062h576q34 0 59 -25t25 -61t-25 -61t-59 -25h-576v-576q0 -34 -25 -59t-61 -25t-61 25t-25 59v576h-576q-34 0 -59 25t-25 61t25 61t59 25h576v576q0 34 25 59t61 25t61 -25t25 -59v-576z" />
    <glyph glyph-name="uniF199" unicode="&#xf199;" 
d="M1726 1268q41 0 76 -20.5t55.5 -55.5t20.5 -76v-196q0 -41 -20.5 -76t-55.5 -55.5t-76 -20.5h-378q4 -15 4 -24v-198q0 -42 -20 -77t-55 -55t-77 -20h-902v-122q0 -26 -19 -45t-45 -19t-45 19t-19 45v1492q0 26 19 45t45 19t45 -19t19 -45v-124h1164q42 0 76.5 -20
t55 -54.5t20.5 -75.5v-198q0 -14 -2 -24h114zM298 1514v-246h1164q24 0 24 24v198q0 20 -24 24h-1164zM1750 1116q0 24 -24 24h-1428v-244h1428q24 0 24 24v196zM1224 744q0 9 -7.5 16.5t-16.5 7.5h-902v-246h902q8 0 16 8t8 16v198z" />
    <glyph glyph-name="uniF200" unicode="&#xf200;" 
d="M1024 112q-26 0 -45 19t-19 45v1580q0 26 19 45t45 19t45 -19t19 -45v-1580q0 -26 -19 -45t-45 -19zM1462 112q-26 0 -45 19t-19 45v1140q0 26 19 45t45 19t45 -19t19 -45v-1140q0 -26 -19 -45t-45 -19zM586 112q-26 0 -45 19t-19 45v878q0 26 19 45t45 19t45 -19t19 -45
v-878q0 -26 -19 -45t-45 -19z" />
    <glyph glyph-name="uniF201" unicode="&#xf201;" 
d="M234 446q-28 0 -46 19.5t-18 45.5q0 25 18 43l790 814q18 18 46 18t46 -18l790 -814q18 -18 18 -43q0 -26 -18 -45.5t-46 -19.5h-1580z" />
    <glyph glyph-name="uniF202" unicode="&#xf202;" 
d="M1070 464q-18 -18 -46 -18t-46 18l-790 814q-18 18 -18 43q0 26 18 45.5t46 19.5h1580q28 0 46 -19.5t18 -45.5q0 -25 -18 -43z" />
    <glyph glyph-name="uniF203" unicode="&#xf203;" 
d="M1682 1750q54 0 99 -26t71 -71t26 -99v-1316q0 -54 -26 -99t-71 -71t-99 -26h-1316q-54 0 -99 26t-71 71t-26 99v1316q0 54 26 99t71 71t99 26h1316zM1750 1372q0 28 -20 48t-48 20h-1316q-28 0 -48 -20t-20 -48v-1134q0 -28 20 -48t48 -20h1316q26 0 47 21t21 47v1134z
M600 1284q45 0 77.5 -32.5t32.5 -77.5q0 -46 -32 -78t-78 -32t-78 32t-32 78q0 47 33 78q34 32 77 32zM1024 1284q45 0 77.5 -32.5t32.5 -77.5q0 -46 -32 -78t-78 -32t-78 32t-32 78q0 47 33 78q34 32 77 32zM1448 1284q45 0 77.5 -32.5t32.5 -77.5q0 -46 -32 -78t-78 -32
t-78 32t-32 78q0 47 33 78q34 32 77 32zM600 906q46 0 78 -32t32 -77t-32 -77t-78 -32t-78 32t-32 77t32 77t78 32zM1024 906q46 0 78 -32t32 -77t-32 -77t-78 -32t-78 32t-32 77t32 77t78 32zM1448 906q46 0 78 -32t32 -77t-32 -77t-78 -32t-78 32t-32 77t32 77t78 32z
M600 538q44 0 77 -33t33 -77t-33 -77t-77 -33t-77 33t-33 77t33 77t77 33zM1024 538q44 0 77 -33t33 -77t-33 -77t-77 -33t-77 33t-33 77t33 77t77 33z" />
    <glyph glyph-name="uniF204" unicode="&#xf204;" 
d="M1792 1642q53 0 97 -25.5t69.5 -69.5t25.5 -97v-852q0 -53 -25.5 -97t-69.5 -69.5t-97 -25.5h-64v-64q0 -53 -25.5 -97t-69.5 -69.5t-97 -25.5h-1280q-53 0 -97 25.5t-69.5 69.5t-25.5 97v852q0 53 25.5 97t69.5 69.5t97 25.5h64v64q0 53 25.5 97t69.5 69.5t97 25.5h1280
zM1856 1450q0 27 -18.5 45.5t-45.5 18.5h-1280q-27 0 -45.5 -18.5t-18.5 -45.5v-64h1088q53 0 97 -25.5t69.5 -69.5t25.5 -97v-660h64q27 0 45.5 18.5t18.5 45.5v852zM1600 1194q0 27 -18.5 45.5t-45.5 18.5h-1280q-27 0 -45.5 -18.5t-18.5 -45.5v-852q0 -27 18.5 -45.5
t45.5 -18.5h1280q27 0 45.5 18.5t18.5 45.5v852zM1026 538q-26 0 -45 19t-19 45v330q0 26 19 45t45 19h328q26 0 45 -19t19 -45v-330q0 -26 -19 -45t-45 -19h-328zM406 846q-26 0 -45 19t-19 45t19 45t45 19h372q26 0 45 -19t19 -45t-19 -45t-45 -19h-372zM406 560
q-27 0 -45.5 18.5t-18.5 45.5t18.5 45.5t45.5 18.5h372q27 0 45.5 -18.5t18.5 -45.5t-18.5 -45.5t-45.5 -18.5h-372z" />
    <glyph glyph-name="uniF205" unicode="&#xf205;" 
d="M1980 1088q28 0 46 -18t18 -46t-18 -46t-46 -18h-90q6 -30 6 -62q0 -104 -51.5 -192t-139.5 -140t-193 -52t-193 52t-139.5 140t-51.5 192q0 63 24 130q-56 38 -128 38t-128 -38q24 -67 24 -130q0 -104 -51.5 -192t-139.5 -140t-193 -52t-193 52t-139.5 140t-51.5 192
q0 32 6 62h-90q-28 0 -46 18t-18 46t18 46t46 18h136q51 89 140 141.5t192 52.5q182 0 296 -144q89 56 192 56t192 -56q114 144 296 144q103 0 192 -52.5t140 -141.5h136zM535 642q69 0 128 34.5t94 93.5t35 128t-34.5 128t-93.5 93.5t-128 34.5t-128 -34.5t-93.5 -93.5
t-34.5 -128q0 -106 75 -181t180 -75zM1256 898q0 -69 35 -128t94 -93.5t128 -34.5t127.5 34.5t93 93.5t34.5 128t-34.5 128t-93.5 93.5t-128 34.5q-106 0 -181 -75t-75 -181z" />
    <glyph glyph-name="uniF206" unicode="&#xf206;" 
d="M426 1066q-34 0 -59 25t-25 61t25 61t59 25h1196q34 0 59 -25t25 -61t-25 -61t-59 -25h-1196zM426 554q-34 0 -59 25t-25 61t25 61t59 25h1196q34 0 59 -25t25 -61t-25 -61t-59 -25h-1196z" />
    <glyph glyph-name="uniF207" unicode="&#xf207;" 
d="M426 1664q-34 0 -59 25t-25 60t25 60t59 25h1196q34 0 59 -25t25 -60t-25 -60t-59 -25h-1196zM1622 1494q34 0 59 -25t25 -61t-25 -61t-59 -25h-1196q-34 0 -59 25t-25 61t25 61t59 25h1196zM1510 786q26 -26 26 -61t-25 -60t-60 -25t-61 26l-280 280v-904q0 -34 -25 -59
t-61 -25t-61 25t-25 59v904l-280 -280q-26 -26 -61 -26t-60 25t-25 60t26 61l426 426q26 26 61 26t59 -26z" />
    <glyph glyph-name="uniF208" unicode="&#xf208;" 
d="M1046 1792q164 0 315 -55.5t273.5 -158.5t204.5 -244q123 -212 123 -460q0 -164 -55.5 -315t-158.5 -273.5t-243 -204.5q-211 -123 -459 -123q-164 0 -315.5 55.5t-274.5 158.5t-205 243q-123 211 -123 459q0 164 55.5 315.5t158.5 274.5t244 205q212 123 460 123z
M1106 698q83 14 149.5 65t104.5 128t38 168t-48 171.5t-130 129t-178 48.5q-97 0 -179 -48.5t-130.5 -130.5t-48.5 -179q0 -27 18 -45.5t45 -18.5t46 19t19 45q0 62 31 114.5t83.5 84t114.5 31.5t115 -30.5t83.5 -83.5t30.5 -115t-31 -115.5t-83.5 -84.5t-113.5 -31
q-27 0 -45.5 -18.5t-18.5 -45.5v-94q0 -26 19 -45t45 -19t45 19t19 45v36zM1041 316q39 0 67 28t28 67t-27.5 67t-66.5 28q-40 0 -68 -28t-28 -68t28 -67q29 -27 67 -27z" />
    <glyph glyph-name="uniF209" unicode="&#xf209;" 
d="M1024 -22q-164 0 -315.5 55.5t-274.5 158.5t-205 244q-123 212 -123 460q0 164 55.5 315.5t158.5 274.5t244 205q212 123 460 123q164 0 315.5 -55.5t274.5 -158.5t205 -244q123 -211 123 -460q0 -164 -55.5 -315.5t-158.5 -274.5t-244 -205q-211 -123 -460 -123z
M1024 1686q-215 0 -396.5 -106t-287.5 -287.5t-106 -396.5t106 -396.5t287.5 -287.5t396.5 -106t396.5 106t287.5 287.5t106 396.5q0 328 -231 559t-559 231zM1024 1340q44 0 75 -31t31 -75t-31 -75t-75 -31t-75 31t-31 75t31 75t75 31zM1024 380q-36 0 -61 25t-25 61v470
q0 34 25 59t61 25t61 -25t25 -59v-470q0 -36 -25 -61t-61 -25z" />
    <glyph glyph-name="uniF210" unicode="&#xf210;" 
d="M362 42q-53 0 -97 25.5t-69.5 69.5t-25.5 97v1324q0 53 25.5 97t69.5 69.5t97 25.5h1324q53 0 97 -25.5t69.5 -69.5t25.5 -97v-1324q0 -53 -25.5 -97t-69.5 -69.5t-97 -25.5h-1324zM362 1622q-26 0 -45 -19t-19 -45v-1324q0 -26 19 -45t45 -19h1324q26 0 45 19t19 45
v1324q0 26 -19 45t-45 19h-1324zM1076 340q-48 6 -56 56l-62 434l-434 62q-26 3 -41 21t-15 42q0 19 10.5 35.5t29.5 25.5l940 388q13 5 24 5q26 0 45.5 -19t19.5 -46q0 -11 -5 -24l-388 -940q-16 -40 -60 -40h-8zM1352 1224l-574 -238l246 -34q48 -8 56 -56l34 -246z" />
    <glyph glyph-name="uniF211" unicode="&#xf211;" 
d="M1686 1750q53 0 97 -25.5t69.5 -69.5t25.5 -97v-1324q0 -53 -25.5 -97t-69.5 -69.5t-97 -25.5h-1324q-53 0 -97 25.5t-69.5 69.5t-25.5 97v1324q0 53 25.5 97t69.5 69.5t97 25.5h1324zM1450 1622h-852v-662h852v662zM448 1588h-128v-212h128v212zM1728 1588h-128v-212
h128v212zM448 1200h-128v-212h128v212zM1728 1200h-128v-212h128v212zM1450 832h-852v-662h852v662zM448 812h-128v-214h128v214zM1728 812h-128v-214h128v214zM448 424h-128v-214h128v214zM1728 424h-128v-214h128v214z" />
    <glyph glyph-name="uniF212" unicode="&#xf212;" 
d="M1973 1292q-22 0 -47 20q-1 5 -38 37q-43 36 -124 87.5t-173 94.5q-108 50 -260.5 83.5t-306.5 33.5t-306.5 -33.5t-260.5 -83.5q-92 -43 -173 -94.5t-124 -87.5q-37 -32 -38 -37q-18 -20 -45 -20q-28 0 -47 18.5t-19 45.5q0 23 13 39t52 51q43 38 136 98.5t190 104.5
q118 53 286.5 90t335.5 37t335.5 -37t286.5 -90q68 -31 144 -76.5t136 -89.5t81 -68q30 -34 30 -63q0 -23 -21 -42q-19 -18 -43 -18zM1715 964q-27 0 -52 24q-59 57 -196 132q-83 46 -200.5 73t-242.5 27q-257 0 -441 -100q-139 -76 -205 -138q-20 -18 -46 -18q-25 0 -44 19
t-19 45q0 25 25.5 50.5t84.5 67.5q173 122 369 170q134 32 276 32q293 0 532 -132q121 -66 202 -142q21 -18 21 -46q0 -24 -18 -44q-20 -20 -46 -20zM1461 632q-27 0 -45 18q-129 103 -299 132q-50 8 -93 8q-44 0 -91 -7.5t-87 -20.5q-129 -41 -211 -111q-22 -18 -48 -18
q-28 0 -46 21q-16 19 -16 43q0 27 20 47q23 21 65 51q34 24 102.5 53.5t151.5 50.5t160 21q80 0 174.5 -25t176.5 -65.5t127 -85.5q21 -19 21 -46q0 -25 -17 -45q-18 -21 -45 -21zM1024 560q69 0 128 -34.5t93.5 -93.5t34.5 -128t-34.5 -128t-93.5 -93.5t-128 -34.5
t-128 34.5t-93.5 93.5t-34.5 128q0 106 75 181t181 75z" />
    <glyph glyph-name="uniF213" unicode="&#xf213;" 
d="M362 42q-53 0 -97 25.5t-69.5 69.5t-25.5 97v1324q0 53 25.5 97t69.5 69.5t97 25.5h1324q53 0 97 -25.5t69.5 -69.5t25.5 -97v-598q0 -26 -19 -45t-45 -19q-27 0 -45.5 18.5t-18.5 45.5v598q0 26 -19 45t-45 19h-1324q-26 0 -45 -19t-19 -45v-1324q0 -26 19 -45t45 -19
h598q27 0 45.5 -18.5t18.5 -45.5q0 -26 -19 -45t-45 -19h-598zM1886 212q12 -12 12 -30t-12 -30l-118 -118q-16 -14 -31 -14t-31 14l-308 308l-84 -220q-11 -26 -38 -26h-2q-28 0 -38 28l-222 730q-1 4 -1 11q0 17 12.5 29.5t29.5 12.5q7 0 11 -1l728 -222q30 -10 30 -39
q0 -28 -26 -39l-220 -86z" />
    <glyph glyph-name="uniF214" unicode="&#xf214;" 
d="M1686 1750q53 0 97 -25.5t69.5 -69.5t25.5 -97v-1024q0 -53 -25.5 -97t-69.5 -69.5t-97 -25.5h-1024q-53 0 -97 25.5t-69.5 69.5t-25.5 97v1024q0 53 25.5 97t69.5 69.5t97 25.5h1024zM1750 1558q0 26 -19 45t-45 19h-1024q-26 0 -45 -19t-19 -45v-1024q0 -26 19 -45
t45 -19h1024q26 0 45 19t19 45v1024zM1238 1110h206q26 0 45 -19t19 -45q0 -27 -18.5 -45.5t-45.5 -18.5h-206v-208q0 -26 -19 -45t-45 -19t-45 19t-19 45v208h-208q-26 0 -45 19t-19 45t19 45t45 19h208v206q0 27 18.5 45.5t45.5 18.5q26 0 45 -19t19 -45v-206zM1418 170
q26 0 45 -19t19 -45t-19 -45t-45 -19h-1056q-53 0 -97 25.5t-69.5 69.5t-25.5 97v970q0 26 19 45t45 19t45 -19t19 -45v-970q0 -26 19 -45t45 -19h1056z" />
    <glyph glyph-name="uniF215" unicode="&#xf215;" 
d="M1026 1750q231 0 427 -115.5t311.5 -311.5t115.5 -427t-115.5 -427t-311.5 -311.5t-427 -115.5t-427 115.5t-311.5 311.5t-115.5 427q0 352 251 603t603 251zM858 1324q-17 0 -29.5 -13t-12.5 -30q0 -5 2 -13l154 -520q11 -30 42 -30h24q32 0 42 30l154 520q2 8 2 13
q0 17 -12.5 30t-29.5 13h-336zM1026 408q46 0 78 32t32 77t-32 77t-78 32t-78 -32t-32 -77t32 -77t78 -32z" />
    <glyph glyph-name="uniF216" unicode="&#xf216;" 
d="M1047 232q-141 0 -257 31t-207 83q-93 54 -191.5 144.5t-160.5 193.5q-67 109 -81 146q-18 32 -18 66q0 37 22 74q14 45 61.5 117t112 146.5t125.5 126.5q63 54 154 100.5t194.5 74t199.5 27.5q141 0 257 -31t207 -83q93 -54 191.5 -144.5t160.5 -193.5q67 -109 81 -146
q18 -31 18 -66q0 -37 -22 -74q-14 -45 -61.5 -117t-112 -146.5t-125.5 -126.5q-93 -79 -246 -141q-152 -61 -302 -61zM1024 1426q-104 0 -203 -27t-174 -71q-80 -47 -163.5 -124.5t-138.5 -167.5q-61 -100 -68 -117q-5 -12 -5 -21q0 -12 5.5 -25.5t14.5 -30t12 -22.5
q26 -48 94 -134.5t138 -145.5q86 -72 217.5 -123t270.5 -51q140 0 273 51.5t219 127.5q52 46 108 112t97 128t51 97q4 7 4 15q0 12 -8 27.5t-10 19.5q-14 27 -49.5 83.5t-67.5 95.5q-42 51 -108 109.5t-132 95.5q-70 40 -170 69q-101 29 -207 29zM1245 928q82 0 137 66
q16 -51 16 -98q0 -101 -50.5 -187t-136.5 -136.5t-187 -50.5t-187 50.5t-136.5 136.5t-50.5 187t50.5 187t136.5 136.5t187 50.5q49 0 96 -16q-66 -55 -66 -137q0 -81 55 -135q56 -54 136 -54z" />
    <glyph glyph-name="uniF217" unicode="&#xf217;" 
d="M1024 1814q164 0 315.5 -55.5t274.5 -158.5t205 -244q123 -211 123 -460q0 -164 -55.5 -315.5t-158.5 -274.5t-244 -205q-211 -123 -460 -123q-164 0 -315.5 55.5t-274.5 158.5t-205 244q-123 212 -123 460q0 164 55.5 315.5t158.5 274.5t244 205q212 123 460 123z
M1024 1128q44 0 75 31t31 75t-31 75t-75 31t-75 -31t-31 -75t31 -75t75 -31zM1110 936q0 34 -25 59t-61 25t-61 -25t-25 -59v-470q0 -36 25 -61t61 -25t61 25t25 61v470z" />
    <glyph glyph-name="uniF300" unicode="&#xf300;" 
d="M1558 960h276q27 0 45.5 -18.5t18.5 -45.5v-618q0 -65 -31 -119t-85 -85.5t-118 -31.5h-1322q-53 0 -97 25.5t-69.5 69.5t-25.5 97v1324q0 53 25.5 97t69.5 69.5t97 25.5h1024q53 0 97 -25.5t69.5 -69.5t25.5 -97v-598zM278 234q0 -26 19 -45t45 -19h1114q-26 54 -26 108
v1280q0 26 -19 45t-45 19h-1024q-26 0 -45 -19t-19 -45v-1324zM1194 1302q26 0 45 -19t19 -45t-19 -45t-45 -19h-682q-27 0 -45.5 18.5t-18.5 45.5q0 26 19 45t45 19h682zM1194 960q27 0 45.5 -18.5t18.5 -45.5t-18.5 -45.5t-45.5 -18.5h-682q-28 0 -46 18t-18 46t18 46
t46 18h682zM1664 170q44 0 75 32t31 76v554h-212v-554q0 -45 31 -76q32 -32 75 -32zM918 618q26 0 45 -19t19 -45t-19 -45t-45 -19h-406q-26 0 -45 19t-19 45q0 27 18.5 45.5t45.5 18.5h406z" />
    <glyph glyph-name="uniF301" unicode="&#xf301;" 
d="M1744 950q30 -19 30 -54q0 -34 -30 -54l-1240 -790q-16 -10 -31 -10q-14 0 -35 8q-32 20 -32 56v1580q0 36 32 56q18 8 32 8q16 0 34 -10z" />
    <glyph glyph-name="uniF302" unicode="&#xf302;" 
d="M854 170q0 -34 -17.5 -63.5t-47 -47t-63.5 -17.5h-172q-34 0 -63.5 17.5t-47 47t-17.5 63.5v1452q0 34 17.5 63.5t47 47t63.5 17.5h172q34 0 63.5 -17.5t47 -47t17.5 -63.5v-1452zM1622 170q0 -34 -17.5 -63.5t-47 -47t-63.5 -17.5h-172q-34 0 -63.5 17.5t-47 47
t-17.5 63.5v1452q0 34 17.5 63.5t47 47t63.5 17.5h172q34 0 63.5 -17.5t47 -47t17.5 -63.5v-1452z" />
    <glyph glyph-name="uniF303" unicode="&#xf303;" 
d="M1024 1750q231 0 427 -115.5t311.5 -311.5t115.5 -427t-115.5 -427t-311.5 -311.5t-427 -115.5q-207 0 -392.5 96.5t-305.5 267.5l-28 -224q-4 -24 -21 -40t-41 -16h-8q-24 2 -40.5 20t-16.5 43l1 9l48 402q2 22 21 38.5t43 16.5q8 0 12 -1l398 -72q23 -5 37.5 -22.5
t14.5 -40.5q0 -27 -18.5 -46t-43.5 -19q-4 0 -14 2l-254 46q66 -102 161.5 -177t210.5 -115t236 -40q197 0 363.5 98t264.5 264.5t98 363.5t-98 363.5t-264.5 264.5t-363.5 98t-363.5 -98t-264.5 -264.5t-98 -363.5q0 -27 -18.5 -45.5t-45.5 -18.5q-26 0 -45 19t-19 45
q0 352 251 603t603 251z" />
    <glyph glyph-name="uniF304" unicode="&#xf304;" 
d="M1536 106q0 -28 -19.5 -46.5t-44.5 -18.5q-23 0 -42 17l-494 432h-274q-53 0 -97 25.5t-69.5 69.5t-25.5 97v428q0 53 25.5 97t69.5 69.5t97 25.5h274l494 432q19 17 42 17q25 0 44.5 -18.5t19.5 -46.5v-1580zM1408 1544l-384 -336v-624l384 -336v1296zM896 1174h-234
q-26 0 -45 -19t-19 -45v-428q0 -26 19 -45t45 -19h234v556z" />
    <glyph glyph-name="uniF305" unicode="&#xf305;" 
d="M1174 106q0 -27 -20 -45t-46 -18q-22 0 -40 15l-494 432h-276q-53 0 -97 25.5t-69.5 69.5t-25.5 97v428q0 53 25.5 97t69.5 69.5t97 25.5h276l494 432q18 15 40 15q26 0 46 -18t20 -45v-1580zM1046 1544l-384 -336v-624l384 -336v1296zM1856 897q0 -348 -238 -595
q-18 -18 -45 -18t-46 18t-19 44q0 27 18 46q202 208 202 502q0 295 -202 506q-18 20 -18 46q0 25 19 44t45 19q27 0 46 -21q238 -244 238 -591zM1574 896q0 -201 -164 -374q-20 -20 -46 -20q-27 0 -46 19t-19 47q0 25 19 42q128 137 128 285t-128 285q-19 19 -19 44
q0 27 20 47q19 19 46 19t45 -20q164 -173 164 -374zM534 1174h-236q-26 0 -45 -19t-19 -45v-428q0 -26 19 -45t45 -19h236v556z" />
    <glyph glyph-name="uniF306" unicode="&#xf306;" 
d="M1174 106q0 -27 -20 -45t-46 -18q-22 0 -40 15l-494 432h-276q-53 0 -97 25.5t-69.5 69.5t-25.5 97v428q0 53 25.5 97t69.5 69.5t97 25.5h276l494 432q18 15 40 15q26 0 46 -18t20 -45v-1580zM1046 1544l-384 -336v-624l384 -336v1296zM1922 686q20 -20 20 -46t-19 -45
t-46 -19t-45 18l-210 212l-212 -212q-18 -18 -45 -18t-45 18.5t-18 45.5t18 46l210 210l-210 210q-18 20 -18 46q0 27 18 45.5t45 18.5t45 -18l212 -212l210 212q20 18 46 18t45 -19t19 -45t-20 -46l-210 -210zM534 1174h-236q-26 0 -45 -19t-19 -45v-428q0 -26 19 -45
t45 -19h236v556z" />
    <glyph glyph-name="uniF307" unicode="&#xf307;" 
d="M235 1750q27 0 45 -18l544 -544v328q0 26 19 45t45 19t45 -19t19 -45v-482q0 -26 -19 -45t-45 -19h-484q-26 0 -45 19t-19 45t19 45t45 19h328l-544 542q-18 18 -18 45q0 28 18 47q19 18 47 18zM1708 759q0 -27 -19 -46t-45 -19h-328l544 -542q18 -18 18 -45t-18 -47
q-20 -18 -47 -18t-45 18l-542 544v-328q0 -26 -19 -45t-45 -19t-45 19t-19 45v484q0 26 19 45t45 19h482q26 0 45 -19t19 -46z" />
    <glyph glyph-name="uniF308" unicode="&#xf308;" 
d="M730 1750q26 0 45 -19t19 -45t-19 -45t-45 -19h-340l560 -562q20 -18 20 -45t-19 -46t-46 -19t-45 20l-562 560v-340q0 -26 -19 -45t-45 -19t-45 19t-19 45v496q0 26 19 45t45 19h496zM1750 602q0 26 19 45t45 19t45 -19t19 -45v-496q0 -26 -19 -45t-45 -19h-496
q-26 0 -45 19t-19 45t19 45t45 19h340l-560 562q-20 20 -20 45t19.5 45t45.5 20q27 0 45 -20l562 -560v340z" />
    <glyph glyph-name="uniF309" unicode="&#xf309;" 
d="M558 1238q164 0 278 -130v-4l-146 -118q-56 62 -137 62q-53 0 -97.5 -26t-70 -69.5t-25.5 -95.5q0 -51 26 -94.5t67 -69t83 -25.5q63 0 110 26v68h-142v142h332v-298q-115 -130 -279 -130q-107 0 -195.5 51.5t-140 139t-51.5 191.5q0 158 112 269q113 111 276 111z
M996 1238h200v-762h-200v762zM1558 1038v-120h240v-200h-240v-242h-202v762h522v-200h-320z" />
    <glyph glyph-name="uniF310" unicode="&#xf310;" 
d="M1460 1122q32 108 32 193q0 86 -30 132.5t-82 46.5q-53 0 -84.5 -52t-31.5 -144q0 -126 48 -219t134 -143t196 -50q56 0 124 16v-204q-95 -22 -202 -22q-61 -127 -152.5 -256t-182.5 -225t-148 -128q-39 -23 -82 -23q-32 0 -62.5 14t-53 32t-61.5 52q-58 51 -140.5 167.5
t-149.5 254.5q-76 157 -144.5 404t-105.5 526h288q32 -279 102 -515t155 -387q83 -145 187 -274q165 165 292 416q-95 50 -165 135.5t-107.5 197.5t-37.5 239q0 128 48.5 229t137.5 158t207 57q119 0 203.5 -48.5t129 -137.5t44.5 -208q0 -177 -60 -314q-33 -6 -63 -6
q-55 0 -98.5 17t-62.5 41z" />
    <glyph glyph-name="uniF311" unicode="&#xf311;" 
d="M1842 626q0 -80 -40 -148.5t-108.5 -109t-149.5 -40.5t-150 40t-109.5 108.5t-40.5 149.5q0 80 40.5 148.5t106.5 109t138 40.5q109 0 185 -54v470l-892 -274v-724q0 -81 -40.5 -150t-109.5 -109.5t-150 -40.5t-149.5 40.5t-108.5 109t-40 149.5q0 80 40.5 148.5
t106 109.5t136.5 41q108 0 187 -54v850q0 49 46 62l1020 296q5 1 14 1q28 0 48 -18t20 -45v-1106z" />
    <glyph glyph-name="uniF312" unicode="&#xf312;" 
d="M1480 692q0 -116 -59 -215.5t-158.5 -159t-215.5 -59.5t-215.5 59.5t-158.5 159t-59 215.5q0 81 -8.5 123.5t-41.5 114.5q-16 28 -16 61q0 36 19.5 61.5t53.5 25.5q51 0 98 -61t75 -161h2v564q0 38 27 64t65 26t64 -26t26 -64v-388q0 38 27 65t65 27t64 -27t26 -65v-30
q30 30 68 30t65 -26t27 -64v-32q26 32 65 32q38 0 64.5 -24.5t30.5 -61.5v-164zM342 642q0 -32 -28 -42l-18 -4q-20 0 -32 14l-228 226q-14 14 -14 32t14 32l228 230q13 13 31 13q9 0 19 -3q28 -13 28 -44v-454zM2012 900q14 -14 14 -32t-14 -32l-228 -226q-12 -14 -32 -14
l-18 4q-28 10 -28 42v454q0 31 28 44q10 3 19 3q18 0 31 -13z" />
    <glyph glyph-name="uniF320" unicode="&#xf320;" 
d="M1029 1792q189 0 350 -100.5t256 -270.5t95 -369q0 -95 -40.5 -216t-107.5 -243.5t-147 -226.5q-120 -157 -234 -261.5t-170 -104.5q-37 0 -104.5 46t-149 126t-160.5 177q-81 100 -149 219t-108 237.5t-40 214.5q0 308 210 540t499 232zM1029 668q116 0 213.5 56.5
t154.5 153t57 211.5t-56.5 213.5t-152.5 157t-207 58.5q-63 0 -114 -14q100 -43 100 -152q0 -46 -22.5 -84.5t-61 -61t-83.5 -22.5t-84 23t-62 61.5t-23 83.5q-92 -119 -92 -279q0 -161 128 -283t305 -122z" />
    <glyph glyph-name="uniF330" unicode="&#xf330;" 
d="M1750 1750q34 0 63.5 -17.5t47 -47t17.5 -63.5v-1452q0 -34 -17.5 -63.5t-47 -47t-63.5 -17.5h-86q-34 0 -63.5 17.5t-47 47t-17.5 63.5v596l-1120 -714q-16 -10 -31 -10q-14 0 -35 8q-32 20 -32 56v1580q0 36 32 56q18 8 32 8q16 0 34 -10l1120 -714v596q0 34 17.5 63.5
t47 47t63.5 17.5h86z" />
    <glyph glyph-name="uniF331" unicode="&#xf331;" 
d="M1344 1124q-19 -18 -47 -18q-27 0 -45 18.5t-18 45.5q0 26 18 44l538 538q18 18 45 18t45 -18.5t18 -45.5q0 -26 -18 -44zM285.5 1323q115.5 196 311.5 311.5t427 115.5q208 0 390 -96q16 -8 25.5 -23.5t9.5 -32.5q0 -16 -7 -30q-8 -16 -22.5 -25t-32.5 -9q-15 0 -31 8
q-157 80 -332 80q-197 0 -363.5 -98t-264.5 -264.5t-98 -363.5q0 -176 84 -338q7 -14 7 -30q0 -25 -15.5 -44.5t-44.5 -19.5q-43 0 -61 34q-98 187 -98 398q0 231 115.5 427zM634 138q-16 8 -25.5 23.5t-9.5 32.5q0 16 7 30q8 16 22.5 25t32.5 9q15 0 31 -8q162 -80 332 -80
q197 0 363.5 98t264.5 264.5t98 363.5q0 180 -82 334q-7 13 -7 29q0 17 9 33t24 26q14 7 29 7q17 0 33 -9.5t26 -25.5q96 -186 96 -394q0 -231 -115.5 -427t-311.5 -311.5t-427 -115.5q-204 0 -390 96zM1334 932q20 -12 20 -36t-20 -36l-444 -284q-12 -6 -22 -6l-22 6
q-22 10 -22 36v568q0 19 12.5 30.5t30.5 11.5q12 0 23 -6zM258 40q-18 -18 -45 -18t-45 18.5t-18 45.5q0 26 18 44l448 448q20 20 46 20t45 -19t19 -45t-20 -46z" />
    <glyph glyph-name="uniF332" unicode="&#xf332;" 
d="M362 42q-51 0 -95.5 26t-70.5 70.5t-26 95.5v1324q0 51 26 95.5t70.5 70.5t95.5 26h1324q51 0 95.5 -26t70.5 -70.5t26 -95.5v-1324q0 -51 -26 -95.5t-70.5 -70.5t-95.5 -26h-1324z" />
    <glyph glyph-name="uniF334" unicode="&#xf334;" 
d="M234 1052q-26 0 -45 19t-19 45v438q0 54 26 99t71 71t99 26h438q26 0 45 -19t19 -45q0 -27 -18.5 -45.5t-45.5 -18.5h-438q-28 0 -48 -20t-20 -48v-438q0 -28 -19 -46t-45 -18zM1814 1052q-27 0 -45.5 18.5t-18.5 45.5v438q0 26 -21 47t-47 21h-438q-27 0 -45.5 18.5
t-18.5 45.5q0 26 19 45t45 19h438q54 0 99 -26t71 -71t26 -99v-438q0 -26 -19 -45t-45 -19zM366 42q-54 0 -99 26t-71 71t-26 99v438q0 26 19 45t45 19q27 0 45.5 -18.5t18.5 -45.5v-438q0 -28 20 -48t48 -20h438q27 0 45.5 -18.5t18.5 -45.5q0 -26 -19 -45t-45 -19h-438z
M1244 42q-26 0 -45 19t-19 45q0 27 18.5 45.5t45.5 18.5h438q26 0 47 21t21 47v438q0 27 18.5 45.5t45.5 18.5q26 0 45 -19t19 -45v-438q0 -54 -26 -99t-71 -71t-99 -26h-438z" />
    <glyph glyph-name="uniF335" unicode="&#xf335;" 
d="M234 1008q-26 0 -45 19t-19 45t19 45t45 19h486q28 0 46 18t18 46v486q0 26 19 45t45 19t45 -19t19 -45v-486q0 -53 -25.5 -97t-69.5 -69.5t-97 -25.5h-486zM1328 1008q-53 0 -97 25.5t-69.5 69.5t-25.5 97v486q0 26 19 45t45 19t45 -19t19 -45v-486q0 -28 18 -46t46 -18
h486q26 0 45 -19t19 -45t-19 -45t-45 -19h-486zM848 42q-26 0 -45 19t-19 45v486q0 28 -18 46t-46 18h-486q-26 0 -45 19t-19 45t19 45t45 19h486q53 0 97 -25.5t69.5 -69.5t25.5 -97v-486q0 -26 -19 -45t-45 -19zM1200 42q-26 0 -45 19t-19 45v486q0 53 25.5 97t69.5 69.5
t97 25.5h486q26 0 45 -19t19 -45t-19 -45t-45 -19h-486q-28 0 -46 -18t-18 -46v-486q0 -26 -19 -45t-45 -19z" />
    <glyph glyph-name="uniF336" unicode="&#xf336;" 
d="M1066 918q0 -26 -19 -45t-45 -19h-566q-26 0 -45 19t-19 45t19 45t45 19h412l-656 654q-20 20 -20 46t20 46t46 20t46 -20l654 -654v410q0 26 19 45t45 19q27 0 45.5 -18.5t18.5 -45.5v-566zM1686 1302q53 0 97 -25.5t69.5 -69.5t25.5 -97v-876q0 -53 -25.5 -97
t-69.5 -69.5t-97 -25.5h-876q-53 0 -97 25.5t-69.5 69.5t-25.5 97v364q0 26 19 45t45 19t45 -19t19 -45v-364q0 -26 19 -45t45 -19h876q26 0 45 19t19 45v876q0 26 -19 45t-45 19h-364q-26 0 -45 19t-19 45t19 45t45 19h364z" />
    <glyph glyph-name="uniF337" unicode="&#xf337;" 
d="M234 1052q-26 0 -45 19t-19 45v438q0 54 26 99t71 71t99 26h438q26 0 45 -19t19 -45q0 -27 -18.5 -45.5t-45.5 -18.5h-438q-28 0 -48 -20t-20 -48v-438q0 -28 -19 -46t-45 -18zM1814 1052q-27 0 -45.5 18.5t-18.5 45.5v438q0 26 -21 47t-47 21h-438q-27 0 -45.5 18.5
t-18.5 45.5q0 26 19 45t45 19h438q54 0 99 -26t71 -71t26 -99v-438q0 -26 -19 -45t-45 -19zM1474 536q20 -20 20 -46t-19 -45t-46 -19t-45 20l-176 176q-114 -84 -250 -84q-116 0 -213 57t-154 154t-57 213t57 213t154 154t213 57t213 -57t154 -154t57 -213q0 -136 -84 -250
zM958 666q80 0 148 40t108 108t40 148t-40 148t-108 108t-148 40t-148 -40t-108 -108t-40 -148q0 -122 87 -209t209 -87zM366 42q-54 0 -99 26t-71 71t-26 99v438q0 26 19 45t45 19q27 0 45.5 -18.5t18.5 -45.5v-438q0 -28 20 -48t48 -20h438q27 0 45.5 -18.5t18.5 -45.5
q0 -26 -19 -45t-45 -19h-438zM1244 42q-26 0 -45 19t-19 45q0 27 18.5 45.5t45.5 18.5h438q26 0 47 21t21 47v438q0 27 18.5 45.5t45.5 18.5q26 0 45 -19t19 -45v-438q0 -54 -26 -99t-71 -71t-99 -26h-438z" />
    <glyph glyph-name="uniF338" unicode="&#xf338;" 
d="M1880 992q18 -18 18 -46t-18 -46l-244 -242q-20 -20 -45 -20t-44 19t-19 46t18 45l134 134h-592v-592l134 134q18 18 45 18t46 -19t19 -45t-20 -44l-242 -244q-22 -18 -46 -18q-23 0 -46 18l-242 244q-20 18 -20 44t19 45t46 19t45 -18l134 -134v592h-592l134 -134
q18 -18 18 -45t-19 -46t-44 -19t-45 20l-244 242q-18 18 -18 46t18 46l244 242q18 20 44 20t45 -19t19 -46t-18 -45l-134 -134h592v592l-134 -134q-18 -18 -45 -18t-46 19t-19 45t20 44l242 244q20 18 46 18t46 -18l242 -244q20 -18 20 -44t-19 -45t-46 -19t-45 18l-134 134
v-592h592l-134 134q-18 18 -18 45t19 46t45 19t44 -20z" />
    <glyph glyph-name="uniF400" unicode="&#xf400;" 
d="M1942 1750q26 0 45 -19t19 -45v-1324q0 -26 -19 -45t-45 -19h-136q-14 -73 -59.5 -131.5t-112 -91.5t-141.5 -33t-141.5 33t-112 91.5t-59.5 131.5h-334q-14 -73 -59.5 -131.5t-112 -91.5t-141.5 -33t-141.5 33t-112 91.5t-59.5 131.5h-134q-26 0 -45 19t-19 45v748
q0 23 10 34l256 404q16 30 54 30h362v108q0 26 19 45t45 19h1174zM1878 1622h-1046v-684h1046v684zM150 938h554v512h-328l-226 -360v-152zM1878 810h-1728v-384h70q14 73 59.5 131.5t112 91.5t141.5 33t141.5 -33t112 -91.5t59.5 -131.5h334q14 73 59.5 131.5t112 91.5
t141.5 33t141.5 -33t112 -91.5t59.5 -131.5h72v384zM726 362q0 53 -25.5 97t-69.5 69.5t-97 25.5t-97 -25.5t-69.5 -69.5t-25.5 -97t25.5 -97t69.5 -69.5t97 -25.5q80 0 136 56t56 136zM1686 362q0 53 -25.5 97t-69.5 69.5t-97 25.5t-97 -25.5t-69.5 -69.5t-25.5 -97
t25.5 -97t69.5 -69.5t97 -25.5q80 0 136 56t56 136z" />
    <glyph glyph-name="uniF401" unicode="&#xf401;" 
d="M362 166q-53 0 -97 25.5t-69.5 69.5t-25.5 97v896q0 53 25.5 97t69.5 69.5t97 25.5h1324q53 0 97 -25.5t69.5 -69.5t25.5 -97v-896q0 -53 -25.5 -97t-69.5 -69.5t-97 -25.5h-1324zM362 1318q-26 0 -45 -19t-19 -45v-896q0 -26 19 -45t45 -19h1324q26 0 45 19t19 45v896
q0 26 -19 45t-45 19h-1324zM580 766q-18 -34 -61 -34q-29 0 -44.5 18.5t-15.5 43.5q0 16 7 30l138 276q8 16 24 25.5t34 9.5q16 0 29 -7q16 -8 26 -24t10 -34q0 -15 -7 -28zM868 766q-18 -34 -61 -34q-30 0 -45.5 19t-15.5 45q0 16 6 28l140 276q8 16 23.5 25.5t32.5 9.5
q16 0 30 -7q16 -8 25.5 -23.5t9.5 -32.5q0 -16 -7 -30zM1154 766q-16 -34 -60 -34q-30 0 -45.5 18.5t-15.5 43.5q0 14 7 30l140 276q8 16 23.5 25.5t32.5 9.5q16 0 30 -7q16 -8 25.5 -23.5t9.5 -32.5q0 -16 -7 -30zM1349.5 742.5q-18.5 10.5 -25.5 32.5q-3 11 -3 20
q0 15 7 29l140 276q8 16 23.5 25.5t32.5 9.5q28 0 46.5 -19.5t18.5 -45.5q0 -12 -7 -28l-140 -276q-18 -34 -58 -34q-16 0 -34.5 10.5zM514 466q-26 0 -45 19t-19 45t19 45t45 19h164q26 0 45 -19t19 -45t-19 -45t-45 -19h-164zM874 466q-26 0 -45 19t-19 45t19 45t45 19
h372q26 0 45 -19t19 -45t-19 -45t-45 -19h-372z" />
    <glyph glyph-name="uniF402" unicode="&#xf402;" 
d="M1686 1446q53 0 97 -25.5t69.5 -69.5t25.5 -97v-896q0 -53 -25.5 -97t-69.5 -69.5t-97 -25.5h-1324q-53 0 -97 25.5t-69.5 69.5t-25.5 97v896q0 53 25.5 97t69.5 69.5t97 25.5h1324zM362 1318q-26 0 -45 -19t-19 -45v-102h1452v102q0 26 -19 45t-45 19h-1324zM1686 294
q26 0 45 19t19 45v666h-1452v-666q0 -26 19 -45t45 -19h1324zM1568 896q22 0 38 -19t16 -45t-16 -45t-38 -19h-236q-22 0 -37 19t-15 45t15 45t37 19h236z" />
    <glyph glyph-name="uniF403" unicode="&#xf403;" 
d="M1792 1642q53 0 97 -25.5t69.5 -69.5t25.5 -97v-852q0 -53 -25.5 -97t-69.5 -69.5t-97 -25.5h-64v-64q0 -53 -25.5 -97t-69.5 -69.5t-97 -25.5h-1280q-53 0 -97 25.5t-69.5 69.5t-25.5 97v852q0 53 25.5 97t69.5 69.5t97 25.5h64v64q0 53 25.5 97t69.5 69.5t97 25.5h1280
zM1856 1450q0 27 -18.5 45.5t-45.5 18.5h-1280q-27 0 -45.5 -18.5t-18.5 -45.5v-64h1088q53 0 97 -25.5t69.5 -69.5t25.5 -97v-660h64q27 0 45.5 18.5t18.5 45.5v852zM192 1054q75 18 130.5 73t75.5 131h-142q-27 0 -45.5 -18.5t-18.5 -45.5v-140zM1600 924q-86 14 -157 61
t-117.5 117.5t-59.5 155.5h-740q-13 -85 -59.5 -155.5t-117.5 -117.5t-157 -61v-312q86 -14 157 -61t117.5 -117.5t59.5 -155.5h740q13 85 59.5 155.5t117.5 117.5t157 61v312zM1600 1194q0 27 -18.5 45.5t-45.5 18.5h-142q20 -76 75.5 -131t130.5 -73v140zM896 1126
q79 0 145.5 -48.5t105.5 -130.5t39 -179t-39 -178.5t-105.5 -129.5t-145.5 -48t-145.5 48t-105.5 129.5t-39 178.5q0 149 85 253q86 105 205 105zM896 540q43 0 80.5 31.5t59.5 84t22 113.5t-22 113.5t-59.5 84t-80.5 31.5t-80.5 -31.5t-59.5 -84t-22 -113.5q0 -93 48 -161
t114 -68zM398 278q-20 76 -75.5 131t-130.5 73v-140q0 -27 18.5 -45.5t45.5 -18.5h142zM1600 482q-76 -18 -132 -73.5t-74 -130.5h142q27 0 45.5 18.5t18.5 45.5v140z" />
    <glyph glyph-name="uniF404" unicode="&#xf404;" 
d="M1419.5 1758.5q151.5 -55.5 274.5 -158.5t205 -244q123 -211 123 -460q0 -164 -55.5 -315.5t-158.5 -274.5t-244 -205q-211 -123 -460 -123q-164 0 -317 57t-277.5 162.5t-205.5 248.5q-10 19 -10 36q0 31 34 52q15 9 31 9q17 0 32 -9t25 -24q70 -123 177.5 -214.5
t239 -140.5t271.5 -49q215 0 396.5 106t287.5 287.5t106 396.5t-106 396.5t-287.5 287.5t-396.5 106q-171 0 -325 -71t-266.5 -198t-162.5 -289l274 130q13 7 28 7q18 0 33.5 -10t23.5 -27q6 -13 6 -27q0 -18 -9.5 -34t-25.5 -23l-408 -196q-12 -6 -23 -6q-46 0 -65 40
l-174 416q-5 13 -5 24q0 19 10.5 36t28.5 24q15 5 25 5q20 0 36 -10.5t23 -28.5l108 -258q62 184 191.5 325.5t305.5 220t371 78.5q164 0 315.5 -55.5zM1481 574q-27 0 -45 12l-368 258q-28 18 -28 52v350q0 27 18.5 45.5t45.5 18.5t45.5 -18.5t18.5 -45.5v-316l342 -240
q26 -20 26 -52q0 -20 -12 -40q-16 -24 -43 -24z" />
    <glyph glyph-name="uniF405" unicode="&#xf405;" 
d="M1984 1864q26 0 45 -19t19 -45v-1384q0 -28 -18 -46l-346 -344q-56 -68 -144 -68h-1348q-54 0 -98 27.5t-69 76.5t-25 110v1194q0 62 64 120l356 358q20 20 46 20h1518zM1604 1344q0 26 -19 45t-45 19h-1348q-28 0 -46 -18t-18 -46v-468q0 -28 18 -46t46 -18h1348
q26 0 45 19t19 45v468zM438 1046q-26 0 -45 19t-19 45t19 45t45 19h854q27 0 45.5 -18.5t18.5 -45.5t-18.5 -45.5t-45.5 -18.5h-854zM128 150q0 -27 18.5 -45.5t45.5 -18.5h1348q26 0 45 19t19 45v470q0 26 -19 45t-45 19h-1348q-28 0 -46 -18t-18 -46v-470zM438 320
q-26 0 -45 19t-19 45t19 45t45 19h854q26 0 45 -19t19 -46t-18 -45t-46 -18h-854z" />
    <glyph glyph-name="uniF406" unicode="&#xf406;" 
d="M1984 1752q28 0 46 -18t18 -46v-1190q0 -28 -18 -46l-346 -344q-56 -68 -144 -68h-1348q-53 0 -97 25.5t-69.5 69.5t-25.5 97v1000q0 88 64 142l356 360q18 18 46 18h1518zM1830 1624h-1338l-200 -200h1338zM1604 1232q0 26 -19 45t-45 19h-1348q-28 0 -46 -18t-18 -46
v-1000q0 -28 18 -46t46 -18h1348q26 0 45 19t19 45v1000zM426 662q-26 0 -45 19t-19 45t19 45t45 19h854q26 0 45 -19t19 -45q0 -27 -18.5 -45.5t-45.5 -18.5h-854z" />
    <glyph glyph-name="uniF407" unicode="&#xf407;" 
d="M362 42q-53 0 -97 25.5t-69.5 69.5t-25.5 97v1324q0 53 25.5 97t69.5 69.5t97 25.5h1324q53 0 97 -25.5t69.5 -69.5t25.5 -97v-1324q0 -53 -25.5 -97t-69.5 -69.5t-97 -25.5h-1324zM362 1622q-26 0 -45 -19t-19 -45v-1324q0 -26 19 -45t45 -19h1324q26 0 45 19t19 45
v1324q0 26 -19 45t-45 19h-1324zM598 1280q-27 0 -45.5 18.5t-18.5 45.5t18.5 45.5t45.5 18.5h852q27 0 45.5 -18.5t18.5 -45.5t-18.5 -45.5t-45.5 -18.5h-852zM598 960q-27 0 -45.5 18.5t-18.5 45.5t18.5 45.5t45.5 18.5h852q27 0 45.5 -18.5t18.5 -45.5t-18.5 -45.5
t-45.5 -18.5h-852zM598 384q-27 0 -45.5 18.5t-18.5 45.5v256q0 27 18.5 45.5t45.5 18.5h852q27 0 45.5 -18.5t18.5 -45.5v-256q0 -27 -18.5 -45.5t-45.5 -18.5h-852z" />
    <glyph glyph-name="uniF408" unicode="&#xf408;" 
d="M628 808q-181 0 -268.5 75t-87.5 239q0 46 8 108q13 105 59.5 181t120.5 116.5t168 40.5t168 -40.5t120.5 -116.5t59.5 -181q8 -61 8 -107q0 -141 -64 -216q-85 -99 -292 -99zM1425 808q-208 0 -287 94q-36 41 -53.5 100.5t-17.5 128.5q0 101 33.5 197.5t88.5 149.5
q93 90 235 90q94 0 168 -40t121 -116t61 -182q7 -50 7 -102q0 -148 -69 -226q-79 -94 -287 -94zM628 936q86 0 135 16t71.5 55t22.5 110q0 45 -7 97q-36 226 -222 226t-222 -226q-7 -49 -7 -94q0 -91 33 -129q48 -55 196 -55zM1425 936q84 0 133.5 15.5t72.5 53.5t23 108
q0 40 -8 101q-10 91 -62 158.5t-159 67.5q-106 0 -158.5 -67.5t-62.5 -158.5q-8 -59 -8 -99q0 -87 33 -124q49 -55 196 -55zM178 42q-47 0 -85.5 22.5t-61 61.5t-22.5 86q0 25 5 44q33 129 122 230t217.5 157.5t276.5 56.5q223 0 396 -128q176 128 399 128
q147 0 275.5 -56.5t217 -157.5t120.5 -230q6 -22 6 -44q0 -45 -23 -84.5t-62 -62.5t-85 -23h-1696zM1078 170q18 0 29.5 12t11.5 32q0 6 -1 10q-25 101 -96 180.5t-174 123.5t-220 44t-219.5 -43.5t-173.5 -122.5t-97 -180q-2 -8 -2 -13q0 -14 10 -29q14 -14 32 -14h900z
M1429 572q-173 0 -307 -90q90 -103 120 -226q4 -19 4 -43t-4 -43h632q18 0 30 12t12 29q0 3 -2 13q-37 152 -175 251q-136 97 -310 97z" />
    <glyph glyph-name="uniF429" unicode="&#xf429;" 
d="M342 1152q-36 0 -61 25t-25 60t25 60t61 25h1158l-194 196q-26 26 -26 61t25 60t60 25t61 -26l340 -340q26 -26 26 -61t-26 -59l-340 -342q-31 -26 -62 -26q-32 0 -58 26t-26 60t26 60l194 196h-1158zM1706 640q36 0 61 -25t25 -60t-25 -60t-61 -25h-1158l194 -196
q26 -26 26 -61t-25 -60t-61 -25t-60 26l-340 340q-26 26 -26 61t26 59l340 342q26 26 61 26t60 -26t25 -60t-26 -60l-194 -196h1158z" />
    <glyph glyph-name="uniF430" unicode="&#xf430;" 
d="M1024 -22q-164 0 -315.5 55.5t-274.5 158.5t-205 244q-123 212 -123 460q0 164 55.5 315.5t158.5 274.5t244 205q212 123 460 123q164 0 315.5 -55.5t274.5 -158.5t205 -244q123 -211 123 -460q0 -164 -55.5 -315.5t-158.5 -274.5t-244 -205q-211 -123 -460 -123z
M1024 1678q-212 0 -392 -105t-285 -285t-105 -392t105 -392t285 -285t392 -105t392 105t285 285t105 392q0 324 -229 553t-553 229zM858 1083q0 -41 -14 -76.5t-38.5 -56t-53.5 -20.5t-53.5 20.5t-38.5 56t-14 76.5t14 76.5t38.5 56t53.5 20.5q44 0 75 -45q31 -44 31 -108z
M1402 1083q0 -41 -14 -76.5t-38.5 -56t-53.5 -20.5t-53.5 20.5t-38.5 56t-14 76.5t14 76.5t38.5 56t53.5 20.5q43 0 75 -45q31 -44 31 -108zM1024 534q-46 0 -91 -6t-79 -15q-38 -11 -60 -19q-47 -17 -106 -62q-8 -8 -16 -8q-12 0 -20.5 9t-5.5 19q5 15 15 35q13 25 43 61.5
t66 66.5q42 35 110.5 58t143.5 23q205 0 326 -155q50 -63 50 -93q0 -14 -10 -18q-4 -4 -13 -4t-20 9q-28 23 -56 37q-46 24 -107 41q-31 9 -77 15q-45 6 -93 6z" />
    <glyph glyph-name="uniF431" unicode="&#xf431;" 
d="M1024 1814q164 0 315.5 -55.5t274.5 -158.5t205 -244q123 -211 123 -460q0 -164 -55.5 -315.5t-158.5 -274.5t-244 -205q-211 -123 -460 -123q-164 0 -315.5 55.5t-274.5 158.5t-205 244q-123 212 -123 460q0 164 55.5 315.5t158.5 274.5t244 205q212 123 460 123z
M752 1236q-29 0 -53.5 -20.5t-38.5 -56t-14 -76.5t14 -76.5t38.5 -56t53.5 -20.5t53.5 20.5t38.5 56t14 76.5q0 64 -31 108q-31 45 -75 45zM1296 930q29 0 53.5 20.5t38.5 56t14 76.5t-14 76.5t-38.5 56t-53.5 20.5t-53.5 -20.5t-38.5 -56t-14 -76.5q0 -64 31 -108
q32 -45 75 -45zM1024 696q-205 0 -326 -155q-50 -63 -50 -93q0 -14 10 -18q6 -5 15 -5t15 7l27 21q117 81 309 81q95 0 149 -15q55 -15 82.5 -25t45.5 -21q18 -9 42 -29q23 -18 33 -18t14 4q12 7 12 18q0 12 -15 39q-13 25 -43 61.5t-66 66.5q-40 33 -108 57q-67 24 -146 24
z" />
    </font>
</defs>
</svg>
