<svg width="640" height="480" xmlns="http://www.w3.org/2000/svg" xmlns:svg="http://www.w3.org/2000/svg" xmlns:xlink="http://www.w3.org/1999/xlink">
    <!-- Created with SVG-edit - http://svg-edit.googlecode.com/ -->
    <defs>
        <symbol id="svg_2" viewBox="0 0 100 100" xmlns="http://www.w3.org/2000/svg" xmlns:xlink="http://www.w3.org/1999/xlink">
            <path id="svg_1" d="m66.4,71.1l-30,0c-1.7,0 -3,-1.3 -3,-3l0,-34c0,-1.7 1.3,-3 3,-3l30,0c1.7,0 3,1.3 3,3l0,34c0,1.6 -1.4,3 -3,3zm-29,-4l28,0l0,-32l-28,0l0,32z"/>
            <path id="svg_5" d="m73.4,64.1c-1.1,0 -2,-0.9 -2,-2l0,-33l-29,0c-1.1,0 -2,-0.9 -2,-2s0.9,-2 2,-2l29.6,0c1.6,0 3.4,1.2 3.4,3l0,34c0,1.1 -0.9,2 -2,2zm-1.5,-35l0,0l0,0z"/>
        </symbol>
    </defs>
    <g>
        <use x="0" y="0" id="svg_3" xlink:href="#svg_2" transform="matrix(1.7329104706787841,0,0,1.743880861122073,-394.63566547917975,-188.17699557971133) "/>
        <g id="svg_4"/>
    </g>
</svg>