<svg xmlns="http://www.w3.org/2000/svg" xmlns:xlink="http://www.w3.org/1999/xlink" preserveAspectRatio="xMidYMid" width="23" height="32" viewBox="0 0 23 32">
  <defs>
    <style>
      .cls-1 {
        fill: #4b6373;
        fill-rule: evenodd;
      }
    </style>
  </defs>
  <path d="M21.000,32.000 L2.000,32.000 C0.897,32.000 -0.000,31.103 -0.000,30.000 L-0.000,16.000 C-0.000,14.897 0.897,14.000 2.000,14.000 L3.000,14.000 L3.000,8.500 C3.000,3.813 6.813,-0.000 11.500,-0.000 C16.187,-0.000 20.000,3.813 20.000,8.500 L20.000,14.000 L21.000,14.000 C22.103,14.000 23.000,14.897 23.000,16.000 L23.000,30.000 C23.000,31.103 22.103,32.000 21.000,32.000 ZM2.000,31.000 L21.000,31.000 C21.551,31.000 22.000,30.551 22.000,30.000 L22.000,29.000 L1.000,29.000 L1.000,30.000 C1.000,30.551 1.448,31.000 2.000,31.000 ZM19.000,8.500 C19.000,4.364 15.635,1.000 11.500,1.000 C7.364,1.000 4.000,4.364 4.000,8.500 L4.000,14.000 L19.000,14.000 L19.000,8.500 ZM21.000,15.000 L2.000,15.000 C1.448,15.000 1.000,15.449 1.000,16.000 L1.000,28.000 L22.000,28.000 L22.000,16.000 C22.000,15.449 21.551,15.000 21.000,15.000 ZM3.000,25.000 L3.793,25.000 L5.793,23.000 L3.000,23.000 L3.000,22.000 L20.000,22.000 L20.000,23.000 L19.207,23.000 L17.207,25.000 L20.000,25.000 L20.000,26.000 L3.000,26.000 L3.000,25.000 ZM15.793,25.000 L17.793,23.000 L15.207,23.000 L13.207,25.000 L15.793,25.000 ZM11.793,25.000 L13.793,23.000 L11.207,23.000 L9.207,25.000 L11.793,25.000 ZM7.793,25.000 L9.793,23.000 L7.207,23.000 L5.207,25.000 L7.793,25.000 ZM13.000,17.000 L14.000,17.000 L14.000,18.000 L13.000,18.000 L13.000,17.000 ZM11.000,17.000 L12.000,17.000 L12.000,18.000 L11.000,18.000 L11.000,17.000 ZM9.000,17.000 L10.000,17.000 L10.000,18.000 L9.000,18.000 L9.000,17.000 ZM11.500,3.000 C14.533,3.000 17.000,5.467 17.000,8.500 L17.000,13.000 L16.000,13.000 L16.000,8.500 C16.000,6.018 13.981,4.000 11.500,4.000 C9.019,4.000 7.000,6.018 7.000,8.500 L7.000,13.000 L6.000,13.000 L6.000,8.500 C6.000,5.467 8.467,3.000 11.500,3.000 Z" class="cls-1"/>
</svg>
