<?xml version="1.0" encoding="utf-8"?>
<svg version="1.1" id="Layer_1" xmlns="http://www.w3.org/2000/svg" xmlns:xlink="http://www.w3.org/1999/xlink" x="0px" y="0px"
	 width="16px" height="16px" viewBox="0 0 16 16" enable-background="new 0 0 16 16" xml:space="preserve">
<path d="M7.433,1.807c0.83-0.07,1.66,0,2.423,0.208c2.489,0.761,4.359,3.044,4.359,5.813h1.658
	c0.07,0,0.141,0.07,0.07,0.139l-2.491,3.392c-0.07,0.068-0.138,0.068-0.138,0l-2.491-3.392c-0.07-0.069,0-0.208,0.066-0.208h1.663
	c0-1.799-1.108-3.321-2.697-4.014c-0.624-0.277-1.248-0.346-1.94-0.346c-0.969,0.069-1.8,0.415-2.491,0.969
	c-0.416,0.346-0.9,0.278-1.176-0.139c-0.277-0.346-0.208-0.83,0.138-1.106C5.217,2.429,6.324,1.944,7.433,1.807L7.433,1.807z
	 M10.616,11.564c-0.692,0.555-1.592,0.899-2.492,0.969c-0.691,0.068-1.315-0.069-1.938-0.345c-1.592-0.694-2.699-2.216-2.699-4.015
	h1.661c0.069,0,0.139-0.139,0.069-0.208l-2.56-3.321c-0.069-0.07-0.139-0.07-0.139,0L0.027,7.965c0,0.069,0,0.208,0.139,0.208h1.661
	c0,2.769,1.869,5.052,4.36,5.813c0.761,0.206,1.591,0.276,2.422,0.206c1.177-0.138,2.215-0.621,3.046-1.314
	c0.345-0.277,0.414-0.83,0.137-1.177C11.516,11.357,10.961,11.289,10.616,11.564L10.616,11.564z"/>
</svg>
