<svg xmlns="http://www.w3.org/2000/svg" xmlns:xlink="http://www.w3.org/1999/xlink" preserveAspectRatio="xMidYMid" width="27" height="27" viewBox="0 0 27 27">
  <defs>
    <style>
      .cls-1 {
        fill: #4b6373;
        fill-rule: evenodd;
      }
    </style>
  </defs>
  <path d="M13.500,26.999 C6.056,26.999 -0.000,20.943 -0.000,13.499 C-0.000,6.056 6.056,-0.000 13.500,-0.000 C20.944,-0.000 27.000,6.056 27.000,13.499 C27.000,20.943 20.944,26.999 13.500,26.999 ZM25.627,13.499 C25.627,10.403 24.450,7.582 22.533,5.437 L18.168,9.802 L22.235,13.497 L15.246,19.848 L15.246,16.206 L11.764,16.206 L5.437,22.532 C7.583,24.449 10.403,25.626 13.500,25.626 C20.187,25.626 25.627,20.186 25.627,13.499 ZM16.482,11.488 L16.482,12.036 L15.934,12.036 L13.012,14.958 L16.482,14.958 L16.482,17.046 L20.388,13.497 L17.288,10.682 L16.482,11.488 ZM13.992,12.036 L6.794,12.036 L6.794,14.958 L11.070,14.958 L13.992,12.036 ZM1.373,13.499 C1.373,16.596 2.549,19.416 4.466,21.562 L9.822,16.206 L5.559,16.206 L5.559,10.788 L15.240,10.788 L15.246,10.782 L15.246,7.147 L17.151,8.878 L21.563,4.466 C19.417,2.549 16.597,1.373 13.500,1.373 C6.813,1.373 1.373,6.813 1.373,13.499 Z" class="cls-1"/>
</svg>
