<svg xmlns="http://www.w3.org/2000/svg" xmlns:xlink="http://www.w3.org/1999/xlink" preserveAspectRatio="xMidYMid" width="30" height="30" viewBox="0 0 30 30">
  <path d="M14.490,29.714 L13.499,30.000 L12.508,29.714 C7.137,28.166 -0.003,25.036 -0.003,15.762 L-0.003,3.587 L4.077,4.214 C5.011,4.358 6.077,4.331 7.133,4.137 C8.752,3.840 10.206,3.190 11.025,2.399 L13.500,0.008 L15.973,2.399 C16.792,3.191 18.246,3.841 19.863,4.137 C20.920,4.331 21.985,4.358 22.921,4.214 L27.000,3.588 L27.000,15.762 C27.000,25.037 19.860,28.166 14.490,29.714 ZM25.763,5.013 L23.111,5.420 C22.037,5.585 20.831,5.556 19.637,5.337 C17.788,4.998 16.095,4.226 15.107,3.271 L13.499,1.716 L11.891,3.271 C10.903,4.225 9.210,4.997 7.360,5.337 C6.167,5.556 4.960,5.585 3.887,5.420 L1.234,5.012 L1.234,15.762 C1.234,24.216 7.866,27.105 12.854,28.542 L13.499,28.728 L14.143,28.542 C19.131,27.105 25.763,24.216 25.763,15.762 L25.763,5.013 ZM13.797,27.371 L13.498,27.457 L13.202,27.371 C3.691,24.630 2.471,19.727 2.471,15.762 L2.471,6.438 L3.696,6.626 C4.903,6.812 6.252,6.781 7.586,6.537 C9.698,6.149 11.583,5.276 12.756,4.143 L13.499,3.425 L14.242,4.143 C15.414,5.277 17.299,6.149 19.411,6.537 C20.747,6.781 22.097,6.812 23.301,6.626 L24.526,6.438 L24.526,15.762 C24.526,23.311 18.792,25.931 13.797,27.371 ZM12.941,5.558 C11.611,6.581 9.810,7.370 7.812,7.736 C6.414,7.993 4.999,8.035 3.708,7.861 L3.708,15.762 C3.708,19.214 4.792,23.467 12.941,26.007 L12.941,22.018 C9.678,21.734 7.102,19.054 7.102,15.762 C7.102,12.470 9.678,9.790 12.941,9.505 L12.941,5.558 ZM13.499,10.670 C10.653,10.670 8.339,12.954 8.339,15.762 C8.339,18.570 10.653,20.854 13.499,20.854 C16.344,20.854 18.659,18.570 18.659,15.762 C18.659,12.954 16.344,10.670 13.499,10.670 ZM23.290,7.861 C22.000,8.035 20.585,7.993 19.186,7.737 C17.248,7.381 15.496,6.629 14.178,5.652 L14.178,9.518 C17.382,9.857 19.895,12.511 19.895,15.762 C19.895,19.013 17.382,21.667 14.178,22.006 L14.178,25.980 C18.570,24.615 23.290,22.146 23.290,15.762 L23.290,7.861 ZM14.178,19.072 L14.178,19.752 L12.941,19.752 L12.941,19.096 C12.126,19.015 11.481,18.357 11.481,17.532 L11.481,17.218 L12.717,17.218 L12.717,17.532 C12.717,17.739 12.888,17.907 13.098,17.907 L13.900,17.907 C14.109,17.907 14.280,17.739 14.280,17.532 L14.280,16.861 C14.274,16.841 14.215,16.745 14.032,16.622 L12.641,16.094 L12.645,16.085 L12.333,15.964 C11.628,15.523 11.481,15.023 11.481,14.681 L11.481,14.010 C11.481,13.185 12.126,12.527 12.941,12.445 L12.941,11.675 L14.178,11.675 L14.178,12.469 C14.932,12.604 15.516,13.227 15.516,14.010 L15.516,14.323 L14.280,14.323 L14.280,14.010 C14.280,13.803 14.109,13.634 13.900,13.634 L13.098,13.634 C12.888,13.634 12.717,13.803 12.717,14.010 L12.717,14.681 C12.718,14.681 12.745,14.766 12.947,14.903 L13.086,14.955 L13.086,14.955 L13.098,14.960 L14.408,15.454 L14.403,15.466 L14.647,15.561 C15.366,16.011 15.516,16.516 15.516,16.861 L15.516,17.532 C15.516,18.315 14.932,18.937 14.178,19.072 Z"/>
</svg>
