<?xml version="1.0" encoding="utf-8"?>
<svg version="1.1" id="Layer_1" xmlns="http://www.w3.org/2000/svg" xmlns:xlink="http://www.w3.org/1999/xlink" x="0px" y="0px"
	 width="16px" height="16px" viewBox="0 0 16 16" enable-background="new 0 0 16 16" xml:space="preserve">
<path d="M8,14.803c-1.21,0-2.419-0.226-3.553-0.756l-4.385,1.135l1.134-3.78C0.44,10.267,0.062,9.059,0.062,7.772
	c0-3.855,3.553-6.954,7.938-6.954c4.385,0,7.938,3.099,7.938,6.954C15.938,11.629,12.385,14.803,8,14.803z M8,2.103
	c-3.704,0-6.653,2.57-6.653,5.669c0,1.06,0.378,2.194,1.059,3.1l0.152,0.227l-0.605,2.268l2.646-0.679l0.227,0.076
	c0.982,0.453,2.116,0.68,3.25,0.68c3.702,0,6.653-2.571,6.653-5.671C14.729,4.673,11.703,2.103,8,2.103z M10.268,7.168h1.361v1.285
	h-1.361V7.168z M7.32,7.168h1.36v1.285H7.32V7.168z M4.371,7.168h1.361v1.285H4.371V7.168z"/>
</svg>
