<?xml version="1.0" encoding="UTF-8"?><svg xmlns="http://www.w3.org/2000/svg" xmlns:xlink="http://www.w3.org/1999/xlink" version="1.1" id="Layer_1" x="0px" y="0px" viewBox="0 0 64 64" xml:space="preserve"><path d="M51 52H13C5.8 52 0 46.2 0 39c0-6.5 4.8-12 11.1-12.9C12 19.8 17.5 15 24 15c1 0 2 .1 3 .4 2.9-4 7.6-6.4 12.5-6.4 7 0 13.2 4.7 15 11.5.3 1.1-.3 2.2-1.4 2.4-1.1.3-2.2-.3-2.4-1.4-1.3-5-5.9-8.5-11.1-8.5-4.1 0-7.9 2.2-9.9 5.7-.5.8-1.5 1.2-2.4.9-1-.4-2.1-.6-3.1-.6-5 0-9 4-9 9 0 1.1-.9 2-2 2-5 0-9 4-9 9s4 9 9 9h38c5 0 9-4 9-9 0-4.5-3.3-8.3-7.8-8.9-1.1-.2-1.9-1.2-1.7-2.3.2-1.1 1.2-1.9 2.3-1.7 6.2.9 11 6.4 11 12.9 0 7.2-5.8 13-13 13z"/><path d="M30 28h-9c-1.1 0-2-.9-2-2s.9-2 2-2h9c1.1 0 2 .9 2 2s-.9 2-2 2z"/><path d="M46 36H21c-1.1 0-2-.9-2-2s.9-2 2-2h25c1.1 0 2 .9 2 2s-.9 2-2 2z"/><path d="M39 44H21c-1.1 0-2-.9-2-2s.9-2 2-2h18c1.1 0 2 .9 2 2s-.9 2-2 2z"/><path d="M38 28h-1c-1.1 0-2-.9-2-2s.9-2 2-2h1c1.1 0 2 .9 2 2s-.9 2-2 2z"/><metadata><rdf:RDF xmlns:rdf="http://www.w3.org/1999/02/22-rdf-syntax-ns#" xmlns:rdfs="http://www.w3.org/2000/01/rdf-schema#" xmlns:dc="http://purl.org/dc/elements/1.1/"><rdf:Description about="https://iconscout.com/legal#licenses" dc:title="digital,analytic-" dc:description="digital,analytic-" dc:publisher="Iconscout" dc:date="2018-03-23" dc:format="image/svg+xml" dc:language="en"><dc:creator><rdf:Bag><rdf:li>Irvan Kurnianto Rhomadhani</rdf:li></rdf:Bag></dc:creator></rdf:Description></rdf:RDF></metadata></svg>