<?xml version="1.0" encoding="utf-8"?>
<svg version="1.1" id="Layer_1" xmlns="http://www.w3.org/2000/svg" xmlns:xlink="http://www.w3.org/1999/xlink" x="0px" y="0px"
	 viewBox="0 0 23 23" style="enable-background:new 0 0 23 23;" xml:space="preserve">
<path d="M21.5,13.1v-2.8L19,10.1c-0.2-0.9-0.5-1.8-1-2.6l1.7-2l-2-2l-1.9,1.6c-0.7-0.5-1.6-0.9-2.5-1.1l-0.2-2.6h-2.8
	L10.1,4C9.1,4.2,8.3,4.5,7.5,5l-2-1.7l-2,2l1.6,1.9C4.7,8,4.3,8.8,4.1,9.7L1.5,9.9l0,2.8L4,12.9c0.2,0.9,0.5,1.8,1,2.6l-1.7,2l2,2
	l1.9-1.6c0.7,0.5,1.6,0.9,2.5,1.1l0.2,2.6h2.8l0.2-2.5c0.9-0.2,1.8-0.5,2.5-1l2,1.7l2-2l-1.6-1.9c0.5-0.7,0.9-1.6,1.1-2.5L21.5,13.1
	z M11.5,16.5c-2.8,0-5-2.3-5-5s2.3-5,5-5c2.8,0,5,2.3,5,5S14.3,16.5,11.5,16.5z"/>
</svg>
