<?xml version="1.0" encoding="utf-8"?>
<svg version="1.1" id="Layer_1" xmlns="http://www.w3.org/2000/svg" xmlns:xlink="http://www.w3.org/1999/xlink" x="0px" y="0px"
	 width="16px" height="16px" viewBox="0 0 16 16" enable-background="new 0 0 16 16" xml:space="preserve">
<path d="M15.967,3.068c-0.608,0.228-1.215,0.455-1.897,0.531c0.683-0.38,1.214-1.063,1.441-1.821
	c-0.606,0.38-1.364,0.607-2.048,0.759c-0.607-0.607-1.441-0.986-2.428-0.986c-1.821,0-3.263,1.441-3.263,3.263
	c0,0.228,0,0.53,0.075,0.758C5.192,5.419,2.765,4.13,1.171,2.158C0.868,2.612,0.716,3.22,0.716,3.827
	c0,1.138,0.607,2.124,1.442,2.73c-0.531,0-1.063-0.151-1.518-0.379c0,0,0,0,0,0.075c0,1.594,1.138,2.884,2.655,3.188
	c-0.304,0.075-0.531,0.15-0.834,0.15c-0.229,0-0.38,0-0.607-0.075c0.379,1.291,1.594,2.201,3.034,2.275
	c-1.138,0.684-2.579,1.216-4.096,1.216c-0.229,0-0.532,0-0.76-0.078c1.442,0.987,3.187,1.52,5.007,1.52
	c5.995,0,9.333-4.933,9.333-9.257c0-0.151,0-0.303,0-0.455C14.98,4.281,15.511,3.751,15.967,3.068L15.967,3.068z"/>
</svg>
