<?xml version="1.0" encoding="utf-8"?>
<svg version="1.1" id="Layer_1" xmlns="http://www.w3.org/2000/svg" xmlns:xlink="http://www.w3.org/1999/xlink" x="0px" y="0px"
	 width="16px" height="16px" viewBox="0 0 16 16" enable-background="new 0 0 16 16" xml:space="preserve">
<g>
	<rect x="0.041" y="7.241" width="1.516" height="1.519"/>
	<rect x="0.041" y="1.936" width="1.516" height="1.516"/>
	<rect x="0.041" y="12.549" width="1.516" height="1.518"/>
	<polygon points="9.895,11.791 8.38,11.791 8.38,12.549 2.315,12.549 2.315,14.066 8.304,14.066 8.304,14.822
		9.895,14.822 9.895,14.066 13.686,14.066 13.686,12.549 9.895,12.549 	"/>
	<rect x="14.445" y="1.936" width="1.514" height="1.516"/>
	<rect x="14.445" y="7.241" width="1.514" height="1.519"/>
	<rect x="14.445" y="12.549" width="1.514" height="1.518"/>
	<polygon points="10.654,6.485 9.137,6.485 9.137,7.241 2.315,7.241 2.315,8.76 9.137,8.76 9.137,9.516
		10.654,9.516 10.654,8.76 13.686,8.76 13.686,7.241 10.654,7.241 	"/>
	<polygon points="5.346,1.178 3.831,1.178 3.831,1.936 2.315,1.936 2.315,3.452 3.831,3.452 3.831,4.21 5.346,4.21
		5.346,3.452 13.686,3.452 13.686,1.936 5.346,1.936 	"/>
</g>
</svg>
