<?xml version="1.0" encoding="utf-8"?>
<svg version="1.1" id="Layer_1" xmlns="http://www.w3.org/2000/svg" xmlns:xlink="http://www.w3.org/1999/xlink" x="0px" y="0px"
	 width="30px" height="30px" viewBox="0.14 841.476 30 30" enable-background="new 0.14 841.476 30 30" xml:space="preserve">
<g id="ali">
	<g>
		<path fill="#ca8616" d="M4.395,863.426c-0.152-0.053-0.293-0.152-0.414-0.295c-1.187-1.671,0.337-3.608,2.065-4.72v-3.163
			c0.415,0.331,0.62,0.369,0.645,0.448l1.341-1.93l-0.439-1.635c3.901-1.983,5.477-2.727,8.652-3.507l-0.568-0.78l0.953-0.765
			c2.117,1.055,4.132,1.304,3.77,3.901c0.102-1.744-1.393-2.414-3.719-3.38l-0.44,0.412l0.854,1
			c-3.044,0.759-6.033,1.915-8.931,3.456l0.388,1.412l-1.396,2.009c1.776,0.76,3.695,0.277,5.187-1.304
			c0.028,0,0.05-0.033,0.051-0.072c-0.126-0.237-0.274-0.451-0.44-0.633c0.672,0.086,1.168,0.938,1.108,1.903
			c-0.002,0.035-0.005,0.071-0.009,0.105h-0.337c0.053-0.306,0.021-0.629-0.088-0.902c-1.764,1.933-4.084,2.461-6.176,1.402v2.453
			c-0.923,0.484-2.626,1.945-2.601,3.422C3.868,862.769,4.077,863.217,4.395,863.426z"/>
		<path fill="#f8a51b" d="M12.348,862.784c-2.118,1.58-4.128,2.784-7.228,2.974c-4.029-0.11-4.67-4.014-2.762-8.1
			c1.806-4.124,4.67-7.804,9.224-10.145c1.654-0.877,3.393-1.378,5.154-1.487c2.71-0.037,5.319,1.19,5.161,4.94
			c-0.103,2.863-2.967,6.913-4.455,9.823c-0.645,1.267-0.732,2.084,0.337,2.01c4-0.368,7.616-2.38,10.971-4.461
			c-2.271,2.23-14.02,10.704-14.07,4.905c0.069-0.832,0.282-1.624,0.619-2.306c0.442-0.9,0.925-1.757,1.447-2.564
			c0.798-1.338,2.787-4.496,3.432-6.425c1.136-3.604-1.396-3.793-3.535-4.904l-0.968,0.801l0.568,0.78
			c-3.176,0.78-4.762,1.523-8.649,3.49l0.439,1.634l-1.34,1.932c-0.026-0.075-0.231-0.112-0.645-0.448v3.164
			c-1.732,1.116-3.26,3.053-2.069,4.724c0.12,0.146,0.261,0.25,0.414,0.306l0,0c2.143,1.746,7.949-0.632,7.949-0.632L12.348,862.784
			z"/>
	</g>
</g>
</svg>
