<svg xmlns="http://www.w3.org/2000/svg" xmlns:xlink="http://www.w3.org/1999/xlink" preserveAspectRatio="xMidYMid" width="32" height="28" viewBox="0 0 32 28">
  <defs>
    <style>
      .cls-1 {
        fill: #4b6373;
        fill-rule: evenodd;
      }
    </style>
  </defs>
  <path d="M29.000,17.000 L30.000,17.000 L30.000,18.000 L29.000,18.000 L29.000,17.000 ZM30.000,22.000 L29.000,22.000 L29.000,21.000 L30.000,21.000 L30.000,22.000 ZM29.000,19.000 L30.000,19.000 L30.000,20.000 L29.000,20.000 L29.000,19.000 ZM30.500,28.000 L20.500,28.000 C19.673,28.000 19.000,27.327 19.000,26.500 L19.000,14.000 L20.000,14.000 L20.000,23.000 L31.000,23.000 L31.000,7.500 C31.000,7.224 30.776,7.000 30.500,7.000 L20.500,7.000 C20.224,7.000 20.000,7.224 20.000,7.500 L20.000,9.000 L19.000,9.000 L19.000,7.500 C19.000,6.673 19.673,6.000 20.500,6.000 L30.500,6.000 C31.327,6.000 32.000,6.673 32.000,7.500 L32.000,26.500 C32.000,27.327 31.327,28.000 30.500,28.000 ZM31.000,24.000 L20.000,24.000 L20.000,26.500 C20.000,26.776 20.224,27.000 20.500,27.000 L30.500,27.000 C30.776,27.000 31.000,26.776 31.000,26.500 L31.000,24.000 ZM24.500,25.000 L26.500,25.000 L26.500,26.000 L24.500,26.000 L24.500,25.000 ZM13.500,20.000 L13.500,21.000 L12.500,21.000 L12.500,20.000 L13.500,20.000 ZM13.000,7.000 L12.000,7.000 L12.000,6.000 L13.000,6.000 L13.000,7.000 ZM12.000,4.000 L13.000,4.000 L13.000,5.000 L12.000,5.000 L12.000,4.000 ZM11.000,7.000 L10.000,7.000 L10.000,6.000 L11.000,6.000 L11.000,7.000 ZM10.000,4.000 L11.000,4.000 L11.000,5.000 L10.000,5.000 L10.000,4.000 ZM8.000,4.000 L9.000,4.000 L9.000,5.000 L8.000,5.000 L8.000,4.000 ZM9.000,9.000 L8.000,9.000 L8.000,8.000 L9.000,8.000 L9.000,9.000 ZM8.000,6.000 L9.000,6.000 L9.000,7.000 L8.000,7.000 L8.000,6.000 ZM6.000,4.000 L7.000,4.000 L7.000,5.000 L6.000,5.000 L6.000,4.000 ZM6.000,6.000 L7.000,6.000 L7.000,7.000 L6.000,7.000 L6.000,6.000 ZM7.000,11.000 L6.000,11.000 L6.000,10.000 L7.000,10.000 L7.000,11.000 ZM6.000,8.000 L7.000,8.000 L7.000,9.000 L6.000,9.000 L6.000,8.000 ZM4.000,4.000 L5.000,4.000 L5.000,5.000 L4.000,5.000 L4.000,4.000 ZM4.000,6.000 L5.000,6.000 L5.000,7.000 L4.000,7.000 L4.000,6.000 ZM5.000,11.000 L4.000,11.000 L4.000,10.000 L5.000,10.000 L5.000,11.000 ZM4.000,8.000 L5.000,8.000 L5.000,9.000 L4.000,9.000 L4.000,8.000 ZM2.000,17.000 L2.000,2.000 L26.000,2.000 L26.000,3.000 L3.000,3.000 L3.000,17.000 L2.000,17.000 ZM22.000,11.000 L13.707,11.000 L14.353,11.646 C14.549,11.842 14.549,12.158 14.353,12.353 C14.256,12.451 14.128,12.500 14.000,12.500 C13.872,12.500 13.744,12.451 13.646,12.353 L11.793,10.500 L13.646,8.646 C13.842,8.451 14.158,8.451 14.353,8.646 C14.549,8.842 14.549,9.158 14.353,9.353 L13.707,10.000 L22.000,10.000 L22.000,11.000 ZM27.000,17.000 L28.000,17.000 L28.000,18.000 L27.000,18.000 L27.000,17.000 ZM28.000,22.000 L27.000,22.000 L27.000,21.000 L28.000,21.000 L28.000,22.000 ZM27.000,19.000 L28.000,19.000 L28.000,20.000 L27.000,20.000 L27.000,19.000 ZM25.000,17.000 L26.000,17.000 L26.000,18.000 L25.000,18.000 L25.000,17.000 ZM26.000,22.000 L25.000,22.000 L25.000,21.000 L26.000,21.000 L26.000,22.000 ZM25.000,19.000 L26.000,19.000 L26.000,20.000 L25.000,20.000 L25.000,19.000 ZM24.000,22.000 L23.000,22.000 L23.000,21.000 L24.000,21.000 L24.000,22.000 ZM23.000,19.000 L24.000,19.000 L24.000,20.000 L23.000,20.000 L23.000,19.000 ZM16.000,12.000 L25.793,12.000 L25.146,11.353 C24.951,11.158 24.951,10.842 25.146,10.646 C25.342,10.451 25.658,10.451 25.853,10.646 L27.353,12.146 C27.549,12.342 27.549,12.658 27.353,12.853 L25.853,14.353 C25.756,14.451 25.628,14.500 25.500,14.500 C25.372,14.500 25.244,14.451 25.146,14.353 C24.951,14.158 24.951,13.842 25.146,13.646 L25.793,13.000 L16.000,13.000 L16.000,12.000 ZM22.000,22.000 L21.000,22.000 L21.000,21.000 L22.000,21.000 L22.000,22.000 ZM21.000,19.000 L22.000,19.000 L22.000,20.000 L21.000,20.000 L21.000,19.000 ZM27.000,2.000 C27.000,1.448 26.551,1.000 26.000,1.000 L2.000,1.000 C1.448,1.000 1.000,1.448 1.000,2.000 L1.000,18.000 L18.000,18.000 L18.000,19.000 L1.000,19.000 L1.000,21.000 C1.000,21.551 1.448,22.000 2.000,22.000 L18.000,22.000 L18.000,23.000 L17.000,23.000 L17.000,27.000 L18.000,27.000 L18.000,28.000 L8.000,28.000 L8.000,27.000 L9.000,27.000 L9.000,23.000 L2.000,23.000 C0.897,23.000 -0.000,22.103 -0.000,21.000 L-0.000,2.000 C-0.000,0.897 0.897,-0.000 2.000,-0.000 L26.000,-0.000 C27.103,-0.000 28.000,0.897 28.000,2.000 L28.000,5.000 L27.000,5.000 L27.000,2.000 ZM10.000,27.000 L16.000,27.000 L16.000,23.000 L10.000,23.000 L10.000,27.000 Z" class="cls-1"/>
</svg>
