<?xml version="1.0" encoding="utf-8"?>
<svg version="1.1" id="Layer_1" xmlns="http://www.w3.org/2000/svg" xmlns:xlink="http://www.w3.org/1999/xlink" x="0px" y="0px"
	 width="16px" height="16px" viewBox="0 0 16 16" enable-background="new 0 0 16 16" xml:space="preserve">
<path d="M7.818,12.54h0.928c0,0,0.265,0,0.465-0.198c0.132-0.135,0.132-0.399,0.132-0.399s0-1.259,0.596-1.459
	c0.599-0.196,1.325,1.263,2.123,1.79c0.598,0.399,1.06,0.334,1.06,0.334h2.123c0,0,1.128-0.067,0.599-0.93
	c-0.068-0.066-0.333-0.662-1.594-1.856c-1.326-1.26-1.128-1.062,0.466-3.183c0.995-1.327,1.392-2.123,1.259-2.455
	c-0.131-0.332-0.862-0.265-0.862-0.265h-2.386c0,0-0.199,0-0.332,0.066c-0.133,0.066-0.199,0.265-0.199,0.265
	s-0.399,0.929-0.931,1.791c-1.058,1.856-1.523,1.924-1.656,1.791C9.212,7.566,9.277,6.77,9.277,6.239
	c0-1.791,0.266-2.52-0.531-2.719C8.481,3.454,8.349,3.388,7.685,3.388c-0.861,0-1.591,0-1.988,0.198
	C5.365,3.72,5.166,4.051,5.298,4.051c0.133,0,0.531,0.066,0.73,0.332C6.293,4.715,6.293,5.51,6.293,5.51s0.133,2.123-0.332,2.321
	C5.63,8.03,5.166,7.698,4.237,6.041c-0.53-0.862-0.862-1.857-0.862-1.857S3.309,4.051,3.176,3.919
	C2.978,3.852,2.778,3.786,2.778,3.786H0.524c0,0-0.332,0-0.465,0.133c-0.132,0.132,0,0.398,0,0.398s1.791,4.244,3.78,6.366
	C5.697,12.673,7.818,12.54,7.818,12.54"/>
</svg>
