<?xml version="1.0" encoding="utf-8"?>
<svg version="1.1" id="Layer_1" xmlns="http://www.w3.org/2000/svg" xmlns:xlink="http://www.w3.org/1999/xlink" x="0px" y="0px"
	 width="16px" height="16px" viewBox="0 0 16 16" enable-background="new 0 0 16 16" xml:space="preserve">
<path d="M8,15.961c-4.357,0-7.961-3.604-7.961-7.961S3.643,0.039,8,0.039c4.356,0,7.961,3.604,7.961,7.961
	S12.356,15.961,8,15.961z M8,1.464C4.396,1.464,1.464,4.396,1.464,8S4.396,14.535,8,14.535S14.535,11.604,14.535,8
	S11.604,1.464,8,1.464z M8.754,9.508v0.922H7.246V8.755c0-0.419,0.335-0.672,0.67-0.672c0.838,0,1.509-0.503,1.676-1.341
	c0.084-0.838-0.587-1.675-1.424-1.759c-0.839-0.084-1.676,0.586-1.76,1.424H4.816c0-1.508,1.005-2.765,2.43-3.1
	c1.676-0.419,3.436,0.669,3.854,2.346C11.52,7.329,10.514,9.006,8.754,9.508z M8.754,12.775H7.246v-1.592h1.592v1.592H8.754z"/>
</svg>
