<?xml version="1.0" encoding="utf-8"?>
<svg version="1.1" id="Layer_1" xmlns="http://www.w3.org/2000/svg" xmlns:xlink="http://www.w3.org/1999/xlink" x="0px" y="0px"
	 viewBox="0 0 21 18" style="enable-background:new 0 0 21 18;" xml:space="preserve">
<g>
	<rect y="8" class="st0" width="2" height="2"/>
	<rect y="1" class="st0" width="2" height="2"/>
	<rect y="15" class="st0" width="2" height="2"/>
	<polygon class="st0" points="13,14 11,14 11,15 3,15 3,17 10.9,17 10.9,18 13,18 13,17 18,17 18,15 13,15 	"/>
	<rect x="19" y="1" class="st0" width="2" height="2"/>
	<rect x="19" y="8" class="st0" width="2" height="2"/>
	<rect x="19" y="15" class="st0" width="2" height="2"/>
	<polygon class="st0" points="14,7 12,7 12,8 3,8 3,10 12,10 12,11 14,11 14,10 18,10 18,8 14,8 	"/>
	<polygon class="st0" points="7,0 5,0 5,1 3,1 3,3 5,3 5,4 7,4 7,3 18,3 18,1 7,1 	"/>
</g>
</svg>
