<svg width="640" height="480" xmlns="http://www.w3.org/2000/svg" xmlns:xlink="http://www.w3.org/1999/xlink">
	<defs>
		<pattern height="100" width="100" y="0" x="0" patternUnits="userSpaceOnUse" id="gridpattern">
			<image height="100" width="100" y="0" x="0"/>
		</pattern>
		<symbol viewBox="0 0 485.213 485.213" height="485.213px" width="485.213px" y="0px" x="0px" id="svg_12" xmlns:xlink="http://www.w3.org/1999/xlink" xmlns="http://www.w3.org/2000/svg">
			<g>
				<g>
					<path d="m471.882,407.567l-111.315,-111.324c-16.586,25.795 -38.536,47.734 -64.331,64.321l111.324,111.324c17.772,17.768 46.587,17.768 64.321,0c17.773,-17.739 17.773,-46.554 0.001,-64.321z"/>
					<path d="m363.909,181.955c0,-100.482 -81.469,-181.955 -181.953,-181.955c-100.482,0 -181.955,81.473 -181.955,181.955s81.473,181.951 181.955,181.951c100.484,0 181.953,-81.469 181.953,-181.951zm-181.953,136.461c-75.252,0 -136.465,-61.208 -136.465,-136.46c0,-75.252 61.213,-136.465 136.465,-136.465c75.25,0 136.468,61.213 136.468,136.465c0,75.252 -61.218,136.46 -136.468,136.46z"/>
					<path d="m75.817,181.955l30.322,0c0,-41.803 34.014,-75.814 75.816,-75.814l0,-30.325c-58.517,0 -106.138,47.621 -106.138,106.139z"/>
				</g>
			</g>
		</symbol>
	</defs>
	<g>
		<use x="0" y="0" transform="matrix(0.9004362126682954,0,0,0.8899498895928537,-55.37277375114228,23.321417545109107) " xlink:href="#svg_12" id="svg_13"/>
	</g>
</svg>