<?xml version="1.0" encoding="UTF-8"?>
<svg width="262px" height="104px" viewBox="0 0 262 104" version="1.1" xmlns="http://www.w3.org/2000/svg" xmlns:xlink="http://www.w3.org/1999/xlink">
    <!-- Generator: Sketch 46.2 (44496) - http://www.bohemiancoding.com/sketch -->
    <title>Logo white Pro@3x</title>
    <desc>Created with Sketch.</desc>
    <defs></defs>
    <g id="Symbols" stroke="none" stroke-width="1" fill="none" fill-rule="evenodd">
        <g id="Logo-white-Pro">
            <g id="Logo-3">
                <path d="M38.448,70 L35.496,63.664 L15.624,63.664 L12.672,70 L0.072,70 L0.072,68.128 L22.752,18.952 L28.296,18.952 L51.048,68.128 L51.048,70 L38.448,70 Z M31.32,52.648 L25.488,39.4 L19.8,52.648 L31.32,52.648 Z M82.08,41.344 L62.352,19.456 L57.6,19.456 L57.6,70 L70.776,70 L70.776,47.536 L81.432,58.768 L82.872,58.768 L93.6,47.536 L93.6,70 L106.776,70 L106.776,19.456 L102.168,19.456 L82.08,41.344 Z M154.872,19.6 L116.712,19.6 L116.712,31.12 L135.432,31.12 L114.84,68.056 L114.84,70 L148.310819,70 L155.088,58.48 L134.208,58.48 L154.872,21.544 L154.872,19.6 Z" id="AMZ-Copy" fill="#FFFFFF"></path>
                <path d="M227.724988,26.9188122 L221.778491,-5.32907052e-14 L183.61493,11.9701891 L196.636132,19.1255725 L168,70.6682305 L192.591483,70.6682305 L208.514028,41.7028535 L198.367243,36.1270135 L227.724988,26.9188122 Z" id="Combined-Shape" fill="#FCBD2B"></path>
                <path d="M227.7939,27.035835 L253.413886,19 L261.714394,56.5750334 L249.122806,49.6574754 L237.486687,70.6775765 L210,70.6775765 L210.00492,70.6688112 L213.645588,70.6688112 L224.397804,50.6891009 L234.209813,56.0796151 L227.7939,27.035835 Z" id="Combined-Shape" fill="#FF8E12"></path>
            </g>
            <path d="M30.4017753,95.4075 L24.0007753,95.4075 C23.8527753,106.8035 44.9427753,106.5075 44.9427753,95.6295 C44.9427753,89.1545 39.9107753,88.4885 34.7677753,87.9335 C32.4367753,87.6745 30.5127753,87.2675 30.6607753,85.3065 C30.8827753,82.2355 37.8387753,81.9395 37.8387753,85.3805 L44.1287753,85.3805 C44.2767753,74.2065 24.1487753,74.2065 24.3707753,85.3805 C24.4447753,91.0045 28.1447753,92.9285 33.7687753,93.3355 C36.3587753,93.4835 38.5047753,93.7795 38.5047753,95.5925 C38.5047753,98.6265 30.4017753,98.7005 30.4017753,95.4075 Z M47.8090295,90.3755 C47.8460295,99.1815 54.5060295,103.6215 61.0920295,103.5845 C66.6050295,103.5845 72.4140295,100.6985 73.3760295,93.3725 L66.8640295,93.3725 C66.1610295,96.1475 63.9040295,97.5535 61.0920295,97.5535 C57.1700295,97.5165 54.6540295,94.1865 54.6540295,90.3755 C54.6540295,86.0835 57.2070295,83.1605 61.0920295,83.1605 C63.8670295,83.1605 65.8280295,84.3445 66.7530295,86.9715 L73.2650295,86.9715 C72.2660295,80.0525 66.4570295,77.1295 61.0920295,77.1295 C54.5060295,77.1295 47.8460295,81.5695 47.8090295,90.3755 Z M115.868775,97.7385 C113.944775,97.7385 111.909775,96.7025 111.909775,94.5935 L111.909775,77.4255 L105.582775,77.4255 L105.582775,94.7045 C105.582775,100.4025 110.577775,103.6955 115.868775,103.6955 C121.196775,103.6955 126.191775,100.4025 126.191775,94.7045 L126.191775,77.4255 L119.790775,77.4255 L119.790775,94.5935 C119.790775,96.7025 117.792775,97.7385 115.868775,97.7385 Z M135.366775,83.3455 L135.366775,103.3255 L141.915775,103.3255 L141.915775,83.3455 L148.242775,83.3455 L148.242775,77.4255 L129.002775,77.4255 L129.002775,83.3455 L135.366775,83.3455 Z" id="scout-copy-2" fill="#FF8E12"></path>
            <path d="M102.566,90.431 C102.566,72.523 76,72.523 76,90.431 C76,108.376 102.566,108.376 102.566,90.431 Z M82.808,90.431 C82.808,81.107 95.795,81.107 95.795,90.431 C95.795,99.829 82.808,99.829 82.808,90.431 Z" id="Combined-Shape" fill="#FF8E12"></path>
            <rect id="Rectangle-Copy" fill="#FF3100" x="167" y="76" width="75" height="28" rx="8"></rect>
            <path d="M180.182243,97.6549708 L176,97.6549708 L176,81.2807018 L183.196262,81.2807018 C191.023364,81.3040936 191.023364,93.4678363 183.196262,93.4678363 L180.182243,93.4678363 L180.182243,97.6549708 Z M183.172897,89.7017544 C185.462617,89.7017544 185.602804,85.0467836 183.172897,85.0233918 C182.191589,85 181.140187,85.0233918 180.182243,85.0233918 L180.182243,89.7017544 L183.172897,89.7017544 Z M208.663551,91.8538012 L211.864486,97.0467836 L211.864486,97.6549708 L207.191589,97.6549708 L204.38785,92.8362573 L202.214953,92.8362573 L202.214953,97.6549708 L198.03271,97.6549708 L198.03271,81.2807018 L205.205607,81.2807018 C211.630841,81.3040936 212.799065,89.0467836 208.663551,91.8538012 Z M205.205607,89.1169591 C207.471963,89.1169591 207.588785,85.0467836 205.205607,85.0233918 C204.224299,85 203.196262,85.0233918 202.214953,85.0233918 L202.214953,89.1169591 L205.205607,89.1169591 Z M236,89.4912281 C236,78.1695906 219.224299,78.1695906 219.224299,89.4912281 C219.224299,100.836257 236,100.836257 236,89.4912281 Z M223.523364,89.4912281 C223.523364,95.4327485 231.724299,95.4327485 231.724299,89.4912281 C231.724299,83.5964912 223.523364,83.5964912 223.523364,89.4912281 Z" id="PRO-Copy" fill="#FFFFFF"></path>
        </g>
    </g>
</svg>