<?xml version="1.0" encoding="UTF-8"?>
<svg width="27px" height="27px" viewBox="0 0 27 27" version="1.1" xmlns="http://www.w3.org/2000/svg" xmlns:xlink="http://www.w3.org/1999/xlink">
    <!-- Generator: Sketch 48.2 (47327) - http://www.bohemiancoding.com/sketch -->
    <title>sundhedsikon_dictionary</title>
    <desc>Created with Sketch.</desc>
    <defs></defs>
    <g id="Icons" stroke="none" stroke-width="1" fill="none" fill-rule="evenodd">
        <g id="sundhedsikon_dictionary">
            <g id="Group-Copy">
                <path d="M13.5,27 C6.04415588,27 0,20.9558441 0,13.5 C0,6.04415588 6.04415588,0 13.5,0 C20.9558441,0 27,6.04415588 27,13.5 C27,20.9558441 20.9558441,27 13.5,27 Z M13.5,26.83125 C20.8626461,26.83125 26.83125,20.8626461 26.83125,13.5 C26.83125,6.13735393 20.8626461,0.16875 13.5,0.16875 C6.13735393,0.16875 0.16875,6.13735393 0.16875,13.5 C0.16875,20.8626461 6.13735393,26.83125 13.5,26.83125 Z" id="Oval-2-Copy-6" fill="#4A4A4A" fill-rule="nonzero"></path>
                <circle id="Oval-2-Copy-7" fill="#FFDA79" cx="13.5" cy="13.5" r="13.33125"></circle>
                <path d="M12.2347234,26.8074538 C7.1350005,26.3486507 2.85791024,23.0360459 1.0125,18.4786867 L5.43596297,17.9029119 C5.6279317,19.1108418 6.02200823,20.1069649 6.44945184,20.7225585 C7.144966,21.7185001 8.67906541,22.100868 9.87052838,22.0384261 C10.7595431,21.9918348 12.0214568,21.52401 12.4750397,20.9724429 C12.9286226,20.4208757 13.1372231,19.7980573 13.1008474,19.1039691 C13.0662906,18.4445853 12.8906227,17.8666271 12.405086,17.370077 C11.9195493,16.873527 10.830648,16.4376051 9.13834944,16.0622983 C6.36653026,15.4303693 4.3650194,14.9247625 3.13375683,13.7017003 C1.89332916,12.4791184 1.22098702,10.4511167 1.11671023,8.46139715 C1.11190549,8.36971713 1.10859579,8.27831546 1.10678116,8.18719213 C2.78918689,4.24288965 6.30658395,1.2688367 10.5865056,0.3375 C12.5220325,0.511029386 14.0259273,1.30345507 15.1928208,2.24179971 C16.6080272,3.37982245 18.0065465,5.75020303 18.0766421,7.80055991 L12.4822847,8.45763292 C12.2664582,7.32055284 11.8951607,6.58920574 11.3683811,6.09481716 C10.8416014,5.60042857 9.80079737,5.20754312 8.92094779,5.25365408 C8.19690491,5.29159956 7.32424436,5.59831671 6.97795009,6.0050622 C6.63165582,6.41180769 6.24903682,7.00042639 6.24903682,7.95432908 C6.24903682,8.90823178 6.59617758,9.59773373 7.0974983,9.95186172 C7.40836305,10.2719674 8.37439397,10.5477984 9.48936245,10.7793631 C12.2501977,11.3770681 14.2392982,12.0239067 15.4567236,12.7198982 C16.674149,13.4158897 17.4115809,14.3108773 18.0065465,15.4048877 C18.6015121,16.4988981 18.9237417,17.7341619 18.9237417,18.7062744 C18.9237417,19.6783868 18.8149786,20.8474492 18.1722458,22.2615227 C17.529513,23.6755961 16.5852463,24.8563342 15.3394173,25.6350198 C14.504889,26.1566285 13.4361815,26.5643456 12.2347234,26.8074538 Z" id="Combined-Shape-Copy-6" fill="#191718"></path>
            </g>
        </g>
    </g>
</svg>