<svg xmlns="http://www.w3.org/2000/svg" xmlns:xlink="http://www.w3.org/1999/xlink" width="19" height="19" viewBox="0 0 18 18" version="1.1"><g stroke="none" stroke-width="1" fill="none" fill-rule="evenodd"><g transform="translate(-1301.600000, -112.000000)" fill="#000000"><path d="M1310.55 114.63C1313.88 114.63 1315.99 114.7 1316.88 114.85 1317.99 115.06 1318.72 115.51 1319.07 116.19 1319.38 116.77 1319.54 117.97 1319.55 119.79L1319.55 121C1319.55 123.18 1319.47 124.58 1319.3 125.21 1319.08 126.04 1318.58 126.6 1317.8 126.9 1316.99 127.2 1315.28 127.36 1312.65 127.38L1310.55 127.38C1307.22 127.38 1305.11 127.3 1304.22 127.15 1303.11 126.94 1302.38 126.49 1302.03 125.81 1301.72 125.23 1301.56 124.03 1301.55 122.21L1301.55 121C1301.55 118.82 1301.63 117.42 1301.8 116.79 1302.02 115.96 1302.52 115.4 1303.3 115.1 1304.11 114.8 1305.82 114.64 1308.45 114.63L1310.55 114.63 1310.55 114.63ZM1308.3 124.38L1313.93 121 1308.3 117.63 1308.3 124.38Z"/></g></g></svg>