<svg xmlns="http://www.w3.org/2000/svg" xmlns:xlink="http://www.w3.org/1999/xlink" width="300" height="243" viewBox="0 0 300 243">
    <defs>
        <path id="a" d="M0 0h300v90H0z"/>
        <filter id="b" width="100.3%" height="101.1%" x="-.2%" y="-.6%" filterUnits="objectBoundingBox">
            <feOffset dy="-1" in="SourceAlpha" result="shadowOffsetInner1"/>
            <feComposite in="shadowOffsetInner1" in2="SourceAlpha" k2="-1" k3="1" operator="arithmetic" result="shadowInnerInner1"/>
            <feColorMatrix in="shadowInnerInner1" result="shadowMatrixInner1" values="0 0 0 0 0.905882353 0 0 0 0 0.917647059 0 0 0 0 0.933333333 0 0 0 1 0"/>
            <feOffset dy="1" in="SourceAlpha" result="shadowOffsetInner2"/>
            <feComposite in="shadowOffsetInner2" in2="SourceAlpha" k2="-1" k3="1" operator="arithmetic" result="shadowInnerInner2"/>
            <feColorMatrix in="shadowInnerInner2" result="shadowMatrixInner2" values="0 0 0 0 0.905882353 0 0 0 0 0.917647059 0 0 0 0 0.933333333 0 0 0 1 0"/>
            <feMerge>
                <feMergeNode in="shadowMatrixInner1"/>
                <feMergeNode in="shadowMatrixInner2"/>
            </feMerge>
        </filter>
        <rect id="c" width="16" height="16" rx="3"/>
        <path id="d" d="M0 0h300v90H0z"/>
        <filter id="e" width="100.3%" height="101.1%" x="-.2%" y="-.6%" filterUnits="objectBoundingBox">
            <feOffset dy="-1" in="SourceAlpha" result="shadowOffsetInner1"/>
            <feComposite in="shadowOffsetInner1" in2="SourceAlpha" k2="-1" k3="1" operator="arithmetic" result="shadowInnerInner1"/>
            <feColorMatrix in="shadowInnerInner1" result="shadowMatrixInner1" values="0 0 0 0 0.905882353 0 0 0 0 0.917647059 0 0 0 0 0.933333333 0 0 0 1 0"/>
            <feOffset dy="1" in="SourceAlpha" result="shadowOffsetInner2"/>
            <feComposite in="shadowOffsetInner2" in2="SourceAlpha" k2="-1" k3="1" operator="arithmetic" result="shadowInnerInner2"/>
            <feColorMatrix in="shadowInnerInner2" result="shadowMatrixInner2" values="0 0 0 0 0.905882353 0 0 0 0 0.917647059 0 0 0 0 0.933333333 0 0 0 1 0"/>
            <feMerge>
                <feMergeNode in="shadowMatrixInner1"/>
                <feMergeNode in="shadowMatrixInner2"/>
            </feMerge>
        </filter>
        <rect id="f" width="16" height="16" rx="3"/>
        <path id="g" d="M0 0h300v90H0z"/>
        <filter id="h" width="100.3%" height="101.1%" x="-.2%" y="-.6%" filterUnits="objectBoundingBox">
            <feOffset dy="-1" in="SourceAlpha" result="shadowOffsetInner1"/>
            <feComposite in="shadowOffsetInner1" in2="SourceAlpha" k2="-1" k3="1" operator="arithmetic" result="shadowInnerInner1"/>
            <feColorMatrix in="shadowInnerInner1" result="shadowMatrixInner1" values="0 0 0 0 0.905882353 0 0 0 0 0.917647059 0 0 0 0 0.933333333 0 0 0 1 0"/>
            <feOffset dy="1" in="SourceAlpha" result="shadowOffsetInner2"/>
            <feComposite in="shadowOffsetInner2" in2="SourceAlpha" k2="-1" k3="1" operator="arithmetic" result="shadowInnerInner2"/>
            <feColorMatrix in="shadowInnerInner2" result="shadowMatrixInner2" values="0 0 0 0 0.905882353 0 0 0 0 0.917647059 0 0 0 0 0.933333333 0 0 0 1 0"/>
            <feMerge>
                <feMergeNode in="shadowMatrixInner1"/>
                <feMergeNode in="shadowMatrixInner2"/>
            </feMerge>
        </filter>
        <rect id="i" width="16" height="16" rx="3"/>
    </defs>
    <g fill="none" fill-rule="evenodd">
        <g transform="translate(0 90)">
            <use fill="#FFF" xlink:href="#a"/>
            <use fill="#000" filter="url(#b)" xlink:href="#a"/>
            <g transform="translate(10 10)">
                <rect width="32" height="32" fill="#E7EAEE" rx="8"/>
                <use fill="#FFF" transform="translate(8 8)" xlink:href="#c"/>
            </g>
            <rect width="131" height="11" x="52" y="20" fill="#E7EAEE" rx="5.5"/>
            <rect width="72" height="11" x="52" y="50" fill="#E7EAEE" rx="5.5"/>
            <rect width="34" height="11" x="52" y="66" fill="#E7EAEE" rx="5.5"/>
            <rect width="34" height="11" x="145" y="66" fill="#E7EAEE" rx="5.5"/>
            <rect width="25" height="17" x="246" y="55" fill="#E7EAEE" rx="1"/>
            <rect width="80" height="11" x="145" y="50" fill="#E7EAEE" rx="5.5"/>
            <rect width="11" height="11" x="188" y="20" fill="#E7EAEE" rx="5.5"/>
            <path stroke="#E7EAEE" stroke-linecap="square" d="M52.403 42.5h247.206"/>
        </g>
        <g>
            <use fill="#FFF" xlink:href="#d"/>
            <use fill="#000" filter="url(#e)" xlink:href="#d"/>
            <g transform="translate(10 10)">
                <rect width="32" height="32" fill="#E7EAEE" rx="8"/>
                <use fill="#FFF" transform="translate(8 8)" xlink:href="#f"/>
            </g>
            <rect width="131" height="11" x="52" y="20" fill="#E7EAEE" rx="5.5"/>
            <rect width="72" height="11" x="52" y="50" fill="#E7EAEE" rx="5.5"/>
            <rect width="34" height="11" x="52" y="66" fill="#E7EAEE" rx="5.5"/>
            <rect width="34" height="11" x="145" y="66" fill="#E7EAEE" rx="5.5"/>
            <rect width="25" height="17" x="246" y="55" fill="#E7EAEE" rx="1"/>
            <rect width="80" height="11" x="145" y="50" fill="#E7EAEE" rx="5.5"/>
            <rect width="11" height="11" x="188" y="20" fill="#E7EAEE" rx="5.5"/>
            <path stroke="#E7EAEE" stroke-linecap="square" d="M52.403 42.5h247.206"/>
        </g>
        <g transform="translate(0 180)">
            <use fill="#FFF" xlink:href="#g"/>
            <use fill="#000" filter="url(#h)" xlink:href="#g"/>
            <g transform="translate(10 10)">
                <rect width="32" height="32" fill="#E7EAEE" rx="8"/>
                <use fill="#FFF" transform="translate(8 8)" xlink:href="#i"/>
            </g>
            <rect width="131" height="11" x="52" y="20" fill="#E7EAEE" rx="5.5"/>
            <rect width="72" height="11" x="52" y="50" fill="#E7EAEE" rx="5.5"/>
            <rect width="34" height="11" x="52" y="66" fill="#E7EAEE" rx="5.5"/>
            <rect width="34" height="11" x="145" y="66" fill="#E7EAEE" rx="5.5"/>
            <rect width="25" height="17" x="246" y="55" fill="#E7EAEE" rx="1"/>
            <rect width="80" height="11" x="145" y="50" fill="#E7EAEE" rx="5.5"/>
            <rect width="11" height="11" x="188" y="20" fill="#E7EAEE" rx="5.5"/>
            <path stroke="#E7EAEE" stroke-linecap="square" d="M52.403 42.5h247.206"/>
        </g>
    </g>
</svg>
