<svg xmlns="http://www.w3.org/2000/svg" width="126" height="18" viewBox="0 0 126 18">
    <g fill="none" fill-rule="evenodd">
        <path fill="#6D6868" d="M34.248 13.169c0 1.56-.391 2.756-1.174 3.586-.783.83-1.912 1.245-3.387 1.245-1.444 0-2.673-.286-3.687-.857v-3.072c1.24.815 2.379 1.222 3.415 1.222.59 0 1.034-.164 1.333-.491.299-.327.448-.773.448-1.336 0-.556-.177-1.064-.533-1.525-.355-.46-.942-.973-1.759-1.536-.71-.495-1.25-.97-1.616-1.422a5.141 5.141 0 0 1-.851-1.525c-.2-.563-.3-1.218-.3-1.964 0-1.432.394-2.566 1.185-3.404.79-.837 1.851-1.256 3.182-1.256 1.27 0 2.492.358 3.665 1.073l-1.021 2.49a9.675 9.675 0 0 0-1.14-.57 3.25 3.25 0 0 0-1.277-.252c-.5 0-.883.165-1.151.497-.269.33-.403.782-.403 1.353 0 .564.16 1.055.482 1.473.321.42.883.895 1.685 1.428 1.081.731 1.836 1.477 2.263 2.239.428.761.641 1.63.641 2.604zm4.26 4.603h-3.017V5.048h3.018v12.724zM35.367 1.725c0-.503.145-.9.437-1.194.29-.293.697-.44 1.22-.44.49 0 .884.147 1.18.44.294.293.442.691.442 1.194 0 .517-.152.919-.454 1.205-.303.285-.692.428-1.169.428-.499 0-.9-.143-1.202-.428-.303-.286-.454-.688-.454-1.205zm17.957 16.047v-7.584c0-1.866-.458-2.798-1.373-2.798-.665 0-1.142.333-1.43.999-.287.666-.43 1.734-.43 3.204v6.179h-3.041v-7.584c0-1.866-.465-2.798-1.396-2.798-.65 0-1.123.33-1.418.993-.295.663-.442 1.755-.442 3.278v6.11h-3.018V5.049h2.394l.363 1.633h.193c.302-.647.716-1.12 1.242-1.421a3.338 3.338 0 0 1 1.685-.452c1.543 0 2.571.735 3.086 2.205h.113c.643-1.47 1.676-2.205 3.098-2.205 1.119 0 1.968.396 2.547 1.188.578.792.868 1.95.868 3.472v8.304h-3.041zm8.52 0h-3.017V5.048h3.018v12.724zM58.702 1.725c0-.503.145-.9.437-1.194.29-.293.697-.44 1.22-.44.49 0 .884.147 1.18.44.294.293.442.691.442 1.194 0 .517-.152.919-.454 1.205-.303.285-.692.428-1.169.428-.499 0-.9-.143-1.202-.428-.303-.286-.454-.688-.454-1.205zm8.427 16.047H64.11V0h3.018v17.772zm8.404 0l-.601-1.736h-.068c-.447.746-.908 1.26-1.385 1.541-.476.282-1.077.423-1.804.423-.93 0-1.662-.35-2.195-1.05-.533-.701-.8-1.676-.8-2.925 0-1.34.365-2.335 1.095-2.986.73-.651 1.821-1.011 3.273-1.08l1.68-.068v-.914c0-1.188-.511-1.782-1.532-1.782-.757 0-1.626.297-2.61.891l-1.043-2.101a7.48 7.48 0 0 1 4.095-1.2c1.34 0 2.358.387 3.058 1.16.7.773 1.05 1.867 1.05 3.283v8.544h-2.213zm-2.62-2.148c.551 0 .992-.249 1.32-.748.33-.498.494-1.163.494-1.993V11.81l-.93.045c-.688.038-1.193.236-1.515.594-.321.358-.482.891-.482 1.6 0 1.05.37 1.575 1.112 1.575zm12.34-10.816c.37 0 .734.057 1.09.172l-.352 2.946c-.212-.076-.488-.114-.828-.114-.734 0-1.298.291-1.69.874-.394.582-.59 1.43-.59 2.541v6.545h-3.019V5.048h2.485l.34 1.988h.102c.333-.8.696-1.371 1.09-1.714.393-.342.85-.514 1.372-.514zm9.857 8.36c0 1.562-.392 2.757-1.174 3.587-.783.83-1.912 1.245-3.387 1.245-1.445 0-2.674-.286-3.687-.857v-3.072c1.24.815 2.378 1.222 3.415 1.222.59 0 1.034-.164 1.333-.491.298-.327.448-.773.448-1.336 0-.556-.178-1.064-.533-1.525-.356-.46-.942-.973-1.759-1.536-.711-.495-1.25-.97-1.617-1.422a5.141 5.141 0 0 1-.85-1.525c-.201-.563-.301-1.218-.301-1.964 0-1.432.395-2.566 1.185-3.404.79-.837 1.852-1.256 3.183-1.256 1.27 0 2.492.358 3.664 1.073l-1.02 2.49a9.675 9.675 0 0 0-1.141-.57 3.25 3.25 0 0 0-1.276-.252c-.5 0-.883.165-1.152.497-.268.33-.403.782-.403 1.353 0 .564.161 1.055.482 1.473.322.42.884.895 1.685 1.428 1.082.731 1.836 1.477 2.264 2.239.427.761.64 1.63.64 2.604zm4.58 4.604h-3.017V5.048h3.018v12.724zM96.548 1.725c0-.503.145-.9.437-1.194.29-.293.697-.44 1.22-.44.49 0 .884.147 1.18.44.294.293.442.691.442 1.194 0 .517-.152.919-.454 1.205-.303.285-.692.428-1.169.428-.499 0-.9-.143-1.202-.428-.303-.286-.454-.688-.454-1.205zm9.8 13.705c.423 0 .88-.106 1.372-.32v2.376c-.491.343-1.229.514-2.212.514-1.097 0-1.91-.33-2.44-.988-.529-.659-.793-1.647-.793-2.964v-6.59h-1.226V6.1l1.577-1.096.772-2.696h1.928v2.741h2.292v2.41h-2.292v6.693c0 .853.34 1.28 1.022 1.28zM113.51 18c-1.58 0-2.827-.565-3.738-1.696-.911-1.13-1.367-2.732-1.367-4.803 0-2.101.412-3.742 1.237-4.922.824-1.18 1.974-1.77 3.449-1.77 1.376 0 2.462.504 3.256 1.513.794 1.009 1.191 2.423 1.191 4.243v1.622h-6.07c.023 1.134.254 1.977.692 2.53.439.551 1.044.827 1.816.827.983 0 1.989-.308 3.017-.925v2.502c-.968.586-2.129.879-3.483.879zm-.442-10.85c-.431 0-.787.23-1.067.69-.28.461-.442 1.175-.487 2.142h3.063c-.015-.929-.155-1.633-.42-2.113s-.628-.72-1.09-.72zM126 14.048c0 1.241-.361 2.21-1.084 2.907-.722.697-1.786 1.045-3.193 1.045-1.248 0-2.28-.247-3.098-.742v-2.639c.416.29.902.53 1.458.72.556.19 1.046.285 1.47.285.468 0 .826-.116 1.072-.348.246-.232.368-.539.368-.92 0-.388-.128-.727-.385-1.016-.257-.29-.73-.643-1.419-1.062-.915-.548-1.57-1.133-1.968-1.753-.397-.62-.596-1.354-.596-2.199 0-1.081.37-1.938 1.107-2.57.737-.632 1.749-.948 3.035-.948 1.119 0 2.174.297 3.165.891l-.987 2.182c-.81-.442-1.52-.663-2.133-.663-.386 0-.675.103-.868.309a1.06 1.06 0 0 0-.29.753c0 .343.12.648.358.914.238.267.683.598 1.333.994.787.48 1.339.887 1.657 1.222.317.335.563.716.737 1.142.174.426.261.925.261 1.496z"/>
        <path fill="#82AADA" d="M13.483 1.413c-.165-.056-.336-.114-.513-.164-2.824-.817-4.394.52-4.811 1.9-.572 1.886.402 3.177 2.928 5.078 3.097 2.328 4.379 4.49 3.48 7.457A5.854 5.854 0 0 1 13.253 18c2.503-.995 4.54-3.054 5.366-5.783 1.335-4.401-.937-9.006-5.135-10.804z"/>
        <path fill="#3E78C0" d="M8.245 9.902c-2.91-2.249-4.422-4.68-3.593-7.668.125-.443.29-.854.492-1.234C2.913 2.105 1.122 4.188.368 6.898a9.966 9.966 0 0 0 1.17 8.006c.994 1.296 1.958 2.27 3.913 2.844 2.648.778 4.782-.303 5.376-2.445.553-1.982-.196-3.448-2.582-5.4z"/>
    </g>
</svg>
