<svg xmlns="http://www.w3.org/2000/svg" width="40" height="37" viewBox="0 0 40 37">
    <path fill="none" fill-rule="evenodd" stroke="#AFBAC7" stroke-width="2" d="M31.125 33.497a18.014 18.014 0 0 1-3.336 1.805l1.124 1.594a13.218 13.218 0 0 0 2.212-3.4zM28.271 1.809l.044.016.33-.944-.711-.704-1.02 1.03 1.325.588.032.014zm0 0c8.238 3.672 12.563 13.007 9.983 21.813a18.102 18.102 0 0 1-7.129 9.875c.28-.616.518-1.26.712-1.927 1.898-6.492-.497-11.501-7.51-16.96-5.26-4.097-6.65-6.446-5.682-9.749.9-3.082 4.068-4.746 8.656-3.372.233.068.459.142.78.254l.19.066zM16.327 19.737c-6.716-5.38-9.424-10.914-7.73-17.315-3.26 2.445-5.71 6.077-6.873 10.407C.218 18.43 1.102 24.36 3.968 29.034c2.365 3.189 4.211 4.685 7.543 5.698 4.824 1.469 8.713-.422 9.81-4.512 1.005-3.736-.288-6.497-4.994-10.483z"/>
</svg>
