<?xml version="1.0" encoding="UTF-8" standalone="no"?>
<!-- Created with Inkscape (http://www.inkscape.org/) -->

<svg
   xmlns:dc="http://purl.org/dc/elements/1.1/"
   xmlns:cc="http://creativecommons.org/ns#"
   xmlns:rdf="http://www.w3.org/1999/02/22-rdf-syntax-ns#"
   xmlns:svg="http://www.w3.org/2000/svg"
   xmlns="http://www.w3.org/2000/svg"
   xmlns:sodipodi="http://sodipodi.sourceforge.net/DTD/sodipodi-0.dtd"
   xmlns:inkscape="http://www.inkscape.org/namespaces/inkscape"
   width="48"
   height="48"
   viewBox="0 0 48 48"
   id="svg2"
   version="1.1"
   inkscape:version="0.91 r13725"
   sodipodi:docname="earss.svg"
   inkscape:export-filename="/Users/kking/ws/vaux/ears/ears16.png"
   inkscape:export-xdpi="30"
   inkscape:export-ydpi="30">
  <defs
     id="defs4" />
  <sodipodi:namedview
     id="base"
     pagecolor="#ffffff"
     bordercolor="#666666"
     borderopacity="1.0"
     inkscape:pageopacity="0.0"
     inkscape:pageshadow="2"
     inkscape:zoom="11.2"
     inkscape:cx="25.36239"
     inkscape:cy="17.786252"
     inkscape:document-units="px"
     inkscape:current-layer="layer1"
     showgrid="false"
     units="px"
     inkscape:window-width="1440"
     inkscape:window-height="851"
     inkscape:window-x="0"
     inkscape:window-y="0"
     inkscape:window-maximized="1" />
  <metadata
     id="metadata7">
    <rdf:RDF>
      <cc:Work
         rdf:about="">
        <dc:format>image/svg+xml</dc:format>
        <dc:type
           rdf:resource="http://purl.org/dc/dcmitype/StillImage" />
        <dc:title></dc:title>
      </cc:Work>
    </rdf:RDF>
  </metadata>
  <g
     inkscape:label="Layer 1"
     inkscape:groupmode="layer"
     id="layer1"
     transform="translate(0,-1004.3622)">
    <circle
       style="opacity:1;fill:#f5deb3;fill-opacity:1;stroke:none;stroke-width:0.2;stroke-linecap:butt;stroke-linejoin:miter;stroke-miterlimit:4;stroke-dasharray:none;stroke-dashoffset:0;stroke-opacity:1"
       id="path3340"
       cx="23.984755"
       cy="1028.3622"
       r="2.4622469" />
    <path
       style="opacity:1;fill:#ffc52c;fill-opacity:1;stroke:none;stroke-width:0.2;stroke-linecap:butt;stroke-linejoin:miter;stroke-miterlimit:4;stroke-dasharray:none;stroke-dashoffset:0;stroke-opacity:1"
       d="m 23.974988,1014.1571 0,3.7871 a 10.16466,10.417198 0 0 1 0.0098,0 10.16466,10.417198 0 0 1 10.164062,10.418 10.16466,10.417198 0 0 1 -10.164062,10.418 10.16466,10.417198 0 0 1 -0.0098,0 l 0,3.7871 a 13.860901,14.20527 0 0 0 0.0098,0 13.860901,14.20527 0 0 0 13.861328,-14.2051 13.860901,14.20527 0 0 0 -13.861328,-14.2051 13.860901,14.20527 0 0 0 -0.0098,0 z"
       id="ellipse3348"
       inkscape:connector-curvature="0" />
    <path
       style="opacity:1;fill:#2c3e50;fill-opacity:1;stroke:none;stroke-width:0.2;stroke-linecap:butt;stroke-linejoin:miter;stroke-miterlimit:4;stroke-dasharray:none;stroke-dashoffset:0;stroke-opacity:1"
       d="m 23.974988,1021.2274 0,1.9024 a 5.1048497,5.2316782 0 0 1 0.0098,0 5.1048497,5.2316782 0 0 1 5.105469,5.2324 5.1048497,5.2316782 0 0 1 -5.105469,5.2324 5.1048497,5.2316782 0 0 1 -0.0098,0 l 0,1.9024 a 6.9611592,7.1341066 0 0 0 0.0098,0 6.9611592,7.1341066 0 0 0 6.960938,-7.1348 6.9611592,7.1341066 0 0 0 -6.960938,-7.1348 6.9611592,7.1341066 0 0 0 -0.0098,0 z"
       id="path3355"
       inkscape:connector-curvature="0" />
    <path
       style="opacity:1;fill:#2c3e50;fill-opacity:1;stroke:none;stroke-width:0.2;stroke-linecap:butt;stroke-linejoin:miter;stroke-miterlimit:4;stroke-dasharray:none;stroke-dashoffset:0;stroke-opacity:1"
       d="m 23.974988,1005.5712 0,6.0762 a 16.308715,16.713901 0 0 1 0.0098,0 16.308715,16.713901 0 0 1 16.308594,16.7148 16.308715,16.713901 0 0 1 -16.308594,16.7148 16.308715,16.713901 0 0 1 -0.0098,0 l 0,6.0762 a 22.239159,22.791683 0 0 0 0.0098,0 22.239159,22.791683 0 0 0 22.240234,-22.791 22.239159,22.791683 0 0 0 -22.240234,-22.791 22.239159,22.791683 0 0 0 -0.0098,0 z"
       id="path3357"
       inkscape:connector-curvature="0" />
    <circle
       r="2.4622469"
       cy="1028.3622"
       cx="-24.015282"
       id="circle4189"
       style="opacity:1;fill:#ffc52c;fill-opacity:1;stroke:none;stroke-width:0.2;stroke-linecap:butt;stroke-linejoin:miter;stroke-miterlimit:4;stroke-dasharray:none;stroke-dashoffset:0;stroke-opacity:1"
       transform="scale(-1,1)" />
    <path
       id="path4191"
       d="m 24.025045,1014.1571 0,3.7871 a 10.16466,10.417198 0 0 0 -0.0098,0 10.16466,10.417198 0 0 0 -10.164062,10.418 10.16466,10.417198 0 0 0 10.164062,10.418 10.16466,10.417198 0 0 0 0.0098,0 l 0,3.7871 a 13.860901,14.20527 0 0 1 -0.0098,0 13.860901,14.20527 0 0 1 -13.861328,-14.2051 13.860901,14.20527 0 0 1 13.861328,-14.2051 13.860901,14.20527 0 0 1 0.0098,0 z"
       style="opacity:1;fill:#2c3e50;fill-opacity:1;stroke:none;stroke-width:0.2;stroke-linecap:butt;stroke-linejoin:miter;stroke-miterlimit:4;stroke-dasharray:none;stroke-dashoffset:0;stroke-opacity:1"
       inkscape:connector-curvature="0" />
    <path
       id="path4193"
       d="m 24.025045,1021.2274 0,1.9024 a 5.1048497,5.2316782 0 0 0 -0.0098,0 5.1048497,5.2316782 0 0 0 -5.105469,5.2324 5.1048497,5.2316782 0 0 0 5.105469,5.2324 5.1048497,5.2316782 0 0 0 0.0098,0 l 0,1.9024 a 6.9611592,7.1341066 0 0 1 -0.0098,0 6.9611592,7.1341066 0 0 1 -6.960938,-7.1348 6.9611592,7.1341066 0 0 1 6.960938,-7.1348 6.9611592,7.1341066 0 0 1 0.0098,0 z"
       style="opacity:1;fill:#ffc52c;fill-opacity:1;stroke:none;stroke-width:0.2;stroke-linecap:butt;stroke-linejoin:miter;stroke-miterlimit:4;stroke-dasharray:none;stroke-dashoffset:0;stroke-opacity:1"
       inkscape:connector-curvature="0" />
    <path
       id="path4195"
       d="m 24.025045,1005.5712 0,6.0762 a 16.308715,16.713901 0 0 0 -0.0098,0 16.308715,16.713901 0 0 0 -16.3085935,16.7148 16.308715,16.713901 0 0 0 16.3085935,16.7148 16.308715,16.713901 0 0 0 0.0098,0 l 0,6.0762 a 22.239159,22.791683 0 0 1 -0.0098,0 22.239159,22.791683 0 0 1 -22.2402335,-22.791 22.239159,22.791683 0 0 1 22.2402335,-22.791 22.239159,22.791683 0 0 1 0.0098,0 z"
       style="opacity:1;fill:#ffc52c;fill-opacity:1;stroke:none;stroke-width:0.2;stroke-linecap:butt;stroke-linejoin:miter;stroke-miterlimit:4;stroke-dasharray:none;stroke-dashoffset:0;stroke-opacity:1"
       inkscape:connector-curvature="0" />
  </g>
</svg>
