<?xml version="1.0" encoding="UTF-8" standalone="no"?>
<!-- Created with Inkscape (http://www.inkscape.org/) -->

<svg
   xmlns:dc="http://purl.org/dc/elements/1.1/"
   xmlns:cc="http://creativecommons.org/ns#"
   xmlns:rdf="http://www.w3.org/1999/02/22-rdf-syntax-ns#"
   xmlns:svg="http://www.w3.org/2000/svg"
   xmlns="http://www.w3.org/2000/svg"
   xmlns:sodipodi="http://sodipodi.sourceforge.net/DTD/sodipodi-0.dtd"
   xmlns:inkscape="http://www.inkscape.org/namespaces/inkscape"
   width="920"
   height="680"
   viewBox="0 0 920 680"
   id="svg2"
   version="1.1"
   inkscape:version="0.91 r13725"
   sodipodi:docname="earstile920.svg"
   inkscape:export-filename="/Users/kking/ws/vaux/ears/earstile920.png"
   inkscape:export-xdpi="90"
   inkscape:export-ydpi="90">
  <defs
     id="defs4" />
  <sodipodi:namedview
     id="base"
     pagecolor="#ffffff"
     bordercolor="#666666"
     borderopacity="1.0"
     inkscape:pageopacity="0.0"
     inkscape:pageshadow="2"
     inkscape:zoom="0.8027427"
     inkscape:cx="163.30018"
     inkscape:cy="357.24453"
     inkscape:document-units="px"
     inkscape:current-layer="layer1"
     showgrid="false"
     units="px"
     inkscape:window-width="1440"
     inkscape:window-height="851"
     inkscape:window-x="0"
     inkscape:window-y="0"
     inkscape:window-maximized="1" />
  <metadata
     id="metadata7">
    <rdf:RDF>
      <cc:Work
         rdf:about="">
        <dc:format>image/svg+xml</dc:format>
        <dc:type
           rdf:resource="http://purl.org/dc/dcmitype/StillImage" />
        <dc:title />
      </cc:Work>
    </rdf:RDF>
  </metadata>
  <g
     inkscape:label="Layer 1"
     inkscape:groupmode="layer"
     id="layer1"
     transform="translate(0,-372.3622)">
    <rect
       style="opacity:0.86000001;fill:#ffc52c;fill-opacity:1;stroke:none;stroke-width:0.2;stroke-linecap:butt;stroke-linejoin:miter;stroke-miterlimit:4;stroke-dasharray:none;stroke-dashoffset:0;stroke-opacity:1"
       id="rect6532"
       width="922.57196"
       height="681.93597"
       x="0"
       y="370.42627" />
    <path
       style="opacity:0.86000001;fill:#fff6d5;fill-opacity:1;stroke:none;stroke-width:0.2;stroke-linecap:butt;stroke-linejoin:miter;stroke-miterlimit:4;stroke-dasharray:none;stroke-dashoffset:0;stroke-opacity:1"
       d="m 461.23586,729.0776 0,30.00035 a 80.521648,82.522185 0 0 1 0.0776,0 80.521648,82.522185 0 0 1 80.51692,82.52854 80.521648,82.522185 0 0 1 -80.51692,82.52875 80.521648,82.522185 0 0 1 -0.0776,0 l 0,30.00041 a 109.80226,112.53025 0 0 0 0.0776,0 109.80226,112.53025 0 0 0 109.80566,-112.52916 109.80226,112.53025 0 0 0 -109.80566,-112.52889 109.80226,112.53025 0 0 0 -0.0776,0 z"
       id="ellipse3348"
       inkscape:connector-curvature="0" />
    <path
       style="opacity:0.86000001;fill:#2c3e50;fill-opacity:1;stroke:none;stroke-width:0.2;stroke-linecap:butt;stroke-linejoin:miter;stroke-miterlimit:4;stroke-dasharray:none;stroke-dashoffset:0;stroke-opacity:1"
       d="m 461.23586,785.08668 0,15.07023 a 40.439221,41.443922 0 0 1 0.0776,0 40.439221,41.443922 0 0 1 40.44414,41.44958 40.439221,41.443922 0 0 1 -40.44414,41.44979 40.439221,41.443922 0 0 1 -0.0776,0 l 0,15.07023 a 55.144394,56.514436 0 0 0 0.0776,0 55.144394,56.514436 0 0 0 55.14266,-56.52002 55.144394,56.514436 0 0 0 -55.14266,-56.51981 55.144394,56.514436 0 0 0 -0.0776,0 z"
       id="path3355"
       inkscape:connector-curvature="0" />
    <path
       style="opacity:0.86000001;fill:#2c3e50;fill-opacity:1;stroke:none;stroke-width:0.2;stroke-linecap:butt;stroke-linejoin:miter;stroke-miterlimit:4;stroke-dasharray:none;stroke-dashoffset:0;stroke-opacity:1"
       d="m 461.23586,661.06242 0,48.13408 a 129.19316,132.40294 0 0 1 0.0776,0 129.19316,132.40294 0 0 1 129.1922,132.40999 129.19316,132.40294 0 0 1 -129.1922,132.41026 129.19316,132.40294 0 0 1 -0.0776,0 l 0,48.13405 a 176.17252,180.54946 0 0 0 0.0776,0 176.17252,180.54946 0 0 0 176.18105,-180.54431 176.17252,180.54946 0 0 0 -176.18105,-180.54407 176.17252,180.54946 0 0 0 -0.0776,0 z"
       id="path3357"
       inkscape:connector-curvature="0" />
    <circle
       r="19.505245"
       cy="841.60614"
       cx="-461.55502"
       id="circle4189"
       style="opacity:0.86000001;fill:#fff6d5;fill-opacity:1;stroke:none;stroke-width:0.2;stroke-linecap:butt;stroke-linejoin:miter;stroke-miterlimit:4;stroke-dasharray:none;stroke-dashoffset:0;stroke-opacity:1"
       transform="scale(-1,1)" />
    <path
       id="path4191"
       d="m 461.6324,729.0776 0,30.00035 a 80.521648,82.522185 0 0 0 -0.0776,0 80.521648,82.522185 0 0 0 -80.51694,82.52854 80.521648,82.522185 0 0 0 80.51694,82.52875 80.521648,82.522185 0 0 0 0.0776,0 l 0,30.00041 a 109.80226,112.53025 0 0 1 -0.0776,0 109.80226,112.53025 0 0 1 -109.80567,-112.52916 109.80226,112.53025 0 0 1 109.80567,-112.52889 109.80226,112.53025 0 0 1 0.0776,0 z"
       style="opacity:0.86000001;fill:#2c3e50;fill-opacity:1;stroke:none;stroke-width:0.2;stroke-linecap:butt;stroke-linejoin:miter;stroke-miterlimit:4;stroke-dasharray:none;stroke-dashoffset:0;stroke-opacity:1"
       inkscape:connector-curvature="0" />
    <path
       id="path4193"
       d="m 461.6324,785.08668 0,15.07023 a 40.439221,41.443922 0 0 0 -0.0776,0 40.439221,41.443922 0 0 0 -40.44415,41.44958 40.439221,41.443922 0 0 0 40.44415,41.44979 40.439221,41.443922 0 0 0 0.0776,0 l 0,15.07023 a 55.144394,56.514436 0 0 1 -0.0776,0 55.144394,56.514436 0 0 1 -55.14266,-56.52002 55.144394,56.514436 0 0 1 55.14266,-56.51981 55.144394,56.514436 0 0 1 0.0776,0 z"
       style="opacity:0.86000001;fill:#fff6d5;fill-opacity:1;stroke:none;stroke-width:0.2;stroke-linecap:butt;stroke-linejoin:miter;stroke-miterlimit:4;stroke-dasharray:none;stroke-dashoffset:0;stroke-opacity:1"
       inkscape:connector-curvature="0" />
    <path
       id="path4195"
       d="m 461.6324,661.06242 0,48.13408 a 129.19316,132.40294 0 0 0 -0.0776,0 129.19316,132.40294 0 0 0 -129.19222,132.40999 129.19316,132.40294 0 0 0 129.19222,132.41026 129.19316,132.40294 0 0 0 0.0776,0 l 0,48.13405 a 176.17252,180.54946 0 0 1 -0.0776,0 176.17252,180.54946 0 0 1 -176.18104,-180.54431 176.17252,180.54946 0 0 1 176.18106,-180.54407 176.17252,180.54946 0 0 1 0.0776,0 z"
       style="opacity:0.86000001;fill:#fff6d5;fill-opacity:1;stroke:none;stroke-width:0.2;stroke-linecap:butt;stroke-linejoin:miter;stroke-miterlimit:4;stroke-dasharray:none;stroke-dashoffset:0;stroke-opacity:1"
       inkscape:connector-curvature="0" />
    <rect
       style="opacity:0.86000001;fill:#fff6d5;fill-opacity:1;stroke:none;stroke-width:0.2;stroke-linecap:butt;stroke-linejoin:miter;stroke-miterlimit:4;stroke-dasharray:none;stroke-dashoffset:0;stroke-opacity:1"
       id="rect5947"
       width="6.3069868"
       height="654.93054"
       x="615.73999"
       y="-788.89941"
       transform="matrix(0,1,-1,0,0,0)" />
    <text
       xml:space="preserve"
       style="font-style:normal;font-variant:normal;font-weight:normal;font-stretch:normal;font-size:18.4087429px;line-height:125%;font-family:Arial;-inkscape-font-specification:Arial;letter-spacing:0px;word-spacing:0px;opacity:0.86000001;fill:#2c3e50;fill-opacity:1;stroke:none;stroke-width:1px;stroke-linecap:butt;stroke-linejoin:miter;stroke-opacity:1"
       x="171.11771"
       y="479.52441"
       id="text5949"
       sodipodi:linespacing="125%"><tspan
         sodipodi:role="line"
         x="171.11771"
         y="479.52441"
         id="tspan5953"
         style="font-style:normal;font-variant:normal;font-weight:500;font-stretch:normal;font-size:69.03279114px;font-family:'Helvetica Neue';-inkscape-font-specification:'Helvetica Neue Medium';fill:#2c3e50;fill-opacity:1">Ears Audio Toolkit</tspan></text>
    <text
       sodipodi:linespacing="125%"
       id="text6759"
       y="567.52441"
       x="251.22316"
       style="font-style:normal;font-variant:normal;font-weight:normal;font-stretch:normal;font-size:18.4087429px;line-height:125%;font-family:Arial;-inkscape-font-specification:Arial;letter-spacing:0px;word-spacing:0px;opacity:0.86000001;fill:#2c3e50;fill-opacity:1;stroke:none;stroke-width:1px;stroke-linecap:butt;stroke-linejoin:miter;stroke-opacity:1"
       xml:space="preserve"><tspan
         style="font-style:normal;font-variant:normal;font-weight:normal;font-stretch:normal;font-size:50px;font-family:'Helvetica Neue';-inkscape-font-specification:'Helvetica Neue';fill:#2c3e50;fill-opacity:1"
         id="tspan6761"
         y="567.52441"
         x="251.22316"
         sodipodi:role="line">Bring Audio to Life</tspan></text>
  </g>
</svg>
