<?xml version="1.0" encoding="UTF-8" standalone="no"?>
<!-- Created with Inkscape (http://www.inkscape.org/) -->

<svg
   xmlns:dc="http://purl.org/dc/elements/1.1/"
   xmlns:cc="http://creativecommons.org/ns#"
   xmlns:rdf="http://www.w3.org/1999/02/22-rdf-syntax-ns#"
   xmlns:svg="http://www.w3.org/2000/svg"
   xmlns="http://www.w3.org/2000/svg"
   xmlns:sodipodi="http://sodipodi.sourceforge.net/DTD/sodipodi-0.dtd"
   xmlns:inkscape="http://www.inkscape.org/namespaces/inkscape"
   width="440"
   height="280"
   viewBox="0 0 440 280"
   id="svg2"
   version="1.1"
   inkscape:version="0.91 r13725"
   sodipodi:docname="earstile440.svg"
   inkscape:export-filename="/Users/kking/ws/vaux/ears/earstile440.png"
   inkscape:export-xdpi="90"
   inkscape:export-ydpi="90">
  <defs
     id="defs4" />
  <sodipodi:namedview
     id="base"
     pagecolor="#ffffff"
     bordercolor="#666666"
     borderopacity="1.0"
     inkscape:pageopacity="0.0"
     inkscape:pageshadow="2"
     inkscape:zoom="1.6054854"
     inkscape:cx="166.99284"
     inkscape:cy="107.60782"
     inkscape:document-units="px"
     inkscape:current-layer="layer1"
     showgrid="false"
     units="px"
     inkscape:window-width="1440"
     inkscape:window-height="851"
     inkscape:window-x="0"
     inkscape:window-y="0"
     inkscape:window-maximized="1" />
  <metadata
     id="metadata7">
    <rdf:RDF>
      <cc:Work
         rdf:about="">
        <dc:format>image/svg+xml</dc:format>
        <dc:type
           rdf:resource="http://purl.org/dc/dcmitype/StillImage" />
        <dc:title />
      </cc:Work>
    </rdf:RDF>
  </metadata>
  <g
     inkscape:label="Layer 1"
     inkscape:groupmode="layer"
     id="layer1"
     transform="translate(0,-772.3622)">
    <rect
       style="opacity:0.86000001;fill:#ffc52c;fill-opacity:1;stroke:none;stroke-width:0.2;stroke-linecap:butt;stroke-linejoin:miter;stroke-miterlimit:4;stroke-dasharray:none;stroke-dashoffset:0;stroke-opacity:1"
       id="rect6532"
       width="439.85873"
       height="280.58475"
       x="0"
       y="771.77747" />
    <path
       style="opacity:0.86000001;fill:#fff6d5;fill-opacity:1;stroke:none;stroke-width:0.2;stroke-linecap:butt;stroke-linejoin:miter;stroke-miterlimit:4;stroke-dasharray:none;stroke-dashoffset:0;stroke-opacity:1"
       d="m 219.90547,898.22837 0,14.3034 a 38.390664,39.344469 0 0 1 0.037,0 38.390664,39.344469 0 0 1 38.38841,39.3475 38.390664,39.344469 0 0 1 -38.38841,39.3476 38.390664,39.344469 0 0 1 -0.037,0 l 0,14.30343 a 52.35091,53.651547 0 0 0 0.037,0 52.35091,53.651547 0 0 0 52.35253,-53.65103 52.35091,53.651547 0 0 0 -52.35253,-53.6509 52.35091,53.651547 0 0 0 -0.037,0 z"
       id="ellipse3348"
       inkscape:connector-curvature="0" />
    <path
       style="opacity:0.86000001;fill:#2c3e50;fill-opacity:1;stroke:none;stroke-width:0.2;stroke-linecap:butt;stroke-linejoin:miter;stroke-miterlimit:4;stroke-dasharray:none;stroke-dashoffset:0;stroke-opacity:1"
       d="m 219.90547,924.93207 0,7.1851 a 19.280387,19.759403 0 0 1 0.037,0 19.280387,19.759403 0 0 1 19.28273,19.7621 19.280387,19.759403 0 0 1 -19.28273,19.7622 19.280387,19.759403 0 0 1 -0.037,0 l 0,7.1851 a 26.291438,26.944639 0 0 0 0.037,0 26.291438,26.944639 0 0 0 26.29061,-26.9473 26.291438,26.944639 0 0 0 -26.29061,-26.9472 26.291438,26.944639 0 0 0 -0.037,0 z"
       id="path3355"
       inkscape:connector-curvature="0" />
    <path
       style="opacity:0.86000001;fill:#2c3e50;fill-opacity:1;stroke:none;stroke-width:0.2;stroke-linecap:butt;stroke-linejoin:miter;stroke-miterlimit:4;stroke-dasharray:none;stroke-dashoffset:0;stroke-opacity:1"
       d="m 219.90547,865.80047 0,22.9491 a 61.595999,63.12634 0 0 1 0.037,0 61.595999,63.12634 0 0 1 61.59554,63.1297 61.595999,63.12634 0 0 1 -61.59554,63.12983 61.595999,63.12634 0 0 1 -0.037,0 l 0,22.9491 a 83.994555,86.08137 0 0 0 0.037,0 83.994555,86.08137 0 0 0 83.99862,-86.07893 83.994555,86.08137 0 0 0 -83.99862,-86.0788 83.994555,86.08137 0 0 0 -0.037,0 z"
       id="path3357"
       inkscape:connector-curvature="0" />
    <circle
       r="9.2996025"
       cy="951.87909"
       cx="-220.05765"
       id="circle4189"
       style="opacity:0.86000001;fill:#fff6d5;fill-opacity:1;stroke:none;stroke-width:0.2;stroke-linecap:butt;stroke-linejoin:miter;stroke-miterlimit:4;stroke-dasharray:none;stroke-dashoffset:0;stroke-opacity:1"
       transform="scale(-1,1)" />
    <path
       id="path4191"
       d="m 220.09453,898.22837 0,14.3034 a 38.390664,39.344469 0 0 0 -0.037,0 38.390664,39.344469 0 0 0 -38.38842,39.3475 38.390664,39.344469 0 0 0 38.38842,39.3476 38.390664,39.344469 0 0 0 0.037,0 l 0,14.30343 a 52.35091,53.651547 0 0 1 -0.037,0 52.35091,53.651547 0 0 1 -52.35254,-53.65103 52.35091,53.651547 0 0 1 52.35254,-53.6509 52.35091,53.651547 0 0 1 0.037,0 z"
       style="opacity:0.86000001;fill:#2c3e50;fill-opacity:1;stroke:none;stroke-width:0.2;stroke-linecap:butt;stroke-linejoin:miter;stroke-miterlimit:4;stroke-dasharray:none;stroke-dashoffset:0;stroke-opacity:1"
       inkscape:connector-curvature="0" />
    <path
       id="path4193"
       d="m 220.09453,924.93207 0,7.1851 a 19.280387,19.759403 0 0 0 -0.037,0 19.280387,19.759403 0 0 0 -19.28274,19.7621 19.280387,19.759403 0 0 0 19.28274,19.7622 19.280387,19.759403 0 0 0 0.037,0 l 0,7.1851 a 26.291438,26.944639 0 0 1 -0.037,0 26.291438,26.944639 0 0 1 -26.29061,-26.9473 26.291438,26.944639 0 0 1 26.29061,-26.9472 26.291438,26.944639 0 0 1 0.037,0 z"
       style="opacity:0.86000001;fill:#fff6d5;fill-opacity:1;stroke:none;stroke-width:0.2;stroke-linecap:butt;stroke-linejoin:miter;stroke-miterlimit:4;stroke-dasharray:none;stroke-dashoffset:0;stroke-opacity:1"
       inkscape:connector-curvature="0" />
    <path
       id="path4195"
       d="m 220.09453,865.80047 0,22.9491 a 61.595999,63.12634 0 0 0 -0.037,0 61.595999,63.12634 0 0 0 -61.59555,63.1297 61.595999,63.12634 0 0 0 61.59555,63.12983 61.595999,63.12634 0 0 0 0.037,0 l 0,22.9491 a 83.994555,86.08137 0 0 1 -0.037,0 83.994555,86.08137 0 0 1 -83.99862,-86.07893 83.994555,86.08137 0 0 1 83.99863,-86.0788 83.994555,86.08137 0 0 1 0.037,0 z"
       style="opacity:0.86000001;fill:#fff6d5;fill-opacity:1;stroke:none;stroke-width:0.2;stroke-linecap:butt;stroke-linejoin:miter;stroke-miterlimit:4;stroke-dasharray:none;stroke-dashoffset:0;stroke-opacity:1"
       inkscape:connector-curvature="0" />
    <rect
       style="opacity:0.86000001;fill:#fff6d5;fill-opacity:1;stroke:none;stroke-width:0.2;stroke-linecap:butt;stroke-linejoin:miter;stroke-miterlimit:4;stroke-dasharray:none;stroke-dashoffset:0;stroke-opacity:1"
       id="rect5947"
       width="3.0070102"
       height="312.25415"
       x="844.19189"
       y="-376.12708"
       transform="matrix(0,1,-1,0,0,0)" />
    <text
       xml:space="preserve"
       style="font-style:normal;font-variant:normal;font-weight:normal;font-stretch:normal;font-size:8.77681828px;line-height:125%;font-family:Arial;-inkscape-font-specification:Arial;letter-spacing:0px;word-spacing:0px;opacity:0.86000001;fill:#2c3e50;fill-opacity:1;stroke:none;stroke-width:1px;stroke-linecap:butt;stroke-linejoin:miter;stroke-opacity:1"
       x="82.268311"
       y="825.01813"
       id="text5949"
       sodipodi:linespacing="125%"><tspan
         sodipodi:role="line"
         x="82.268311"
         y="825.01813"
         id="tspan5953"
         style="font-style:normal;font-variant:normal;font-weight:500;font-stretch:normal;font-size:32.91307068px;font-family:'Helvetica Neue';-inkscape-font-specification:'Helvetica Neue Medium';fill:#2c3e50;fill-opacity:1">Ears Audio Toolkit</tspan></text>
  </g>
</svg>
