<?xml version="1.0" encoding="UTF-8" standalone="no"?>
<!-- Created with Inkscape (http://www.inkscape.org/) -->

<svg
   xmlns:dc="http://purl.org/dc/elements/1.1/"
   xmlns:cc="http://creativecommons.org/ns#"
   xmlns:rdf="http://www.w3.org/1999/02/22-rdf-syntax-ns#"
   xmlns:svg="http://www.w3.org/2000/svg"
   xmlns="http://www.w3.org/2000/svg"
   xmlns:sodipodi="http://sodipodi.sourceforge.net/DTD/sodipodi-0.dtd"
   xmlns:inkscape="http://www.inkscape.org/namespaces/inkscape"
   width="1400"
   height="560"
   viewBox="0 0 1400 560"
   id="svg2"
   version="1.1"
   inkscape:version="0.91 r13725"
   sodipodi:docname="earstile.svg"
   inkscape:export-filename="/Users/kking/ws/vaux/ears/earstile1400.png"
   inkscape:export-xdpi="90"
   inkscape:export-ydpi="90">
  <defs
     id="defs4" />
  <sodipodi:namedview
     id="base"
     pagecolor="#ffffff"
     bordercolor="#666666"
     borderopacity="1.0"
     inkscape:pageopacity="0.0"
     inkscape:pageshadow="2"
     inkscape:zoom="0.56762481"
     inkscape:cx="580.43352"
     inkscape:cy="369.76495"
     inkscape:document-units="px"
     inkscape:current-layer="layer1"
     showgrid="false"
     units="px"
     inkscape:window-width="1440"
     inkscape:window-height="851"
     inkscape:window-x="0"
     inkscape:window-y="0"
     inkscape:window-maximized="1" />
  <metadata
     id="metadata7">
    <rdf:RDF>
      <cc:Work
         rdf:about="">
        <dc:format>image/svg+xml</dc:format>
        <dc:type
           rdf:resource="http://purl.org/dc/dcmitype/StillImage" />
        <dc:title></dc:title>
      </cc:Work>
    </rdf:RDF>
  </metadata>
  <g
     inkscape:label="Layer 1"
     inkscape:groupmode="layer"
     id="layer1"
     transform="translate(0,-492.3622)">
    <rect
       style="opacity:0.86000001;fill:#ffc52c;fill-opacity:1;stroke:none;stroke-width:0.2;stroke-linecap:butt;stroke-linejoin:miter;stroke-miterlimit:4;stroke-dasharray:none;stroke-dashoffset:0;stroke-opacity:1"
       id="rect6532"
       width="1400"
       height="560"
       x="0"
       y="492.36221" />
    <circle
       style="opacity:0.86000001;fill:#f5deb3;fill-opacity:1;stroke:none;stroke-width:0.2;stroke-linecap:butt;stroke-linejoin:miter;stroke-miterlimit:4;stroke-dasharray:none;stroke-dashoffset:0;stroke-opacity:1"
       id="path3340"
       cx="341.77029"
       cy="771.88062"
       r="29.599148" />
    <path
       style="opacity:0.86000001;fill:#fff6d5;fill-opacity:1;stroke:none;stroke-width:0.2;stroke-linecap:butt;stroke-linejoin:miter;stroke-miterlimit:4;stroke-dasharray:none;stroke-dashoffset:0;stroke-opacity:1"
       d="m 341.65293,601.11901 0,45.52548 a 122.19134,125.22715 0 0 1 0.11783,0 122.19134,125.22715 0 0 1 122.18417,125.23678 122.19134,125.22715 0 0 1 -122.18417,125.23682 122.19134,125.22715 0 0 1 -0.11783,0 l 0,45.52544 a 166.62457,170.76429 0 0 0 0.11783,0 166.62457,170.76429 0 0 0 166.62971,-170.76226 166.62457,170.76429 0 0 0 -166.62971,-170.76223 166.62457,170.76429 0 0 0 -0.11783,0 z"
       id="ellipse3348"
       inkscape:connector-curvature="0" />
    <path
       style="opacity:0.86000001;fill:#2c3e50;fill-opacity:1;stroke:none;stroke-width:0.2;stroke-linecap:butt;stroke-linejoin:miter;stroke-miterlimit:4;stroke-dasharray:none;stroke-dashoffset:0;stroke-opacity:1"
       d="m 341.65293,686.11243 0,22.86915 a 61.366387,62.891017 0 0 1 0.11783,0 61.366387,62.891017 0 0 1 61.37385,62.89969 61.366387,62.891017 0 0 1 -61.37385,62.89967 61.366387,62.891017 0 0 1 -0.11783,0 l 0,22.86913 a 83.68144,85.760474 0 0 0 0.11783,0 83.68144,85.760474 0 0 0 83.67879,-85.7688 83.68144,85.760474 0 0 0 -83.67879,-85.76882 83.68144,85.760474 0 0 0 -0.11783,0 z"
       id="path3355"
       inkscape:connector-curvature="0" />
    <path
       style="opacity:0.86000001;fill:#2c3e50;fill-opacity:1;stroke:none;stroke-width:0.2;stroke-linecap:butt;stroke-linejoin:miter;stroke-miterlimit:4;stroke-dasharray:none;stroke-dashoffset:0;stroke-opacity:1"
       d="m 341.65293,497.90622 0,73.04318 a 196.05021,200.92104 0 0 1 0.11783,0 196.05021,200.92104 0 0 1 196.04875,200.93185 196.05021,200.92104 0 0 1 -196.04875,200.93184 196.05021,200.92104 0 0 1 -0.11783,0 l 0,73.04321 a 267.34123,273.98323 0 0 0 0.11783,0 267.34123,273.98323 0 0 0 267.35415,-273.97505 267.34123,273.98323 0 0 0 -267.35415,-273.97503 267.34123,273.98323 0 0 0 -0.11783,0 z"
       id="path3357"
       inkscape:connector-curvature="0" />
    <circle
       r="29.599148"
       cy="771.88062"
       cx="-342.1373"
       id="circle4189"
       style="opacity:0.86000001;fill:#fff6d5;fill-opacity:1;stroke:none;stroke-width:0.2;stroke-linecap:butt;stroke-linejoin:miter;stroke-miterlimit:4;stroke-dasharray:none;stroke-dashoffset:0;stroke-opacity:1"
       transform="scale(-1,1)" />
    <path
       id="path4191"
       d="m 342.25467,601.11901 0,45.52548 a 122.19134,125.22715 0 0 0 -0.11783,0 122.19134,125.22715 0 0 0 -122.18418,125.23678 122.19134,125.22715 0 0 0 122.18418,125.23682 122.19134,125.22715 0 0 0 0.11783,0 l 0,45.52544 a 166.62457,170.76429 0 0 1 -0.11783,0 166.62457,170.76429 0 0 1 -166.62974,-170.76226 166.62457,170.76429 0 0 1 166.62974,-170.76223 166.62457,170.76429 0 0 1 0.11783,0 z"
       style="opacity:0.86000001;fill:#2c3e50;fill-opacity:1;stroke:none;stroke-width:0.2;stroke-linecap:butt;stroke-linejoin:miter;stroke-miterlimit:4;stroke-dasharray:none;stroke-dashoffset:0;stroke-opacity:1"
       inkscape:connector-curvature="0" />
    <path
       id="path4193"
       d="m 342.25467,686.11243 0,22.86915 a 61.366387,62.891017 0 0 0 -0.11783,0 61.366387,62.891017 0 0 0 -61.37386,62.89969 61.366387,62.891017 0 0 0 61.37386,62.89967 61.366387,62.891017 0 0 0 0.11783,0 l 0,22.86913 a 83.68144,85.760474 0 0 1 -0.11783,0 83.68144,85.760474 0 0 1 -83.67881,-85.7688 83.68144,85.760474 0 0 1 83.67881,-85.76882 83.68144,85.760474 0 0 1 0.11783,0 z"
       style="opacity:0.86000001;fill:#fff6d5;fill-opacity:1;stroke:none;stroke-width:0.2;stroke-linecap:butt;stroke-linejoin:miter;stroke-miterlimit:4;stroke-dasharray:none;stroke-dashoffset:0;stroke-opacity:1"
       inkscape:connector-curvature="0" />
    <path
       id="path4195"
       d="m 342.25467,497.90622 0,73.04318 a 196.05021,200.92104 0 0 0 -0.11783,0 196.05021,200.92104 0 0 0 -196.04879,200.93185 196.05021,200.92104 0 0 0 196.04879,200.93184 196.05021,200.92104 0 0 0 0.11783,0 l 0,73.04321 a 267.34123,273.98323 0 0 1 -0.11783,0 A 267.34123,273.98323 0 0 1 74.782691,771.88125 267.34123,273.98323 0 0 1 342.13687,497.90622 a 267.34123,273.98323 0 0 1 0.11783,0 z"
       style="opacity:0.86000001;fill:#fff6d5;fill-opacity:1;stroke:none;stroke-width:0.2;stroke-linecap:butt;stroke-linejoin:miter;stroke-miterlimit:4;stroke-dasharray:none;stroke-dashoffset:0;stroke-opacity:1"
       inkscape:connector-curvature="0" />
    <rect
       style="opacity:0.86000001;fill:#fff6d5;fill-opacity:1;stroke:none;stroke-width:0.2;stroke-linecap:butt;stroke-linejoin:miter;stroke-miterlimit:4;stroke-dasharray:none;stroke-dashoffset:0;stroke-opacity:1"
       id="rect5947"
       width="9.5708323"
       height="490.30551"
       x="699.2146"
       y="526.72864" />
    <text
       xml:space="preserve"
       style="font-style:normal;font-variant:normal;font-weight:normal;font-stretch:normal;font-size:24.33249664px;line-height:125%;font-family:Arial;-inkscape-font-specification:Arial;letter-spacing:0px;word-spacing:0px;opacity:0.86000001;fill:#2c3e50;fill-opacity:1;stroke:none;stroke-width:1px;stroke-linecap:butt;stroke-linejoin:miter;stroke-opacity:1"
       x="784.9101"
       y="646.22491"
       id="text5949"
       sodipodi:linespacing="125%"><tspan
         sodipodi:role="line"
         id="tspan5951"
         x="784.9101"
         y="646.22491"
         style="font-style:normal;font-variant:normal;font-weight:500;font-stretch:normal;font-size:91.24686432px;font-family:'Helvetica Neue';-inkscape-font-specification:'Helvetica Neue Medium';fill:#2c3e50;fill-opacity:1">Ears</tspan><tspan
         sodipodi:role="line"
         x="784.9101"
         y="760.28351"
         id="tspan5953"
         style="font-style:normal;font-variant:normal;font-weight:500;font-stretch:normal;font-size:91.24686432px;font-family:'Helvetica Neue';-inkscape-font-specification:'Helvetica Neue Medium';fill:#2c3e50;fill-opacity:1">Audio Toolkit</tspan></text>
    <text
       sodipodi:linespacing="125%"
       id="text5955"
       y="907.5871"
       x="779.49969"
       style="font-style:normal;font-variant:normal;font-weight:normal;font-stretch:normal;font-size:24.47024727px;line-height:125%;font-family:Arial;-inkscape-font-specification:Arial;letter-spacing:0px;word-spacing:0px;opacity:0.86000001;fill:#2c3e50;fill-opacity:1;stroke:none;stroke-width:1px;stroke-linecap:butt;stroke-linejoin:miter;stroke-opacity:1"
       xml:space="preserve"><tspan
         style="font-style:normal;font-variant:normal;font-weight:normal;font-stretch:normal;font-size:61.17562103px;font-family:'Helvetica Neue';-inkscape-font-specification:'Helvetica Neue';fill:#2c3e50;fill-opacity:1"
         id="tspan5959"
         y="907.5871"
         x="779.49969"
         sodipodi:role="line">Bring Audio to <tspan
   style="fill:#fff6d5;fill-opacity:1"
   id="tspan6503">Life</tspan></tspan></text>
  </g>
</svg>
