<svg width="393" height="239" viewBox="0 0 393 239" xmlns="http://www.w3.org/2000/svg"><title>SitesBerg</title><desc>SitesBerg</desc><defs><radialGradient cx="73.459%" cy="45.879%" fx="73.459%" fy="45.879%" r="72.601%" id="a"><stop stop-color="#ACCFE7" offset="0%"/><stop stop-color="#C4E0EF" offset="100%"/></radialGradient><radialGradient cx="64.287%" cy="25.772%" fx="64.287%" fy="25.772%" r="96.976%" id="b"><stop stop-color="#C5E1ED" offset="0%"/><stop stop-color="#C4E0EE" offset="100%"/><stop stop-color="#A2C7E0" offset="100%"/></radialGradient><radialGradient cx="70.907%" cy="41.842%" fx="70.907%" fy="41.842%" r="90.549%" id="c"><stop stop-color="#95B7DF" offset="0%"/><stop stop-color="#6484CF" offset="100%"/></radialGradient></defs><g fill="none" fill-rule="evenodd"><path fill="url(#a)" d="M208 33l80 140H128z" transform="translate(50 -1)"/><path fill="url(#b)" d="M50 88l50 85H0z" transform="translate(50 -1)"/><path fill="url(#c)" d="M99 1l99 172H0z" transform="translate(87 -1)"/><path fill="#BCDBEB" d="M161.019 43.33l12.553 22.09 14.755-24.146 8.404 13.125 10.002-18.431-20.725-36.02z"/><g><path d="M230.074 146.79v34.325h.196c2.441-5.143 6.445-7.715 12.011-7.715 4.785 0 8.952 2.027 12.5 6.08 3.549 4.052 5.323 8.764 5.323 14.135 0 5.274-1.742 10.026-5.225 14.258-3.483 4.232-7.52 6.348-12.11 6.348-5.533 0-9.7-2.979-12.5-8.936h-.195v8.3c-2.246-.39-5.306-.585-9.18-.585h-7.128v-2.49h6.836v-60.498h-6.836v-2.49h6.836c4.036 0 7.194-.245 9.472-.733zm12.11 64.892c3.255 0 5.232-1.286 5.932-3.858.7-2.571 1.05-7.405 1.05-14.502 0-7.226-.366-11.987-1.099-14.282-.732-2.295-2.758-3.442-6.079-3.442-2.571 0-4.834.789-6.787 2.368-1.953 1.579-3.312 3.434-4.077 5.566-.765 2.132-1.147 5.884-1.147 11.255 0 5.241 1.245 9.367 3.735 12.378 2.49 3.011 5.314 4.517 8.472 4.517zm62.207-20.801h-24.707c-.228 9.635.309 15.568 1.611 17.798 1.302 2.23 3.63 3.344 6.982 3.344 6.901 0 11.573-4.003 14.014-12.011h2.1c-1.075 4.85-3.109 8.43-6.104 10.742-2.995 2.311-6.331 3.467-10.01 3.467-5.24 0-9.798-1.945-13.671-5.835-3.874-3.89-5.811-8.781-5.811-14.673 0-5.73 1.896-10.547 5.688-14.453 3.793-3.907 8.195-5.86 13.208-5.86 4.362 0 8.18 1.547 11.45 4.64 3.272 3.092 5.022 7.372 5.25 12.84zm-24.707-2.197h14.209c.26-2.312.39-4.07.39-5.274 0-5.208-2.36-7.812-7.08-7.812-2.344 0-4.183.626-5.517 1.88-1.335 1.253-2.002 2.954-2.002 5.102v6.104zm37.793 21.826V177.11h-7.91v-2.49h8.007c4.102 0 7.227-.211 9.375-.635v9.229h.196c2.278-6.153 5.647-9.229 10.107-9.229 1.953 0 3.524.594 4.712 1.783 1.188 1.188 1.782 2.628 1.782 4.32 0 1.563-.48 2.825-1.44 3.785s-2.206 1.44-3.736 1.44c-2.8 0-4.199-1.4-4.199-4.199l.195-2.1c0-.748-.341-1.122-1.025-1.122-1.074 0-2.441 1.448-4.101 4.345-1.66 2.897-2.49 7.324-2.49 13.282v14.99h8.105V213h-25.489v-2.49h7.91zm64.404-30.81c1.92 2.701 2.88 5.37 2.88 8.007 0 4.46-1.798 7.837-5.395 10.132-3.597 2.295-6.535 3.442-8.813 3.442l-2.442.147c-1.139 0-2.685-.09-4.638-.269-1.953-.179-2.995-.268-3.125-.268-1.27 0-2.75.577-4.444 1.733-1.692 1.156-2.539 2.384-2.539 3.687 0 1.139.44 2.001 1.319 2.587.879.586 3.076.88 6.591.88l16.7-.684c3.483 0 6.315 1.107 8.496 3.32 2.18 2.214 3.271 5.371 3.271 9.473 0 4.785-1.97 8.813-5.908 12.085-3.939 3.271-9.391 4.907-16.357 4.907-5.404 0-9.693-1.082-12.867-3.247-3.173-2.165-4.76-4.712-4.76-7.642 0-1.79.504-3.296 1.513-4.516 1.01-1.221 3.272-2.84 6.787-4.859-5.403-1.302-8.105-4.28-8.105-8.935 0-6.25 3.37-9.782 10.107-10.596v-.195c-5.208-2.474-7.812-6.201-7.812-11.182 0-4.036 1.611-7.43 4.834-10.18 3.223-2.751 7.015-4.127 11.377-4.127 4.752 0 8.724 1.628 11.914 4.883 2.344-3.255 4.948-4.883 7.812-4.883 1.107 0 2.067.375 2.881 1.123.814.75 1.221 1.775 1.221 3.077 0 1.139-.358 2.042-1.074 2.71-.716.667-1.498 1-2.344 1-1.237 0-2.157-.57-2.759-1.708-.602-1.14-1.115-1.71-1.538-1.71-.814 0-1.741.603-2.783 1.807zm-13.525-3.81c-3.158 0-5.111.798-5.86 2.393-.749 1.595-1.123 4.265-1.123 8.008 0 5.404.35 8.887 1.05 10.45.7 1.562 2.71 2.343 6.03 2.343 3.386 0 5.42-.798 6.104-2.393.683-1.595 1.025-5.485 1.025-11.67 0-3.84-.61-6.323-1.831-7.446-1.22-1.123-3.02-1.684-5.395-1.684zm-7.374 42.725c-3.092 1.953-4.638 4.85-4.638 8.692 0 6.054 4.134 9.082 12.402 9.082 5.274 0 9.627-1.237 13.062-3.711 3.434-2.474 5.151-5.371 5.151-8.692 0-1.985-.863-3.515-2.588-4.59-1.725-1.074-3.662-1.61-5.81-1.61-.847 0-2.751.097-5.713.292-2.963.195-5.16.31-6.592.342l-5.274.195z" fill="#A6C9E2"/><path d="M26.658 174.182v10.937h-2.002c-1.497-6.348-5.143-9.521-10.938-9.521-2.506 0-4.597.659-6.274 1.977-1.676 1.319-2.515 2.824-2.515 4.517 0 1.432.594 2.563 1.783 3.393 1.188.83 3.995 1.538 8.422 2.124 9.734 1.205 14.6 5.632 14.6 13.282 0 3.808-1.261 6.982-3.784 9.521-2.523 2.54-5.656 3.809-9.4 3.809-3.678 0-7.242-1.514-10.693-4.541l-3.418 2.93H.73v-14.405h1.71c2.799 9.212 7.502 13.818 14.11 13.818 2.507 0 4.786-.797 6.836-2.392 2.051-1.595 3.077-3.467 3.077-5.615 0-1.79-.61-3.142-1.831-4.053-1.221-.912-4.517-1.758-9.888-2.54-9.147-1.334-13.72-5.403-13.72-12.206 0-3.353 1.228-6.16 3.686-8.423 2.457-2.262 5.46-3.394 9.008-3.394 3.744 0 6.885 1.237 9.424 3.711.651-.683 1.319-1.66 2.002-2.93h1.514zM42.82 155.09c0-1.432.529-2.67 1.587-3.711 1.058-1.042 2.303-1.563 3.735-1.563 1.433 0 2.678.513 3.736 1.538 1.058 1.026 1.587 2.271 1.587 3.736 0 1.53-.521 2.8-1.563 3.808-1.042 1.01-2.295 1.514-3.76 1.514-1.465 0-2.718-.513-3.76-1.538-1.041-1.025-1.562-2.287-1.562-3.784zm9.814 18.799v36.62h6.397V213H36.326v-2.49h6.836V177.11h-6.836v-2.49h6.933c3.32 0 6.446-.244 9.375-.732zm28.711-10.4v11.132h11.573v2.49H81.345v24.17c0 3.548.236 5.974.708 7.276.472 1.302 1.734 1.953 3.785 1.953 1.562 0 3.068-.521 4.516-1.563 1.449-1.041 2.547-2.653 3.296-4.834h2.1c-1.498 6.315-6.039 9.473-13.623 9.473-3.19 0-5.534-.578-7.032-1.733-1.497-1.156-2.417-2.58-2.758-4.273-.342-1.693-.513-3.988-.513-6.885v-23.584h-8.691v-2.49h8.69v-10.303a54.5 54.5 0 0 0 9.522-.83zm56.3 27.392h-24.708c-.228 9.635.31 15.568 1.612 17.798 1.302 2.23 3.63 3.344 6.982 3.344 6.901 0 11.572-4.003 14.014-12.011h2.1c-1.075 4.85-3.11 8.43-6.104 10.742-2.995 2.311-6.332 3.467-10.01 3.467-5.24 0-9.798-1.945-13.672-5.835-3.874-3.89-5.81-8.781-5.81-14.673 0-5.73 1.896-10.547 5.688-14.453 3.792-3.907 8.195-5.86 13.208-5.86 4.362 0 8.179 1.547 11.45 4.64 3.272 3.092 5.021 7.372 5.25 12.84zm-24.708-2.197h14.21c.26-2.312.39-4.07.39-5.274 0-5.208-2.36-7.812-7.08-7.812-2.344 0-4.183.626-5.518 1.88-1.334 1.253-2.002 2.954-2.002 5.102v6.104zm58.496-14.502v10.937h-2.002c-1.497-6.348-5.143-9.521-10.937-9.521-2.507 0-4.598.659-6.275 1.977-1.676 1.319-2.514 2.824-2.514 4.517 0 1.432.594 2.563 1.782 3.393 1.188.83 3.996 1.538 8.423 2.124 9.733 1.205 14.6 5.632 14.6 13.282 0 3.808-1.262 6.982-3.785 9.521-2.522 2.54-5.656 3.809-9.4 3.809-3.678 0-7.242-1.514-10.692-4.541l-3.418 2.93h-1.71v-14.405h1.71c2.8 9.212 7.503 13.818 14.11 13.818 2.507 0 4.786-.797 6.837-2.392 2.05-1.595 3.076-3.467 3.076-5.615 0-1.79-.61-3.142-1.831-4.053-1.22-.912-4.517-1.758-9.888-2.54-9.147-1.334-13.72-5.403-13.72-12.206 0-3.353 1.228-6.16 3.686-8.423 2.458-2.262 5.46-3.394 9.009-3.394 3.743 0 6.885 1.237 9.424 3.711.65-.683 1.318-1.66 2.002-2.93h1.513zm14.405 33.838c0-1.66.594-3.093 1.782-4.297 1.188-1.205 2.612-1.807 4.272-1.807 1.726 0 3.19.594 4.395 1.782 1.204 1.188 1.806 2.629 1.806 4.322 0 1.692-.602 3.149-1.806 4.37-1.205 1.22-2.67 1.83-4.395 1.83-1.66 0-3.084-.61-4.272-1.83-1.188-1.221-1.782-2.678-1.782-4.37z" fill="#7192D3"/></g></g></svg>
