<svg xmlns="http://www.w3.org/2000/svg" width="100" height="100" viewBox="0 0 100 100"><path d="M36.292 75.762l-2.02 3.7H28.05V25.47H22.5V17.73h14.717v28.762c2.69-2.606 6.14-4.71 10.85-4.71 9.755 0 17.07 7.822 17.07 18.924 0 10.68-7.736 19.26-17.66 19.26-4.71 0-8.072-1.683-11.185-4.206zm19.428-14.97c0-7.065-4.373-11.1-9.756-11.1-3.448 0-6.223 1.513-8.746 3.7V69.2c2.44 1.682 5.298 2.86 8.746 2.86 5.13 0 9.756-3.954 9.756-11.27zM67.493 73.07c0-3.868 3.11-6.98 6.896-6.98 3.783 0 6.895 3.112 6.895 6.98 0 3.784-3.112 6.896-6.896 6.896-3.786 0-6.897-3.112-6.897-6.896z"/></svg>