<svg width="281" height="37" viewBox="0 0 281 37" xmlns="http://www.w3.org/2000/svg"><title>OMG! UBUNTU!</title><defs><filter x="-50%" y="-50%" width="200%" height="200%" filterUnits="objectBoundingBox" id="a"><feOffset dy="1" in="SourceAlpha" result="shadowOffsetOuter1"/><feGaussianBlur stdDeviation="2" in="shadowOffsetOuter1" result="shadowBlurOuter1"/><feColorMatrix values="0 0 0 0 0 0 0 0 0 0 0 0 0 0 0 0 0 0 0.249244226 0" in="shadowBlurOuter1" result="shadowMatrixOuter1"/><feMerge><feMergeNode in="shadowMatrixOuter1"/><feMergeNode in="SourceGraphic"/></feMerge></filter></defs><path d="M5.71 7.046c2.475-2.474 4.92-3.71 9.336-3.71 4.527 0 8.016 1.214 10.465 3.645C27.96 9.413 29 12.817 29 17.196c0 3.185-.35 5.786-1.42 7.82-1.07 2.036-2.617 3.62-4.64 4.75-2.022 1.133-4.542 1.7-7.56 1.7-3.068 0-4.607-.49-6.617-1.467-2.01-.977-3.64-2.523-4.89-4.64C2.626 23.245 2 20.6 2 17.42c0-4.44 1.237-7.898 3.71-10.372zm4.42 10.41c0 2.745.51 4.718 1.532 5.918 1.02 1.2 2.41 1.8 4.165 1.8 1.806 0 3.204-.588 4.194-1.763.99-1.174 1.485-3.283 1.485-6.326 0-2.56-.517-4.43-1.55-5.613-1.032-1.18-2.433-1.77-4.202-1.77-1.695 0-3.055.6-4.082 1.8-1.026 1.2-1.54 3.184-1.54 5.955zM29 4h11.06L44 20.35 48.575 4H60v27h-7V10.256L47 31h-6l-5-20.744V31h-7V4zm46 17v-5.512h13v11.597c-2.784 1.695-4.983 2.848-6.894 3.46-1.91.613-4.178.92-6.8.92-3.23 0-5.86-.552-7.895-1.652-2.034-1.1-3.61-2.74-4.73-4.917C60.56 22.718 60 20.22 60 17.4c0-2.97.612-5.552 1.837-7.747 1.225-2.196 3.018-3.863 5.38-5 1.844-.88 4.324-1.318 7.44-1.318 3.007 0 5.255.272 6.746.816 1.49.546 2.727 1.39 3.71 2.534.984 1.144 1.723 2.595 2.218 4.35l-8.107 1.448c-.334-1.026-.9-1.812-1.698-2.356-.798-.544-1.815-.816-3.052-.816-1.843 0-3.312.64-4.407 1.92-1.095 1.28-1.642 3.306-1.642 6.077 0 2.944.553 5.047 1.66 6.308 1.108 1.262 2.65 1.893 4.63 1.893.94 0 1.837-.136 2.69-.408.854-.273 1.83-.736 2.596-1.392V21h-5zM89 4h8v5.996l-1.512 12.45h-4.99L89 9.996V4zm.254 20.34h7.533V31h-7.533v-6.66zM267 4h8v5.996l-1.512 12.45h-4.99L267 9.996V4zm.254 20.34h7.533V31h-7.533v-6.66zM121 4h8v16.016c0 1.608-.18 3.126-.682 4.555-.5 1.43-1.287 2.68-2.357 3.75-1.07 1.07-2.19 1.82-3.366 2.253-1.633.606-3.594.91-5.882.91-1.324 0-2.768-.093-4.333-.28-1.565-.184-2.873-.552-3.925-1.103-1.05-.55-2.013-1.333-2.885-2.347-.872-1.014-1.47-2.06-1.79-3.136-.52-1.732-.78-3.265-.78-4.6V4h8v16.405c0 1.595.798 2.644 1.62 3.48.823.834 1.964 1.252 3.424 1.252 1.447 0 2.582-.412 3.405-1.234.535-.536 1.55-1.903 1.55-3.498V4zm52 0h8v16.016c0 1.608-.18 3.126-.682 4.555-.5 1.43-1.287 2.68-2.357 3.75-1.07 1.07-2.19 1.82-3.366 2.253-1.633.606-3.594.91-5.882.91-1.324 0-2.768-.093-4.333-.28-1.565-.184-2.873-.552-3.925-1.103-1.05-.55-2.013-1.333-2.885-2.347-.872-1.014-1.47-2.06-1.79-3.136-.52-1.732-.78-3.265-.78-4.6V4h8v16.405c0 1.595.798 2.644 1.62 3.48.823.834 1.964 1.252 3.424 1.252 1.447 0 2.582-.412 3.405-1.234.535-.536 1.55-1.903 1.55-3.498V4zm84 0h8v16.016c0 1.608-.18 3.126-.682 4.555-.5 1.43-1.287 2.68-2.357 3.75-1.07 1.07-2.19 1.82-3.366 2.253-1.633.606-3.594.91-5.882.91-1.324 0-2.768-.093-4.333-.28-1.565-.184-2.873-.552-3.925-1.103-1.05-.55-2.013-1.333-2.885-2.347-.872-1.014-1.47-2.06-1.79-3.136-.52-1.732-.78-3.265-.78-4.6V4h8v16.405c0 1.595.798 2.644 1.62 3.48.823.834 1.964 1.252 3.424 1.252 1.447 0 2.582-.412 3.405-1.234.535-.536 1.55-1.903 1.55-3.498V4zM131 4h13.692c2.623 0 4.636.448 6.04 1.747 1.404 1.3 2.106 2.907 2.106 4.824 0 1.61-.5 2.99-1.503 4.14-.668.766-1.645 1.372-2.932 1.817 1.955.47 3.393 1.278 4.314 2.422.922 1.143 1.383 2.58 1.383 4.313 0 1.41-.328 2.678-.984 3.803-.655 1.126-1.552 2.017-2.69 2.672-.705.408-1.77.705-3.192.89-1.892.248-3.148.372-3.766.372H131V4zm7.438 10.468h3.655c1.31 0 2.223-.226 2.737-.677.513-.45.77-1.103.77-1.957 0-.792-.257-1.41-.77-1.855-.514-.446-1.407-.668-2.682-.668h-3.71v5.158zm0 10.687h4.286c1.447 0 2.467-.256 3.06-.77.595-.513.892-1.203.892-2.07 0-.803-.294-1.45-.882-1.938-.587-.488-1.617-.732-3.09-.732h-4.267v5.51zM183 4h8l10 14.847V4h8v27h-8l-10-14.937V31h-8V4zm28 0h26v6.516h-9.022V31H220V10.516h-9V4z" transform="translate(2)" filter="url(#a)" fill="#FFF" fill-rule="evenodd"/></svg>