<svg xmlns="http://www.w3.org/2000/svg" width="25" height="18" viewBox="0 0 25 18">
    <g fill="none" fill-rule="evenodd" transform="translate(1)">
        <rect width="21.459" height="14.806" x="2.541" fill="#388CC4" fill-opacity=".3" fill-rule="nonzero" rx="1.694"/>
        <path stroke="#4B6373" stroke-linecap="round" stroke-linejoin="round" stroke-width="1.13" d="M2.824 12.613H0M20.33 12.613h-2.824M20.33 6.306v9.57c0 .499-.625 1.124-1.13 1.124H1.13C.623 17 0 16.375 0 15.876v-7.65M20.33 8.226H0"/>
        <path stroke="#4B6373" stroke-linecap="round" stroke-linejoin="round" stroke-width="1.13" d="M0 6.032a1.194 1.194 0 0 1 1.13-1.097H19.45c.503 0 .878.57.878 1.07v2.22M7.717 13.756c-.29.15-.613.228-.94.228-.78 0-1.412-.614-1.412-1.371s.632-1.371 1.411-1.371c.328 0 .651.078.94.228M9.035 11.242l1.412 2.742 1.412-2.742M12.988 11.242l1.412 2.742 1.412-2.742"/>
    </g>
</svg>
