<svg xmlns="http://www.w3.org/2000/svg" width="25" height="24" viewBox="0 0 25 24">
    <g fill="none" fill-rule="evenodd" transform="translate(1)">
        <ellipse cx="14.207" cy="10.063" fill="#388CC4" fill-opacity=".3" fill-rule="nonzero" rx="9.655" ry="10.063"/>
        <path stroke="#4B6373" stroke-linecap="round" stroke-linejoin="round" stroke-width="1.141" d="M17.655 18.153c1.596.28 2.763 1.723 2.759 3.41-.704.83-4.29 1.299-8.276 1.411a72.069 72.069 0 0 1-3.862 0C4.296 22.856.712 22.4 0 21.565c-.005-1.687 1.162-3.131 2.759-3.412"/>
        <path stroke="#347591" stroke-linecap="round" stroke-linejoin="round" stroke-width="1.141" d="M9.38 14.95h1.103"/>
        <path stroke="#4B6373" stroke-linecap="round" stroke-linejoin="round" stroke-width="1.141" d="M9.931 20.413v2.3M4.69 6.374v3.162a.93.93 0 0 0-.552.814v1.15a.93.93 0 0 0 .552.808v.63c0 2.857 2.347 5.175 5.241 5.175 2.894 0 5.241-2.318 5.241-5.175v-.63c.552-.12.552-.437.552-.808v-1.15c0-.374 0-.69-.552-.808V7.188"/>
        <path stroke="#4B6373" stroke-linecap="round" stroke-linejoin="round" stroke-width="1.141" d="M15.172 9.52l-4.138-.032c-3.172.023-6.88-2.427-7.448-5.75h9.156c1.342 0 2.43 1.134 2.43 2.532v3.25zM9.38 14.95h1.103M7.928 22.894L4.69 18.113l1.93-1.15M12.21 22.894l3.238-4.781-1.93-1.15"/>
    </g>
</svg>
