<svg xmlns="http://www.w3.org/2000/svg" xmlns:xlink="http://www.w3.org/1999/xlink" width="364" height="70" viewBox="0 0 364 70">
  <defs>
    <rect id="dnsdb-scout-logo-w-a" width="70" height="70" rx="16"/>
  </defs>
  <g fill="none" fill-rule="evenodd">
    <path fill="#FFF" d="M94.0756595 44.6143437L98.9185764 44.6143437C104.025653 44.6143437 108.296225 41.3991881 108.296225 34.5223275 108.296225 27.6454668 104.069679 24.3856563 98.9626029 24.3856563L94.0756595 24.3856563 94.0756595 44.6143437zM99.138709 50.3301759L88 50.3301759 88 18.6698241 99.1827355 18.6698241C108.076092 18.6698241 114.592017 24.5196211 114.592017 34.5223275 114.592017 44.5250338 108.032066 50.3301759 99.138709 50.3301759zM145.110399 50.3301759L138.726553 50.3301759 124.550015 27.8687415 124.550015 50.3301759 118.474355 50.3301759 118.474355 18.6698241 126.046916 18.6698241 139.034739 39.6129905 139.034739 18.6698241 145.110399 18.6698241 145.110399 50.3301759zM171.8425 26.2165088L166.383211 27.9133965C166.075026 26.1718539 164.666177 23.4479026 160.703791 23.4479026 157.754014 23.4479026 155.816847 25.368065 155.816847 27.4668471 155.816847 29.2083897 156.91751 30.5926928 159.206889 31.0392422L163.565514 31.8876861C169.244935 33.0040595 172.282765 36.7550744 172.282765 41.2205683 172.282765 46.0879567 168.276352 51 161.011976 51 152.734991 51 149.08079 45.5967524 148.596498 41.0866035L154.231893 39.5683356C154.496052 42.6941813 156.653351 45.5074425 161.056003 45.5074425 164.313965 45.5074425 166.119052 43.8552097 166.119052 41.6224628 166.119052 39.7916103 164.75423 38.3626522 162.332772 37.8714479L157.974147 36.9783491C152.99915 35.9512855 149.785214 32.691475 149.785214 27.9133965 149.785214 22.2868742 154.760211 18 160.659764 18 168.232325 18 171.138075 22.6441137 171.8425 26.2165088zM182.108683 44.6143437L186.9516 44.6143437C192.058676 44.6143437 196.329248 41.3991881 196.329248 34.5223275 196.329248 27.6454668 192.102703 24.3856563 186.995627 24.3856563L182.108683 24.3856563 182.108683 44.6143437zM187.171733 50.3301759L176.033024 50.3301759 176.033024 18.6698241 187.215759 18.6698241C196.109116 18.6698241 202.625041 24.5196211 202.625041 34.5223275 202.625041 44.5250338 196.065089 50.3301759 187.171733 50.3301759zM206.507379 18.6698241L217.734141 18.6698241C223.8098 18.6698241 227.243869 22.2868742 227.243869 27.1989175 227.243869 30.458728 225.306702 33.0933694 222.709138 33.9864682 225.746967 34.7456022 228.212452 37.5588633 228.212452 41.488498 228.212452 46.623816 224.426172 50.3301759 218.570645 50.3301759L206.507379 50.3301759 206.507379 18.6698241zM212.494985 31.7537212L216.809584 31.7537212C219.583255 31.7537212 221.256262 30.1907984 221.256262 27.7794317 221.256262 25.368065 219.715334 23.849797 216.765558 23.849797L212.494985 23.849797 212.494985 31.7537212zM212.494985 45.1948579L217.425955 45.1948579C220.375732 45.1948579 222.136793 43.631935 222.136793 41.0866035 222.136793 38.5859269 220.551838 36.8443843 217.514008 36.8443843L212.494985 36.8443843 212.494985 45.1948579zM262.172907 26.082544L257.418043 27.6008119C257.109858 25.6359946 255.480877 22.7334235 251.298357 22.7334235 248.128448 22.7334235 245.927122 24.8768606 245.927122 27.2882273 245.927122 29.2976996 247.159865 30.8159675 249.581323 31.3518268L254.072028 32.2895805C259.575343 33.405954 262.525119 36.9336942 262.525119 41.3991881 262.525119 46.3112314 258.606759 51 251.474463 51 243.54969 51 239.895489 45.8200271 239.411197 41.2652233L244.342167 39.8362652C244.650353 43.1407307 246.983759 46.1772666 251.474463 46.1772666 255.216717 46.1772666 257.153884 44.2571042 257.153884 41.8010825 257.153884 39.7469553 255.656983 38.0947226 252.971365 37.5142084L248.568713 36.5764547C243.813849 35.594046 240.64394 32.4235453 240.64394 27.6901218 240.64394 22.376184 245.44283 18 251.254331 18 258.606759 18 261.468483 22.5548038 262.172907 26.082544zM275.212761 32.691475C272.086879 32.691475 269.313208 35.0581867 269.313208 39.4343708 269.313208 43.8105548 272.086879 46.2665765 275.300814 46.2665765 278.64683 46.2665765 280.187758 43.8998647 280.67205 42.2476319L285.162754 43.8998647C284.150144 47.2936401 280.936209 51 275.300814 51 269.005022 51 264.206132 46.0433018 264.206132 39.4343708 264.206132 32.7361299 269.005022 27.9133965 275.168735 27.9133965 280.936209 27.9133965 284.106118 31.5751015 284.986648 35.0581867L280.40789 36.7550744C279.923599 34.834912 278.470724 32.691475 275.212761 32.691475zM297.498184 46.3558863C300.668094 46.3558863 303.485791 43.9891746 303.485791 39.4343708 303.485791 34.9242219 300.668094 32.6021651 297.498184 32.6021651 294.372301 32.6021651 291.510578 34.9242219 291.510578 39.4343708 291.510578 43.9445196 294.372301 46.3558863 297.498184 46.3558863zM297.498184 27.9133965C303.926056 27.9133965 308.636893 32.7807848 308.636893 39.4343708 308.636893 46.1326116 303.926056 51 297.498184 51 291.114339 51 286.403502 46.1326116 286.403502 39.4343708 286.403502 32.7807848 291.114339 27.9133965 297.498184 27.9133965zM325.991346 47.9188092C324.93471 49.8836265 322.425198 50.9553451 319.915687 50.9553451 314.808611 50.9553451 311.814807 47.1150203 311.814807 42.2922869L311.814807 28.5832206 316.921883 28.5832206 316.921883 41.3545332C316.921883 44.0338295 318.154626 46.3112314 321.236482 46.3112314 324.186259 46.3112314 325.727187 44.3017591 325.727187 41.443843L325.727187 28.5832206 330.834263 28.5832206 330.834263 46.3558863C330.834263 48.1420839 330.966343 49.526387 331.054396 50.3301759L326.167452 50.3301759C326.079399 49.8389716 325.991346 48.811908 325.991346 47.9188092zM342.509295 21.9296346L342.509295 28.5832206 346.955973 28.5832206 346.955973 33.1826793 342.509295 33.1826793 342.509295 43.2746955C342.509295 45.1948579 343.345799 45.9986468 345.238939 45.9986468 345.943364 45.9986468 346.779867 45.864682 347 45.8200271L347 50.1069012C346.691814 50.240866 345.723231 50.5981055 343.874117 50.5981055 339.911731 50.5981055 337.446246 48.1867388 337.446246 44.1231394L337.446246 33.1826793 333.483859 33.1826793 333.483859 28.5832206 334.584522 28.5832206C336.873901 28.5832206 337.886511 27.1096076 337.886511 25.1894452L337.886511 21.9296346 342.509295 21.9296346zM355.36036 22.2778561L353.387387 22.2778561 353.387387 27 351.963964 27 351.963964 22.2778561 350 22.2778561 350 21 355.36036 21 355.36036 22.2778561zM364 27L362.603604 27 362.603604 23.022567 360.936937 27 359.783784 27 358.117117 23.0733427 358.117117 27 356.765766 27 356.765766 21 358.621622 21 360.378378 25.0535966 362.045045 21 364 21 364 27z"/>
    <use fill="#E6691F" xlink:href="#dnsdb-scout-logo-w-a"/>
    <g fill="#FFF" fill-rule="nonzero" transform="translate(9 21)">
      <path d="M48.3022222,9.5515873 L40.7911111,2.12896825 L40.7911111,2.18650794 C39.4622222,0.805555556 37.6133333,2.04422017e-15 35.5333333,2.04422017e-15 C32.8755556,2.04422017e-15 30.68,2.6468254 25.9422222,2.6468254 C21.2044444,2.6468254 19.7022222,0 16.3511111,0 C14.2711111,0 12.4222222,0.805555556 11.0933333,2.18650794 L4.16,9.14880952 C3.46666667,9.66666667 2.83111111,10.2996032 2.31111111,10.9900794 C0.866666667,12.8888889 0,15.2480159 0,17.8373016 C0,23.9940476 5.02666667,29 11.2088889,29 C16.0622222,29 20.1644444,25.9503968 21.7244444,21.6349206 C22.7644444,22.7857143 24.2666667,23.5337302 26,23.5337302 C27.7333333,23.5337302 29.2355556,22.7857143 30.2755556,21.6349206 C31.8355556,25.9503968 35.9377778,29 40.7911111,29 C46.9733333,29 52,23.9940476 52,17.8373016 C52,14.5575397 50.5555556,11.6230159 48.3022222,9.5515873 Z M11.2088889,26.640873 C6.35555556,26.640873 2.36888889,22.7281746 2.36888889,17.8373016 C2.36888889,12.9464286 6.35555556,9.09126984 11.2088889,9.09126984 C16.0622222,9.09126984 20.0488889,13.0039683 20.0488889,17.8948413 C20.0488889,22.7857143 16.0622222,26.640873 11.2088889,26.640873 Z M26,20.484127 C24.5555556,20.484127 23.3422222,19.2757937 23.3422222,17.8373016 C23.3422222,16.3988095 24.5555556,15.1904762 26,15.1904762 C27.4444444,15.1904762 28.6577778,16.3988095 28.6577778,17.8373016 C28.6577778,19.3333333 27.4444444,20.484127 26,20.484127 Z M40.7911111,26.640873 C35.9377778,26.640873 31.9511111,22.7281746 31.9511111,17.8373016 C31.9511111,12.9464286 35.88,9.03373016 40.7911111,9.03373016 C45.7022222,9.03373016 49.6311111,12.9464286 49.6311111,17.8373016 C49.6311111,22.7281746 45.6444444,26.640873 40.7911111,26.640873 Z"/>
    </g>
  </g>
</svg>
