<svg xmlns="http://www.w3.org/2000/svg" xmlns:xlink="http://www.w3.org/1999/xlink" width="256" height="256" viewBox="0 0 256 256">
  <defs>
    <linearGradient id="dnsdb-scout-icon-b" x1="16.378%" y1="0%" y2="89.955%">
      <stop offset="0%" stop-color="#FFA519"/>
      <stop offset="100%" stop-color="#E6691F"/>
    </linearGradient>
    <rect id="dnsdb-scout-icon-a" width="256" height="256" rx="38"/>
  </defs>
  <g fill="none" fill-rule="evenodd">
    <mask id="dnsdb-scout-icon-c" fill="#fff">
      <use xlink:href="#dnsdb-scout-icon-a"/>
    </mask>
    <use fill="url(#dnsdb-scout-icon-b)" xlink:href="#dnsdb-scout-icon-a"/>
    <path fill="#FFF" fill-rule="nonzero" d="M209.617935,109.831156 L182.130029,82.5778902 L182.130029,82.7891558 C177.266785,77.7187807 170.500531,74.7610619 162.888496,74.7610619 C153.162006,74.7610619 145.12708,84.4792808 127.788555,84.4792808 C110.450029,84.4792808 104.952448,74.7610619 92.6886136,74.7610619 C85.0765782,74.7610619 78.3103245,77.7187807 73.4470796,82.7891558 L48.0736283,108.352297 C45.5362832,110.253687 43.2103835,112.577609 41.3073746,115.112797 C36.0212389,122.084562 32.8495575,130.746453 32.8495575,140.253406 C32.8495575,162.858828 51.2453097,181.238938 73.8699705,181.238938 C91.6313864,181.238938 106.644012,170.04186 112.353038,154.196938 C116.159056,158.42225 121.656637,161.168703 128,161.168703 C134.343363,161.168703 139.840944,158.42225 143.646962,154.196938 C149.355988,170.04186 164.368614,181.238938 182.130029,181.238938 C204.75469,181.238938 223.150442,162.858828 223.150442,140.253406 C223.150442,128.211266 217.864307,117.436719 209.617935,109.831156 Z M73.8699705,172.577047 C56.1085546,172.577047 41.5188201,158.210985 41.5188201,140.253406 C41.5188201,122.295828 56.1085546,108.141031 73.8699705,108.141031 C91.6313864,108.141031 106.221121,122.507094 106.221121,140.464672 C106.221121,158.42225 91.6313864,172.577047 73.8699705,172.577047 Z M128,149.971625 C122.713864,149.971625 118.27351,145.535047 118.27351,140.253406 C118.27351,134.971766 122.713864,130.535188 128,130.535188 C133.286136,130.535188 137.72649,134.971766 137.72649,140.253406 C137.72649,145.746313 133.286136,149.971625 128,149.971625 Z M182.130029,172.577047 C164.368614,172.577047 149.778879,158.210985 149.778879,140.253406 C149.778879,122.295828 164.157168,107.929765 182.130029,107.929765 C200.102891,107.929765 214.48118,122.295828 214.48118,140.253406 C214.48118,158.210985 199.891445,172.577047 182.130029,172.577047 Z" mask="url(#dnsdb-scout-icon-c)"/>
  </g>
</svg>
