<?xml version="1.0" standalone="no"?><!DOCTYPE svg PUBLIC "-//W3C//DTD SVG 1.1//EN" "http://www.w3.org/Graphics/SVG/1.1/DTD/svg11.dtd"><svg t="1490167240000" class="icon" style="" viewBox="0 0 1024 1024" version="1.1" xmlns="http://www.w3.org/2000/svg" p-id="1422" xmlns:xlink="http://www.w3.org/1999/xlink" width="200" height="200"><defs><style type="text/css"></style></defs><path d="M825.196613 278.276576c15.172154-15.172154 15.172154-39.736595 0-54.908749L798.344309 196.515522c-15.172154-15.172154-39.736595-15.172154-54.908749 0l-65.866416 65.866416 81.761054 81.761054L825.196613 278.276576z" p-id="1423"></path><path d="M831.337723 416.752587l-226.378175-226.378175c-11.800564-11.800564-30.946378-11.800564-42.746943 0l-79.954845 79.954845c-11.800564 11.800564-11.800564 30.946378 0 42.746943l46.35936 46.35936L201.452493 686.479774c-20.109125 20.109125-20.109125 52.620884 0 72.730009l67.672625 67.672625c20.109125 20.109125 52.620884 20.109125 72.730009 0l327.164628-327.164628 39.495767 39.495767c11.800564 11.800564 30.946378 11.800564 42.746943 0l79.954845-79.954845C843.138288 447.578551 843.138288 428.553151 831.337723 416.752587zM333.185325 804.605833c-15.533396 15.533396-40.699906 15.533396-56.233302 0l-52.982126-52.982126c-15.533396-15.533396-15.533396-40.699906 0-56.233302L544.270931 374.968956l109.215428 109.215428L333.185325 804.605833z" p-id="1424"></path><path d="M201.813735 803.040452c0 13.125118 10.596425 23.721543 23.721543 23.721543l42.506115 0-66.227658-66.227658L201.813735 803.040452z" p-id="1425"></path></svg>