<?xml version="1.0" encoding="utf-8"?>
<!-- Generator: Adobe Illustrator 19.1.1, SVG Export Plug-In . SVG Version: 6.00 Build 0)  -->
<svg version="1.1" id="Layer_1_copy" xmlns="http://www.w3.org/2000/svg" xmlns:xlink="http://www.w3.org/1999/xlink" x="0px"
	 y="0px" viewBox="0 0 264 16" style="enable-background:new 0 0 264 16;" xml:space="preserve">
<style type="text/css">
	.st0{fill:#343434;}
</style>
<g>
	<path class="st0" d="M4.4,2.6H1.3v10h2.8c1.7,0,3-0.4,4-1.3c0.9-0.9,1.4-2.1,1.4-3.8c0-1.6-0.4-2.8-1.3-3.6S6,2.6,4.4,2.6z
		 M4.1,11.2H2.9V3.9h1.4c2.2,0,3.4,1.2,3.4,3.6C7.7,10,6.5,11.2,4.1,11.2z"/>
	<path class="st0" d="M16.2,2.4c-1.5,0-2.7,0.4-3.5,1.3s-1.2,2.2-1.2,3.8c0,1.7,0.4,2.9,1.2,3.8c0.8,0.9,2,1.3,3.5,1.3
		c1.5,0,2.6-0.5,3.5-1.4s1.2-2.2,1.2-3.8c0-1.6-0.4-2.9-1.2-3.8S17.7,2.4,16.2,2.4z M18.4,10.4c-0.5,0.6-1.2,0.9-2.2,0.9
		c-1,0-1.7-0.3-2.2-1c-0.5-0.6-0.7-1.6-0.7-2.8c0-1.2,0.2-2.2,0.7-2.8s1.2-1,2.2-1c1,0,1.7,0.3,2.2,1s0.7,1.6,0.7,2.8
		C19.1,8.8,18.8,9.7,18.4,10.4z"/>
	<path class="st0" d="M32,8.4c-0.3,1-0.4,1.8-0.5,2.5C31.4,9.8,31.2,9,31,8.4l-1.7-5.9h-1.6l-1.6,5.8C26,8.7,26,9.1,25.9,9.6
		s-0.2,0.9-0.2,1.3c-0.1-0.7-0.3-1.5-0.5-2.5l-1.4-5.8h-1.7l1.3,5l1.3,5h1.8l1.7-5.9c0.1-0.2,0.2-0.6,0.3-1s0.2-0.8,0.2-1.1
		c0,0.2,0.1,0.5,0.2,1S29,6.3,29,6.6l1.7,6h1.8l2.6-10h-1.7L32,8.4z"/>
	<path class="st0" d="M43.9,7.8c0,0.4,0,0.9,0,1.5c0,0.7,0,1,0.1,1.1h0L39,2.6h-2v10h1.5V7.4c0-0.7,0-1.5-0.1-2.3l0-0.4h0.1l4.9,8h2
		v-10h-1.5V7.8z"/>
	<polygon class="st0" points="50,2.6 48.4,2.6 48.4,12.6 54.2,12.6 54.2,11.2 50,11.2 	"/>
	<path class="st0" d="M60.4,2.4c-1.5,0-2.7,0.4-3.5,1.3c-0.8,0.9-1.2,2.2-1.2,3.8c0,1.7,0.4,2.9,1.2,3.8c0.8,0.9,2,1.3,3.5,1.3
		c1.5,0,2.6-0.5,3.5-1.4c0.8-0.9,1.2-2.2,1.2-3.8c0-1.6-0.4-2.9-1.2-3.8S61.9,2.4,60.4,2.4z M62.6,10.4c-0.5,0.6-1.2,0.9-2.2,0.9
		c-1,0-1.7-0.3-2.2-1c-0.5-0.6-0.7-1.6-0.7-2.8c0-1.2,0.2-2.2,0.7-2.8c0.5-0.6,1.2-1,2.2-1c1,0,1.7,0.3,2.2,1
		c0.5,0.6,0.7,1.6,0.7,2.8C63.3,8.8,63,9.7,62.6,10.4z"/>
	<path class="st0" d="M69.8,2.5l-3.7,10h1.7l1-2.8h3.8l1,2.8h1.7l-3.7-10H69.8z M69.2,8.4l0.9-2.6c0.2-0.7,0.4-1.3,0.5-1.8
		c0,0.2,0.1,0.5,0.3,0.9c0.1,0.4,0.2,0.7,0.3,0.9l0.9,2.7H69.2z"/>
	<path class="st0" d="M80.3,2.6h-3.1v10H80c1.7,0,3-0.4,4-1.3c0.9-0.9,1.4-2.1,1.4-3.8c0-1.6-0.4-2.8-1.3-3.6S81.9,2.6,80.3,2.6z
		 M80,11.2h-1.2V3.9h1.4c2.2,0,3.4,1.2,3.4,3.6C83.6,10,82.4,11.2,80,11.2z"/>
	<polygon class="st0" points="87.8,12.6 93.5,12.6 93.5,11.2 89.4,11.2 89.4,8 93.2,8 93.2,6.7 89.4,6.7 89.4,4 93.5,4 93.5,2.6 
		87.8,2.6 	"/>
	<path class="st0" d="M102.6,5.5c0-1-0.3-1.7-0.9-2.2s-1.6-0.7-2.9-0.7H96v10h1.6v-4h1.6l2.4,4h1.9l-2.8-4.4
		C101.9,7.6,102.6,6.7,102.6,5.5z M98.7,7.2h-1.1V4h1.1c0.7,0,1.3,0.1,1.7,0.4s0.6,0.7,0.6,1.2c0,0.6-0.2,1-0.5,1.3
		S99.5,7.2,98.7,7.2z"/>
	<polygon class="st0" points="199.1,2.9 200.8,2.9 200.8,7.9 201.8,7.9 201.8,2.9 203.5,2.9 203.5,2.1 199.1,2.1 	"/>
	<path class="st0" d="M209.2,2.1l-1.7,4.6h0l-1.6-4.6h-1.3v5.8h0.9V5.1c0-0.6,0-1.3-0.1-2h0l1.7,4.9h0.8l1.7-4.9h0
		c0,0.1,0,0.4,0,0.8s0,0.8,0,1.1v2.9h0.9V2.1H209.2z"/>
	<path class="st0" d="M122.3,5.9H122v1.4h0.3c0.3,0,0.6-0.1,0.7-0.2s0.2-0.3,0.2-0.5c0-0.2-0.1-0.4-0.2-0.5
		C122.9,6,122.7,5.9,122.3,5.9z"/>
	<path class="st0" d="M116.7,5.9c-0.4,0-0.7,0.1-1,0.4c-0.2,0.3-0.3,0.7-0.3,1.3s0.1,1,0.3,1.3c0.2,0.3,0.5,0.4,0.9,0.4
		c0.8,0,1.3-0.6,1.3-1.7C117.9,6.4,117.5,5.9,116.7,5.9z"/>
	<path class="st0" d="M122.8,2.6h-11c-2.8,0-5,2.3-5,5s2.3,5,5,5h11c2.8,0,5-2.3,5-5S125.6,2.6,122.8,2.6z M112.7,5.9h-1.8v1.3h1.7
		v0.9h-1.7v2h-1v-5h2.9V5.9z M118.4,9.5c-0.4,0.4-1,0.7-1.8,0.7s-1.4-0.2-1.8-0.7c-0.4-0.4-0.6-1.1-0.6-1.9s0.2-1.5,0.6-1.9
		c0.4-0.4,1-0.7,1.8-0.7c0.8,0,1.4,0.2,1.8,0.7c0.4,0.4,0.6,1.1,0.6,1.9C119,8.4,118.8,9,118.4,9.5z M123.8,10.1l-1.2-1.9H122v1.9
		h-1.1v-5h1.5c0.7,0,1.2,0.1,1.5,0.4c0.3,0.2,0.5,0.6,0.5,1.1c0,0.3-0.1,0.6-0.2,0.8c-0.2,0.2-0.4,0.4-0.7,0.5
		c0.8,1.1,1.2,1.8,1.5,2.2H123.8z"/>
</g>
<g>
	<path class="st0" d="M131.1,12.6v-10h1.6v10H131.1z"/>
	<path class="st0" d="M141.9,12.6h-1.6V7.9c0-0.6-0.1-1-0.4-1.3c-0.2-0.3-0.6-0.4-1.1-0.4c-0.7,0-1.2,0.2-1.5,0.6s-0.5,1.1-0.5,2
		v3.8h-1.6V5h1.3l0.2,1h0.1c0.2-0.4,0.6-0.6,1-0.8c0.4-0.2,0.9-0.3,1.4-0.3c1.8,0,2.7,0.9,2.7,2.8V12.6z"/>
	<path class="st0" d="M149.4,10.4c0,0.7-0.3,1.3-0.8,1.7c-0.5,0.4-1.3,0.6-2.3,0.6c-1,0-1.8-0.2-2.4-0.5v-1.4
		c0.9,0.4,1.7,0.6,2.5,0.6c1,0,1.5-0.3,1.5-0.9c0-0.2-0.1-0.4-0.2-0.5s-0.3-0.3-0.5-0.4c-0.3-0.1-0.6-0.3-1-0.5
		c-0.9-0.3-1.5-0.7-1.8-1s-0.5-0.8-0.5-1.3c0-0.6,0.3-1.1,0.8-1.5c0.5-0.4,1.2-0.5,2.1-0.5c0.9,0,1.7,0.2,2.5,0.5l-0.5,1.2
		c-0.8-0.3-1.5-0.5-2.1-0.5c-0.8,0-1.3,0.2-1.3,0.7c0,0.2,0.1,0.4,0.3,0.6c0.2,0.2,0.7,0.4,1.4,0.7c0.6,0.2,1.1,0.5,1.4,0.7
		c0.3,0.2,0.5,0.4,0.6,0.7C149.3,9.7,149.4,10,149.4,10.4z"/>
	<path class="st0" d="M154.1,11.4c0.4,0,0.8-0.1,1.2-0.2v1.2c-0.2,0.1-0.4,0.1-0.7,0.2c-0.3,0.1-0.6,0.1-0.9,0.1
		c-1.5,0-2.3-0.8-2.3-2.4V6.2h-1V5.5l1.1-0.6l0.5-1.6h1V5h2.2v1.2H153v4c0,0.4,0.1,0.7,0.3,0.9C153.5,11.3,153.8,11.4,154.1,11.4z"
		/>
	<path class="st0" d="M161.6,12.6l-0.3-1.1h-0.1c-0.4,0.5-0.7,0.8-1.1,0.9c-0.4,0.2-0.8,0.2-1.4,0.2c-0.7,0-1.3-0.2-1.7-0.6
		s-0.6-1-0.6-1.7c0-0.8,0.3-1.4,0.9-1.8c0.6-0.4,1.5-0.6,2.6-0.6l1.3,0V7.5c0-0.5-0.1-0.8-0.3-1.1s-0.6-0.4-1-0.4
		c-0.4,0-0.8,0.1-1.1,0.2s-0.7,0.2-1,0.4l-0.5-1.1c0.4-0.2,0.9-0.4,1.3-0.5c0.5-0.1,0.9-0.2,1.4-0.2c1,0,1.7,0.2,2.2,0.6
		c0.5,0.4,0.7,1.1,0.7,2v5.1H161.6z M159.2,11.5c0.6,0,1.1-0.2,1.4-0.5c0.4-0.3,0.5-0.8,0.5-1.4V9l-1,0c-0.8,0-1.3,0.2-1.7,0.4
		c-0.3,0.2-0.5,0.6-0.5,1c0,0.3,0.1,0.6,0.3,0.8C158.5,11.4,158.8,11.5,159.2,11.5z"/>
	<path class="st0" d="M171.5,5v0.9l-1.3,0.2c0.1,0.2,0.2,0.4,0.3,0.6c0.1,0.2,0.1,0.5,0.1,0.7c0,0.8-0.3,1.4-0.8,1.8
		c-0.5,0.4-1.3,0.7-2.2,0.7c-0.2,0-0.5,0-0.7-0.1c-0.3,0.2-0.5,0.5-0.5,0.8c0,0.2,0.1,0.3,0.2,0.4c0.2,0.1,0.5,0.1,0.9,0.1h1.3
		c0.8,0,1.5,0.2,1.9,0.5c0.4,0.4,0.6,0.9,0.6,1.5c0,0.9-0.4,1.5-1.1,2c-0.7,0.5-1.7,0.7-3.1,0.7c-1,0-1.8-0.2-2.4-0.5
		c-0.5-0.4-0.8-0.9-0.8-1.6c0-0.5,0.1-0.9,0.4-1.2c0.3-0.3,0.7-0.5,1.2-0.7c-0.2-0.1-0.4-0.2-0.5-0.4c-0.1-0.2-0.2-0.4-0.2-0.6
		c0-0.3,0.1-0.5,0.2-0.7c0.2-0.2,0.4-0.4,0.7-0.6c-0.4-0.2-0.7-0.4-1-0.8c-0.2-0.4-0.4-0.8-0.4-1.3c0-0.8,0.3-1.5,0.8-1.9
		c0.5-0.5,1.3-0.7,2.2-0.7c0.2,0,0.4,0,0.7,0c0.2,0,0.4,0.1,0.5,0.1H171.5z M165.6,13.7c0,0.3,0.2,0.6,0.5,0.8
		c0.3,0.2,0.8,0.3,1.3,0.3c0.9,0,1.5-0.1,2-0.4c0.4-0.3,0.6-0.6,0.6-1c0-0.3-0.1-0.6-0.4-0.7c-0.2-0.1-0.7-0.2-1.3-0.2h-1.2
		c-0.5,0-0.8,0.1-1.1,0.3C165.7,13.1,165.6,13.4,165.6,13.7z M166.3,7.5c0,0.5,0.1,0.8,0.4,1.1c0.2,0.3,0.6,0.4,1,0.4
		c0.9,0,1.4-0.5,1.4-1.5c0-0.5-0.1-0.9-0.3-1.1c-0.2-0.3-0.6-0.4-1-0.4c-0.5,0-0.8,0.1-1.1,0.4S166.3,6.9,166.3,7.5z"/>
	<path class="st0" d="M176.9,4.9c0.3,0,0.6,0,0.8,0.1l-0.2,1.5c-0.2-0.1-0.5-0.1-0.7-0.1c-0.6,0-1.2,0.2-1.6,0.6
		c-0.4,0.4-0.6,1-0.6,1.6v4H173V5h1.3l0.2,1.3h0.1c0.3-0.5,0.6-0.8,1-1.1S176.4,4.9,176.9,4.9z"/>
	<path class="st0" d="M183.9,12.6l-0.3-1.1h-0.1c-0.4,0.5-0.7,0.8-1.1,0.9c-0.4,0.2-0.8,0.2-1.4,0.2c-0.7,0-1.3-0.2-1.7-0.6
		s-0.6-1-0.6-1.7c0-0.8,0.3-1.4,0.9-1.8c0.6-0.4,1.5-0.6,2.6-0.6l1.3,0V7.5c0-0.5-0.1-0.8-0.3-1.1s-0.6-0.4-1-0.4
		c-0.4,0-0.8,0.1-1.1,0.2s-0.7,0.2-1,0.4l-0.5-1.1c0.4-0.2,0.9-0.4,1.3-0.5c0.5-0.1,0.9-0.2,1.4-0.2c1,0,1.7,0.2,2.2,0.6
		c0.5,0.4,0.7,1.1,0.7,2v5.1H183.9z M181.5,11.5c0.6,0,1.1-0.2,1.4-0.5c0.4-0.3,0.5-0.8,0.5-1.4V9l-1,0c-0.8,0-1.3,0.2-1.7,0.4
		c-0.3,0.2-0.5,0.6-0.5,1c0,0.3,0.1,0.6,0.3,0.8C180.8,11.4,181.1,11.5,181.5,11.5z"/>
	<path class="st0" d="M193.8,12.6h-1.6V7.9c0-0.6-0.1-1-0.3-1.3s-0.6-0.4-1-0.4c-0.6,0-1.1,0.2-1.4,0.6c-0.3,0.4-0.4,1.1-0.4,2v3.8
		h-1.6V5h1.3l0.2,1h0.1c0.2-0.4,0.5-0.6,0.9-0.8c0.4-0.2,0.8-0.3,1.3-0.3c1.2,0,1.9,0.4,2.3,1.2h0.1c0.2-0.4,0.5-0.7,0.9-0.9
		c0.4-0.2,0.9-0.3,1.4-0.3c0.9,0,1.6,0.2,2,0.7c0.4,0.5,0.6,1.2,0.6,2.1v4.9H197V7.9c0-0.6-0.1-1-0.3-1.3c-0.2-0.3-0.6-0.4-1-0.4
		c-0.6,0-1.1,0.2-1.4,0.6c-0.3,0.4-0.4,1-0.4,1.8V12.6z"/>
	<path class="st0" d="M222.7,9.9c0,0.9-0.3,1.6-1,2.1s-1.5,0.8-2.7,0.8c-1.1,0-2.1-0.2-2.8-0.5v-1.5c0.5,0.2,0.9,0.4,1.5,0.5
		s1,0.2,1.4,0.2c0.6,0,1.1-0.1,1.4-0.4c0.3-0.2,0.5-0.6,0.5-1c0-0.4-0.1-0.7-0.4-1s-0.9-0.6-1.8-0.9c-0.9-0.4-1.6-0.8-1.9-1.3
		c-0.4-0.5-0.6-1-0.6-1.7c0-0.8,0.3-1.5,0.9-2c0.6-0.5,1.4-0.7,2.4-0.7c1,0,1.9,0.2,2.9,0.6L222,4.4c-0.9-0.4-1.7-0.6-2.4-0.6
		c-0.5,0-0.9,0.1-1.2,0.3S218,4.7,218,5.1c0,0.3,0.1,0.5,0.2,0.7s0.3,0.4,0.5,0.5s0.7,0.4,1.4,0.6c0.7,0.3,1.3,0.6,1.6,0.9
		s0.6,0.6,0.8,0.9C222.6,9,222.7,9.4,222.7,9.9z"/>
	<path class="st0" d="M227.4,11.4c0.4,0,0.8-0.1,1.2-0.2v1.2c-0.2,0.1-0.4,0.1-0.7,0.2c-0.3,0.1-0.6,0.1-0.9,0.1
		c-1.5,0-2.3-0.8-2.3-2.4V6.2h-1V5.5l1.1-0.6l0.5-1.6h1V5h2.2v1.2h-2.2v4c0,0.4,0.1,0.7,0.3,0.9C226.8,11.3,227.1,11.4,227.4,11.4z"
		/>
	<path class="st0" d="M236.9,8.8c0,1.2-0.3,2.2-1,2.9s-1.5,1-2.6,1c-0.7,0-1.3-0.2-1.9-0.5s-1-0.8-1.3-1.4s-0.4-1.3-0.4-2.1
		c0-1.2,0.3-2.2,0.9-2.9s1.5-1,2.7-1c1.1,0,2,0.4,2.6,1.1S236.9,7.6,236.9,8.8z M231.4,8.8c0,1.7,0.6,2.6,1.9,2.6
		c1.3,0,1.9-0.9,1.9-2.6c0-1.7-0.6-2.6-1.9-2.6c-0.7,0-1.2,0.2-1.5,0.7C231.6,7.3,231.4,7.9,231.4,8.8z"/>
	<path class="st0" d="M242.7,4.9c0.3,0,0.6,0,0.8,0.1l-0.2,1.5c-0.2-0.1-0.5-0.1-0.7-0.1c-0.6,0-1.2,0.2-1.6,0.6
		c-0.4,0.4-0.6,1-0.6,1.6v4h-1.6V5h1.3l0.2,1.3h0.1c0.3-0.5,0.6-0.8,1-1.1C241.8,5,242.3,4.9,242.7,4.9z"/>
	<path class="st0" d="M245,3c0-0.3,0.1-0.5,0.2-0.7c0.2-0.2,0.4-0.2,0.7-0.2c0.3,0,0.5,0.1,0.7,0.2c0.2,0.2,0.2,0.4,0.2,0.7
		c0,0.3-0.1,0.5-0.2,0.6c-0.2,0.2-0.4,0.2-0.7,0.2c-0.3,0-0.5-0.1-0.7-0.2C245,3.5,245,3.3,245,3z M246.7,12.6h-1.6V5h1.6V12.6z"/>
	<path class="st0" d="M252.4,12.7c-1.2,0-2.1-0.3-2.8-1c-0.7-0.7-1-1.6-1-2.8c0-1.2,0.3-2.2,0.9-2.9s1.5-1.1,2.5-1.1
		c1,0,1.8,0.3,2.4,0.9s0.9,1.4,0.9,2.5v0.9h-5c0,0.7,0.2,1.3,0.6,1.7c0.4,0.4,0.9,0.6,1.6,0.6c0.4,0,0.9,0,1.2-0.1
		c0.4-0.1,0.8-0.2,1.2-0.4v1.3c-0.4,0.2-0.8,0.3-1.2,0.4S252.9,12.7,252.4,12.7z M252.1,6.1c-0.5,0-0.9,0.2-1.2,0.5
		c-0.3,0.3-0.5,0.8-0.6,1.4h3.4c0-0.6-0.2-1.1-0.5-1.4S252.6,6.1,252.1,6.1z"/>
	<path class="st0" d="M262.4,10.4c0,0.7-0.3,1.3-0.8,1.7c-0.5,0.4-1.3,0.6-2.3,0.6c-1,0-1.8-0.2-2.4-0.5v-1.4
		c0.9,0.4,1.7,0.6,2.5,0.6c1,0,1.5-0.3,1.5-0.9c0-0.2-0.1-0.4-0.2-0.5s-0.3-0.3-0.5-0.4s-0.6-0.3-1-0.5c-0.9-0.3-1.5-0.7-1.8-1
		c-0.3-0.3-0.5-0.8-0.5-1.3c0-0.6,0.3-1.1,0.8-1.5c0.5-0.4,1.2-0.5,2.1-0.5c0.9,0,1.7,0.2,2.5,0.5l-0.5,1.2
		c-0.8-0.3-1.5-0.5-2.1-0.5c-0.8,0-1.3,0.2-1.3,0.7c0,0.2,0.1,0.4,0.3,0.6c0.2,0.2,0.7,0.4,1.4,0.7c0.6,0.2,1.1,0.5,1.4,0.7
		s0.5,0.4,0.6,0.7C262.3,9.7,262.4,10,262.4,10.4z"/>
</g>
</svg>
