<svg xmlns="http://www.w3.org/2000/svg" width="41" height="38" viewBox="0 0 41 38">
    <g fill="none" fill-rule="evenodd" transform="translate(1)">
        <circle cx="22.5" cy="17.5" r="17.5" fill="#FFA23C" fill-opacity=".6" fill-rule="nonzero"/>
        <path stroke="#323E53" stroke-linecap="round" stroke-linejoin="round" stroke-width="1.975" d="M21.848 13.962c-3.172-2.213-4.496-.073-4.28 1.102.192 1.043 1.677 1.39 2.286 1.462 4.335.6 1.445 5.558-2.854 2.467M19 11l.005 1M19 20l.005 2"/>
        <path stroke="#323E53" stroke-linecap="round" stroke-linejoin="round" stroke-width="1.975" d="M12.5 21.4c-2.708-2.855-3.274-7.046-1.414-10.477 1.859-3.431 5.744-5.366 9.712-4.836 3.968.529 7.166 3.408 7.996 7.198.829 3.79-.888 7.676-4.294 9.715M6 23v14M2 37c-.91 0-2-1.125-2-1.984V24.932c0-.865.365-1.96 1.78-1.931H6M14.416 29.28h9.831l9.001-3.14c.99-.381 2.122.044 2.569.963.446.92.05 2.01-.899 2.475L18.271 37 6 34.49M6 25h13"/>
    </g>
</svg>
