<svg xmlns="http://www.w3.org/2000/svg" width="144" height="36" viewBox="0 0 144 36">
  <g fill="none">
    <path fill="#191919" d="M0.0889673433,0.0774193548 L14.666902,0.0774193548 L14.666902,2.83870968 L8.9348632,2.83870968 L8.9348632,18.3612903 L5.78287732,18.3612903 L5.78287732,2.83870968 L0.0762577229,2.83870968 L0.0762577229,0.0774193548 L0.0889673433,0.0774193548 Z M14.0441306,5.12258065 L16.7385702,5.12258065 L16.7385702,7.67741935 L16.7894086,7.67741935 C16.878376,7.31612903 17.0436011,6.96774194 17.2850838,6.63225806 C17.5265666,6.29677419 17.8188879,5.97419355 18.1620477,5.70322581 C18.5052074,5.41935484 18.886496,5.2 19.3059135,5.01935484 C19.725331,4.8516129 20.1574581,4.76129032 20.5895852,4.76129032 C20.9200353,4.76129032 21.1615181,4.77419355 21.2886143,4.78709677 C21.4157105,4.8 21.5428067,4.82580645 21.6826125,4.83870968 L21.6826125,7.6516129 C21.4792586,7.61290323 21.2759047,7.58709677 21.0598411,7.56129032 C20.8437776,7.53548387 20.6404237,7.52258065 20.4370697,7.52258065 C19.9541041,7.52258065 19.4965578,7.62580645 19.0644307,7.81935484 C18.6323036,8.01290323 18.2637246,8.30967742 17.9459841,8.68387097 C17.6282436,9.07096774 17.3740512,9.53548387 17.1834069,10.1032258 C16.9927626,10.6709677 16.9037952,11.316129 16.9037952,12.0516129 L16.9037952,18.3483871 L14.031421,18.3483871 L14.031421,5.12258065 L14.0441306,5.12258065 Z M34.8879082,18.3612903 L32.0663725,18.3612903 L32.0663725,16.516129 L32.015534,16.516129 C31.6596646,17.1870968 31.1385702,17.716129 30.439541,18.116129 C29.7405119,18.516129 29.0287732,18.7225806 28.3043248,18.7225806 C26.588526,18.7225806 25.3429832,18.2967742 24.580406,17.4322581 C23.8178288,16.5677419 23.4365402,15.2645161 23.4365402,13.5225806 L23.4365402,5.12258065 L26.3089144,5.12258065 L26.3089144,13.2387097 C26.3089144,14.4 26.5249779,15.2258065 26.9698147,15.7032258 C27.4019417,16.1806452 28.0247132,16.4258065 28.8127096,16.4258065 C29.4227714,16.4258065 29.9184466,16.3354839 30.3251545,16.1419355 C30.7318623,15.9483871 31.0623124,15.7032258 31.3037952,15.3806452 C31.5579876,15.0709677 31.7359223,14.683871 31.8503089,14.2451613 C31.9646955,13.8064516 32.015534,13.3290323 32.015534,12.8129032 L32.015534,5.13548387 L34.8879082,5.13548387 L34.8879082,18.3612903 Z M39.7811121,14.116129 C39.8700794,14.9677419 40.1878199,15.5612903 40.7343336,15.9096774 C41.2935569,16.2451613 41.9544572,16.4258065 42.729744,16.4258065 C42.9966461,16.4258065 43.301677,16.4 43.6448367,16.3612903 C43.9879965,16.3225806 44.3184466,16.2322581 44.6107679,16.116129 C44.9157988,16 45.1572816,15.8193548 45.3606355,15.5870968 C45.5512798,15.3548387 45.6402471,15.0580645 45.6275375,14.683871 C45.6148279,14.3096774 45.4750221,14 45.2208297,13.7677419 C44.9666372,13.5225806 44.6488967,13.3419355 44.2548985,13.1870968 C43.8609003,13.0451613 43.4160635,12.916129 42.9076787,12.8129032 C42.3992939,12.7096774 41.8909091,12.5935484 41.3698147,12.4774194 C40.8360106,12.3612903 40.3149162,12.2064516 39.819241,12.0387097 C39.3235658,11.8709677 38.878729,11.6387097 38.4847308,11.3419355 C38.0907326,11.0580645 37.7729921,10.683871 37.5442189,10.2322581 C37.3027361,9.78064516 37.1883495,9.22580645 37.1883495,8.55483871 C37.1883495,7.83225806 37.3662842,7.23870968 37.709444,6.7483871 C38.0526037,6.25806452 38.4974404,5.87096774 39.0185349,5.57419355 C39.5523389,5.27741935 40.1369815,5.07096774 40.7851721,4.94193548 C41.4333628,4.82580645 42.0561342,4.76129032 42.6407767,4.76129032 C43.3143866,4.76129032 43.9625772,4.83870968 44.572639,4.98064516 C45.1827008,5.12258065 45.7419241,5.35483871 46.2375993,5.69032258 C46.7332745,6.01290323 47.1399823,6.43870968 47.4704325,6.95483871 C47.8008826,7.47096774 48.0042365,8.10322581 48.0932039,8.83870968 L45.0937335,8.83870968 C44.9539276,8.14193548 44.6488967,7.66451613 44.1532215,7.43225806 C43.6575463,7.18709677 43.0856134,7.07096774 42.4501324,7.07096774 C42.2467785,7.07096774 42.0052957,7.08387097 41.725684,7.12258065 C41.4460724,7.16129032 41.19188,7.22580645 40.9376876,7.31612903 C40.6962048,7.40645161 40.4928508,7.5483871 40.3149162,7.72903226 C40.1496911,7.90967742 40.0607237,8.14193548 40.0607237,8.43870968 C40.0607237,8.8 40.1878199,9.08387097 40.4293027,9.30322581 C40.6707855,9.52258065 40.988526,9.70322581 41.3825243,9.85806452 C41.7765225,10 42.2213592,10.1290323 42.729744,10.2322581 C43.2381289,10.3354839 43.7592233,10.4516129 44.2930274,10.5677419 C44.8141218,10.683871 45.3225066,10.8387097 45.8308914,11.0064516 C46.3392763,11.1741935 46.784113,11.4064516 47.1781112,11.7032258 C47.5721094,12 47.88985,12.3612903 48.1313327,12.8 C48.3728155,13.2387097 48.4999117,13.7935484 48.4999117,14.4387097 C48.4999117,15.2258065 48.3219771,15.883871 47.9661077,16.4387097 C47.6102383,16.9806452 47.152692,17.4322581 46.5934687,17.7677419 C46.0342454,18.1032258 45.3987643,18.3612903 44.7124448,18.516129 C44.0261253,18.6709677 43.3398058,18.7483871 42.6661959,18.7483871 C41.8400706,18.7483871 41.0774934,18.6580645 40.3784643,18.4645161 C39.6794351,18.2709677 39.0693733,17.9870968 38.5609885,17.6129032 C38.0526037,17.2258065 37.6458959,16.7483871 37.3535746,16.1806452 C37.0612533,15.6129032 36.9087379,14.9290323 36.8833186,14.1419355 L39.7811121,14.1419355 L39.7811121,14.116129 Z M49.262489,5.12258065 L51.4358341,5.12258065 L51.4358341,1.1483871 L54.3082083,1.1483871 L54.3082083,5.12258065 L56.9009709,5.12258065 L56.9009709,7.30322581 L54.3082083,7.30322581 L54.3082083,14.3741935 C54.3082083,14.683871 54.3209179,14.9419355 54.3463372,15.1741935 C54.3717564,15.3935484 54.4353045,15.5870968 54.5242718,15.7419355 C54.6132392,15.8967742 54.753045,16.0129032 54.9436893,16.0903226 C55.1343336,16.1677419 55.3758164,16.2064516 55.7062665,16.2064516 C55.9096205,16.2064516 56.1129744,16.2064516 56.3163283,16.1935484 C56.5196823,16.1806452 56.7230362,16.1548387 56.9263901,16.1032258 L56.9263901,18.3612903 C56.6086496,18.4 56.2909091,18.4258065 55.9985878,18.4645161 C55.6935569,18.5032258 55.388526,18.516129 55.0707855,18.516129 C54.3082083,18.516129 53.6981465,18.4387097 53.2406002,18.2967742 C52.7830538,18.1548387 52.4144748,17.9354839 52.1602824,17.6516129 C51.8933804,17.3677419 51.7281553,17.0193548 51.6264784,16.5935484 C51.537511,16.1677419 51.4739629,15.6774194 51.4612533,15.1354839 L51.4612533,7.32903226 L49.2879082,7.32903226 L49.2879082,5.12258065 L49.262489,5.12258065 Z M58.9345102,5.12258065 L61.6543689,5.12258065 L61.6543689,6.91612903 L61.7052074,6.91612903 C62.1119153,6.14193548 62.6711386,5.6 63.3955869,5.26451613 C64.1200353,4.92903226 64.8953222,4.76129032 65.7468667,4.76129032 C66.776346,4.76129032 67.6660194,4.94193548 68.4285966,5.31612903 C69.1911739,5.67741935 69.8266549,6.18064516 70.3350397,6.82580645 C70.8434245,7.47096774 71.2120035,8.21935484 71.4661959,9.07096774 C71.7203883,9.92258065 71.8474846,10.8387097 71.8474846,11.8064516 C71.8474846,12.6967742 71.733098,13.5612903 71.5043248,14.3870968 C71.2755516,15.2258065 70.9323919,15.9612903 70.4748455,16.6064516 C70.0172992,17.2516129 69.4326567,17.7548387 68.7209179,18.1419355 C68.0091792,18.5290323 67.1830538,18.7225806 66.2171227,18.7225806 C65.7977052,18.7225806 65.3782877,18.683871 64.9588703,18.6064516 C64.5394528,18.5290323 64.1327449,18.4 63.7514563,18.2322581 C63.3701677,18.0645161 63.0015887,17.8451613 62.6838482,17.5741935 C62.3533981,17.3032258 62.086496,16.9935484 61.8577229,16.6451613 L61.8068844,16.6451613 L61.8068844,23.2516129 L58.9345102,23.2516129 L58.9345102,5.12258065 Z M68.9751103,11.7548387 C68.9751103,11.1612903 68.8988526,10.5806452 68.7463372,10.0129032 C68.5938217,9.44516129 68.3650485,8.95483871 68.0600177,8.51612903 C67.7549868,8.07741935 67.3736981,7.72903226 66.9288614,7.47096774 C66.4713151,7.21290323 65.9502207,7.07096774 65.3655781,7.07096774 C64.1581642,7.07096774 63.2430715,7.49677419 62.6330097,8.3483871 C62.0229479,9.2 61.717917,10.3354839 61.717917,11.7548387 C61.717917,12.4258065 61.7941748,13.0451613 61.9593998,13.6129032 C62.1246249,14.1806452 62.3533981,14.6709677 62.6838482,15.083871 C63.0015887,15.4967742 63.3828773,15.8193548 63.827714,16.0516129 C64.2725508,16.2967742 64.7936452,16.4129032 65.3782877,16.4129032 C66.039188,16.4129032 66.5857017,16.2709677 67.043248,16 C67.5007944,15.7290323 67.8693733,15.3677419 68.1616946,14.9419355 C68.4540159,14.5032258 68.6700794,14.0129032 68.7971756,13.4580645 C68.9115622,12.9032258 68.9751103,12.3354839 68.9751103,11.7548387 Z M74.0462489,0.0774193548 L76.9186231,0.0774193548 L76.9186231,2.83870968 L74.0462489,2.83870968 L74.0462489,0.0774193548 Z M74.0462489,5.12258065 L76.9186231,5.12258065 L76.9186231,18.3612903 L74.0462489,18.3612903 L74.0462489,5.12258065 Z M79.4859665,0.0774193548 L82.3583407,0.0774193548 L82.3583407,18.3612903 L79.4859665,18.3612903 L79.4859665,0.0774193548 Z M91.1661077,18.7225806 C90.1239188,18.7225806 89.1961165,18.5419355 88.3827008,18.1935484 C87.5692851,17.8451613 86.8829656,17.3548387 86.3110327,16.7483871 C85.7518094,16.1290323 85.3196823,15.3935484 85.027361,14.5419355 C84.7350397,13.6903226 84.5825243,12.7483871 84.5825243,11.7290323 C84.5825243,10.7225806 84.7350397,9.79354839 85.027361,8.94193548 C85.3196823,8.09032258 85.7518094,7.35483871 86.3110327,6.73548387 C86.870256,6.11612903 87.5692851,5.63870968 88.3827008,5.29032258 C89.1961165,4.94193548 90.1239188,4.76129032 91.1661077,4.76129032 C92.2082966,4.76129032 93.1360989,4.94193548 93.9495146,5.29032258 C94.7629303,5.63870968 95.4492498,6.12903226 96.0211827,6.73548387 C96.580406,7.35483871 97.0125331,8.09032258 97.3048544,8.94193548 C97.5971756,9.79354839 97.7496911,10.7225806 97.7496911,11.7290323 C97.7496911,12.7483871 97.5971756,13.6903226 97.3048544,14.5419355 C97.0125331,15.3935484 96.580406,16.1290323 96.0211827,16.7483871 C95.4619594,17.3677419 94.7629303,17.8451613 93.9495146,18.1935484 C93.1360989,18.5419355 92.2082966,18.7225806 91.1661077,18.7225806 Z M91.1661077,16.4129032 C91.8015887,16.4129032 92.360812,16.2709677 92.831068,16 C93.3013239,15.7290323 93.6826125,15.3677419 93.9876434,14.9290323 C94.2926743,14.4903226 94.5087379,13.9870968 94.6612533,13.4322581 C94.8010591,12.8774194 94.8773169,12.3096774 94.8773169,11.7290323 C94.8773169,11.1612903 94.8010591,10.6064516 94.6612533,10.0387097 C94.5214475,9.47096774 94.2926743,8.98064516 93.9876434,8.54193548 C93.6826125,8.10322581 93.3013239,7.75483871 92.831068,7.48387097 C92.360812,7.21290323 91.8015887,7.07096774 91.1661077,7.07096774 C90.5306267,7.07096774 89.9714034,7.21290323 89.5011474,7.48387097 C89.0308914,7.75483871 88.6496028,8.11612903 88.3445719,8.54193548 C88.039541,8.98064516 87.8234775,9.47096774 87.670962,10.0387097 C87.5311562,10.6064516 87.4548985,11.1612903 87.4548985,11.7290323 C87.4548985,12.3096774 87.5311562,12.8774194 87.670962,13.4322581 C87.8107679,13.9870968 88.039541,14.4903226 88.3445719,14.9290323 C88.6496028,15.3677419 89.0308914,15.7290323 89.5011474,16 C89.9714034,16.283871 90.5306267,16.4129032 91.1661077,16.4129032 Z M98.588526,5.12258065 L100.761871,5.12258065 L100.761871,1.1483871 L103.634245,1.1483871 L103.634245,5.12258065 L106.227008,5.12258065 L106.227008,7.30322581 L103.634245,7.30322581 L103.634245,14.3741935 C103.634245,14.683871 103.646955,14.9419355 103.672374,15.1741935 C103.697793,15.3935484 103.761342,15.5870968 103.850309,15.7419355 C103.939276,15.8967742 104.079082,16.0129032 104.269726,16.0903226 C104.460371,16.1677419 104.701853,16.2064516 105.032304,16.2064516 C105.235658,16.2064516 105.439011,16.2064516 105.642365,16.1935484 C105.845719,16.1806452 106.049073,16.1548387 106.252427,16.1032258 L106.252427,18.3612903 C105.934687,18.4 105.616946,18.4258065 105.324625,18.4645161 C105.019594,18.5032258 104.714563,18.516129 104.396823,18.516129 C103.634245,18.516129 103.024184,18.4387097 102.566637,18.2967742 C102.109091,18.1548387 101.740512,17.9354839 101.48632,17.6516129 C101.219417,17.3677419 101.054192,17.0193548 100.952515,16.5935484 C100.863548,16.1677419 100.8,15.6774194 100.78729,15.1354839 L100.78729,7.32903226 L98.6139453,7.32903226 L98.6139453,5.12258065 L98.588526,5.12258065 Z" transform="translate(37.748 12.645)"/>
    <polygon fill="#00B67A" points="34.481 12.723 21.314 12.723 17.247 0 13.167 12.723 0 12.71 10.663 20.581 6.584 33.29 17.247 25.432 27.898 33.29 23.831 20.581 34.481 12.723 34.481 12.723"/>
    <polygon fill="#005128" points="24.746 23.458 23.831 20.581 17.247 25.432"/>
  </g>
</svg>
