<svg xmlns="http://www.w3.org/2000/svg" xmlns:xlink="http://www.w3.org/1999/xlink" width="1920" height="920" viewBox="0 0 1920 920">
    <defs>
        <linearGradient id="b" x1="0%" y1="46.024%" y2="46.024%">
            <stop offset="0%" stop-color="#FFF"/>
            <stop offset="100%" stop-color="#E5E5E5"/>
        </linearGradient>
        <path id="a" d="M0 0h1920v920H0z"/>
    </defs>
    <g fill="none" fill-rule="evenodd">
        <mask id="c" fill="#fff">
            <use xlink:href="#a"/>
        </mask>
        <use fill="url(#b)" fill-rule="nonzero" xlink:href="#a"/>
        <circle cy="920" r="400" stroke="#F2F2F2" stroke-width="50" mask="url(#c)"/>
        <circle cy="920" r="350" stroke="#F2F2F2" stroke-width="30" mask="url(#c)"/>
        <circle cy="920" r="300" fill="#F6F6F6" fill-rule="nonzero" mask="url(#c)"/>
        <circle cy="920" r="200" fill="#EFEDED" fill-rule="nonzero" mask="url(#c)"/>
        <circle cy="920" r="150" fill="#F2F2F2" fill-rule="nonzero" mask="url(#c)"/>
        <path fill="#EFEDED" d="M1309.22 794.74v-21.48c0-6.18 2.82-10.62 9.24-10.62s9.24 4.44 9.24 10.62v21.48c0 6.12-2.82 10.62-9.24 10.62s-9.24-4.5-9.24-10.62zm2.76-21.66v21.78c0 4.62 1.86 7.98 6.48 7.98s6.48-3.36 6.48-7.98v-21.78c0-4.56-1.86-7.92-6.48-7.92s-6.48 3.36-6.48 7.92zm22.1 21.66v-21.48c0-6.18 2.82-10.62 9.24-10.62s9.24 4.44 9.24 10.62v21.48c0 6.12-2.82 10.62-9.24 10.62s-9.24-4.5-9.24-10.62zm2.76-21.66v21.78c0 4.62 1.86 7.98 6.48 7.98s6.48-3.36 6.48-7.98v-21.78c0-4.56-1.86-7.92-6.48-7.92s-6.48 3.36-6.48 7.92zm22.1 21.66v-21.48c0-6.18 2.82-10.62 9.24-10.62s9.24 4.44 9.24 10.62v21.48c0 6.12-2.82 10.62-9.24 10.62s-9.24-4.5-9.24-10.62zm2.76-21.66v21.78c0 4.62 1.86 7.98 6.48 7.98s6.48-3.36 6.48-7.98v-21.78c0-4.56-1.86-7.92-6.48-7.92s-6.48 3.36-6.48 7.92zm22.1 21.66v-21.48c0-6.18 2.82-10.62 9.24-10.62s9.24 4.44 9.24 10.62v21.48c0 6.12-2.82 10.62-9.24 10.62s-9.24-4.5-9.24-10.62zm2.76-21.66v21.78c0 4.62 1.86 7.98 6.48 7.98s6.48-3.36 6.48-7.98v-21.78c0-4.56-1.86-7.92-6.48-7.92s-6.48 3.36-6.48 7.92zm30.26 31.92v-37.32c-1.5 1.98-3.72 3.3-6.54 3.54v-2.4c4.14-.3 6.06-2.76 7.14-5.88h2.16V805h-2.76zm10.7-10.26v-21.48c0-6.18 2.82-10.62 9.24-10.62s9.24 4.44 9.24 10.62v21.48c0 6.12-2.82 10.62-9.24 10.62s-9.24-4.5-9.24-10.62zm2.76-21.66v21.78c0 4.62 1.86 7.98 6.48 7.98s6.48-3.36 6.48-7.98v-21.78c0-4.56-1.86-7.92-6.48-7.92s-6.48 3.36-6.48 7.92zm22.1 21.66v-21.48c0-6.18 2.82-10.62 9.24-10.62s9.24 4.44 9.24 10.62v21.48c0 6.12-2.82 10.62-9.24 10.62s-9.24-4.5-9.24-10.62zm2.76-21.66v21.78c0 4.62 1.86 7.98 6.48 7.98s6.48-3.36 6.48-7.98v-21.78c0-4.56-1.86-7.92-6.48-7.92s-6.48 3.36-6.48 7.92zm22.1 21.66v-21.48c0-6.18 2.82-10.62 9.24-10.62s9.24 4.44 9.24 10.62v21.48c0 6.12-2.82 10.62-9.24 10.62s-9.24-4.5-9.24-10.62zm2.76-21.66v21.78c0 4.62 1.86 7.98 6.48 7.98s6.48-3.36 6.48-7.98v-21.78c0-4.56-1.86-7.92-6.48-7.92s-6.48 3.36-6.48 7.92zm22.1 21.66v-21.48c0-6.18 2.82-10.62 9.24-10.62s9.24 4.44 9.24 10.62v21.48c0 6.12-2.82 10.62-9.24 10.62s-9.24-4.5-9.24-10.62zm2.76-21.66v21.78c0 4.62 1.86 7.98 6.48 7.98s6.48-3.36 6.48-7.98v-21.78c0-4.56-1.86-7.92-6.48-7.92s-6.48 3.36-6.48 7.92zm30.26 31.92v-37.32c-1.5 1.98-3.72 3.3-6.54 3.54v-2.4c4.14-.3 6.06-2.76 7.14-5.88h2.16V805h-2.76zm10.7-10.26v-21.48c0-6.18 2.82-10.62 9.24-10.62s9.24 4.44 9.24 10.62v21.48c0 6.12-2.82 10.62-9.24 10.62s-9.24-4.5-9.24-10.62zm2.76-21.66v21.78c0 4.62 1.86 7.98 6.48 7.98s6.48-3.36 6.48-7.98v-21.78c0-4.56-1.86-7.92-6.48-7.92s-6.48 3.36-6.48 7.92zm22.1 21.66v-21.48c0-6.18 2.82-10.62 9.24-10.62s9.24 4.44 9.24 10.62v21.48c0 6.12-2.82 10.62-9.24 10.62s-9.24-4.5-9.24-10.62zm2.76-21.66v21.78c0 4.62 1.86 7.98 6.48 7.98s6.48-3.36 6.48-7.98v-21.78c0-4.56-1.86-7.92-6.48-7.92s-6.48 3.36-6.48 7.92zm22.1 21.66v-21.48c0-6.18 2.82-10.62 9.24-10.62s9.24 4.44 9.24 10.62v21.48c0 6.12-2.82 10.62-9.24 10.62s-9.24-4.5-9.24-10.62zm2.76-21.66v21.78c0 4.62 1.86 7.98 6.48 7.98s6.48-3.36 6.48-7.98v-21.78c0-4.56-1.86-7.92-6.48-7.92s-6.48 3.36-6.48 7.92zm30.26 31.92v-37.32c-1.5 1.98-3.72 3.3-6.54 3.54v-2.4c4.14-.3 6.06-2.76 7.14-5.88h2.16V805h-2.76zm10.7-10.26v-21.48c0-6.18 2.82-10.62 9.24-10.62s9.24 4.44 9.24 10.62v21.48c0 6.12-2.82 10.62-9.24 10.62s-9.24-4.5-9.24-10.62zm2.76-21.66v21.78c0 4.62 1.86 7.98 6.48 7.98s6.48-3.36 6.48-7.98v-21.78c0-4.56-1.86-7.92-6.48-7.92s-6.48 3.36-6.48 7.92zm30.26 31.92v-37.32c-1.5 1.98-3.72 3.3-6.54 3.54v-2.4c4.14-.3 6.06-2.76 7.14-5.88h2.16V805h-2.76zm10.7-10.26v-21.48c0-6.18 2.82-10.62 9.24-10.62s9.24 4.44 9.24 10.62v21.48c0 6.12-2.82 10.62-9.24 10.62s-9.24-4.5-9.24-10.62zm2.76-21.66v21.78c0 4.62 1.86 7.98 6.48 7.98s6.48-3.36 6.48-7.98v-21.78c0-4.56-1.86-7.92-6.48-7.92s-6.48 3.36-6.48 7.92zM1716 805v-37.32c-1.5 1.98-3.72 3.3-6.54 3.54v-2.4c4.14-.3 6.06-2.76 7.14-5.88h2.16V805H1716zm18.86 0v-37.32c-1.5 1.98-3.72 3.3-6.54 3.54v-2.4c4.14-.3 6.06-2.76 7.14-5.88h2.16V805h-2.76zm10.7-10.26v-21.48c0-6.18 2.82-10.62 9.24-10.62s9.24 4.44 9.24 10.62v21.48c0 6.12-2.82 10.62-9.24 10.62s-9.24-4.5-9.24-10.62zm2.76-21.66v21.78c0 4.62 1.86 7.98 6.48 7.98s6.48-3.36 6.48-7.98v-21.78c0-4.56-1.86-7.92-6.48-7.92s-6.48 3.36-6.48 7.92zm22.1 21.66v-21.48c0-6.18 2.82-10.62 9.24-10.62s9.24 4.44 9.24 10.62v21.48c0 6.12-2.82 10.62-9.24 10.62s-9.24-4.5-9.24-10.62zm2.76-21.66v21.78c0 4.62 1.86 7.98 6.48 7.98s6.48-3.36 6.48-7.98v-21.78c0-4.56-1.86-7.92-6.48-7.92s-6.48 3.36-6.48 7.92zm30.26 31.92v-37.32c-1.5 1.98-3.72 3.3-6.54 3.54v-2.4c4.14-.3 6.06-2.76 7.14-5.88h2.16V805h-2.76zm10.7-10.26v-21.48c0-6.18 2.82-10.62 9.24-10.62s9.24 4.44 9.24 10.62v21.48c0 6.12-2.82 10.62-9.24 10.62s-9.24-4.5-9.24-10.62zm2.76-21.66v21.78c0 4.62 1.86 7.98 6.48 7.98s6.48-3.36 6.48-7.98v-21.78c0-4.56-1.86-7.92-6.48-7.92s-6.48 3.36-6.48 7.92zm30.26 31.92v-37.32c-1.5 1.98-3.72 3.3-6.54 3.54v-2.4c4.14-.3 6.06-2.76 7.14-5.88h2.16V805h-2.76zm10.7-10.26v-21.48c0-6.18 2.82-10.62 9.24-10.62s9.24 4.44 9.24 10.62v21.48c0 6.12-2.82 10.62-9.24 10.62s-9.24-4.5-9.24-10.62zm2.76-21.66v21.78c0 4.62 1.86 7.98 6.48 7.98s6.48-3.36 6.48-7.98v-21.78c0-4.56-1.86-7.92-6.48-7.92s-6.48 3.36-6.48 7.92zm30.26 31.92v-37.32c-1.5 1.98-3.72 3.3-6.54 3.54v-2.4c4.14-.3 6.06-2.76 7.14-5.88h2.16V805h-2.76zm10.7-10.26v-21.48c0-6.18 2.82-10.62 9.24-10.62s9.24 4.44 9.24 10.62v21.48c0 6.12-2.82 10.62-9.24 10.62s-9.24-4.5-9.24-10.62zm2.76-21.66v21.78c0 4.62 1.86 7.98 6.48 7.98s6.48-3.36 6.48-7.98v-21.78c0-4.56-1.86-7.92-6.48-7.92s-6.48 3.36-6.48 7.92zm22.1 21.66v-21.48c0-6.18 2.82-10.62 9.24-10.62s9.24 4.44 9.24 10.62v21.48c0 6.12-2.82 10.62-9.24 10.62s-9.24-4.5-9.24-10.62zm2.76-21.66v21.78c0 4.62 1.86 7.98 6.48 7.98s6.48-3.36 6.48-7.98v-21.78c0-4.56-1.86-7.92-6.48-7.92s-6.48 3.36-6.48 7.92zM1317.38 877v-37.32c-1.5 1.98-3.72 3.3-6.54 3.54v-2.4c4.14-.3 6.06-2.76 7.14-5.88h2.16V877h-2.76zm18.86 0v-37.32c-1.5 1.98-3.72 3.3-6.54 3.54v-2.4c4.14-.3 6.06-2.76 7.14-5.88h2.16V877h-2.76zm10.7-10.26v-21.48c0-6.18 2.82-10.62 9.24-10.62s9.24 4.44 9.24 10.62v21.48c0 6.12-2.82 10.62-9.24 10.62s-9.24-4.5-9.24-10.62zm2.76-21.66v21.78c0 4.62 1.86 7.98 6.48 7.98s6.48-3.36 6.48-7.98v-21.78c0-4.56-1.86-7.92-6.48-7.92s-6.48 3.36-6.48 7.92zm22.1 21.66v-21.48c0-6.18 2.82-10.62 9.24-10.62s9.24 4.44 9.24 10.62v21.48c0 6.12-2.82 10.62-9.24 10.62s-9.24-4.5-9.24-10.62zm2.76-21.66v21.78c0 4.62 1.86 7.98 6.48 7.98s6.48-3.36 6.48-7.98v-21.78c0-4.56-1.86-7.92-6.48-7.92s-6.48 3.36-6.48 7.92zm22.1 21.66v-21.48c0-6.18 2.82-10.62 9.24-10.62s9.24 4.44 9.24 10.62v21.48c0 6.12-2.82 10.62-9.24 10.62s-9.24-4.5-9.24-10.62zm2.76-21.66v21.78c0 4.62 1.86 7.98 6.48 7.98s6.48-3.36 6.48-7.98v-21.78c0-4.56-1.86-7.92-6.48-7.92s-6.48 3.36-6.48 7.92zm22.1 21.66v-21.48c0-6.18 2.82-10.62 9.24-10.62s9.24 4.44 9.24 10.62v21.48c0 6.12-2.82 10.62-9.24 10.62s-9.24-4.5-9.24-10.62zm2.76-21.66v21.78c0 4.62 1.86 7.98 6.48 7.98s6.48-3.36 6.48-7.98v-21.78c0-4.56-1.86-7.92-6.48-7.92s-6.48 3.36-6.48 7.92zm22.1 21.66v-21.48c0-6.18 2.82-10.62 9.24-10.62s9.24 4.44 9.24 10.62v21.48c0 6.12-2.82 10.62-9.24 10.62s-9.24-4.5-9.24-10.62zm2.76-21.66v21.78c0 4.62 1.86 7.98 6.48 7.98s6.48-3.36 6.48-7.98v-21.78c0-4.56-1.86-7.92-6.48-7.92s-6.48 3.36-6.48 7.92zm22.1 21.66v-21.48c0-6.18 2.82-10.62 9.24-10.62s9.24 4.44 9.24 10.62v21.48c0 6.12-2.82 10.62-9.24 10.62s-9.24-4.5-9.24-10.62zm2.76-21.66v21.78c0 4.62 1.86 7.98 6.48 7.98s6.48-3.36 6.48-7.98v-21.78c0-4.56-1.86-7.92-6.48-7.92s-6.48 3.36-6.48 7.92zm22.1 21.66v-21.48c0-6.18 2.82-10.62 9.24-10.62s9.24 4.44 9.24 10.62v21.48c0 6.12-2.82 10.62-9.24 10.62s-9.24-4.5-9.24-10.62zm2.76-21.66v21.78c0 4.62 1.86 7.98 6.48 7.98s6.48-3.36 6.48-7.98v-21.78c0-4.56-1.86-7.92-6.48-7.92s-6.48 3.36-6.48 7.92zm22.1 21.66v-21.48c0-6.18 2.82-10.62 9.24-10.62s9.24 4.44 9.24 10.62v21.48c0 6.12-2.82 10.62-9.24 10.62s-9.24-4.5-9.24-10.62zm2.76-21.66v21.78c0 4.62 1.86 7.98 6.48 7.98s6.48-3.36 6.48-7.98v-21.78c0-4.56-1.86-7.92-6.48-7.92s-6.48 3.36-6.48 7.92zm30.26 31.92v-37.32c-1.5 1.98-3.72 3.3-6.54 3.54v-2.4c4.14-.3 6.06-2.76 7.14-5.88h2.16V877h-2.76zm18.86 0v-37.32c-1.5 1.98-3.72 3.3-6.54 3.54v-2.4c4.14-.3 6.06-2.76 7.14-5.88h2.16V877h-2.76zm18.86 0v-37.32c-1.5 1.98-3.72 3.3-6.54 3.54v-2.4c4.14-.3 6.06-2.76 7.14-5.88h2.16V877h-2.76zm18.86 0v-37.32c-1.5 1.98-3.72 3.3-6.54 3.54v-2.4c4.14-.3 6.06-2.76 7.14-5.88h2.16V877h-2.76zm10.7-10.26v-21.48c0-6.18 2.82-10.62 9.24-10.62s9.24 4.44 9.24 10.62v21.48c0 6.12-2.82 10.62-9.24 10.62s-9.24-4.5-9.24-10.62zm2.76-21.66v21.78c0 4.62 1.86 7.98 6.48 7.98s6.48-3.36 6.48-7.98v-21.78c0-4.56-1.86-7.92-6.48-7.92s-6.48 3.36-6.48 7.92zm22.1 21.66v-21.48c0-6.18 2.82-10.62 9.24-10.62s9.24 4.44 9.24 10.62v21.48c0 6.12-2.82 10.62-9.24 10.62s-9.24-4.5-9.24-10.62zm2.76-21.66v21.78c0 4.62 1.86 7.98 6.48 7.98s6.48-3.36 6.48-7.98v-21.78c0-4.56-1.86-7.92-6.48-7.92s-6.48 3.36-6.48 7.92zm22.1 21.66v-21.48c0-6.18 2.82-10.62 9.24-10.62s9.24 4.44 9.24 10.62v21.48c0 6.12-2.82 10.62-9.24 10.62s-9.24-4.5-9.24-10.62zm2.76-21.66v21.78c0 4.62 1.86 7.98 6.48 7.98s6.48-3.36 6.48-7.98v-21.78c0-4.56-1.86-7.92-6.48-7.92s-6.48 3.36-6.48 7.92zM1704 877v-37.32c-1.5 1.98-3.72 3.3-6.54 3.54v-2.4c4.14-.3 6.06-2.76 7.14-5.88h2.16V877H1704zm10.7-10.26v-21.48c0-6.18 2.82-10.62 9.24-10.62s9.24 4.44 9.24 10.62v21.48c0 6.12-2.82 10.62-9.24 10.62s-9.24-4.5-9.24-10.62zm2.76-21.66v21.78c0 4.62 1.86 7.98 6.48 7.98s6.48-3.36 6.48-7.98v-21.78c0-4.56-1.86-7.92-6.48-7.92s-6.48 3.36-6.48 7.92zm30.26 31.92v-37.32c-1.5 1.98-3.72 3.3-6.54 3.54v-2.4c4.14-.3 6.06-2.76 7.14-5.88h2.16V877h-2.76zm10.7-10.26v-21.48c0-6.18 2.82-10.62 9.24-10.62s9.24 4.44 9.24 10.62v21.48c0 6.12-2.82 10.62-9.24 10.62s-9.24-4.5-9.24-10.62zm2.76-21.66v21.78c0 4.62 1.86 7.98 6.48 7.98s6.48-3.36 6.48-7.98v-21.78c0-4.56-1.86-7.92-6.48-7.92s-6.48 3.36-6.48 7.92zm30.26 31.92v-37.32c-1.5 1.98-3.72 3.3-6.54 3.54v-2.4c4.14-.3 6.06-2.76 7.14-5.88h2.16V877h-2.76zm10.7-10.26v-21.48c0-6.18 2.82-10.62 9.24-10.62s9.24 4.44 9.24 10.62v21.48c0 6.12-2.82 10.62-9.24 10.62s-9.24-4.5-9.24-10.62zm2.76-21.66v21.78c0 4.62 1.86 7.98 6.48 7.98s6.48-3.36 6.48-7.98v-21.78c0-4.56-1.86-7.92-6.48-7.92s-6.48 3.36-6.48 7.92zm30.26 31.92v-37.32c-1.5 1.98-3.72 3.3-6.54 3.54v-2.4c4.14-.3 6.06-2.76 7.14-5.88h2.16V877h-2.76zm10.7-10.26v-21.48c0-6.18 2.82-10.62 9.24-10.62s9.24 4.44 9.24 10.62v21.48c0 6.12-2.82 10.62-9.24 10.62s-9.24-4.5-9.24-10.62zm2.76-21.66v21.78c0 4.62 1.86 7.98 6.48 7.98s6.48-3.36 6.48-7.98v-21.78c0-4.56-1.86-7.92-6.48-7.92s-6.48 3.36-6.48 7.92zm30.26 31.92v-37.32c-1.5 1.98-3.72 3.3-6.54 3.54v-2.4c4.14-.3 6.06-2.76 7.14-5.88h2.16V877h-2.76zm10.7-10.26v-21.48c0-6.18 2.82-10.62 9.24-10.62s9.24 4.44 9.24 10.62v21.48c0 6.12-2.82 10.62-9.24 10.62s-9.24-4.5-9.24-10.62zm2.76-21.66v21.78c0 4.62 1.86 7.98 6.48 7.98s6.48-3.36 6.48-7.98v-21.78c0-4.56-1.86-7.92-6.48-7.92s-6.48 3.36-6.48 7.92zm22.1 21.66v-21.48c0-6.18 2.82-10.62 9.24-10.62s9.24 4.44 9.24 10.62v21.48c0 6.12-2.82 10.62-9.24 10.62s-9.24-4.5-9.24-10.62zm2.76-21.66v21.78c0 4.62 1.86 7.98 6.48 7.98s6.48-3.36 6.48-7.98v-21.78c0-4.56-1.86-7.92-6.48-7.92s-6.48 3.36-6.48 7.92zm30.26 31.92v-37.32c-1.5 1.98-3.72 3.3-6.54 3.54v-2.4c4.14-.3 6.06-2.76 7.14-5.88h2.16V877h-2.76zm-638.24 61.74v-21.48c0-6.18 2.82-10.62 9.24-10.62s9.24 4.44 9.24 10.62v21.48c0 6.12-2.82 10.62-9.24 10.62s-9.24-4.5-9.24-10.62zm2.76-21.66v21.78c0 4.62 1.86 7.98 6.48 7.98s6.48-3.36 6.48-7.98v-21.78c0-4.56-1.86-7.92-6.48-7.92s-6.48 3.36-6.48 7.92zm30.26 31.92v-37.32c-1.5 1.98-3.72 3.3-6.54 3.54v-2.4c4.14-.3 6.06-2.76 7.14-5.88h2.16V949h-2.76zm10.7-10.26v-21.48c0-6.18 2.82-10.62 9.24-10.62s9.24 4.44 9.24 10.62v21.48c0 6.12-2.82 10.62-9.24 10.62s-9.24-4.5-9.24-10.62zm2.76-21.66v21.78c0 4.62 1.86 7.98 6.48 7.98s6.48-3.36 6.48-7.98v-21.78c0-4.56-1.86-7.92-6.48-7.92s-6.48 3.36-6.48 7.92zm30.26 31.92v-37.32c-1.5 1.98-3.72 3.3-6.54 3.54v-2.4c4.14-.3 6.06-2.76 7.14-5.88h2.16V949h-2.76zm10.7-10.26v-21.48c0-6.18 2.82-10.62 9.24-10.62s9.24 4.44 9.24 10.62v21.48c0 6.12-2.82 10.62-9.24 10.62s-9.24-4.5-9.24-10.62zm2.76-21.66v21.78c0 4.62 1.86 7.98 6.48 7.98s6.48-3.36 6.48-7.98v-21.78c0-4.56-1.86-7.92-6.48-7.92s-6.48 3.36-6.48 7.92zm22.1 21.66v-21.48c0-6.18 2.82-10.62 9.24-10.62s9.24 4.44 9.24 10.62v21.48c0 6.12-2.82 10.62-9.24 10.62s-9.24-4.5-9.24-10.62zm2.76-21.66v21.78c0 4.62 1.86 7.98 6.48 7.98s6.48-3.36 6.48-7.98v-21.78c0-4.56-1.86-7.92-6.48-7.92s-6.48 3.36-6.48 7.92zm30.26 31.92v-37.32c-1.5 1.98-3.72 3.3-6.54 3.54v-2.4c4.14-.3 6.06-2.76 7.14-5.88h2.16V949h-2.76zm10.7-10.26v-21.48c0-6.18 2.82-10.62 9.24-10.62s9.24 4.44 9.24 10.62v21.48c0 6.12-2.82 10.62-9.24 10.62s-9.24-4.5-9.24-10.62zm2.76-21.66v21.78c0 4.62 1.86 7.98 6.48 7.98s6.48-3.36 6.48-7.98v-21.78c0-4.56-1.86-7.92-6.48-7.92s-6.48 3.36-6.48 7.92zm30.26 31.92v-37.32c-1.5 1.98-3.72 3.3-6.54 3.54v-2.4c4.14-.3 6.06-2.76 7.14-5.88h2.16V949h-2.76zm10.7-10.26v-21.48c0-6.18 2.82-10.62 9.24-10.62s9.24 4.44 9.24 10.62v21.48c0 6.12-2.82 10.62-9.24 10.62s-9.24-4.5-9.24-10.62zm2.76-21.66v21.78c0 4.62 1.86 7.98 6.48 7.98s6.48-3.36 6.48-7.98v-21.78c0-4.56-1.86-7.92-6.48-7.92s-6.48 3.36-6.48 7.92zm30.26 31.92v-37.32c-1.5 1.98-3.72 3.3-6.54 3.54v-2.4c4.14-.3 6.06-2.76 7.14-5.88h2.16V949h-2.76zm10.7-10.26v-21.48c0-6.18 2.82-10.62 9.24-10.62s9.24 4.44 9.24 10.62v21.48c0 6.12-2.82 10.62-9.24 10.62s-9.24-4.5-9.24-10.62zm2.76-21.66v21.78c0 4.62 1.86 7.98 6.48 7.98s6.48-3.36 6.48-7.98v-21.78c0-4.56-1.86-7.92-6.48-7.92s-6.48 3.36-6.48 7.92zM1585.7 949v-37.32c-1.5 1.98-3.72 3.3-6.54 3.54v-2.4c4.14-.3 6.06-2.76 7.14-5.88h2.16V949h-2.76zm10.7-10.26v-21.48c0-6.18 2.82-10.62 9.24-10.62s9.24 4.44 9.24 10.62v21.48c0 6.12-2.82 10.62-9.24 10.62s-9.24-4.5-9.24-10.62zm2.76-21.66v21.78c0 4.62 1.86 7.98 6.48 7.98s6.48-3.36 6.48-7.98v-21.78c0-4.56-1.86-7.92-6.48-7.92s-6.48 3.36-6.48 7.92zm22.1 21.66v-21.48c0-6.18 2.82-10.62 9.24-10.62s9.24 4.44 9.24 10.62v21.48c0 6.12-2.82 10.62-9.24 10.62s-9.24-4.5-9.24-10.62zm2.76-21.66v21.78c0 4.62 1.86 7.98 6.48 7.98s6.48-3.36 6.48-7.98v-21.78c0-4.56-1.86-7.92-6.48-7.92s-6.48 3.36-6.48 7.92zm30.26 31.92v-37.32c-1.5 1.98-3.72 3.3-6.54 3.54v-2.4c4.14-.3 6.06-2.76 7.14-5.88h2.16V949h-2.76zm18.86 0v-37.32c-1.5 1.98-3.72 3.3-6.54 3.54v-2.4c4.14-.3 6.06-2.76 7.14-5.88h2.16V949h-2.76zm18.86 0v-37.32c-1.5 1.98-3.72 3.3-6.54 3.54v-2.4c4.14-.3 6.06-2.76 7.14-5.88h2.16V949H1692zm18.86 0v-37.32c-1.5 1.98-3.72 3.3-6.54 3.54v-2.4c4.14-.3 6.06-2.76 7.14-5.88h2.16V949h-2.76zm10.7-10.26v-21.48c0-6.18 2.82-10.62 9.24-10.62s9.24 4.44 9.24 10.62v21.48c0 6.12-2.82 10.62-9.24 10.62s-9.24-4.5-9.24-10.62zm2.76-21.66v21.78c0 4.62 1.86 7.98 6.48 7.98s6.48-3.36 6.48-7.98v-21.78c0-4.56-1.86-7.92-6.48-7.92s-6.48 3.36-6.48 7.92zm22.1 21.66v-21.48c0-6.18 2.82-10.62 9.24-10.62s9.24 4.44 9.24 10.62v21.48c0 6.12-2.82 10.62-9.24 10.62s-9.24-4.5-9.24-10.62zm2.76-21.66v21.78c0 4.62 1.86 7.98 6.48 7.98s6.48-3.36 6.48-7.98v-21.78c0-4.56-1.86-7.92-6.48-7.92s-6.48 3.36-6.48 7.92zm22.1 21.66v-21.48c0-6.18 2.82-10.62 9.24-10.62s9.24 4.44 9.24 10.62v21.48c0 6.12-2.82 10.62-9.24 10.62s-9.24-4.5-9.24-10.62zm2.76-21.66v21.78c0 4.62 1.86 7.98 6.48 7.98s6.48-3.36 6.48-7.98v-21.78c0-4.56-1.86-7.92-6.48-7.92s-6.48 3.36-6.48 7.92zm22.1 21.66v-21.48c0-6.18 2.82-10.62 9.24-10.62s9.24 4.44 9.24 10.62v21.48c0 6.12-2.82 10.62-9.24 10.62s-9.24-4.5-9.24-10.62zm2.76-21.66v21.78c0 4.62 1.86 7.98 6.48 7.98s6.48-3.36 6.48-7.98v-21.78c0-4.56-1.86-7.92-6.48-7.92s-6.48 3.36-6.48 7.92zm30.26 31.92v-37.32c-1.5 1.98-3.72 3.3-6.54 3.54v-2.4c4.14-.3 6.06-2.76 7.14-5.88h2.16V949h-2.76zm18.86 0v-37.32c-1.5 1.98-3.72 3.3-6.54 3.54v-2.4c4.14-.3 6.06-2.76 7.14-5.88h2.16V949h-2.76zm18.86 0v-37.32c-1.5 1.98-3.72 3.3-6.54 3.54v-2.4c4.14-.3 6.06-2.76 7.14-5.88h2.16V949h-2.76zm10.7-10.26v-21.48c0-6.18 2.82-10.62 9.24-10.62s9.24 4.44 9.24 10.62v21.48c0 6.12-2.82 10.62-9.24 10.62s-9.24-4.5-9.24-10.62zm2.76-21.66v21.78c0 4.62 1.86 7.98 6.48 7.98s6.48-3.36 6.48-7.98v-21.78c0-4.56-1.86-7.92-6.48-7.92s-6.48 3.36-6.48 7.92zM1910.6 949v-37.32c-1.5 1.98-3.72 3.3-6.54 3.54v-2.4c4.14-.3 6.06-2.76 7.14-5.88h2.16V949h-2.76zm10.7-10.26v-21.48c0-6.18 2.82-10.62 9.24-10.62s9.24 4.44 9.24 10.62v21.48c0 6.12-2.82 10.62-9.24 10.62s-9.24-4.5-9.24-10.62zm2.76-21.66v21.78c0 4.62 1.86 7.98 6.48 7.98s6.48-3.36 6.48-7.98v-21.78c0-4.56-1.86-7.92-6.48-7.92s-6.48 3.36-6.48 7.92zM1317.38 1021v-37.32c-1.5 1.98-3.72 3.3-6.54 3.54v-2.4c4.14-.3 6.06-2.76 7.14-5.88h2.16V1021h-2.76zm10.7-10.26v-21.48c0-6.18 2.82-10.62 9.24-10.62s9.24 4.44 9.24 10.62v21.48c0 6.12-2.82 10.62-9.24 10.62s-9.24-4.5-9.24-10.62zm2.76-21.66v21.78c0 4.62 1.86 7.98 6.48 7.98s6.48-3.36 6.48-7.98v-21.78c0-4.56-1.86-7.92-6.48-7.92s-6.48 3.36-6.48 7.92zm30.26 31.92v-37.32c-1.5 1.98-3.72 3.3-6.54 3.54v-2.4c4.14-.3 6.06-2.76 7.14-5.88h2.16V1021h-2.76zm10.7-10.26v-21.48c0-6.18 2.82-10.62 9.24-10.62s9.24 4.44 9.24 10.62v21.48c0 6.12-2.82 10.62-9.24 10.62s-9.24-4.5-9.24-10.62zm2.76-21.66v21.78c0 4.62 1.86 7.98 6.48 7.98s6.48-3.36 6.48-7.98v-21.78c0-4.56-1.86-7.92-6.48-7.92s-6.48 3.36-6.48 7.92zm30.26 31.92v-37.32c-1.5 1.98-3.72 3.3-6.54 3.54v-2.4c4.14-.3 6.06-2.76 7.14-5.88h2.16V1021h-2.76zm10.7-10.26v-21.48c0-6.18 2.82-10.62 9.24-10.62s9.24 4.44 9.24 10.62v21.48c0 6.12-2.82 10.62-9.24 10.62s-9.24-4.5-9.24-10.62zm2.76-21.66v21.78c0 4.62 1.86 7.98 6.48 7.98s6.48-3.36 6.48-7.98v-21.78c0-4.56-1.86-7.92-6.48-7.92s-6.48 3.36-6.48 7.92zm30.26 31.92v-37.32c-1.5 1.98-3.72 3.3-6.54 3.54v-2.4c4.14-.3 6.06-2.76 7.14-5.88h2.16V1021h-2.76zm18.86 0v-37.32c-1.5 1.98-3.72 3.3-6.54 3.54v-2.4c4.14-.3 6.06-2.76 7.14-5.88h2.16V1021h-2.76zm18.86 0v-37.32c-1.5 1.98-3.72 3.3-6.54 3.54v-2.4c4.14-.3 6.06-2.76 7.14-5.88h2.16V1021h-2.76zm10.7-10.26v-21.48c0-6.18 2.82-10.62 9.24-10.62s9.24 4.44 9.24 10.62v21.48c0 6.12-2.82 10.62-9.24 10.62s-9.24-4.5-9.24-10.62zm2.76-21.66v21.78c0 4.62 1.86 7.98 6.48 7.98s6.48-3.36 6.48-7.98v-21.78c0-4.56-1.86-7.92-6.48-7.92s-6.48 3.36-6.48 7.92zm30.26 31.92v-37.32c-1.5 1.98-3.72 3.3-6.54 3.54v-2.4c4.14-.3 6.06-2.76 7.14-5.88h2.16V1021h-2.76zm10.7-10.26v-21.48c0-6.18 2.82-10.62 9.24-10.62s9.24 4.44 9.24 10.62v21.48c0 6.12-2.82 10.62-9.24 10.62s-9.24-4.5-9.24-10.62zm2.76-21.66v21.78c0 4.62 1.86 7.98 6.48 7.98s6.48-3.36 6.48-7.98v-21.78c0-4.56-1.86-7.92-6.48-7.92s-6.48 3.36-6.48 7.92z" mask="url(#c)" opacity=".8"/>
        <path fill="#EFEFEF" d="M1046.7 1.9v-35.8c0-10.3 4.7-17.7 15.4-17.7s15.4 7.4 15.4 17.7V1.9c0 10.2-4.7 17.7-15.4 17.7s-15.4-7.5-15.4-17.7zm4.6-36.1V2.1c0 7.7 3.1 13.3 10.8 13.3 7.7 0 10.8-5.6 10.8-13.3v-36.3c0-7.6-3.1-13.2-10.8-13.2-7.7 0-10.8 5.6-10.8 13.2zm33.5 36.1v-35.8c0-10.3 4.7-17.7 15.4-17.7s15.4 7.4 15.4 17.7V1.9c0 10.2-4.7 17.7-15.4 17.7s-15.4-7.5-15.4-17.7zm4.6-36.1V2.1c0 7.7 3.1 13.3 10.8 13.3 7.7 0 10.8-5.6 10.8-13.3v-36.3c0-7.6-3.1-13.2-10.8-13.2-7.7 0-10.8 5.6-10.8 13.2zm33.5 36.1v-35.8c0-10.3 4.7-17.7 15.4-17.7s15.4 7.4 15.4 17.7V1.9c0 10.2-4.7 17.7-15.4 17.7s-15.4-7.5-15.4-17.7zm4.6-36.1V2.1c0 7.7 3.1 13.3 10.8 13.3 7.7 0 10.8-5.6 10.8-13.3v-36.3c0-7.6-3.1-13.2-10.8-13.2-7.7 0-10.8 5.6-10.8 13.2zM1161 1.9v-35.8c0-10.3 4.7-17.7 15.4-17.7s15.4 7.4 15.4 17.7V1.9c0 10.2-4.7 17.7-15.4 17.7S1161 12.1 1161 1.9zm4.6-36.1V2.1c0 7.7 3.1 13.3 10.8 13.3 7.7 0 10.8-5.6 10.8-13.3v-36.3c0-7.6-3.1-13.2-10.8-13.2-7.7 0-10.8 5.6-10.8 13.2zm47.1 53.2v-62.2c-2.5 3.3-6.2 5.5-10.9 5.9v-4c6.9-.5 10.1-4.6 11.9-9.8h3.6V19h-4.6zm14.5-17.1v-35.8c0-10.3 4.7-17.7 15.4-17.7s15.4 7.4 15.4 17.7V1.9c0 10.2-4.7 17.7-15.4 17.7s-15.4-7.5-15.4-17.7zm4.6-36.1V2.1c0 7.7 3.1 13.3 10.8 13.3 7.7 0 10.8-5.6 10.8-13.3v-36.3c0-7.6-3.1-13.2-10.8-13.2-7.7 0-10.8 5.6-10.8 13.2zm33.5 36.1v-35.8c0-10.3 4.7-17.7 15.4-17.7s15.4 7.4 15.4 17.7V1.9c0 10.2-4.7 17.7-15.4 17.7s-15.4-7.5-15.4-17.7zm4.6-36.1V2.1c0 7.7 3.1 13.3 10.8 13.3 7.7 0 10.8-5.6 10.8-13.3v-36.3c0-7.6-3.1-13.2-10.8-13.2-7.7 0-10.8 5.6-10.8 13.2zm33.5 36.1v-35.8c0-10.3 4.7-17.7 15.4-17.7s15.4 7.4 15.4 17.7V1.9c0 10.2-4.7 17.7-15.4 17.7s-15.4-7.5-15.4-17.7zm4.6-36.1V2.1c0 7.7 3.1 13.3 10.8 13.3 7.7 0 10.8-5.6 10.8-13.3v-36.3c0-7.6-3.1-13.2-10.8-13.2-7.7 0-10.8 5.6-10.8 13.2zm33.5 36.1v-35.8c0-10.3 4.7-17.7 15.4-17.7s15.4 7.4 15.4 17.7V1.9c0 10.2-4.7 17.7-15.4 17.7s-15.4-7.5-15.4-17.7zm4.6-36.1V2.1c0 7.7 3.1 13.3 10.8 13.3 7.7 0 10.8-5.6 10.8-13.3v-36.3c0-7.6-3.1-13.2-10.8-13.2-7.7 0-10.8 5.6-10.8 13.2zm47.1 53.2v-62.2c-2.5 3.3-6.2 5.5-10.9 5.9v-4c6.9-.5 10.1-4.6 11.9-9.8h3.6V19h-4.6zm14.5-17.1v-35.8c0-10.3 4.7-17.7 15.4-17.7s15.4 7.4 15.4 17.7V1.9c0 10.2-4.7 17.7-15.4 17.7s-15.4-7.5-15.4-17.7zm4.6-36.1V2.1c0 7.7 3.1 13.3 10.8 13.3 7.7 0 10.8-5.6 10.8-13.3v-36.3c0-7.6-3.1-13.2-10.8-13.2-7.7 0-10.8 5.6-10.8 13.2zm33.5 36.1v-35.8c0-10.3 4.7-17.7 15.4-17.7s15.4 7.4 15.4 17.7V1.9c0 10.2-4.7 17.7-15.4 17.7s-15.4-7.5-15.4-17.7zm4.6-36.1V2.1c0 7.7 3.1 13.3 10.8 13.3 7.7 0 10.8-5.6 10.8-13.3v-36.3c0-7.6-3.1-13.2-10.8-13.2-7.7 0-10.8 5.6-10.8 13.2zm33.5 36.1v-35.8c0-10.3 4.7-17.7 15.4-17.7s15.4 7.4 15.4 17.7V1.9c0 10.2-4.7 17.7-15.4 17.7s-15.4-7.5-15.4-17.7zm4.6-36.1V2.1c0 7.7 3.1 13.3 10.8 13.3 7.7 0 10.8-5.6 10.8-13.3v-36.3c0-7.6-3.1-13.2-10.8-13.2-7.7 0-10.8 5.6-10.8 13.2zm47.1 53.2v-62.2c-2.5 3.3-6.2 5.5-10.9 5.9v-4c6.9-.5 10.1-4.6 11.9-9.8h3.6V19h-4.6zm14.5-17.1v-35.8c0-10.3 4.7-17.7 15.4-17.7s15.4 7.4 15.4 17.7V1.9c0 10.2-4.7 17.7-15.4 17.7s-15.4-7.5-15.4-17.7zm4.6-36.1V2.1c0 7.7 3.1 13.3 10.8 13.3 7.7 0 10.8-5.6 10.8-13.3v-36.3c0-7.6-3.1-13.2-10.8-13.2-7.7 0-10.8 5.6-10.8 13.2zm47.1 53.2v-62.2c-2.5 3.3-6.2 5.5-10.9 5.9v-4c6.9-.5 10.1-4.6 11.9-9.8h3.6V19h-4.6zm14.5-17.1v-35.8c0-10.3 4.7-17.7 15.4-17.7s15.4 7.4 15.4 17.7V1.9c0 10.2-4.7 17.7-15.4 17.7s-15.4-7.5-15.4-17.7zm4.6-36.1V2.1c0 7.7 3.1 13.3 10.8 13.3 7.7 0 10.8-5.6 10.8-13.3v-36.3c0-7.6-3.1-13.2-10.8-13.2-7.7 0-10.8 5.6-10.8 13.2zM1668 19v-62.2c-2.5 3.3-6.2 5.5-10.9 5.9v-4c6.9-.5 10.1-4.6 11.9-9.8h3.6V19h-4.6zm28.1 0v-62.2c-2.5 3.3-6.2 5.5-10.9 5.9v-4c6.9-.5 10.1-4.6 11.9-9.8h3.6V19h-4.6zm14.5-17.1v-35.8c0-10.3 4.7-17.7 15.4-17.7s15.4 7.4 15.4 17.7V1.9c0 10.2-4.7 17.7-15.4 17.7s-15.4-7.5-15.4-17.7zm4.6-36.1V2.1c0 7.7 3.1 13.3 10.8 13.3 7.7 0 10.8-5.6 10.8-13.3v-36.3c0-7.6-3.1-13.2-10.8-13.2-7.7 0-10.8 5.6-10.8 13.2zm33.5 36.1v-35.8c0-10.3 4.7-17.7 15.4-17.7s15.4 7.4 15.4 17.7V1.9c0 10.2-4.7 17.7-15.4 17.7s-15.4-7.5-15.4-17.7zm4.6-36.1V2.1c0 7.7 3.1 13.3 10.8 13.3 7.7 0 10.8-5.6 10.8-13.3v-36.3c0-7.6-3.1-13.2-10.8-13.2-7.7 0-10.8 5.6-10.8 13.2zm47.1 53.2v-62.2c-2.5 3.3-6.2 5.5-10.9 5.9v-4c6.9-.5 10.1-4.6 11.9-9.8h3.6V19h-4.6zm14.5-17.1v-35.8c0-10.3 4.7-17.7 15.4-17.7s15.4 7.4 15.4 17.7V1.9c0 10.2-4.7 17.7-15.4 17.7s-15.4-7.5-15.4-17.7zm4.6-36.1V2.1c0 7.7 3.1 13.3 10.8 13.3 7.7 0 10.8-5.6 10.8-13.3v-36.3c0-7.6-3.1-13.2-10.8-13.2-7.7 0-10.8 5.6-10.8 13.2zm47.1 53.2v-62.2c-2.5 3.3-6.2 5.5-10.9 5.9v-4c6.9-.5 10.1-4.6 11.9-9.8h3.6V19h-4.6zm14.5-17.1v-35.8c0-10.3 4.7-17.7 15.4-17.7s15.4 7.4 15.4 17.7V1.9c0 10.2-4.7 17.7-15.4 17.7s-15.4-7.5-15.4-17.7zm4.6-36.1V2.1c0 7.7 3.1 13.3 10.8 13.3 7.7 0 10.8-5.6 10.8-13.3v-36.3c0-7.6-3.1-13.2-10.8-13.2-7.7 0-10.8 5.6-10.8 13.2zm47.1 53.2v-62.2c-2.5 3.3-6.2 5.5-10.9 5.9v-4c6.9-.5 10.1-4.6 11.9-9.8h3.6V19h-4.6zm14.5-17.1v-35.8c0-10.3 4.7-17.7 15.4-17.7s15.4 7.4 15.4 17.7V1.9c0 10.2-4.7 17.7-15.4 17.7s-15.4-7.5-15.4-17.7zm4.6-36.1V2.1c0 7.7 3.1 13.3 10.8 13.3 7.7 0 10.8-5.6 10.8-13.3v-36.3c0-7.6-3.1-13.2-10.8-13.2-7.7 0-10.8 5.6-10.8 13.2zm33.5 36.1v-35.8c0-10.3 4.7-17.7 15.4-17.7s15.4 7.4 15.4 17.7V1.9c0 10.2-4.7 17.7-15.4 17.7s-15.4-7.5-15.4-17.7zm4.6-36.1V2.1c0 7.7 3.1 13.3 10.8 13.3 7.7 0 10.8-5.6 10.8-13.3v-36.3c0-7.6-3.1-13.2-10.8-13.2-7.7 0-10.8 5.6-10.8 13.2zm47.1 53.2v-62.2c-2.5 3.3-6.2 5.5-10.9 5.9v-4c6.9-.5 10.1-4.6 11.9-9.8h3.6V19h-4.6zm-976.8 120V76.8c-2.5 3.3-6.2 5.5-10.9 5.9v-4c6.9-.5 10.1-4.6 11.9-9.8h3.6V139h-4.6zm14.5-17.1V86.1c0-10.3 4.7-17.7 15.4-17.7s15.4 7.4 15.4 17.7v35.8c0 10.2-4.7 17.7-15.4 17.7s-15.4-7.5-15.4-17.7zm4.6-36.1v36.3c0 7.7 3.1 13.3 10.8 13.3 7.7 0 10.8-5.6 10.8-13.3V85.8c0-7.6-3.1-13.2-10.8-13.2-7.7 0-10.8 5.6-10.8 13.2zm33.5 36.1V86.1c0-10.3 4.7-17.7 15.4-17.7s15.4 7.4 15.4 17.7v35.8c0 10.2-4.7 17.7-15.4 17.7s-15.4-7.5-15.4-17.7zm4.6-36.1v36.3c0 7.7 3.1 13.3 10.8 13.3 7.7 0 10.8-5.6 10.8-13.3V85.8c0-7.6-3.1-13.2-10.8-13.2-7.7 0-10.8 5.6-10.8 13.2zm33.5 36.1V86.1c0-10.3 4.7-17.7 15.4-17.7s15.4 7.4 15.4 17.7v35.8c0 10.2-4.7 17.7-15.4 17.7s-15.4-7.5-15.4-17.7zm4.6-36.1v36.3c0 7.7 3.1 13.3 10.8 13.3 7.7 0 10.8-5.6 10.8-13.3V85.8c0-7.6-3.1-13.2-10.8-13.2-7.7 0-10.8 5.6-10.8 13.2zm33.5 36.1V86.1c0-10.3 4.7-17.7 15.4-17.7s15.4 7.4 15.4 17.7v35.8c0 10.2-4.7 17.7-15.4 17.7s-15.4-7.5-15.4-17.7zm4.6-36.1v36.3c0 7.7 3.1 13.3 10.8 13.3 7.7 0 10.8-5.6 10.8-13.3V85.8c0-7.6-3.1-13.2-10.8-13.2-7.7 0-10.8 5.6-10.8 13.2zm33.5 36.1V86.1c0-10.3 4.7-17.7 15.4-17.7s15.4 7.4 15.4 17.7v35.8c0 10.2-4.7 17.7-15.4 17.7s-15.4-7.5-15.4-17.7zm4.6-36.1v36.3c0 7.7 3.1 13.3 10.8 13.3 7.7 0 10.8-5.6 10.8-13.3V85.8c0-7.6-3.1-13.2-10.8-13.2-7.7 0-10.8 5.6-10.8 13.2zm33.5 36.1V86.1c0-10.3 4.7-17.7 15.4-17.7s15.4 7.4 15.4 17.7v35.8c0 10.2-4.7 17.7-15.4 17.7s-15.4-7.5-15.4-17.7zm4.6-36.1v36.3c0 7.7 3.1 13.3 10.8 13.3 7.7 0 10.8-5.6 10.8-13.3V85.8c0-7.6-3.1-13.2-10.8-13.2-7.7 0-10.8 5.6-10.8 13.2zm33.5 36.1V86.1c0-10.3 4.7-17.7 15.4-17.7s15.4 7.4 15.4 17.7v35.8c0 10.2-4.7 17.7-15.4 17.7s-15.4-7.5-15.4-17.7zm4.6-36.1v36.3c0 7.7 3.1 13.3 10.8 13.3 7.7 0 10.8-5.6 10.8-13.3V85.8c0-7.6-3.1-13.2-10.8-13.2-7.7 0-10.8 5.6-10.8 13.2zm33.5 36.1V86.1c0-10.3 4.7-17.7 15.4-17.7s15.4 7.4 15.4 17.7v35.8c0 10.2-4.7 17.7-15.4 17.7s-15.4-7.5-15.4-17.7zm4.6-36.1v36.3c0 7.7 3.1 13.3 10.8 13.3 7.7 0 10.8-5.6 10.8-13.3V85.8c0-7.6-3.1-13.2-10.8-13.2-7.7 0-10.8 5.6-10.8 13.2zm47.1 53.2V76.8c-2.5 3.3-6.2 5.5-10.9 5.9v-4c6.9-.5 10.1-4.6 11.9-9.8h3.6V139h-4.6zm28.1 0V76.8c-2.5 3.3-6.2 5.5-10.9 5.9v-4c6.9-.5 10.1-4.6 11.9-9.8h3.6V139h-4.6zm28.1 0V76.8c-2.5 3.3-6.2 5.5-10.9 5.9v-4c6.9-.5 10.1-4.6 11.9-9.8h3.6V139h-4.6zm28.1 0V76.8c-2.5 3.3-6.2 5.5-10.9 5.9v-4c6.9-.5 10.1-4.6 11.9-9.8h3.6V139h-4.6zm14.5-17.1V86.1c0-10.3 4.7-17.7 15.4-17.7s15.4 7.4 15.4 17.7v35.8c0 10.2-4.7 17.7-15.4 17.7s-15.4-7.5-15.4-17.7zm4.6-36.1v36.3c0 7.7 3.1 13.3 10.8 13.3 7.7 0 10.8-5.6 10.8-13.3V85.8c0-7.6-3.1-13.2-10.8-13.2-7.7 0-10.8 5.6-10.8 13.2zm33.5 36.1V86.1c0-10.3 4.7-17.7 15.4-17.7s15.4 7.4 15.4 17.7v35.8c0 10.2-4.7 17.7-15.4 17.7s-15.4-7.5-15.4-17.7zm4.6-36.1v36.3c0 7.7 3.1 13.3 10.8 13.3 7.7 0 10.8-5.6 10.8-13.3V85.8c0-7.6-3.1-13.2-10.8-13.2-7.7 0-10.8 5.6-10.8 13.2zm33.5 36.1V86.1c0-10.3 4.7-17.7 15.4-17.7s15.4 7.4 15.4 17.7v35.8c0 10.2-4.7 17.7-15.4 17.7s-15.4-7.5-15.4-17.7zm4.6-36.1v36.3c0 7.7 3.1 13.3 10.8 13.3 7.7 0 10.8-5.6 10.8-13.3V85.8c0-7.6-3.1-13.2-10.8-13.2-7.7 0-10.8 5.6-10.8 13.2zm47.1 53.2V76.8c-2.5 3.3-6.2 5.5-10.9 5.9v-4c6.9-.5 10.1-4.6 11.9-9.8h3.6V139h-4.6zm14.5-17.1V86.1c0-10.3 4.7-17.7 15.4-17.7s15.4 7.4 15.4 17.7v35.8c0 10.2-4.7 17.7-15.4 17.7s-15.4-7.5-15.4-17.7zm4.6-36.1v36.3c0 7.7 3.1 13.3 10.8 13.3 7.7 0 10.8-5.6 10.8-13.3V85.8c0-7.6-3.1-13.2-10.8-13.2-7.7 0-10.8 5.6-10.8 13.2zm47.1 53.2V76.8c-2.5 3.3-6.2 5.5-10.9 5.9v-4c6.9-.5 10.1-4.6 11.9-9.8h3.6V139h-4.6zm14.5-17.1V86.1c0-10.3 4.7-17.7 15.4-17.7s15.4 7.4 15.4 17.7v35.8c0 10.2-4.7 17.7-15.4 17.7s-15.4-7.5-15.4-17.7zm4.6-36.1v36.3c0 7.7 3.1 13.3 10.8 13.3 7.7 0 10.8-5.6 10.8-13.3V85.8c0-7.6-3.1-13.2-10.8-13.2-7.7 0-10.8 5.6-10.8 13.2zm47.1 53.2V76.8c-2.5 3.3-6.2 5.5-10.9 5.9v-4c6.9-.5 10.1-4.6 11.9-9.8h3.6V139h-4.6zm14.5-17.1V86.1c0-10.3 4.7-17.7 15.4-17.7s15.4 7.4 15.4 17.7v35.8c0 10.2-4.7 17.7-15.4 17.7s-15.4-7.5-15.4-17.7zm4.6-36.1v36.3c0 7.7 3.1 13.3 10.8 13.3 7.7 0 10.8-5.6 10.8-13.3V85.8c0-7.6-3.1-13.2-10.8-13.2-7.7 0-10.8 5.6-10.8 13.2zm47.1 53.2V76.8c-2.5 3.3-6.2 5.5-10.9 5.9v-4c6.9-.5 10.1-4.6 11.9-9.8h3.6V139h-4.6zm14.5-17.1V86.1c0-10.3 4.7-17.7 15.4-17.7s15.4 7.4 15.4 17.7v35.8c0 10.2-4.7 17.7-15.4 17.7s-15.4-7.5-15.4-17.7zm4.6-36.1v36.3c0 7.7 3.1 13.3 10.8 13.3 7.7 0 10.8-5.6 10.8-13.3V85.8c0-7.6-3.1-13.2-10.8-13.2-7.7 0-10.8 5.6-10.8 13.2zm47.1 53.2V76.8c-2.5 3.3-6.2 5.5-10.9 5.9v-4c6.9-.5 10.1-4.6 11.9-9.8h3.6V139h-4.6zm14.5-17.1V86.1c0-10.3 4.7-17.7 15.4-17.7s15.4 7.4 15.4 17.7v35.8c0 10.2-4.7 17.7-15.4 17.7s-15.4-7.5-15.4-17.7zm4.6-36.1v36.3c0 7.7 3.1 13.3 10.8 13.3 7.7 0 10.8-5.6 10.8-13.3V85.8c0-7.6-3.1-13.2-10.8-13.2-7.7 0-10.8 5.6-10.8 13.2zm33.5 36.1V86.1c0-10.3 4.7-17.7 15.4-17.7s15.4 7.4 15.4 17.7v35.8c0 10.2-4.7 17.7-15.4 17.7s-15.4-7.5-15.4-17.7zm4.6-36.1v36.3c0 7.7 3.1 13.3 10.8 13.3 7.7 0 10.8-5.6 10.8-13.3V85.8c0-7.6-3.1-13.2-10.8-13.2-7.7 0-10.8 5.6-10.8 13.2zM1989 139V76.8c-2.5 3.3-6.2 5.5-10.9 5.9v-4c6.9-.5 10.1-4.6 11.9-9.8h3.6V139h-4.6zm14.5-17.1V86.1c0-10.3 4.7-17.7 15.4-17.7s15.4 7.4 15.4 17.7v35.8c0 10.2-4.7 17.7-15.4 17.7s-15.4-7.5-15.4-17.7zm4.6-36.1v36.3c0 7.7 3.1 13.3 10.8 13.3 7.7 0 10.8-5.6 10.8-13.3V85.8c0-7.6-3.1-13.2-10.8-13.2-7.7 0-10.8 5.6-10.8 13.2zm47.1 53.2V76.8c-2.5 3.3-6.2 5.5-10.9 5.9v-4c6.9-.5 10.1-4.6 11.9-9.8h3.6V139h-4.6zM1046.7 241.9v-35.8c0-10.3 4.7-17.7 15.4-17.7s15.4 7.4 15.4 17.7v35.8c0 10.2-4.7 17.7-15.4 17.7s-15.4-7.5-15.4-17.7zm4.6-36.1v36.3c0 7.7 3.1 13.3 10.8 13.3 7.7 0 10.8-5.6 10.8-13.3v-36.3c0-7.6-3.1-13.2-10.8-13.2-7.7 0-10.8 5.6-10.8 13.2zm47.1 53.2v-62.2c-2.5 3.3-6.2 5.5-10.9 5.9v-4c6.9-.5 10.1-4.6 11.9-9.8h3.6V259h-4.6zm14.5-17.1v-35.8c0-10.3 4.7-17.7 15.4-17.7s15.4 7.4 15.4 17.7v35.8c0 10.2-4.7 17.7-15.4 17.7s-15.4-7.5-15.4-17.7zm4.6-36.1v36.3c0 7.7 3.1 13.3 10.8 13.3 7.7 0 10.8-5.6 10.8-13.3v-36.3c0-7.6-3.1-13.2-10.8-13.2-7.7 0-10.8 5.6-10.8 13.2zm33.5 36.1v-35.8c0-10.3 4.7-17.7 15.4-17.7s15.4 7.4 15.4 17.7v35.8c0 10.2-4.7 17.7-15.4 17.7s-15.4-7.5-15.4-17.7zm4.6-36.1v36.3c0 7.7 3.1 13.3 10.8 13.3 7.7 0 10.8-5.6 10.8-13.3v-36.3c0-7.6-3.1-13.2-10.8-13.2-7.7 0-10.8 5.6-10.8 13.2zm47.1 53.2v-62.2c-2.5 3.3-6.2 5.5-10.9 5.9v-4c6.9-.5 10.1-4.6 11.9-9.8h3.6V259h-4.6zm14.5-17.1v-35.8c0-10.3 4.7-17.7 15.4-17.7s15.4 7.4 15.4 17.7v35.8c0 10.2-4.7 17.7-15.4 17.7s-15.4-7.5-15.4-17.7zm4.6-36.1v36.3c0 7.7 3.1 13.3 10.8 13.3 7.7 0 10.8-5.6 10.8-13.3v-36.3c0-7.6-3.1-13.2-10.8-13.2-7.7 0-10.8 5.6-10.8 13.2zm47.1 53.2v-62.2c-2.5 3.3-6.2 5.5-10.9 5.9v-4c6.9-.5 10.1-4.6 11.9-9.8h3.6V259h-4.6zm14.5-17.1v-35.8c0-10.3 4.7-17.7 15.4-17.7s15.4 7.4 15.4 17.7v35.8c0 10.2-4.7 17.7-15.4 17.7s-15.4-7.5-15.4-17.7zm4.6-36.1v36.3c0 7.7 3.1 13.3 10.8 13.3 7.7 0 10.8-5.6 10.8-13.3v-36.3c0-7.6-3.1-13.2-10.8-13.2-7.7 0-10.8 5.6-10.8 13.2zm47.1 53.2v-62.2c-2.5 3.3-6.2 5.5-10.9 5.9v-4c6.9-.5 10.1-4.6 11.9-9.8h3.6V259h-4.6zm14.5-17.1v-35.8c0-10.3 4.7-17.7 15.4-17.7s15.4 7.4 15.4 17.7v35.8c0 10.2-4.7 17.7-15.4 17.7s-15.4-7.5-15.4-17.7zm4.6-36.1v36.3c0 7.7 3.1 13.3 10.8 13.3 7.7 0 10.8-5.6 10.8-13.3v-36.3c0-7.6-3.1-13.2-10.8-13.2-7.7 0-10.8 5.6-10.8 13.2zm47.1 53.2v-62.2c-2.5 3.3-6.2 5.5-10.9 5.9v-4c6.9-.5 10.1-4.6 11.9-9.8h3.6V259h-4.6zm14.5-17.1v-35.8c0-10.3 4.7-17.7 15.4-17.7s15.4 7.4 15.4 17.7v35.8c0 10.2-4.7 17.7-15.4 17.7s-15.4-7.5-15.4-17.7zm4.6-36.1v36.3c0 7.7 3.1 13.3 10.8 13.3 7.7 0 10.8-5.6 10.8-13.3v-36.3c0-7.6-3.1-13.2-10.8-13.2-7.7 0-10.8 5.6-10.8 13.2zm33.5 36.1v-35.8c0-10.3 4.7-17.7 15.4-17.7s15.4 7.4 15.4 17.7v35.8c0 10.2-4.7 17.7-15.4 17.7s-15.4-7.5-15.4-17.7zm4.6-36.1v36.3c0 7.7 3.1 13.3 10.8 13.3 7.7 0 10.8-5.6 10.8-13.3v-36.3c0-7.6-3.1-13.2-10.8-13.2-7.7 0-10.8 5.6-10.8 13.2zm47.1 53.2v-62.2c-2.5 3.3-6.2 5.5-10.9 5.9v-4c6.9-.5 10.1-4.6 11.9-9.8h3.6V259h-4.6zm28.1 0v-62.2c-2.5 3.3-6.2 5.5-10.9 5.9v-4c6.9-.5 10.1-4.6 11.9-9.8h3.6V259h-4.6zm28.1 0v-62.2c-2.5 3.3-6.2 5.5-10.9 5.9v-4c6.9-.5 10.1-4.6 11.9-9.8h3.6V259h-4.6zm28.1 0v-62.2c-2.5 3.3-6.2 5.5-10.9 5.9v-4c6.9-.5 10.1-4.6 11.9-9.8h3.6V259h-4.6zm14.5-17.1v-35.8c0-10.3 4.7-17.7 15.4-17.7s15.4 7.4 15.4 17.7v35.8c0 10.2-4.7 17.7-15.4 17.7s-15.4-7.5-15.4-17.7zm4.6-36.1v36.3c0 7.7 3.1 13.3 10.8 13.3 7.7 0 10.8-5.6 10.8-13.3v-36.3c0-7.6-3.1-13.2-10.8-13.2-7.7 0-10.8 5.6-10.8 13.2zm33.5 36.1v-35.8c0-10.3 4.7-17.7 15.4-17.7s15.4 7.4 15.4 17.7v35.8c0 10.2-4.7 17.7-15.4 17.7s-15.4-7.5-15.4-17.7zm4.6-36.1v36.3c0 7.7 3.1 13.3 10.8 13.3 7.7 0 10.8-5.6 10.8-13.3v-36.3c0-7.6-3.1-13.2-10.8-13.2-7.7 0-10.8 5.6-10.8 13.2zm33.5 36.1v-35.8c0-10.3 4.7-17.7 15.4-17.7s15.4 7.4 15.4 17.7v35.8c0 10.2-4.7 17.7-15.4 17.7s-15.4-7.5-15.4-17.7zm4.6-36.1v36.3c0 7.7 3.1 13.3 10.8 13.3 7.7 0 10.8-5.6 10.8-13.3v-36.3c0-7.6-3.1-13.2-10.8-13.2-7.7 0-10.8 5.6-10.8 13.2zm33.5 36.1v-35.8c0-10.3 4.7-17.7 15.4-17.7s15.4 7.4 15.4 17.7v35.8c0 10.2-4.7 17.7-15.4 17.7s-15.4-7.5-15.4-17.7zm4.6-36.1v36.3c0 7.7 3.1 13.3 10.8 13.3 7.7 0 10.8-5.6 10.8-13.3v-36.3c0-7.6-3.1-13.2-10.8-13.2-7.7 0-10.8 5.6-10.8 13.2zm47.1 53.2v-62.2c-2.5 3.3-6.2 5.5-10.9 5.9v-4c6.9-.5 10.1-4.6 11.9-9.8h3.6V259h-4.6zm28.1 0v-62.2c-2.5 3.3-6.2 5.5-10.9 5.9v-4c6.9-.5 10.1-4.6 11.9-9.8h3.6V259h-4.6zm28.1 0v-62.2c-2.5 3.3-6.2 5.5-10.9 5.9v-4c6.9-.5 10.1-4.6 11.9-9.8h3.6V259h-4.6zm14.5-17.1v-35.8c0-10.3 4.7-17.7 15.4-17.7s15.4 7.4 15.4 17.7v35.8c0 10.2-4.7 17.7-15.4 17.7s-15.4-7.5-15.4-17.7zm4.6-36.1v36.3c0 7.7 3.1 13.3 10.8 13.3 7.7 0 10.8-5.6 10.8-13.3v-36.3c0-7.6-3.1-13.2-10.8-13.2-7.7 0-10.8 5.6-10.8 13.2zm47.1 53.2v-62.2c-2.5 3.3-6.2 5.5-10.9 5.9v-4c6.9-.5 10.1-4.6 11.9-9.8h3.6V259h-4.6zm14.5-17.1v-35.8c0-10.3 4.7-17.7 15.4-17.7s15.4 7.4 15.4 17.7v35.8c0 10.2-4.7 17.7-15.4 17.7s-15.4-7.5-15.4-17.7zm4.6-36.1v36.3c0 7.7 3.1 13.3 10.8 13.3 7.7 0 10.8-5.6 10.8-13.3v-36.3c0-7.6-3.1-13.2-10.8-13.2-7.7 0-10.8 5.6-10.8 13.2zM1959 259v-62.2c-2.5 3.3-6.2 5.5-10.9 5.9v-4c6.9-.5 10.1-4.6 11.9-9.8h3.6V259h-4.6zm14.5-17.1v-35.8c0-10.3 4.7-17.7 15.4-17.7s15.4 7.4 15.4 17.7v35.8c0 10.2-4.7 17.7-15.4 17.7s-15.4-7.5-15.4-17.7zm4.6-36.1v36.3c0 7.7 3.1 13.3 10.8 13.3 7.7 0 10.8-5.6 10.8-13.3v-36.3c0-7.6-3.1-13.2-10.8-13.2-7.7 0-10.8 5.6-10.8 13.2zm47.1 53.2v-62.2c-2.5 3.3-6.2 5.5-10.9 5.9v-4c6.9-.5 10.1-4.6 11.9-9.8h3.6V259h-4.6zm-978.5 102.9v-35.8c0-10.3 4.7-17.7 15.4-17.7s15.4 7.4 15.4 17.7v35.8c0 10.2-4.7 17.7-15.4 17.7s-15.4-7.5-15.4-17.7zm4.6-36.1v36.3c0 7.7 3.1 13.3 10.8 13.3 7.7 0 10.8-5.6 10.8-13.3v-36.3c0-7.6-3.1-13.2-10.8-13.2-7.7 0-10.8 5.6-10.8 13.2zm47.1 53.2v-62.2c-2.5 3.3-6.2 5.5-10.9 5.9v-4c6.9-.5 10.1-4.6 11.9-9.8h3.6V379h-4.6zm14.5-17.1v-35.8c0-10.3 4.7-17.7 15.4-17.7s15.4 7.4 15.4 17.7v35.8c0 10.2-4.7 17.7-15.4 17.7s-15.4-7.5-15.4-17.7zm4.6-36.1v36.3c0 7.7 3.1 13.3 10.8 13.3 7.7 0 10.8-5.6 10.8-13.3v-36.3c0-7.6-3.1-13.2-10.8-13.2-7.7 0-10.8 5.6-10.8 13.2zm47.1 53.2v-62.2c-2.5 3.3-6.2 5.5-10.9 5.9v-4c6.9-.5 10.1-4.6 11.9-9.8h3.6V379h-4.6zm28.1 0v-62.2c-2.5 3.3-6.2 5.5-10.9 5.9v-4c6.9-.5 10.1-4.6 11.9-9.8h3.6V379h-4.6zm28.1 0v-62.2c-2.5 3.3-6.2 5.5-10.9 5.9v-4c6.9-.5 10.1-4.6 11.9-9.8h3.6V379h-4.6zm14.5-17.1v-35.8c0-10.3 4.7-17.7 15.4-17.7s15.4 7.4 15.4 17.7v35.8c0 10.2-4.7 17.7-15.4 17.7s-15.4-7.5-15.4-17.7zm4.6-36.1v36.3c0 7.7 3.1 13.3 10.8 13.3 7.7 0 10.8-5.6 10.8-13.3v-36.3c0-7.6-3.1-13.2-10.8-13.2-7.7 0-10.8 5.6-10.8 13.2zM1287 379v-62.2c-2.5 3.3-6.2 5.5-10.9 5.9v-4c6.9-.5 10.1-4.6 11.9-9.8h3.6V379h-4.6zm14.5-17.1v-35.8c0-10.3 4.7-17.7 15.4-17.7s15.4 7.4 15.4 17.7v35.8c0 10.2-4.7 17.7-15.4 17.7s-15.4-7.5-15.4-17.7zm4.6-36.1v36.3c0 7.7 3.1 13.3 10.8 13.3 7.7 0 10.8-5.6 10.8-13.3v-36.3c0-7.6-3.1-13.2-10.8-13.2-7.7 0-10.8 5.6-10.8 13.2z" mask="url(#c)" opacity=".797"/>
    </g>
</svg>
