<svg xmlns="http://www.w3.org/2000/svg" width="1238" height="2000"><path d="M619 0q180.82 179.1 361.27 358.5Q885 453.21 789.51 547.79c-57-56.89-113.55-114.15-170.51-171-56.9 56.89-113.48 114.08-170.44 171q-95.48-94.61-190.83-189.29Q438.18 179 619 0zM257.79 1641c64-62.57 127.05-126 190.76-188.79 56.9 56.89 113.55 114.08 170.44 171 57-56.89 113.61-114.08 170.57-171l190.76 189.22Q800.07 1821 619 2000c-120.3-119.71-241.47-238.67-361.21-359z" fill="#3c3c3b"/><path d="M0 613.49q115.27-114.68 230.91-229 194.33 192 388.09 384.76 194.33-192.13 388.09-384.76Q1122.83 498.66 1238 613.3v1.81q-193 192.6-387 384.26 193.39 192.41 387 384.51v1.44q-115.17 115.05-230.91 229.48c-129.74-128-258.42-257-388-385.07-129.74 128-258.35 257.11-388.09 385.07Q115.17 1500.4 0 1385.38v-1.31q193.3-192.6 387-384.7Q193.55 807.15 0 615.05z" fill="#1b75bc"/></svg>