<svg xmlns="http://www.w3.org/2000/svg" width="2000" height="1165"><defs><linearGradient id="a" x2="2000" gradientUnits="userSpaceOnUse"><stop stop-color="#20acfb"/><stop offset="1" stop-color="#5611c8"/></linearGradient></defs><path d="M1538.43 1064.23c-13 113-60.46 217.34-137.21 301.83a24.77 24.77 0 1 1-36.65-33.33 488.8 488.8 0 0 0 124.77-274.22 24.74 24.74 0 0 1 24.61-21.89 19.75 19.75 0 0 1 2.79.2 24.74 24.74 0 0 1 21.69 27.41zM641.15 628a24.68 24.68 0 0 0-35 1 538.15 538.15 0 0 0-142.4 292.71 24.76 24.76 0 0 0 20.88 28.07 22.68 22.68 0 0 0 3.66.33A24.78 24.78 0 0 0 512.72 929c14.7-100.12 59.53-192.13 129.36-266a24.71 24.71 0 0 0-.93-35zm797.05 373.5c0 241.69-196.6 438.34-438.17 438.34S561.8 1243.18 561.8 1001.5 758.4 563.16 1000 563.16s438.2 196.58 438.2 438.34zm-49.48 0c0-214.41-174.32-388.84-388.68-388.84S611.22 787.08 611.22 1001.5s174.39 388.84 388.78 388.84 388.72-174.43 388.72-388.84zM1143.3 881.15a139.8 139.8 0 1 0-217 116.49l-38.91 235.43c-3.06 18.69 10 33.93 28.87 33.93h174.52c19 0 31.92-15.23 28.8-33.93l-39-235.37a139.56 139.56 0 0 0 62.72-116.55zm856.7 120.19v.66a46.24 46.24 0 0 1-5.74 20.45c-12.64 22.88-317.38 560-994.19 560s-981.62-537.13-994.25-560A46.24 46.24 0 0 1 0 1002v-4.04c0-.66.07-1.32.13-2v-.06a46 46 0 0 1 3.92-15q.49-.9.95-1.9l.19-.37c.19-.37.38-.74.58-1.11C18.42 954.66 323.16 417.47 1000 417.47s981.55 537.2 994.19 560.08c.2.36.38.73.57 1.1l.2.39q.47.92.89 1.86a46 46 0 0 1 3.92 15v.1c.06.66.1 1.32.13 2v2.02c0 .45.1.86.1 1.32zm-100.9-1.34c-51.15-78.39-243.52-339.92-592.28-445.19 109.93 75.81 190.79 191.16 221.52 325.34a53.34 53.34 0 1 1-47.81 12.68c-44.92-199.14-211.12-353-415.78-379.83a24.59 24.59 0 0 1-4.54-1q-29.55-1.59-60.17-1.62T939.7 512a24.63 24.63 0 0 1-4.52 1 492.34 492.34 0 0 0-220.88 87 24.23 24.23 0 0 1-14.3 4.6 24.72 24.72 0 0 1-14.43-44.84q3.3-2.36 6.64-4.66C344 660.57 152 921.68 100.88 1000c50.65 77.64 240 335.1 582.68 442.24a540.17 540.17 0 0 1-215.83-337.87 53.43 53.43 0 1 1 49.11-6.34 491.07 491.07 0 0 0 393.76 388c29 2.35 58.81 3.6 89.44 3.6s60.48-1.25 89.52-3.6a492.14 492.14 0 0 0 204.05-88.93 24.75 24.75 0 1 1 29.53 39.72q-4 2.94-8 5.81c343.51-106.88 533.22-364.9 583.96-442.63z" transform="translate(0 -417.47)" fill="url(#a)"/></svg>