<svg xmlns="http://www.w3.org/2000/svg" viewBox="0 0 1999.94 1999.9" width="2000" height="2000"><path d="M1963.9 734.9c146.48 532.25-166.47 1082.59-699 1229S182.34 1797.46 36.02 1265.06 202.34 182.33 734.73 36.02 1817.48 202.38 1963.9 734.9z" fill="#f7931a"/><path d="M1314.28 659.39c-48-125.71-171.35-138.34-315.5-111.94l-49.21-179.14-109.06 30 47.9 174.44c-28.64 7.88-57.79 16.47-86.72 25.09l-48.33-175.5-109 30 49.3 179-219.76 60.8L506 808.6s80.1-23.68 79.17-21.83c44.17-12.13 65.62 9.53 75.87 30.52l135 490.7c1.88 14.43-.2 38.83-31.06 47.32 1.74.85-79.31 21.7-79.31 21.7l14.23 136.35 220-59.8 49.88 181.18 108.92-29.95-49.29-179.27c30.13-7.64 59.07-15.33 87.3-23.13l49 178.45 109-30-49.71-180.87c180.43-61 296-142.44 264.62-318.83-25.26-142.14-107.44-186.07-218.4-182.45 54.33-49.64 78.26-117.21 43-209.18m-46 429.31c37.22 135.41-198.76 183.77-272.68 204.16l-66-240c73.92-20.32 299.79-105.3 338.7 35.85m-143.8-324.71c33.87 123.23-163.44 162-225 179l-60-217.72c61.62-16.93 249.61-89.7 284.93 38.79" fill="#fff"/></svg>