<svg xmlns="http://www.w3.org/2000/svg" viewBox="0 0 1235.99 2000" width="2000" height="2000"><path d="M430.77 1253.54L0 822.77v517.74h397a211.06 211.06 0 0 1 33.77-86.97zM397 1425.38H0a623.61 623.61 0 0 0 150.4 365.34l280.37-283.48a181 181 0 0 1-33.77-81.86zm626.16-510.53a598.72 598.72 0 0 0-365.23-150.51v396.56a215.2 215.2 0 0 1 85 33.33zm-214.83 588.29l280.37 280.36a613.6 613.6 0 0 0 147.3-360.23H837a241.16 241.16 0 0 1-28.66 79.86zM837 1340.51h397a623.72 623.72 0 0 0-150.4-365.34l-280.38 281.37a196.39 196.39 0 0 1 33.78 84zM210.27 1849.6A598.61 598.61 0 0 0 575.62 2000v-397.56a214.72 214.72 0 0 1-85-33.33zm447.66-247.15v397a613.06 613.06 0 0 0 365.34-152.51l-278.4-278.4a237.49 237.49 0 0 1-87 33.88zM0 694.4c106.4 106.4 440 443.1 496.3 498.3a254.15 254.15 0 0 1 77.76-31.77v-648.3L1 0C0 0 0 675.37 0 694.4z" fill="#35baeb"/></svg>