<svg xmlns="http://www.w3.org/2000/svg" width="2000" height="2000"><circle cx="1000" cy="1000" r="1000" fill="#191919"/><path d="M738.21 491.46c199.5-1 399-.24 598.49-.48 98.17 170.17 199.5 338.64 297.43 509-97.69 170.41-199.25 338.88-297.43 509H732.63c97.45-170.65 198.77-339.36 298.15-509-98.17-169-193.44-339.85-292.58-508.56m321.43 181.8q95.63 163.62 191.74 326.76-96 163.26-191.74 326.76c54.54.48 108.84.48 163.38.24 62.06-109.08 127-216.71 191-324.82-61.33-111-129-218.65-191-329.18-54.54-.2-108.84-.2-163.38.28" fill="#fff"/><path d="M365.88 1000c92.11-158.53 184-317.55 279.25-474.14 35.39 62.54 71 125.32 108.35 186.89C699.42 809.49 640.76 903.54 586.7 1000c52.6 95.51 111.26 187.86 164.35 283.13q-54.9 92.72-109.32 185.92C548.16 1313.69 456.78 1157.1 365.88 1000z" fill="#989898"/></svg>