<svg xmlns="http://www.w3.org/2000/svg" viewBox="0 0 441 502"><g fill="#fff" stroke-miterlimit="10"><circle cx="220" cy="251" r="51" stroke="#1f4f77" stroke-width="44.563"/><g stroke="#2c76b7"><circle cx="96" cy="321" r="39" stroke-width="24.375"/><circle cx="96" cy="181" r="38" stroke-width="23.75"/><circle cx="220" cy="109" r="38.5" stroke-width="24.06"/><circle cx="344.5" cy="180.5" r="38" stroke-width="23.75"/><circle cx="344.5" cy="321.5" r="38.5" stroke-width="24.06"/><circle cx="220" cy="397" r="39.5" stroke-width="24.688"/></g></g><g fill="#2c76b7"><circle cx="22" cy="366" r="22"/><circle cx="220" cy="480" r="22"/><circle cx="419" cy="366" r="22"/><circle cx="419" cy="137" r="22"/><circle cx="220" cy="22" r="22"/><circle cx="22" cy="137" r="22"/></g><path d="M33 143l28 16M34 359.1l28-16.2m159 129.2v-32.2m187-80.8l-28-16.2m26.5-199.7l-27 17.6M220 33.9v32.2m-82 90l46-26.1m75.1 1.8l45.8 26.4m37.1 70.4v52.9m-37.1 64.3l-45.8 26.4m-80.2-1l-45.8-26.4M97 279.5v-52.9" fill="none" stroke="#2c76b7" stroke-width="6" stroke-miterlimit="10"/></svg>