<svg xmlns="http://www.w3.org/2000/svg" width="2000" height="2000"><path d="M1000 0C447.72 0 0 447.72 0 1000s447.72 1000 1000 1000 1000-447.72 1000-1000S1552.28 0 1000 0z" fill="#231f20"/><path d="M1367.11 920.22s100-61.89 100-171S1361.67 500.89 1195 500.89H727.78v304.89H462.33v130h265.45v172.33H462.33v130h265.45v256.22h432.67c204.44 0 379.67-111.56 379.67-314.22a270.44 270.44 0 0 0-173.01-259.89zM905.67 637.44h215c86.11 0 175 41.56 175 136 0 94.67-93.67 142.33-180.33 141.78H905.67V637.44zm244.44 693H905.67V1029h242.56c161.22 0 228.22 66.67 228.22 164.56s-117.12 136.88-226.34 136.88z" fill="#fff"/></svg>