<svg xmlns="http://www.w3.org/2000/svg" width="1785" height="2000"><g fill="#666"><path d="M892.5 0c110 0 199.15 89.19 199.15 199.2v1601.6c0 110-89.16 199.2-199.15 199.2s-199.15-89.19-199.15-199.2V199.2C693.35 89.19 782.51 0 892.5 0zm0 63.75A135.44 135.44 0 0 0 757.08 199.2v1601.6a135.42 135.42 0 1 0 270.84 0V199.2A135.44 135.44 0 0 0 892.5 63.75z"/><path d="M1758.29 1500c-55 95.28-176.79 127.92-272 72.91L99.61 772.12C4.36 717.12-28.28 595.28 26.72 500s176.79-127.92 272-72.91l1386.64 800.8c95.28 55 127.92 176.83 72.93 272.11m-55.19-31.87a135.48 135.48 0 0 0-49.57-185L266.89 482.29a135.45 135.45 0 0 0-135.42 234.62l1386.64 800.8a135.4 135.4 0 0 0 184.99-49.58"/><path d="M1758.29 500c55 95.28 22.36 217.11-72.89 272.12L298.76 1572.91c-95.25 55-217 22.36-272-72.91S4.4 1282.89 99.65 1227.88l1386.64-800.8c95.21-55 217-22.36 272 72.92m-55.19 31.87a135.4 135.4 0 0 0-185-49.58l-1386.63 800.8a135.45 135.45 0 0 0 135.42 234.62l1386.64-800.8a135.48 135.48 0 0 0 49.57-185.04"/></g></svg>