<svg xmlns="http://www.w3.org/2000/svg" width="2000" height="2000"><path d="M705.93 1787.42l170.94 172.14a137.68 137.68 0 0 0 194.93 0l171.86-172.14-269.32-269.77m695.96-924.17l-269.23 269.68-269.23-269.68 269.23-269.68 269.23 269.68m-336.15 1106.04L1959.63 1073a138.24 138.24 0 0 0 0-195.26l-171.85-172.15-723 724.16m250.87-481.09l-721.82 723.03L324.6 1402l721.82-723.02 269.23 269.68M39.76 1119.53l171.85 172.14 270.54-269.77-269.32-269.78L41 924.27a138.25 138.25 0 0 0-1.24 195.26zM1288.3 212.88L1116.44 40.43a137.69 137.69 0 0 0-194.93 0L296 667l269.35 269.74z"/></svg>