<svg xmlns="http://www.w3.org/2000/svg" width="2000" height="1264"><path d="M1039 514.93l319.69-166L1386 212.69l208.57 1.74a162.27 162.27 0 0 1 18.91 2.3L1868 84.6Q1766.29 5.25 1607.51.86l-466-.87H940.07L769.23 271.68h318.17zm671.11-196.26a207.25 207.25 0 0 1 3.17 30.32q3 118.07-55.89 188t-165.66 71.62l-184.62-1.74 17.62-88.09-319.49 165.86L890 1264h286.41l88.82-444.48 209.57.87q219.53 0 361.26-111.55t161.67-297.33q12.09-127.47-39.47-221.63" fill="#008200"/><path d="M71.43 1169.37l-1.71-3.3L0 1264h342.3l213.4-346.03-484.27 251.4M236.78 931.4l605.4-314.29 245.23-345.43H769.24l-95.62 160.65L561.85 0H245.5l215.56 616.37L236.78 931.4m391.43-51.07l98.3 383.67h321.34L868.68 755.49 628.21 880.33" fill="#161922"/></svg>