<svg xmlns="http://www.w3.org/2000/svg" width="1174" height="2000"><path d="M470.74 0C619.3 88.75 759 191.44 906.19 282.46Q635.1 765.89 363.73 1249.61c-72-129.14-139.46-260.84-210.61-390.56C255.58 571.47 372.55 289 470.74 0z" fill="#f9c011"/><path d="M0 2000C307.09 1429.1 626.13 864.46 929.81 292.13Q1051.48 510.6 1174 729.06c-235.37 423.27-472.45 845.4-706.11 1269.52-155.96 0-311.89-1.99-467.89 1.42" fill="#db712a"/><path d="M497.21 1997.72c130.06-227.56 252.73-459.11 384.5-685.54 78.55 102.69 158.24 204.81 236.22 308.06-206.05 127.45-413.25 252.61-620.72 377.48" fill="#b7230f"/></svg>