<svg xmlns="http://www.w3.org/2000/svg" width="1153" height="1996"><defs><linearGradient id="a" y1="515" x2="0" y2="1473" gradientUnits="userSpaceOnUse"><stop stop-color="#c1dfd2"/><stop offset="1" stop-color="#b5d5d8"/></linearGradient><linearGradient id="b" y1="833" x2="0" y2="1946" gradientUnits="userSpaceOnUse"><stop stop-color="#2d9b8b"/><stop offset="1" stop-color="#047d95"/></linearGradient><linearGradient id="c" y1="50" x2="0" y2="1946" gradientUnits="userSpaceOnUse"><stop stop-color="#79c29b"/><stop offset="1" stop-color="#2d94af"/></linearGradient></defs><path fill="#eef6f2" d="M474 50l629 465-629 318V50"/><path fill="url(#a)" d="M1103 515L474 833l599 640 30-958"/><path fill="url(#b)" d="M491 1946L474 833l599 640-582 473"/><path fill="url(#c)" d="M474 833V50L50 526l97 940 344 480-17-1113"/><path d="M474 50v783m629-318L474 833m599 640L474 833m17 1113L474 833m-327 633l344 480M47 526l100 940M474 50L47 526m1056-11L474 50m599 1423l30-958M491 1946l582-473" fill="none" stroke="#fff" stroke-width="20" stroke-miterlimit="10"/><path d="M474 90a40 40 0 1 1 40-40 40 40 0 0 1-40 40" fill="#414142"/><path d="M474 20a30 30 0 1 1-30 30 30 30 0 0 1 30-30m0-20a50 50 0 1 0 50 50 50.06 50.06 0 0 0-50-50z" fill="#fff"/><path d="M50 566a40 40 0 1 1 40-40 40 40 0 0 1-40 40" fill="#414142"/><path d="M50 496a30 30 0 1 1-30 30 30 30 0 0 1 30-30m0-20a50 50 0 1 0 50 50 50.06 50.06 0 0 0-50-50z" fill="#fff"/><path d="M147 1506a40 40 0 1 1 40-40 40 40 0 0 1-40 40" fill="#414142"/><path d="M147 1436a30 30 0 1 1-30 30 30 30 0 0 1 30-30m0-20a50 50 0 1 0 50 50 50.06 50.06 0 0 0-50-50z" fill="#fff"/><path d="M1103 555a40 40 0 1 1 40-40 40 40 0 0 1-40 40" fill="#414142"/><path d="M1103 485a30 30 0 1 1-30 30 30 30 0 0 1 30-30m0-20a50 50 0 1 0 50 50 50.06 50.06 0 0 0-50-50z" fill="#fff"/><path d="M474 873a40 40 0 1 1 40-40 40 40 0 0 1-40 40" fill="#414142"/><path d="M474 803a30 30 0 1 1-30 30 30 30 0 0 1 30-30m0-20a50 50 0 1 0 50 50 50.06 50.06 0 0 0-50-50z" fill="#fff"/><path d="M491 1986a40 40 0 1 1 40-40 40 40 0 0 1-40 40" fill="#414142"/><path d="M491 1916a30 30 0 1 1-30 30 30 30 0 0 1 30-30m0-20a50 50 0 1 0 50 50 50.06 50.06 0 0 0-50-50z" fill="#fff"/><path d="M1075 1513a40 40 0 1 1 40-40 40 40 0 0 1-40 40" fill="#414142"/><path d="M1075 1443a30 30 0 1 1-30 30 30 30 0 0 1 30-30m0-20a50 50 0 1 0 50 50 50.06 50.06 0 0 0-50-50z" fill="#fff"/></svg>