<svg xmlns="http://www.w3.org/2000/svg" viewBox="0 0 2000 1796.82" width="2000" height="2000"><g fill="#f0dbb0"><path d="M996.27 1234.53l107.54-181.62H893z"/><path d="M1753.48 640.29L1611.07 0l-279.79 440.63a1412.75 1412.75 0 0 0-661.86 0L390.24 0 247.33 640.29C93.63 762.95 0 923.2 0 1099.07c0 385.31 447.69 697.74 1000 697.74s1000-312.44 1000-697.74c-.1-175.87-93-336.12-246.52-458.78zm-1309 293.29h-66.63l162.67-187.36H659zM995 1391.15l-276.7-486.4 68.33-38.9 61.68 108.35h302.26L1215 865.35l67.6 40.1-287.6 485.7zm561.48-457.57l-214.71-187.36H1461l162.57 187.36h-67.12z"/></g></svg>