<svg xmlns="http://www.w3.org/2000/svg" viewBox="0 0 1990 1990" width="2000" height="2000"><path d="M1434.58 1279.38L863.75 901.25H710.62a95.835 95.835 0 1 1 0-191.67H921l570.83 378.13h247.92a797.39 797.39 0 0 0 0-186.46h-285.37a95.835 95.835 0 0 1 0-191.67h234.38C1530.42 326.25 1091.88 144 709.58 302.29a745.45 745.45 0 0 0-431.25 476l468.75 310.42H895a95.835 95.835 0 0 1 0 191.67H687.71L246 986.67V995c1 414.58 337.5 749 752.08 747.92 302.08-1 575-183.33 690.63-462.5l-254.17-1z" fill="#008fbb"/><g fill="none" stroke="#008fbb" stroke-miterlimit="10"><circle cx="995" cy="995" r="813.54" stroke-width="140" opacity=".3"/><circle cx="995" cy="995" r="937.5" stroke-width="115" opacity=".1"/></g><circle cx="1000.21" cy="1002.29" r="755.21" fill="#008fbb"/><g fill="#fff"><path d="M438.75 1014.79h125a52.085 52.085 0 0 1 0 104.17h-125a52.085 52.085 0 0 1 0-104.17m812.5-192.71h312.5a52.085 52.085 0 1 1 0 104.17h-312.5a52.085 52.085 0 1 1 0-104.17"/><path d="M1511.67 989.79V873.13a51.12 51.12 0 0 1 51-51h2.08a51.12 51.12 0 0 1 51 51v116.66a51.12 51.12 0 0 1-51 51h-2.08c-29.13.04-51-22.87-51-51M595 832.5L876.25 1020H970a52.085 52.085 0 1 1 0 104.17H845c-18.75 0-35.42-9.38-44.79-26l3.13 5.21-260.42-177.13H438.75a52.085 52.085 0 1 1 0-104.17h125c14.58 0 29.17 6.25 38.54 17.71M1021 832.5l294.83 187.5h97.92c29.17-1 54.17 22.92 54.17 52.08-1 29.17-25 53.12-54.17 52.08H1282.5c-18.75 0-37.5-9.38-46.88-26l3.13 5.21-272.92-177.12H857.5c-29.17 1-54.17-22.92-54.17-52.08 1-29.17 25-53.12 54.17-52.08h131.25a54.38 54.38 0 0 1 40.63 17.71"/></g></svg>