<svg xmlns="http://www.w3.org/2000/svg" width="2000" height="2000"><path d="M942.35 17.32c64.49-28.06 110.47 31.41 150.23 71.16a2578.47 2578.47 0 0 1 202.58 192.09c36.72 40.05 21.85 113.34-28.08 135.64-38.39 20.94-85.28 5.16-114.71-24-77.24-74-151.14-151.73-231.41-222.44-49.77-40.66-39.6-129 21.39-152.48m703.47 205.16c43.71-23.52 113.65-4.4 125.8 47.64 18.51 46.28-11.23 92.09-43.86 122.9-71.47 70.55-141 143.07-210.47 215.6-25.34 30.66-69.95 38.85-105.76 22.31-51.74-21.4-65.7-99.08-26.7-138.38 87.71-89.21 165.1-189.2 261-270.07M249 236.87c45.53-27.46 101.82-9.26 135.51 28.07C460.27 341.4 538.41 415.3 615 490.56c50.68 46.88 15.33 146.11-55.38 146.42-59.18 9.11-90.59-49.47-130.2-81.48C360 498 296.39 434 233.41 369.48c-35.66-36.72-25-104.08 15.63-132.61m58.73 452C384.09 659.43 458.6 755.63 411 821.92c-56.3 73.44-129.59 132.46-191 201.81-36.27 37.32-70.1 94.67-130.5 87.39-70.71-2.73-106.22-101-54.78-148.69 92.87-88.91 166.61-201.35 273.14-273.57m1547.52 212.72c52.5-34.29 131.71 4.7 133.39 68 7.73 59.47-51.29 90.88-83.77 130.79-57.2 68.88-120 133.07-184.82 194.82-47.34 44.75-135.81 13.34-144.31-51.43-11.08-66.92 51.74-108.49 91.35-151.27 65.55-60.85 120.93-132.61 188.15-190.88M506.85 1372.09c51-30.5 128.38 5.76 129.59 67.66 9.41 59.78-49.62 91.5-81.94 131.4-57.06 69-120.64 132.3-184.82 194.82-41.73 42.18-130.65 21.84-142.49-38.69-20.19-58.41 29.44-105.6 67.22-142.28 73.3-68.58 137-147 212.44-212.86m906.21-2.33c28.23-9.7 64-10.46 87.85 9.87 88.32 83.91 182.24 161.89 265.25 251.41 25.64 25.95 27.92 69.49 10.93 100.74-24 56.14-106.23 57.5-146.14 17.75-80.57-76-158-155.82-239-231.54-49-38.08-37.48-126.24 21.1-148.24M733.1 1584.35c42-22.76 91.35-1.21 121.55 30.8 76.17 75.56 152.34 151.12 231.41 223.65 52 49.46 16.84 149.76-56.45 150.51-59.17 7-90-51.74-129.74-83.9-69-57.21-133.08-120.18-195-185-37.33-39.91-22.16-114.09 28.22-136.1M598 93.63a86.76 86.76 0 1 1-86.75-86.75A86.75 86.75 0 0 1 598 93.63m252.88 230.73a86.75 86.75 0 1 1-86.76-86.75 86.75 86.75 0 0 1 86.76 86.75M173.51 536.32a86.76 86.76 0 1 1-86.76-86.74 86.75 86.75 0 0 1 86.76 86.74m1377.2-449.57A86.75 86.75 0 1 1 1464 0a86.74 86.74 0 0 1 86.75 86.75M2000 514.56a86.75 86.75 0 1 1-86.75-86.75 86.75 86.75 0 0 1 86.75 86.75m-237.1 249.26a86.75 86.75 0 1 1-86.76-86.74 86.75 86.75 0 0 1 86.76 86.74m236.7 700.61a86.75 86.75 0 1 1-86.76-86.75 86.75 86.75 0 0 1 86.76 86.75M1323 1676a86.76 86.76 0 1 1-86.76-86.75A86.75 86.75 0 0 1 1323 1676m249.6 237.25a86.76 86.76 0 1 1-86.76-86.74 86.75 86.75 0 0 1 86.76 86.74m-950.08 0a86.76 86.76 0 1 1-86.75-86.75 86.75 86.75 0 0 1 86.75 86.75m-211.59-679.44a86.76 86.76 0 1 1-86.75-86.75 86.75 86.75 0 0 1 86.75 86.75m-237.42 252.12a86.76 86.76 0 1 1-86.76-86.75 86.75 86.75 0 0 1 86.76 86.75" fill="#03e8b0"/></svg>