<svg xmlns="http://www.w3.org/2000/svg" viewBox="0 0 343.6 104.41"><g fill="#393534"><path d="M249.9 65.6a6.7 6.7 0 1 0 6.7 6.7 6.7 6.7 0 0 0-6.7-6.7"/><path data-name="Shape" d="M233.8 35.4a24.63 24.63 0 0 0-35.2 0 26.1 26.1 0 0 0 0 36 24.12 24.12 0 0 0 17.5 7.4 24.8 24.8 0 0 0 17.7-7.4 25.42 25.42 0 0 0 6.9-17.9 25.9 25.9 0 0 0-6.9-18.1zM216 69.7c-8.7 0-15.3-7-15.3-16s6.6-16 15.3-16 15.2 7.1 15.2 16.1-6.5 15.9-15.2 15.9zm-38.45-33.89a24.57 24.57 0 0 0-17.7-7.4 23 23 0 0 0-16.3 6.6v-6.6h-15.3v8.4l5.9 2.5v56.4l-5.5 1.8v6.9h20.4v-6.9l-5.5-1.8v-23a23.6 23.6 0 0 0 16.3 6.6 24.63 24.63 0 0 0 17.7-7.4 26.23 26.23 0 0 0 0-36.1zm-17.7 34.3c-8.7 0-15-7.1-15-16.1s6.3-16.1 15-16.1 15.5 7.1 15.5 16.1-6.8 16.1-15.5 16.1zM342.3 70c-.7.2-1.6.3-2.6.5a14.17 14.17 0 0 1-2.8.2 5.35 5.35 0 0 1-4-1.5c-1-1-1.5-2.7-1.5-5V34h9.2v-9.5h-9.2V0l-9.6 3.1v21.4h-11V34h11v30c0 5 1.2 8.7 3.4 11s5.4 3.5 9.2 3.5a23.06 23.06 0 0 0 5.2-.6 14.18 14.18 0 0 0 4-1.4zm-43.4-10.3a16 16 0 0 1-24.9 5.6l25.2-14.6v.1l8.7-5-.2-.4A25.63 25.63 0 0 0 283.4 28a24.54 24.54 0 0 0-17.7 7.3 25.25 25.25 0 0 0-7.1 17.9 25.72 25.72 0 0 0 50.8 5.6zM268.1 53a15.89 15.89 0 0 1 4.5-11.2 15.57 15.57 0 0 1 11.1-4.6 16.2 16.2 0 0 1 12.1 5.7l-26.6 15.4a16.19 16.19 0 0 1-1.1-5.3z"/></g><path data-name="Shape" d="M88.2 24.3L74.6 37.8h20.6l2.3-2.3a17.39 17.39 0 0 0 5.1-12.4 17.77 17.77 0 0 0-4.9-12.2l-9.4 9.4a2.94 2.94 0 0 1-.1 4M35.7 76.7L24.6 87.8h20.6l11.2-11.1H35.7m4.5-4.5h20.6l12.3-12.3H52.5L40.2 72.2m50.6-29.9H70.2L57 55.4h20.6l13.2-13.1" fill="#e1ded9"/><path data-name="Shape" d="M101.5 6.8A22.93 22.93 0 0 0 85.2 0a22.59 22.59 0 0 0-16.3 6.8L15.5 60a3 3 0 0 0-.8 2.1v27.4L0 104.3h8.1L19 93.4h27.3a2.52 2.52 0 0 0 2-.9l53.1-53 .1-.1a23.08 23.08 0 0 0 6.7-16.3 22.67 22.67 0 0 0-6.7-16.3m-31 6.2l2.3-2.3a17.62 17.62 0 0 1 24.8 0c.1.1.1.2.2.2a17.63 17.63 0 0 1-.2 24.6l-2.3 2.3H74.7l13.5-13.5a2.81 2.81 0 0 0 .1-3.9c-.1-.1-.1-.1-.1-.2a2.84 2.84 0 0 0-4 0L70.5 33.9V13M24.6 87.8l11.1-11.1h20.6L45.2 87.8M57 55.4l13.2-13.2h20.6L77.6 55.4m-4.5 4.5L60.8 72.2H40.2l12.3-12.3m.3-29.3L66 17.4v20.9L52.8 51.5M36 47.4l12.3-12.3V56L36 68.3m-15.7-5.2l11.3-11.2v20.9L20.3 84" fill="#393534"/></svg>