<svg xmlns="http://www.w3.org/2000/svg" width="2000" height="2000"><g fill="#1347e8"><path d="M1000 0C447.72 0 0 447.72 0 1000s447.72 1000 1000 1000 1000-447.71 1000-1000S1552.29 0 1000 0zm949.15 959.12l-81 .79-.33-33.9 81-.78zm-20.81-174.83l-80.23 11.13-4.66-33.57 80.22-11.13zm-69.09-212.89l14 30.86-73.72 33.51-14-30.85zm-101-154.17l22.37 25.47-60.84 53.45-22.37-25.47zm-118.64-126.57l25.66 22.12-52.85 61.34-25.67-22.12zm-141.38-114.45l28.44 18.45-44.09 67.93-28.42-18.45zm-160.79-79.38l32.77 8.62-20.61 78.31-32.78-8.63zm-176.92-43.49l33.78 2.82-6.75 80.7-33.77-2.86zM977.41 32h33.89v81h-33.89zM827.08 53.34l6.74 80.7-33.82 2.83-6.74-80.7zM650.16 96.83l20.61 78.3-32.77 8.64-20.61-78.31zm-160.8 79.38l44.07 67.93L505 262.59l-44.08-67.93zM348 290.66L400.86 352l-25.67 22.12-52.86-61.34zM229.36 417.22l60.83 53.46-22.37 25.47L207 442.7zm-101 154.17l73.71 33.52-14 30.85-73.72-33.51zM63.93 750.71l80.21 11.13-4.66 33.57-80.21-11.12zM38.78 925.23l81 .78-.32 33.9-81-.79zm7.46 190.22l80.56-8.18 3.42 33.72-80.56 8.18zm36.7 172.19l78.86-18.41 7.71 33-78.86 18.42zm88.26 205.7l-16.78-29.45 70.35-40.13 16.78 29.46zm114.67 144.28l-24.6-23.29 55.7-58.81 24.61 23.32zm129.7 115.2L388 1733.14l47-65.92 27.59 19.7zm151.23 101l-30-15.74 37.69-71.67 30 15.76zm167.39 64.36l-33.42-5.59 13.36-79.86 33.43 5.59zm146.26 27.42l-.66-81 33.9-.29.66 81zM158.2 1000c0-464.18 377.62-841.8 841.8-841.8s841.8 377.62 841.8 841.8-377.63 841.8-841.8 841.8-841.8-377.63-841.8-841.8zm907.8 952.86l-1.09.09-7.4-80.63 33.76-3.09 1.1-.1 7.4 80.64zm180.42-38l-14.09-79.75 33.37-5.9 14.09 79.75zm172.2-59.47l-27.68-76.11 31.85-11.59 27.66 76.11zm152.87-93.74l-50.1-63.62 26.62-21 50.12 63.62zm130.32-126.9l-58.25-56.24 23.55-24.38 58.24 56.25zm106.56-136.87l-65.47-47.67 19.95-27.39 65.48 47.67zm86.5-162.75l-76.48-26.63 11.15-32 76.48 26.65zm47.77-184.45l-80.89-3.76 1.56-33.84 80.9 3.74z"/><path d="M1321.42 1430.18l-25.23-25.52-49-49.57c56.84-54 92.81-108.49 87-234-.46-9.78.57-134.82.57-144.74s-.33-84.15-.32-93.87c.32-231.81-56.32-336.93-212.55-374.16-17.68-4.21-103-6.4-121.5-6.4h-8.29c-18.48 0-115.12 2.19-132.79 6.4-156.24 37.19-212.87 142.32-212.54 374.11 0 9.72-.32 84-.32 93.87s1 135 .57 144.74c-10.65 232.36 121.52 303.75 264.61 298.53h158c41.93 1.53 82.91-6.46 119.63-24.3l57.51 58.2L1272 1479v-.06c14.45 13.76 36.52 14.39 49.9 1.17s13-35.3-.57-49.9m-241.58-84.38c-2.46 0-4.92 0-7.4-.14l-1.35-.06H910.26l-1.35.06c-2.46.09-4.95.14-7.4.14-34 0-82.78-8.66-122.16-49.88-42.39-44.37-62.62-81.53-58.49-171.52.29-6.26.31-6.47-.33-119.32-.09-15.3-.15-26.35-.15-28.8 0-4.38.06-32.62.14-63.48.08-38.74.19-25.07.19-30.5-.15-102.7 11.45-191.94 36.47-232.28 14.83-23.92 40.47-50.87 118.07-69.57 15.3-2.31 93.47-4.69 116.88-4.69h8.35c23.4 0 90.29 2.38 105.58 4.69 77.6 18.7 103.24 45.65 118.07 69.57 25 40.34 36.62 129.57 36.47 232.28 0 5.43.09-8.24.19 30.5.07 30.87.14 59.1.14 63.48 0 2.46-.06 13.5-.16 28.8-.65 112.85-.62 113.06-.33 119.32 4.12 90-16.1 127.12-58.48 171.52-2.19 2.28-4.44 4.46-6.69 6.56l-45.33-45.88-25.24-25.52c-14.43-13.73-36.52-14.36-49.9-1.14s-13 35.3.57 49.88l25.23 25.53 32.4 32.78a184.88 184.88 0 0 1-53.25 7.67"/></g></svg>