<svg xmlns="http://www.w3.org/2000/svg" viewBox="0 0 116 116"><defs><linearGradient id="a" y1="-16.61" x2="0" y2="141.84" gradientUnits="userSpaceOnUse"><stop stop-color="#337a8d"/><stop offset="1" stop-color="#0f3653"/></linearGradient></defs><path fill="url(#a)" d="M0 0h116v116H0z"/><path d="M30.4 58a27.6 27.6 0 1 1 52.8 11.2L65 51 51 65l18.2 18.2A27.18 27.18 0 0 1 58 85.6 27.66 27.66 0 0 1 30.4 58m74.7 0a46.43 46.43 0 0 0-7.6-25.6L116 13.9 102.1 0 83.6 18.5a46.92 46.92 0 0 0-51.2 0L13.9 0 0 13.9l18.5 18.5a46.92 46.92 0 0 0 0 51.2L0 102.1 13.9 116l18.5-18.5a46.92 46.92 0 0 0 51.2 0l18.5 18.5 13.9-13.9-18.5-18.5a46.43 46.43 0 0 0 7.6-25.6" fill="#fff"/></svg>