<svg xmlns="http://www.w3.org/2000/svg" width="1730" height="2000"><path fill="#6ccef5" d="M865 1000V0l865 500-865 500"/><path fill="#1fb0e6" d="M1730 1000V500l-865 500h865"/><path fill="#1993d2" d="M865 2000l865-500v-500H865v1000"/><path fill="#49b749" d="M0 1500l865-500v1000L0 1500"/><path fill="#bbd631" d="M0 1000v500l865-500H0"/><path fill="#40b299" d="M0 500l865 500H0V500"/><path fill="#2c839a" d="M865 0L0 500l865 500V0z"/><path fill="#c5c7c9" d="M579.98 835.29L865 670.59V1000L579.98 835.29"/><path fill="#f0f1f1" d="M1150.02 835.29L865 1000V670.59l285.02 164.7"/><path fill="#dedfe1" d="M1150.02 1000H865l285.02-164.71V1000"/><path fill="#cbcdcf" d="M865 1329.41V1000h285.02v164.71L865 1329.41"/><path fill="#d9dadc" d="M579.98 1164.71L865 1000v329.41l-285.02-164.7"/><path fill="#ebeced" d="M579.98 1000H865l-285.02 164.71V1000"/><path fill="#dcddde" d="M579.98 835.29L865 1000H579.98V835.29"/></svg>