<svg xmlns="http://www.w3.org/2000/svg" width="1308" height="2000"><path d="M0 .57h816.14c9.8-2.91 14.89 6 21.29 11 77.35 71.59 145.38 152.88 205.86 239.09 84.43 121.15 152.64 254 198.41 394.49 48.54 148.41 71.51 305.41 65.32 461.49q-208-.05-416 0c2.35-20.72 2.53-41.61 2.26-62.42-4.37-147.16-50-291.38-121.94-419.18-77-136.94-184.48-255.07-306.58-353.16C331.76 165 182 80.64 26 12.36 17.38 8.4 8.35 5.2 0 .57zm302 732.69q209.39 376.49 418.1 753.38c33.49 60.56 67.37 120.92 100.58 181.63C647.56 1778.54 475 1889.68 301.9 2000q.18-633.37.1-1266.74"/></svg>