<svg xmlns="http://www.w3.org/2000/svg" viewBox="0 0 2000 1144.05" width="2000" height="2000"><g fill="#aa0e20"><path d="M1178.37 640.67L1000.52 986 769.63 548.1v-1l-46.8-85.28-51 86.32L1000.52 1144l328.65-595.9-52-86.32"/><path d="M1000.52 0L960 64.48l-186.17 312 46.8 89.44 179.93-286 175.77 286 47.84-93.6-156-262.09"/><path d="M1000.52 169.53C448.26 169.53 0 581.38 0 582.42s448.26 412.9 1000.52 412.9S2000 582.42 2000 582.42s-448.26-412.9-999.48-412.9m0 733.24c-430.58 0-916.28-320.33-916.28-320.33s485.7-321.37 916.28-321.37 916.28 313.05 916.28 321.37-486.74 320.33-916.28 320.33"/></g></svg>