<svg xmlns="http://www.w3.org/2000/svg" width="1983" height="2000"><path d="M1799.45 391.57l159.42-159.41c37.64-37.66 29.93-106.46-17.22-153.63s-116-54.87-153.64-17.21l-299.22 299.21-10.21 10.21-260.68 260.67c-175.42-128.31-423.65-113.29-582 45.06s-173.37 406.56-45.06 582l-199 199c-48.33-64.42-88.73-140.22-117.94-229.4-66.8-203.85-48.84-427.21 59.44-611.22 169-287.15 471.34-412 757.74-375.4 61.51 7.85 116.86-36.8 120.6-98.66 4.21-69.4-47.22-130.3-116.46-137.45C807.44-24.42 509.94 70.27 290.21 290c-364 364-385.35 941.4-65.4 1334.51L42.2 1807.13c-36 36-27 103.48 20.17 150.64S177 2014 213 1978l196.51-196.52.1-.08 142-142c.11-.11.2-.23.31-.35l230.37-230.37c162.46 66.66 356.39 34.14 488.14-97.61s164.25-325.66 97.6-488.11l261.34-261.32c191.54 291 153.5 693.75-110.09 957.33-167.85 167.86-392.21 244.13-608.15 228-51.77-3.91-97.62 36.87-102.17 88.88l-2.78 32c-5.14 59.43 39 109.68 98.36 113 276.53 15.64 561.72-84.6 776.87-299.75 356.84-356.87 398.09-906.51 118.04-1289.53m-694.51 753.92c-83.66 83.66-219.83 83.66-303.49 0s-83.66-219.81 0-303.49 219.84-83.66 303.49 0 83.66 219.83 0 303.49" fill="#e9570f"/></svg>