<svg xmlns="http://www.w3.org/2000/svg" width="2000" height="2000"><defs><linearGradient id="a" x2="0" y2="5128.15" gradientUnits="userSpaceOnUse"><stop stop-color="#ee4037"/><stop offset="1" stop-color="#c1041b"/></linearGradient></defs><circle cx="1000" cy="1000" r="1000" fill="url(#a)"/><g fill="#fff"><path d="M757.3 332.1l-251 188.4a15.68 15.68 0 0 0-6.3 12.4 15.49 15.49 0 0 0 6.3 12.6l987.6 740.8-55.9 41.9a15.66 15.66 0 0 0 9.4 28.2 15.58 15.58 0 0 0 9.4-3.1l72.6-54.4a15.75 15.75 0 0 0 0-25.2L541.8 532.9l224.9-168.6 69.1 51.7a15.64 15.64 0 1 0 18.8-25l-78.5-58.9a15.58 15.58 0 0 0-9.4-3.1 15 15 0 0 0-9.4 3.1z"/><path d="M1008.4 332.1L684 575.4a15.68 15.68 0 1 0 18.8 25.1l315-236.2 455 341.2h-198.7l-325.4-244a15.68 15.68 0 1 0-18.8 25.1l329.5 247.1a15.91 15.91 0 0 0 9.4 3.2h251.1a15.55 15.55 0 0 0 14.8-10.8 15.38 15.38 0 0 0-5.4-17.4L1027.1 332a15.45 15.45 0 0 0-18.7.1zM575.6 656.8l-69.4 51.9a15.82 15.82 0 0 0-6.2 12.6 15.63 15.63 0 0 0 6.2 12.5l987.7 740.8-225 168.7-63.1-47.3a15.71 15.71 0 0 0-18.9 25.1l72.6 54.5a15.8 15.8 0 0 0 9.4 3.1 15.37 15.37 0 0 0 9.4-3.1l251.1-188.3a15.44 15.44 0 0 0 6.3-12.5 15.63 15.63 0 0 0-6.3-12.6L541.8 721.3l52.6-39.4a15.55 15.55 0 0 0 3.1-21.9 15.72 15.72 0 0 0-12.5-6.3 14.39 14.39 0 0 0-9.4 3.1z"/><path d="M515.7 1270.5a15.71 15.71 0 0 0-14.9 10.7 16 16 0 0 0 5.4 17.6l502.3 376.6a15.37 15.37 0 0 0 9.4 3.1 15.58 15.58 0 0 0 9.4-3.1l323.8-242.8a15.71 15.71 0 0 0-18.9-25.1l-314.3 235.8L562.8 1302h198.8l321.6 241.3a15.68 15.68 0 1 0 18.8-25.1l-326-244.4a14.67 14.67 0 0 0-9.4-3.2H515.7z"/></g></svg>