<svg xmlns="http://www.w3.org/2000/svg" width="2006.42" height="2006.42"><defs><linearGradient id="a" y1="48.39" x2="0" y2="1951.61" gradientUnits="userSpaceOnUse"><stop offset=".4" stop-color="#fff"/><stop offset=".7" stop-color="#b3b2b2"/></linearGradient></defs><path d="M1000 1951.61c-128.44 0-253.07-25.17-370.42-74.8a954.79 954.79 0 0 1-506.38-506.39c-49.64-117.35-74.8-242-74.8-370.42s25.17-253.07 74.8-370.42A954.79 954.79 0 0 1 629.58 123.2c117.35-49.64 242-74.8 370.42-74.8s253.07 25.17 370.42 74.8a954.79 954.79 0 0 1 506.38 506.38c49.64 117.35 74.8 242 74.8 370.42s-25.17 253.07-74.8 370.42a954.79 954.79 0 0 1-506.38 506.38c-117.35 49.64-241.98 74.81-370.42 74.81" transform="translate(3.21 3.21)" fill="url(#a)"/><path d="M1003.21 103.21c497.06 0 900 402.94 900 900s-402.94 900-900 900-900-402.94-900-900 402.94-900 900-900m0-103.21a1010.09 1010.09 0 0 0-202.07 20.38 998.27 998.27 0 0 0-358.9 151 1005.84 1005.84 0 0 0-363.36 441.3 998.93 998.93 0 0 0-58.5 188.45 1012 1012 0 0 0 0 404.15 998.27 998.27 0 0 0 151 358.9 1005.84 1005.84 0 0 0 441.29 363.35 998.94 998.94 0 0 0 188.45 58.5 1012 1012 0 0 0 404.15 0 998.27 998.27 0 0 0 358.9-151 1005.84 1005.84 0 0 0 363.35-441.29 998.94 998.94 0 0 0 58.5-188.45 1012 1012 0 0 0 0-404.15 998.27 998.27 0 0 0-151-358.9 1005.84 1005.84 0 0 0-441.28-363.36 998.93 998.93 0 0 0-188.45-58.5A1010.09 1010.09 0 0 0 1003.21 0z"/><path d="M533.21 403.21l470 1200 470-1200m-1036 677l1132 7m-264-260h264m-1132 0h262" fill="none" stroke="#000" stroke-width="100" stroke-miterlimit="10"/></svg>