<svg xmlns="http://www.w3.org/2000/svg" width="2000" height="2000"><circle cx="1000" cy="1000" r="1000" fill="#08308f"/><path d="M1617.58 1027c-57.58-15-117.37-17.52-176.46-20.7 5.84-17.61 12-35.16 19-52.38 1.88-5.78 7.32-8.84 12.35-11.59 27.78-14.64 55.37-29.68 83.3-44.09 7-4.27 15.82-7.2 19.88-14.83 1.63-11.89-6.44-21.79-12-31.41-18.55-28.84-35.43-58.82-55.86-86.35-7.08-10-21.18-9.8-31-4.48-38.61 17.82-77.07 35.95-115.7 53.71-7.44 3.57-15.22 6.72-21.76 11.86-7.29 5.93-10.77 15-13.92 23.6-18.06 51.92-37.64 103.3-56.13 155.07-1.42 3.9-3.36 9-8.35 9-40 2.84-79.76 7.93-119.55 12.62q-34.58-93-69.26-185.9c-3.27-11.1-12.38-20.58-24.6-20.36-32.13-.45-64.33-.27-96.49-.36-7.78.57-17.91-.54-22.66 7.14-7.32 13-10.2 27.84-15.61 41.63-27.93 72.35-55.16 145-82.21 217.64-22.72 5.81-45.14 13.1-68.23 17.49-29.77-80.48-59.76-160.88-88.93-241.58-4.72-11.56-7.69-24.15-14.95-34.49-5.87-7.5-16-8.14-24.81-8.08-36.43.21-72.86.76-109.29 1-9.65.27-20.85-.48-28.32 6.84-4.3 15.31 4.6 29.74 9.35 43.81 34.16 94 69.68 187.54 103.33 281.73q-56.73 20.29-112 44.42c-9 4.42-18.76 7.62-26.93 13.56-21.54 8.08-41.39 20.06-61.51 31.1-35.73 21.27-71.8 44.45-97.73 77.61-11.92 16-22.18 37.73-13.86 57.64 7.53 20.64 27.69 32.41 46.45 41.45 27.75 12.25 57.46 19.49 87.32 24.33 90.32 12.68 181.94 12 272.71 5.36 5.75-.39 11.44.76 17.07 2 5 15.95 7.9 33.77 19.36 46.63 5.48 6.75 14.58 4.15 21.6 1.94 26-8.41 52.19-15.92 78.31-23.84 20.79-4.39 27.11-26.84 33.68-44.08 73.68-10.56 147-23.63 219.67-39.76 131-29.23 260.76-66 384.9-117.43 49-21.09 97.46-43.87 142.27-72.89 29.62-19.85 59.7-41.63 78.43-72.65 11.26-18.25 12.68-44.75-2.75-61.06-20.11-22.7-50.13-32.05-78.11-40.87M621.2 1439.6c-24.15 2-48.41 1.85-72.62 1.63-38.88-2.33-78-2.66-116.25-11-29.77-5.14-60.42-12.19-85.33-30.17-11.29-8.2-21.33-20.73-21-35.34-.12-17.07 10.29-31.83 20.88-44.3 24.08-26.81 54.8-46.32 85.42-64.81A1151.92 1151.92 0 0 1 616.39 1174Q663 1299.42 709 1425.11c1 2.87 2 5.78 3 8.68l-6.75 1c-27.92 3.21-56 4.3-84.05 4.81m171.89-255.19a588 588 0 0 1-23.27-60.41c16.85-5.14 33.8-10.17 51.07-13.86-8.4 25.07-17.45 49.94-27.8 74.27m87 229c28.38-77.94 57.91-155.49 86.6-233.38 10.47-25.9 18.7-52.65 29.74-78.34 8 13.95 12.86 29.29 18.67 44.21 27.5 75.22 55.89 150.17 83.24 225.48-72.08 17.15-144.91 31.7-218.29 41.99m321.68-227.44c-18.31-47.44-36.79-94.86-53.68-142.78 37-5.84 74.22-10 111.47-13.68-17.95 52.58-38.44 104.32-57.83 156.42m472.87-81.29c-4.75 19.67-18.58 35.52-33 49-34 31.47-75.19 53.74-116.16 74.74a1425.46 1425.46 0 0 1-198.7 78.91 360.05 360.05 0 0 0 19.94-49.14c29.77-79.06 59.12-158.31 88.65-237.46 49.47-.06 99.33 1.75 147.81 12.5 25.63 5.66 51.77 13.1 73 29.14 12.76 9.53 22.23 25.9 18.42 42.27" fill="#fff"/><g fill="#fcfdfb"><path d="M512.27 547.77a15.13 15.13 0 1 1-15.13 15.13 15.13 15.13 0 0 1 15.13-15.13m0-24.21a39.33 39.33 0 1 0 39.33 39.33 39.38 39.38 0 0 0-39.33-39.33z"/><circle cx="761.9" cy="748.98" r="22.69"/><circle cx="1008.49" cy="541.71" r="42.36"/><circle cx="1194.58" cy="670.31" r="55.98"/><path d="M1507.74 526.59a36.31 36.31 0 1 1-36.31 36.31 36.31 36.31 0 0 1 36.31-36.31m0-66.57a102.88 102.88 0 1 0 102.88 102.88A103 103 0 0 0 1507.74 460z"/></g><path d="M1194.58 670.31l251.84-86.38m-437.93-42.22l186.09 128.6M761.9 748.98l246.59-207.27m-473.06 38.45L761.9 748.98" fill="none" stroke="#fcfdfb" stroke-width="6.05" stroke-miterlimit="10"/></svg>