<svg xmlns="http://www.w3.org/2000/svg" width="1699.47" height="2000"><path fill="#ccb18e" d="M0 803.3l337.72-203.98L1697.47 1395l-342 200L0 803.3z"/><path fill="#0d1006" d="M1699.47 598l-1364 800V998l1364-800v400"/><path fill="#f88900" d="M1355.47 1194.87V400l-340-200v799.17l340 195.7"/><path fill="#0d1006" d="M1697.47 1800l-342 200v-405l342-200v405"/><path fill="#f88900" d="M0 803.3l335.47 195v402.47L0 1205.77V803.3"/><path fill="#ccb18e" d="M1015.47 200l340-200 344 198-344 202-340-200"/><path fill="#f88900" d="M1355.47 1595l-340-198.59V1800l340 200v-405"/></svg>