<?xml version="1.0" standalone="no"?>
<!DOCTYPE svg PUBLIC "-//W3C//DTD SVG 1.1//EN" "http://www.w3.org/Graphics/SVG/1.1/DTD/svg11.dtd">
<svg xmlns="http://www.w3.org/2000/svg">
<metadata>Generated by Fontastic.me</metadata>
<defs>
<font id="toolbox-icons" horiz-adv-x="512">
<font-face font-family="toolbox-icons" units-per-em="512" ascent="480" descent="-32"/>
<missing-glyph horiz-adv-x="512" />

<glyph unicode="&#43;" d="M512 307l-205 0 0 205-102 0 0-205-205 0 0-102 205 0 0-205 102 0 0 205 205 0z"/>
<glyph unicode="&#45;" d="M0 307l512 0 0-102-512 0z"/>
<glyph unicode="&#101;" d="M392 271l-121 0 0 121-30 0 0-121-121 0 0-30 121 0 0-121 30 0 0 121 121 0z m-136-271c-141 0-256 115-256 256 0 141 115 256 256 256 141 0 256-115 256-256 0-141-115-256-256-256z m0 482c-125 0-226-101-226-226 0-125 101-226 226-226 125 0 226 101 226 226 0 125-101 226-226 226z"/>
<glyph unicode="&#102;" d="M256 512c-141 0-256-115-256-256 0-141 115-256 256-256 141 0 256 115 256 256 0 141-115 256-256 256z m0-469c-118 0-213 95-213 213 0 118 95 213 213 213 118 0 213-95 213-213 0-118-95-213-213-213z m21 341l-42 0 0-107-107 0 0-42 107 0 0-107 42 0 0 107 107 0 0 42-107 0z"/>
<glyph unicode="&#103;" d="M187 370l16 0 173-113 0-2-173-112-16 0z m69-370c-141 0-256 115-256 256 0 141 115 256 256 256 141 0 256-115 256-256 0-141-115-256-256-256z m0 474c-120 0-218-98-218-218 0-120 98-218 218-218 120 0 218 98 218 218 0 120-98 218-218 218z"/>
<glyph unicode="&#104;" d="M256 512c-141 0-256-115-256-256 0-141 115-256 256-256 141 0 256 115 256 256 0 141-115 256-256 256z m0-478c-122 0-222 100-222 222 0 122 100 222 222 222 122 0 222-100 222-222 0-122-100-222-222-222z m-7 316l0-45 62 62-62 62 0-45c-68 0-124-57-124-128 0-31 14-61 35-84l24 22c-15 17-25 39-25 62 0 52 56 94 90 94z m65-31c15-17 24-39 24-63 0-50-39-91-89-94l0 45-62-62 62-62 0 46c68 2 123 58 123 127 0 32-12 63-33 87z"/>
<glyph unicode="&#105;" d="M256 512c-141 0-256-115-256-256 0-141 115-256 256-256 141 0 256 115 256 256 0 141-115 256-256 256z m-213-256c0 66 30 124 77 163l267-331c-37-28-82-45-131-45-118 0-213 95-213 213z m374-138l-262 325c30 16 64 26 101 26 118 0 213-95 213-213 0-53-20-101-52-138z"/>
<glyph unicode="&#106;" d="M256 0c-141 0-256 115-256 256 0 141 115 256 256 256 141 0 256-115 256-256 0-141-115-256-256-256z m0 478c-122 0-222-100-222-222 0-122 100-222 222-222 122 0 222 100 222 222 0 122-100 222-222 222z m0-266c17 0 29-13 29-30 0-17-12-30-29-30-17 0-29 13-29 30 0 17 12 30 29 30z m-23 108l-1 40 48 0-1-40-7-96-32 0z"/>
<glyph unicode="&#107;" d="M256 0c-141 0-256 115-256 256 0 141 115 256 256 256 141 0 256-115 256-256 0-141-115-256-256-256z m0 478c-122 0-222-100-222-222 0-122 100-222 222-222 122 0 222 100 222 222 0 122-100 222-222 222z m-27-315l-27 3-70 107 28 19 59-89 135 145 26-23z"/>
<glyph unicode="&#108;" d="M256 0c-141 0-256 115-256 256 0 141 115 256 256 256 141 0 256-115 256-256 0-141-115-256-256-256z m0 478c-122 0-222-100-222-222 0-122 100-222 222-222 122 0 222 100 222 222 0 122-100 222-222 222z m-40-196l0 12c4 1 8 3 14 4 6 1 12 3 18 4 7 1 13 2 19 3 6 0 12 1 17 1l6-4-31-146 24 0 0-12c-3-2-6-4-10-6-4-2-8-4-13-5-4-1-9-2-14-3-4-1-8-2-13-2-8 0-14 2-17 5-4 4-5 7-5 11 0 4 0 9 1 13 0 5 1 10 2 15l24 106z m29 77c0 8 3 14 8 18 5 5 12 7 20 7 9 0 15-2 21-7 5-4 7-10 7-18 0-7-2-13-7-17-6-5-12-7-21-7-8 0-15 2-20 7-5 4-8 10-8 17z"/>
<glyph unicode="&#109;" d="M256 88c-162 0-249 154-252 161l-4 7 3 7c4 6 82 161 253 161 171 0 249-155 252-161l4-7-4-7c-3-7-90-161-252-161z m-221 168c19-29 96-137 221-137 125 0 202 108 220 137-17 30-89 137-220 137-132 0-203-107-221-137z m221-97c-54 0-97 44-97 97 0 53 43 97 97 97 53 0 97-44 97-97 0-53-43-97-97-97z m0 163c-37 0-66-30-66-66 0-36 29-66 66-66 36 0 66 30 66 66 0 36-30 66-66 66z"/>
<glyph unicode="&#110;" d="M0 457l0 1 512 0 0-1-253-403-4 0z"/>
<glyph unicode="&#111;" d="M54 512l1 0 403-253 0-4-403-255-1 0z"/>
<glyph unicode="&#112;" d="M384 271l-128 222-128-222 108 0 0-252 40 0 0 252z"/>
<glyph unicode="&#113;" d="M276 241l0 252-40 0 0-252-108 0 128-222 128 222z"/>
<glyph unicode="&#114;" d="M240 0l90 110-182 0z m0 512l-92-110 182 0z m-240-293l512 0 0-36-512 0z m0 110l512 0 0-36-512 0z"/>
<glyph unicode="&#120;" d="M511 470l-41 42-214-215-214 215-41-42 214-214-214-214 41-42 214 215 214-215 41 42-214 214z"/>
<glyph unicode="&#116;" d="M363 9l-247 247 247 247 33-33-215-214 215-214z"/>
<glyph unicode="&#117;" d="M254 40c-107 0-193 87-193 193 0 107 86 194 193 194 29 0 55-7 80-17l-43-66 201-11-91 179-45-69c-30 16-65 24-102 24-129 0-234-105-234-234 0-129 105-233 234-233 82 0 153 42 195 105l-33 22c-35-52-94-87-162-87z"/>
<glyph unicode="&#118;" d="M287 351l0-131 110 0 0 22-88 0 0 109z m160 65c-43 43-100 68-161 68-123 1-224-95-230-217l-56 1 66-67 67 66-55 0c6 110 97 197 208 195 55 0 107-22 145-62 39-39 60-91 59-146-1-114-94-206-208-204l-1-22c1 0 2 0 3 0 125 0 227 100 228 225 1 61-22 119-65 163z"/>
<glyph unicode="&#119;" d="M512 139l0 298-512 0 0-298 235 0 0-43-86 0 0-21 192 0 0 21-85 0 0 43z m-491 21l0 256 470 0 0-256z m22 235l426 0 0-214-426 0z"/>
<glyph unicode="&#115;" d="M276 0l-40 0c-22 0-39 17-39 39l0 20c0 12-10 22-23 22-5 0-11-3-15-7l-13-13c-14-15-42-15-57 0l-28 29c-16 15-16 41 0 56l12 13c5 4 8 10 8 16 0 11-10 22-22 22l-20 0c-22 0-39 17-39 39l0 40c0 22 17 39 39 39l20 0c12 0 22 11 22 23 0 5-3 11-7 15l-13 13c-16 15-16 41 0 57l28 28c15 15 43 15 57 0l12-12c5-5 11-8 17-8 11 0 22 10 22 22l0 20c0 22 17 39 39 39l30 0c22 0 39-17 39-39l0-20c0-8 18-22 33-22 5 0 11 3 15 7l13 13c14 15 42 15 57 0l28-29c16-15 16-41 0-56l-12-12c-5-5-8-11-8-17 0-11 11-22 22-22l20 0c22 0 39-17 39-39l0-40c0-22-17-39-39-39l-20 0c-11 0-22-11-22-23 0-5 3-11 7-15l13-13c16-15 16-41 0-57l-29-28c-14-15-42-15-56 0l-13 12c-4 5-10 8-16 8-12 0-22-10-22-22l0-20c0-22-17-39-39-39z m-102 100c23 0 43-19 43-41l0-20c0-11 8-19 19-19l40 0c11 0 19 8 19 19l0 20c0 22 20 41 43 41 11 0 22-5 30-14l12-11c7-8 22-8 29 0l28 28c8 8 8 21 0 29l-12 13c-8 7-13 18-13 29 0 23 19 43 41 43l20 0c11 0 19 8 19 19l0 40c0 11-8 19-19 19l-20 0c-22 0-41 20-41 43 0 11 5 22 14 30l11 12c8 8 8 21 0 29l-28 28c-8 8-22 8-29 0l-13-12c-7-8-18-13-29-13-23 0-52 19-52 41l0 20c0 11-9 19-20 19l-30 0c-11 0-19-8-19-19l0-20c0-22-20-41-43-41-11 0-22 5-30 14l-12 11c-7 8-22 8-29 0l-28-28c-8-8-8-21 0-29l12-13c8-7 13-18 13-29 0-23-19-43-41-43l-20 0c-11 0-19-8-19-19l0-40c0-11 8-19 19-19l20 0c22 0 41-20 41-43 0-11-5-22-14-30l-11-12c-8-8-8-21 0-29l28-28c8-8 22-8 29 0l13 12c7 8 18 13 29 13z m82 54c-57 0-102 45-102 102 0 57 45 102 102 102 57 0 102-45 102-102 0-57-45-102-102-102z m0 185c-46 0-83-37-83-83 0-46 37-83 83-83 46 0 83 37 83 83 0 46-37 83-83 83z"/>
<glyph unicode="&#121;" d="M512 38l-148 126c30 36 47 82 47 132 0 113-92 205-205 205-114 0-206-92-206-205 0-114 92-206 206-206 51 0 97 19 133 49l150-128z m-476 258c0 93 76 170 170 170 94 0 170-76 170-170 0-94-76-170-170-170-94 0-170 76-170 170z"/>
<glyph unicode="&#63;" d="M256 0c-141 0-256 115-256 256 0 141 115 256 256 256 141 0 256-115 256-256 0-141-115-256-256-256z m0 488c-128 0-232-104-232-232 0-128 104-232 232-232 128 0 232 104 232 232 0 128-104 232-232 232z m23-169c0 16-11 27-28 27-14 0-25-6-35-17l-22 20c15 17 35 30 60 30 37 0 63-20 63-57 0-44-53-59-49-103l-34 0c-7 50 45 69 45 100z m-28-124c15 0 26-11 26-27 0-15-11-26-26-26-14 0-25 11-25 26 0 16 11 27 25 27z"/>
<glyph unicode="&#100;" d="M256 0c-141 0-256 115-256 256 0 141 115 256 256 256 141 0 256-115 256-256 0-141-115-256-256-256z m0 488c-128 0-232-104-232-232 0-128 104-232 232-232 128 0 232 104 232 232 0 128-104 232-232 232z m87-367c-2 0-5 1-7 2l-80 51-81-51c-4-2-10-2-14 1-4 3-6 8-4 13l23 92-73 61c-4 3-5 8-4 13 2 5 6 8 11 8l95 7 36 88c3 9 19 9 22 0l36-88 95-7c5 0 9-3 11-8 1-5 0-10-4-13l-73-61 23-92c1-5-1-10-5-13-2-2-5-3-7-3z m-87 79c2 0 4 0 6-2l62-38-18 70c-1 5 0 10 4 13l56 46-73 5c-4 0-8 3-10 8l-27 67-27-67c-2-5-6-7-11-8l-72-5 55-46c4-3 6-8 4-13l-17-70 61 38c2 2 5 2 7 2z"/>
<glyph unicode="&#60;" d="M359 0l-256 256 256 256 50-51-205-205 205-205z"/>
<glyph unicode="&#62;" d="M153 0l-50 51 205 205-205 205 50 51 256-256z"/>
<glyph unicode="&#99;" d="M409 171c-21-62-79-105-147-105-86 0-156 69-156 155 0 86 70 156 156 156 12 0 24-2 36-5l-26-75 141 70-69 140-26-77c-18 5-37 8-56 8-120 0-217-98-217-217 0-119 97-216 217-216 95 0 176 61 205 147z"/>
<glyph unicode="&#122;" d="M44 308c0 29 6 56 17 82 11 26 26 49 45 68 19 19 42 34 68 45 26 11 53 16 82 16 28 0 56-5 82-16 26-11 49-26 68-45 19-19 34-42 45-68 11-26 17-53 17-82 0-28-6-56-17-82-11-26-26-48-45-67-19-19-42-34-68-45-26-11-54-17-82-17-29 0-56 6-82 17-26 11-49 26-68 45-19 19-34 41-45 67-11 26-17 54-17 82z m57-39l28 0 38 26 67 0-44-105 31 0 83 105 99 0c4 0 7 1 10 4 2 2 4 5 4 9 0 4-2 7-4 10-3 3-6 4-10 4l-99 0-83 103-24 0 37-103-67 0-38 26-28 0 23-40z"/>
<glyph unicode="&#97;" d="M464 448l-128 0 0 64-160 0 0-64-128 0 0-32 32 0 0-416 352 0 0 416 32 0z m-256 32l96 0 0-32-96 0z m192-448l-288 0 0 384 288 0z m-160 320l32 0 0-224-32 0z m64 0l32 0 0-224-32 0z m-128 0l32 0 0-224-32 0z"/>
<glyph unicode="&#98;" d="M403 511l-337-337-66-173 169 60 343 341z m61-109l-35-36-62 62 35 36z m-121 2l62-62-231-231-39-2 0 32-47 0 4 12z m-268-296l26 0 0-35 2 0-46-16z"/>
</font>
</defs>
</svg>
