<svg xmlns="http://www.w3.org/2000/svg" xmlns:xlink="http://www.w3.org/1999/xlink" viewBox="0 0 16 21.25" version="1.1" x="0px" y="0px"><title>Combined Shape</title><desc>Created with Sketch.</desc><g stroke="none" stroke-width="1" fill="none" fill-rule="evenodd"><path style="fill:#FFFFFF;" d="M6.9267767,8.6369318 L0.214416939,15.3492916 C-0.0767147141,15.6404232 -0.0836309448,16.1222132 0.209262274,16.4151064 C0.504197491,16.7100416 0.979337049,16.7056918 1.27507711,16.4099517 L7.98743687,9.69759198 L14.6997966,16.4099517 C14.9909283,16.7010834 15.4727182,16.7079996 15.7656115,16.4151064 C16.0605467,16.1201712 16.0561969,15.6450316 15.7604568,15.3492916 L9.04809704,8.6369318 L15.7604568,1.92457205 C16.0515884,1.63344039 16.0585047,1.15165043 15.7656115,0.858757211 C15.4706762,0.563821994 14.9955367,0.568171814 14.6997966,0.863911876 L7.98743687,7.57627163 L1.27507711,0.863911876 C0.983945458,0.572780222 0.502155493,0.565863992 0.209262274,0.858757211 C-0.0856729425,1.15369243 -0.0813231227,1.62883199 0.214416939,1.92457205 L6.9267767,8.6369318 Z" fill="#000000"/></g></svg>