<svg xmlns="http://www.w3.org/2000/svg" xmlns:xlink="http://www.w3.org/1999/xlink" version="1.1" x="0px" y="0px" viewBox="0 0 100 125" enable-background="new 0 0 100 100" xml:space="preserve"><path d="M94.586,17.414l-5.201,5.202C80.504,9.893,65.807,2,50,2C25.004,2,4.465,20.762,2.219,45.641  c-0.199,2.199,1.426,4.145,3.625,4.344C5.965,49.996,6.086,50,6.207,50c2.047,0,3.793-1.562,3.98-3.641  C12.059,25.633,29.172,10,50,10c13.661,0,26.33,7.072,33.627,18.373l-6.213,6.213C76.154,35.846,77.047,38,78.828,38H96  c1.104,0,2-0.896,2-2V18.828C98,17.047,95.846,16.154,94.586,17.414z"/><path d="M94.156,50.016c-2.18-0.211-4.145,1.422-4.344,3.625C87.941,74.367,70.828,90,50,90c-13.625,0-26.31-7.096-33.61-18.391  l6.195-6.195c1.26-1.26,0.368-3.414-1.414-3.414H4c-1.104,0-2,0.895-2,2v17.172c0,1.782,2.154,2.674,3.414,1.414l5.199-5.199  C19.499,90.099,34.237,98,50,98c24.996,0,45.535-18.762,47.781-43.641C97.98,52.16,96.355,50.215,94.156,50.016z"/></svg>