<svg xmlns:dc="http://purl.org/dc/elements/1.1/" xmlns:cc="http://creativecommons.org/ns#" xmlns:rdf="http://www.w3.org/1999/02/22-rdf-syntax-ns#" xmlns:svg="http://www.w3.org/2000/svg" xmlns="http://www.w3.org/2000/svg" xmlns:sodipodi="http://sodipodi.sourceforge.net/DTD/sodipodi-0.dtd" xmlns:inkscape="http://www.inkscape.org/namespaces/inkscape" viewBox="0 0 324.9083 406.135425" version="1.1" x="0px" y="0px"><g transform="translate(333.95511,66.530874)"><path style="fill:#0050ef;" d="m -333.95511,199.81633 v -58.56111 h 16.93333 16.93333 v 41.62777 41.62778 h 41.80416 41.80417 v 16.93333 16.93334 h -58.7375 -58.73749 z m 207.78609,41.62777 v -16.93333 h 41.627778 41.627775 v -41.62778 -41.62777 h 16.933333 16.9333322 v 58.56111 58.56111 H -67.607909 -126.16902 Z M -232.35512,134.90522 V 113.033 h 6.34633 6.34633 l 0.0919,15.61041 0.0919,15.61042 15.61041,0.0919 15.61042,0.0919 v 6.16994 6.16994 h -22.04861 -22.04861 z m 77.96388,15.70228 v -6.16994 l 15.61042,-0.0919 15.61041,-0.0919 0.0919,-15.61042 0.0919,-15.61041 h 6.16994 6.16995 v 21.87222 21.87222 h -21.87223 -21.87222 z M -232.35512,57.117724 V 35.069116 h 22.04861 22.04861 v 6.349998 6.35 h -15.69861 -15.69861 v 15.69861 15.69861 h -6.35 -6.35 z m 109.27658,6.438194 -0.0919,-15.610415 -15.61041,-0.09186 -15.61042,-0.09186 v -6.346331 -6.346326 h 21.87222 21.87223 v 22.048605 22.04861 h -6.16995 -6.16994 z M -333.95511,-7.793384 v -58.73749 h 58.73749 58.7375 v 16.93333 16.93333 h -41.80417 -41.80416 v 41.80416 41.804167 h -16.93333 -16.93333 z m 291.041643,16.93333 v -41.80416 h -41.627775 -41.627778 v -16.93333 -16.93333 h 58.561111 58.5611072 v 58.73749 58.737497 H -25.980134 -42.913467 Z" fill="#000000" stroke-width="0.35277775"/></g></svg>