<svg xmlns="http://www.w3.org/2000/svg" xmlns:xlink="http://www.w3.org/1999/xlink" viewBox="0 0 60 80" version="1.1" x="0px" y="0px"><title>settings_wheel</title><desc>Created with Sketch.</desc><g stroke="none" stroke-width="1" fill="none" fill-rule="evenodd"><g transform="translate(-240.000000, -358.000000)" fill="#000000"><g transform="translate(240.000000, 358.000000)"><path d="M30,43 C36.0751322,43 41,38.0751322 41,32 C41,25.9248678 36.0751322,21 30,21 C23.9248678,21 19,25.9248678 19,32 C19,38.0751322 23.9248678,43 30,43 L30,43 Z M30,39 C26.1340068,39 23,35.8659932 23,32 C23,28.1340068 26.1340068,25 30,25 C33.8659932,25 37,28.1340068 37,32 C37,35.8659932 33.8659932,39 30,39 L30,39 Z"/><path d="M5.24132974,28.5141388 C5.08104895,29.662159 5,30.8261006 5,32 C5,33.0963555 5.07069496,34.1840253 5.2106046,35.2581513 C5.30630625,35.9928801 5.39517696,36.3357197 5.39517696,36.3357197 L1.61184531,40.1411225 L1.90930378,39.8948149 C0.130426744,41.0985541 -0.431093499,43.5381211 0.644780949,45.4015904 L3.64516596,50.5984096 C4.72473312,52.4682748 7.10902336,53.198046 9.0464348,52.2566885 L8.68439692,52.3911413 L12.923815,51.2683975 L13.7799957,51.0245714 C15.6898301,52.6543681 17.8331479,53.9887485 20.1391607,54.9794999 C20.898585,55.3057776 21.4154391,55.4789511 21.4154391,55.4789511 L22.7852348,60.5322638 L22.7206554,60.1515034 C22.8736855,62.2939257 24.7056525,64 26.8574014,64 L32.8581714,64 C35.0173057,64 36.8414512,62.3000297 36.9949174,60.1515034 L36.930338,60.5322638 L38.2697575,55.5992383 C40.7523131,54.7292992 43.0752785,53.4722006 45.157789,51.882257 C45.7852972,51.4031705 46.1271962,51.0923988 46.1271962,51.0923988 L51.0311758,52.3911413 L50.669138,52.2566885 C52.6010452,53.1953716 54.9945323,52.4618789 56.0704068,50.5984096 L59.0707918,45.4015904 C60.150359,43.5317252 59.5902142,41.1019837 57.806269,39.8948149 L58.1037274,40.1411225 L54.5809609,36.5805042 C54.8589059,35.0802661 55,33.5488512 55,32 C55,30.7380217 54.9063316,29.4876188 54.7212899,28.2562238 C54.6226883,27.6000606 54.5836976,27.3994424 54.5836976,27.3994424 L58.1037274,23.8588775 L57.806269,24.1051851 C59.585146,22.9014459 60.1466663,20.4618789 59.0707918,18.5984096 L56.0704068,13.4015904 C54.9908396,11.5317252 52.6065494,10.801954 50.669138,11.7433115 L51.0311758,11.6088587 L46.1760098,12.9379728 C44.1489614,11.2161816 41.861189,9.8269133 39.3968409,8.8266879 C38.6771361,8.5345753 38.2746766,8.42713546 38.2746766,8.42713546 L36.930338,3.46773622 L36.9949174,3.84849661 C36.8418872,1.70607434 35.0099203,0 32.8581714,0 L26.8574014,0 C24.698267,0 22.8741215,1.69997031 22.7206554,3.84849661 L22.7852348,3.46773622 L21.455453,8.49886485 C19.0352695,9.37901509 16.7715844,10.6286146 14.7402929,12.1959729 C14.1243985,12.6712012 13.819873,12.9689094 13.819873,12.9689094 L8.68439692,11.6088587 L9.0464348,11.7433115 C7.1145276,10.8046284 4.72104041,11.5381211 3.64516596,13.4015904 L0.644780949,18.5984096 C-0.43478621,20.4682748 0.125358506,22.8980163 1.90930378,24.1051851 L1.61184531,23.8588775 L5.38859405,27.657659 C5.38859405,27.657659 5.33313596,27.8565715 5.24132974,28.5141388 Z M8.96515026,25.5817014 L4.44848666,21.0386885 C4.35751152,20.9471826 4.25789439,20.8646956 4.1510282,20.7923809 C4.10448299,20.7608845 4.07897051,20.6502188 4.10888256,20.5984096 L7.10926758,15.4015904 C7.13578946,15.3556531 7.25382291,15.3194813 7.29832442,15.3411039 C7.41438391,15.3974954 7.53562831,15.4425229 7.6603623,15.4755567 L13.8103858,17.1042944 C14.4748569,17.2802693 15.1831389,17.1026864 15.6859877,16.6340371 C17.9676412,14.5075621 20.6934139,12.9097032 23.6717346,11.9697225 C24.3213281,11.7647058 24.8219105,11.2431641 25.0001252,10.5857121 L26.6459107,4.5142452 C26.6796696,4.38970548 26.7012969,4.26219101 26.7104902,4.13348481 C26.7144943,4.07742727 26.7975772,4 26.8574014,4 L32.8581714,4 C32.9112151,4 33.0015575,4.08413408 33.0050826,4.13348481 C33.0142759,4.26219101 33.0359032,4.38970548 33.069662,4.5142452 L34.689556,10.4901955 C34.870417,11.15741 35.3830135,11.6839188 36.0451467,11.8825781 C39.1077193,12.8014397 41.9131741,14.4129253 44.2563464,16.5804932 C44.7589939,17.0454709 45.4645792,17.2209825 46.1264927,17.0456851 L52.0552105,15.4755567 C52.1799444,15.4425229 52.3011888,15.3974954 52.4172483,15.3411039 C52.4677976,15.3165428 52.5763931,15.3497812 52.6063052,15.4015904 L55.6066902,20.5984096 C55.6332121,20.6443469 55.605521,20.7646527 55.5645446,20.7923809 C55.4576784,20.8646956 55.3580612,20.9471826 55.2670861,21.0386885 L50.9818749,25.3488987 C50.4960597,25.8375481 50.2959973,26.541866 50.4523928,27.2129361 C50.8150603,28.7690891 51,30.3717306 51,32 C51,33.6282694 50.8150603,35.2309109 50.4523928,36.7870639 C50.2959973,37.458134 50.4960597,38.1624519 50.9818749,38.6511013 L55.2670861,42.9613115 C55.3580612,43.0528174 55.4576784,43.1353044 55.5645446,43.2076191 C55.6110898,43.2391155 55.6366022,43.3497812 55.6066902,43.4015904 L52.6063052,48.5984096 C52.5797833,48.6443469 52.4617498,48.6805187 52.4172483,48.6588961 C52.3011888,48.6025046 52.1799444,48.5574771 52.0552105,48.5244433 L46.1264927,46.9543149 C45.4645792,46.7790175 44.7589939,46.9545291 44.2563464,47.4195068 C41.9131741,49.5870747 39.1077193,51.1985603 36.0451467,52.1174219 C35.3830135,52.3160812 34.870417,52.84259 34.689556,53.5098045 L33.069662,59.4857548 C33.0359032,59.6102945 33.0142759,59.737809 33.0050826,59.8665152 C33.0010785,59.9225727 32.9179955,60 32.8581714,60 L26.8574014,60 C26.8043576,60 26.7140152,59.9158659 26.7104902,59.8665152 C26.7012969,59.737809 26.6796696,59.6102945 26.6459107,59.4857548 L25.0001252,53.4142879 C24.8219105,52.7568359 24.3213281,52.2352942 23.6717346,52.0302775 C20.6934139,51.0902968 17.9676412,49.4924379 15.6859877,47.3659629 C15.1831389,46.8973136 14.4748569,46.7197307 13.8103858,46.8957056 L7.6603623,48.5244433 C7.53562831,48.5574771 7.41438391,48.6025046 7.29832442,48.6588961 C7.24777511,48.6834572 7.13917964,48.6502188 7.10926758,48.5984096 L4.10888256,43.4015904 C4.08236069,43.3556531 4.11005174,43.2353473 4.1510282,43.2076191 C4.25789439,43.1353044 4.35751152,43.0528174 4.44848666,42.9613115 L8.96515026,38.4182986 C9.44573023,37.9349151 9.6470348,37.2400551 9.49926884,36.5746364 C9.16848644,35.0850594 9,33.5541613 9,32 C9,30.4458387 9.16848644,28.9149406 9.49926884,27.4253636 C9.6470348,26.7599449 9.44573023,26.0650849 8.96515026,25.5817014 Z"/></g></g></g></svg>