<?xml version="1.0" encoding="utf-8"?>
<!-- Generator: Adobe Illustrator 19.2.0, SVG Export Plug-In . SVG Version: 6.00 Build 0)  -->
<svg version="1.1" id="Snovio" xmlns="http://www.w3.org/2000/svg" xmlns:xlink="http://www.w3.org/1999/xlink" x="0px" y="0px"
	 viewBox="0 0 88.9 33.2" style="enable-background:new 0 0 88.9 33.2;" xml:space="preserve">
<style type="text/css">
	.st0{enable-background:new    ;}
	.st1{fill:#FFFFFF;}
	.st2{opacity:0.3;enable-background:new    ;}
</style>
<title>logo-white</title>
<g class="st0">
	<path class="st1" d="M1.4,24.7v-4.2c2.6,1.2,4.8,1.8,6.4,1.8c2.1,0,3.1-0.8,3.1-2.3c0-0.8-0.5-1.4-1.4-2.1
		c-0.4-0.3-1.3-0.8-2.7-1.4c-1.4-0.6-2.4-1.2-3-1.8c-1.4-1.2-2.2-2.8-2.2-4.6s0.6-3.3,1.9-4.4S6.6,4,8.9,4c1.9,0,4,0.5,6.4,1.5
		L13.8,9c-2.1-0.8-3.6-1.3-4.7-1.3C8,7.8,7.2,8,6.8,8.4C6.3,8.8,6.1,9.2,6.1,9.7s0.1,0.9,0.3,1.2s0.5,0.6,0.9,0.9s1.5,0.8,3.2,1.7
		c1.8,0.8,3,1.7,3.8,2.7s1.1,2.1,1.1,3.5c0,1.9-0.7,3.5-2.1,4.6C11.9,25.4,10,26,7.6,26S3.2,25.6,1.4,24.7z"/>
	<path class="st1" d="M18.9,25.7V9.3h3.4l0.6,2.1h0.2c1-1.6,2.7-2.4,5-2.4c1.9,0,3.3,0.5,4.3,1.5c1,1,1.6,2.6,1.6,4.5v10.7h-4.5
		v-9.5c0-1.2-0.2-2.1-0.6-2.7c-0.4-0.6-1.1-0.9-2-0.9c-1.2,0-2.2,0.4-2.7,1.2s-0.8,2.2-0.8,4.1v7.7L18.9,25.7L18.9,25.7z"/>
</g>
<g class="st0">
	<path class="st1" d="M37.6,17.5c0-2.7,0.7-4.8,2.1-6.2C41.1,9.8,43,9,45.6,9c1.6,0,3,0.3,4.1,1c1.2,0.7,2.1,1.7,2.8,2.9
		c0.6,1.3,1,2.8,1,4.5c0,2.7-0.7,4.8-2.1,6.3S48,26,45.5,26c-1.6,0-3-0.3-4.2-1s-2.1-1.7-2.8-3C37.9,20.7,37.6,19.2,37.6,17.5z
		 M42.9,13.8c-0.5,0.8-0.8,2-0.8,3.6c0,1.6,0.3,2.9,0.8,3.7s1.4,1.2,2.6,1.2c1.2,0,2.1-0.4,2.6-1.2c0.5-0.8,0.8-2,0.8-3.7
		c0-1.6-0.3-2.8-0.8-3.6s-1.4-1.2-2.6-1.2C44.3,12.6,43.5,13,42.9,13.8z"/>
</g>
<g class="st0">
	<path class="st1" d="M54.2,9.3h4.7l3.2,9.3c0.4,1.2,0.6,2.3,0.7,3.4h0.1c0-0.9,0.3-2.1,0.7-3.4l3.1-9.3h4.7L65,25.7h-4.6L54.2,9.3z
		"/>
</g>
<g class="st2">
	<path class="st1" d="M71.6,25.7L74,14.8h2.9l-2.3,10.9H71.6z M74.4,12.2c0-0.6,0.2-1,0.5-1.3s0.7-0.4,1.3-0.4
		c0.8,0,1.3,0.4,1.3,1.2c0,0.5-0.1,0.9-0.4,1.3c-0.3,0.3-0.6,0.5-1.2,0.5C74.9,13.4,74.4,13,74.4,12.2z"/>
	<path class="st1" d="M79.2,24.8c-0.8-0.8-1.1-1.8-1.1-3.1s0.2-2.5,0.7-3.6s1.1-1.9,2-2.5c0.9-0.6,1.9-0.9,3.2-0.9
		c1.2,0,2.2,0.4,2.9,1.2c0.7,0.8,1.1,1.8,1.1,3.2s-0.2,2.6-0.7,3.6s-1.1,1.9-2,2.5s-1.9,0.9-3.1,0.9S80,25.5,79.2,24.8z M81,21.7
		c0,1.2,0.5,1.8,1.5,1.8c0.5,0,0.9-0.2,1.3-0.6s0.7-1,0.9-1.7s0.3-1.5,0.3-2.3c0-1.3-0.5-1.9-1.4-1.9c-0.5,0-0.9,0.2-1.3,0.6
		s-0.7,1-0.9,1.7C81.2,20.1,81,20.9,81,21.7z"/>
</g>
</svg>
