<svg xmlns="http://www.w3.org/2000/svg" class="mt-svg">
<symbol id="account" viewBox="0 0 24 24">
  <path fill="currentColor" d="M10,0 C4.48,0 0,4.48 0,10 C0,15.52 4.48,20 10,20 C15.52,20 20,15.52 20,10 C20,4.48 15.52,0 10,0 Z M10,3 C11.66,3 13,4.34 13,6 C13,7.66 11.66,9 10,9 C8.34,9 7,7.66 7,6 C7,4.34 8.34,3 10,3 Z M10,17.2 C7.5,17.2 5.29,15.92 4,13.98 C4.03,11.99 8,10.9 10,10.9 C11.99,10.9 15.97,11.99 16,13.98 C14.71,15.92 12.5,17.2 10,17.2 Z" transform="translate(2 2)"/>

</symbol>
<symbol id="contact" viewBox="0 0 24 24">
  <path fill="currentColor" fill-rule="evenodd" d="M14,12.9749114 L14,17 L10,13 L3.8458278,13 C2.50854969,13 2.02362033,12.8607616 1.53473144,12.5993009 C1.04584256,12.3378403 0.662159695,11.9541574 0.400699056,11.4652686 C0.139238417,10.9763797 1.58427466e-12,10.4914503 1.13686838e-13,9.1541722 L4.34174302e-12,3.8458278 C4.34157926e-12,2.50854969 0.139238417,2.02362033 0.400699056,1.53473144 C0.662159695,1.04584256 1.04584256,0.662159695 1.53473144,0.400699056 C2.02362033,0.139238417 2.50854969,2.45654003e-16 3.8458278,0 L13.1541722,6.17908881e-16 C14.4914503,-8.15486681e-16 14.9763797,0.139238417 15.4652686,0.400699056 C15.9541574,0.662159695 16.3378403,1.04584256 16.5993009,1.53473144 C16.8607616,2.02362033 17,2.50854969 17,3.8458278 L17,9.1541722 C17,10.4914503 16.8607616,10.9763797 16.5993009,11.4652686 C16.3378403,11.9541574 15.9541574,12.3378403 15.4652686,12.5993009 C15.0967994,12.7963604 14.7305795,12.9239922 14,12.9749114 Z M5,4 C4.44771525,4 4,4.44771525 4,5 C4,5.55228475 4.44771525,6 5,6 L12,6 C12.5522847,6 13,5.55228475 13,5 C13,4.44771525 12.5522847,4 12,4 L5,4 Z M5,7 C4.44771525,7 4,7.44771525 4,8 C4,8.55228475 4.44771525,9 5,9 L9,9 C9.55228475,9 10,8.55228475 10,8 C10,7.44771525 9.55228475,7 9,7 L5,7 Z" transform="translate(3 4)"/>

</symbol>
<symbol id="dashboard" viewBox="0 0 24 24">
  <g fill="currentColor" fill-rule="evenodd" transform="translate(4 6)">
    <rect width="16" height="3" rx="1.5"/>
    <rect width="16" height="3" y="5" rx="1.5"/>
    <rect width="16" height="3" y="10" rx="1.5"/>
  </g>

</symbol>
<symbol id="doublecheck">
  <g fill="#66CB87" fill-rule="nonzero">
    <path d="M11.07 5.08l2.003 1.941h-1.67L17.904.72a1.2 1.2 0 0 1 1.67 1.724l-6.502 6.302a1.2 1.2 0 0 1-1.67 0l-2.03-1.967 1.697-1.697zM1.02 5.789l3.049 2.956a1.2 1.2 0 0 0 1.67 0l6.503-6.302a1.2 1.2 0 1 0-1.67-1.724L4.068 7.021h1.67L2.69 4.066a1.2 1.2 0 1 0-1.67 1.723z"/>
  </g>

</symbol>
<symbol id="error" viewBox="0 0 24 24">
  <path fill="currentColor" d="M12.73,0 L5.27,0 L0,5.27 L0,12.73 L5.27,18 L12.73,18 L18,12.73 L18,5.27 L12.73,0 Z M9,14.3 C8.28,14.3 7.7,13.72 7.7,13 C7.7,12.28 8.28,11.7 9,11.7 C9.72,11.7 10.3,12.28 10.3,13 C10.3,13.72 9.72,14.3 9,14.3 Z M10,10 L8,10 L8,4 L10,4 L10,10 Z" transform="translate(3 3)"/>

</symbol>
<symbol id="help" viewBox="0 0 24 24">
  <path fill="currentColor" d="M10,0 C4.48,0 0,4.48 0,10 C0,15.52 4.48,20 10,20 C15.52,20 20,15.52 20,10 C20,4.48 15.52,0 10,0 Z M11,17 L9,17 L9,15 L11,15 L11,17 Z M13.07,9.25 L12.17,10.17 C11.67,10.68 11.31,11.14 11.13,11.86 C11.05,12.18 11,12.54 11,13 L9,13 L9,12.5 C9,12.04 9.08,11.6 9.22,11.19 C9.42,10.61 9.75,10.09 10.17,9.67 L11.41,8.41 C11.87,7.97 12.09,7.31 11.96,6.61 C11.83,5.89 11.27,5.28 10.57,5.08 C9.46,4.77 8.43,5.4 8.1,6.35 C7.98,6.72 7.67,7 7.28,7 L6.98,7 C6.4,7 6,6.44 6.16,5.88 C6.59,4.41 7.84,3.29 9.39,3.05 C10.91,2.81 12.36,3.6 13.26,4.85 C14.44,6.48 14.09,8.23 13.07,9.25 Z" transform="translate(2 2)"/>

</symbol>
<symbol id="pricing" viewBox="0 0 24 24">
  <path fill="currentColor" fill-rule="evenodd" d="M6,0 L12,0 C12.5522847,-1.01453063e-16 13,0.44771525 13,1 L13,15 C13,15.5522847 12.5522847,16 12,16 L6,16 C5.44771525,16 5,15.5522847 5,15 L5,1 C5,0.44771525 5.44771525,1.01453063e-16 6,0 Z M15,1 L17,1 C17.5522847,1 18,1.44771525 18,2 L18,14 C18,14.5522847 17.5522847,15 17,15 L15,15 C14.4477153,15 14,14.5522847 14,14 L14,2 C14,1.44771525 14.4477153,1 15,1 Z M1,1 L3,1 C3.55228475,1 4,1.44771525 4,2 L4,14 C4,14.5522847 3.55228475,15 3,15 L1,15 C0.44771525,15 6.76353751e-17,14.5522847 0,14 L0,2 C-6.76353751e-17,1.44771525 0.44771525,1 1,1 Z" transform="translate(3 4)"/>

</symbol>
<symbol id="settings" viewBox="0 0 24 24">
  <path fill="currentColor" d="M15.8766355,9.882 C15.9136455,9.594 15.9414029,9.306 15.9414029,9 C15.9414029,8.694 15.9136455,8.406 15.8766355,8.118 L17.8289086,6.633 C18.0047057,6.498 18.0509681,6.255 17.9399384,6.057 L16.0894426,2.943 C15.9784128,2.745 15.7285959,2.673 15.5250413,2.745 L13.2211741,3.645 C12.7400452,3.285 12.2219063,2.988 11.6575051,2.763 L11.3059109,0.378 C11.2781535,0.162 11.0838514,0 10.8525394,0 L7.15154784,0 C6.92023586,0 6.7259338,0.162 6.69817637,0.378 L6.34658216,2.763 C5.78218094,2.988 5.26404212,3.294 4.78291321,3.645 L2.47904594,2.745 C2.26623892,2.664 2.02567447,2.745 1.91464472,2.943 L0.064148921,6.057 C-0.0561333061,6.255 -0.000618432059,6.498 0.175178669,6.633 L2.12745174,8.118 C2.09044182,8.406 2.06268439,8.703 2.06268439,9 C2.06268439,9.297 2.09044182,9.594 2.12745174,9.882 L0.175178669,11.367 C-0.000618432059,11.502 -0.0468808271,11.745 0.064148921,11.943 L1.91464472,15.057 C2.02567447,15.255 2.2754914,15.327 2.47904594,15.255 L4.78291321,14.355 C5.26404212,14.715 5.78218094,15.012 6.34658216,15.237 L6.69817637,17.622 C6.7259338,17.838 6.92023586,18 7.15154784,18 L10.8525394,18 C11.0838514,18 11.2781535,17.838 11.3059109,17.622 L11.6575051,15.237 C12.2219063,15.012 12.7400452,14.706 13.2211741,14.355 L15.5250413,15.255 C15.7378483,15.336 15.9784128,15.255 16.0894426,15.057 L17.9399384,11.943 C18.0509681,11.745 18.0047057,11.502 17.8289086,11.367 L15.8766355,9.882 Z M9.00204364,12.15 C7.21631519,12.15 5.76367599,10.737 5.76367599,9 C5.76367599,7.263 7.21631519,5.85 9.00204364,5.85 C10.7877721,5.85 12.2404113,7.263 12.2404113,9 C12.2404113,10.737 10.7877721,12.15 9.00204364,12.15 Z" transform="translate(3 3)"/>

</symbol>
<symbol id="spinner" viewBox="0 0 24 24">
  <path fill="currentColor" d="M9,19 C8.44771525,19 8,18.5522847 8,18 C8,17.4477153 8.44771525,17 9,17 C13.418278,17 17,13.418278 17,9 C17,8.44771525 17.4477153,8 18,8 C18.5522847,8 19,8.44771525 19,9 C19,14.5228475 14.5228475,19 9,19 Z M9,-1 C9.55228475,-1 10,-0.55228475 10,0 C10,0.55228475 9.55228475,1 9,1 C4.581722,1 1,4.581722 1,9 C1,9.55228475 0.55228475,10 0,10 C-0.55228475,10 -1,9.55228475 -1,9 C-1,3.4771525 3.4771525,-1 9,-1 Z" transform="translate(3 3)"/>

</symbol>
<symbol id="update-arrow" viewBox="0 0 24 24">
  <path fill="currentColor" fill-rule="evenodd" d="M3,5 L0,5 L5.00038717,0 L10.0007743,5 L7,5 L7,11 L3,11 L3,5 Z" transform="translate(7 6)"/>

</symbol>
<symbol id="update" viewBox="0 0 24 24">
  <path fill="currentColor" fill-rule="evenodd" d="M10,20 C4.4771525,20 0,15.5228475 0,10 C0,4.4771525 4.4771525,0 10,0 C15.5228475,0 20,4.4771525 20,10 C20,15.5228475 15.5228475,20 10,20 Z M8,9 L8,15 L12,15 L12,9 L8,9 Z M10.0003872,4 L5,9 L15.0007743,9 L10.0003872,4 Z" transform="translate(2 2)"/>

</symbol>
<symbol id="upgrade" viewBox="0 0 24 24">
  <path fill="currentColor" d="M9.99,0 C4.47,0 0,4.48 0,10 C0,15.52 4.47,20 9.99,20 C15.52,20 20,15.52 20,10 C20,4.48 15.52,0 9.99,0 Z M13.22,15.39 L10,13.45 L6.78,15.39 C6.4,15.62 5.93,15.28 6.03,14.85 L6.88,11.19 L4.05,8.74 C3.72,8.45 3.9,7.9 4.34,7.86 L8.08,7.54 L9.54,4.09 C9.71,3.68 10.29,3.68 10.46,4.09 L11.92,7.53 L15.66,7.85 C16.1,7.89 16.28,8.44 15.94,8.73 L13.11,11.18 L13.96,14.85 C14.06,15.28 13.6,15.62 13.22,15.39 Z" transform="translate(2 2)"/>

<symbol id="clickReport" viewBox="0 0 24 24">
  <path fill="currentColor" d="M6.78231071 5.21197563C7.21752455 5.55198644 7.29470186 6.1804302 6.95469104 6.61564404 6.61468022 7.05085789 5.98623647 7.12803519 5.55102262 6.78802437L2.88435596 4.70469104C2.44914211 4.36468022 2.37196481 3.73623647 2.71197563 3.30102262 3.05198644 2.86580878 3.6804302 2.78863148 4.11564404 3.12864229L6.78231071 5.21197563zM10.4459459 3.59234234C10.6250653 4.11477386 10.3467558 4.68349323 9.82432432 4.86261261 9.3018928 5.04173199 8.73317343 4.76342251 8.55405405 4.24099099L7.55405405 1.32432432C7.37493468.801892804 7.65324416.233173432 8.17567568.0540540541 8.6981072-.125065324 9.26682657.153244156 9.44594595.675675676L10.4459459 3.59234234zM4.77472113 8.95514272C5.30575614 9.10686701 5.61324824 9.66035278 5.46152395 10.1913878 5.30979966 10.7224228 4.75631388 11.0299149 4.22527887 10.8781906L.725278872 9.87819061C.194243859 9.72646632-.113248237 9.17298055.0384760524 8.64194554.190200342 8.11091053.743686115 7.80341843 1.27472113 7.95514272L4.77472113 8.95514272zM21.6826455 17.6892504C22.1342083 18.1110874 22.0989096 18.8374365 21.6085709 19.2134996L18.7335099 21.4185148C18.3204485 21.7353103 17.7334355 21.6822305 17.383901 21.2964784L13.8466941 17.3927576 12.1123449 19.1271069C11.5296569 19.7097949 10.5318262 19.3771847 10.4152886 18.5614214L9.17671717 9.89142136C9.07628146 9.18837135 9.72021897 8.60761167 10.4092023 8.7798575L20.3177738 11.2570004C21.2184602 11.482172 21.3528436 12.7063742 20.5224518 13.1215701L18.0932717 14.3361601 21.6826455 17.6892504z" transform="translate(1 1)"/>
</symbol>

<symbol id="dashboardLastopened" viewBox="0 0 24 24">
  <g fill="currentColor" transform="translate(3 4)">
    <path d="M2.48102187,5.95795101 C2.18236151,6.13928051 2,6.46334134 2,6.81273853 L2,13 C2,13.5522847 2.44771525,14 3,14 L15,14 C15.5522847,14 16,13.5522847 16,13 L16,6.81273853 C16,6.46334134 15.8176385,6.13928051 15.5189781,5.95795101 L9.51897813,2.31509387 C9.20008013,2.12147722 8.79991987,2.12147722 8.48102187,2.31509387 L2.48102187,5.95795101 Z M1.70255466,4.67576974 L7.70255466,1.03291259 C8.49979968,0.548870978 9.50020032,0.548870978 10.2974453,1.03291259 L16.2974453,4.67576974 C17.0440962,5.12909349 17.5,5.93924556 17.5,6.81273853 L17.5,13 C17.5,14.3807119 16.3807119,15.5 15,15.5 L3,15.5 C1.61928813,15.5 0.5,14.3807119 0.5,13 L0.5,6.81273853 C0.5,5.93924556 0.955903783,5.12909349 1.70255466,4.67576974 Z"/>
    <path d="M2.3354102,6.45417961 L8.44098301,9.50696601 C8.79289237,9.68292069 9.20710763,9.68292069 9.55901699,9.50696601 L15.6645898,6.45417961 C16.1632656,6.2048417 16.75,6.56746348 16.75,7.125 L16.75,13 C16.75,13.9664983 15.9664983,14.75 15,14.75 L3,14.75 C2.03350169,14.75 1.25,13.9664983 1.25,13 L1.25,7.125 C1.25,6.56746348 1.83673438,6.2048417 2.3354102,6.45417961 Z"/>
  </g>
</symbol>

<symbol id="dashboardUnopened" viewBox="0 0 24 24">
  <path fill="currentColor" d="M1,-1.5 L13,-1.5 C14.3807119,-1.5 15.5,-0.380711875 15.5,1 L15.5,8.5 C15.5,9.88071187 14.3807119,11 13,11 L1,11 C-0.380711875,11 -1.5,9.88071187 -1.5,8.5 L-1.5,1 C-1.5,-0.380711875 -0.380711875,-1.5 1,-1.5 Z M0.917594713,4.4408921e-16 C0.821949767,4.4408921e-16 0.732037053,0.0456059936 0.675535867,0.122778345 C0.57765905,0.256463754 0.606687649,0.444182029 0.740373058,0.542058846 L6.40926115,4.69249477 C6.76099065,4.95001101 7.23900935,4.95001101 7.59073885,4.69249477 L13.2596269,0.542058846 C13.3367993,0.48555766 13.3824053,0.395644947 13.3824053,0.3 C13.3824053,0.134314575 13.2480907,2.22044605e-16 13.0824053,1.33226763e-15 L0.917594713,0 Z" transform="translate(5 7)"/>
</symbol>

<symbol id="alert" viewBox="0 0 29 26">
  <path fill="currentColor" d="M2.93968163,24.9811905 L25.0603184,24.9811905 C27.3223224,24.9811905 28.7324028,22.5282381 27.6014008,20.5746892 L16.5410824,1.4651617 C15.4100804,-0.488387232 12.5899196,-0.488387232 11.4589176,1.4651617 L0.398599188,20.5746892 C-0.732402823,22.5282381 0.677677607,24.9811905 2.93968163,24.9811905 Z M14,14.6993541 C13.1921414,14.6993541 12.5311662,14.0383789 12.5311662,13.2305203 L12.5311662,10.2928527 C12.5311662,9.48499414 13.1921414,8.82401894 14,8.82401894 C14.8078586,8.82401894 15.4688338,9.48499414 15.4688338,10.2928527 L15.4688338,13.2305203 C15.4688338,14.0383789 14.8078586,14.6993541 14,14.6993541 Z M15.4688338,20.5746892 L12.5311662,20.5746892 L12.5311662,17.6370216 L15.4688338,17.6370216 L15.4688338,20.5746892 Z" transform="translate(.171 .715)"/>
</symbol>

<symbol id="google" viewBox="0 0 18 18">
  <g fill="none" fill-rule="evenodd">
    <path fill="#EA4335" d="M9,3.48 C10.69,3.48 11.83,4.21 12.48,4.82 L15.02,2.34 C13.46,0.89 11.43,0 9,0 C5.48,0 2.44,2.02 0.96,4.96 L3.87,7.22 C4.6,5.05 6.62,3.48 9,3.48 L9,3.48 Z"/>
    <path fill="#4285F4" d="M17.64,9.2 C17.64,8.46 17.58,7.92 17.45,7.36 L9,7.36 L9,10.7 L13.96,10.7 C13.86,11.53 13.32,12.78 12.12,13.62 L14.96,15.82 C16.66,14.25 17.64,11.94 17.64,9.2 L17.64,9.2 Z"/>
    <path fill="#FBBC05" d="M3.88,10.78 C3.69,10.22 3.58,9.62 3.58,9 C3.58,8.38 3.69,7.78 3.87,7.22 L0.96,4.96 C0.35,6.18 0,7.55 0,9 C0,10.45 0.35,11.82 0.96,13.04 L3.88,10.78 L3.88,10.78 Z"/>
    <path fill="#34A853" d="M9,18 C11.43,18 13.47,17.2 14.96,15.82 L12.12,13.62 C11.36,14.15 10.34,14.52 9,14.52 C6.62,14.52 4.6,12.95 3.88,10.78 L0.97,13.04 C2.45,15.98 5.48,18 9,18 L9,18 Z"/>
    <polygon points="0 0 18 0 18 18 0 18"/>
  </g>
</symbol>

</symbol></svg>
